<svg width="116" height="24" viewBox="0 0 116 24" fill="none" xmlns="http://www.w3.org/2000/svg">
<path d="M115.676 3.52066V20.1818H112.633L105.385 9.69538H105.263V20.1818H101.74V3.52066H104.832L112.023 13.999H112.17V3.52066H115.676Z" fill="white"/>
<path d="M96.0934 3.52066V20.1818H92.5708V3.52066H96.0934Z" fill="white"/>
<path d="M75.556 20.1818H71.7812L77.5329 3.52066H82.0724L87.816 20.1818H84.0412L79.8678 7.328H79.7376L75.556 20.1818ZM75.3201 13.6329H84.2364V16.3826H75.3201V13.6329Z" fill="white"/>
<path d="M54.9014 20.1818V3.52066H61.4747C62.733 3.52066 63.8068 3.74574 64.6963 4.19589C65.5912 4.64062 66.2718 5.27247 66.7383 6.09143C67.2101 6.90496 67.446 7.86222 67.446 8.9632C67.446 10.0696 67.2074 11.0214 66.7301 11.8187C66.2529 12.6105 65.5614 13.218 64.6556 13.641C63.7553 14.064 62.6652 14.2756 61.3852 14.2756H56.984V11.4445H60.8158C61.4883 11.4445 62.0469 11.3523 62.4916 11.1679C62.9364 10.9835 63.2672 10.7069 63.4841 10.3381C63.7065 9.96927 63.8177 9.51098 63.8177 8.9632C63.8177 8.40999 63.7065 7.94357 63.4841 7.56392C63.2672 7.18427 62.9336 6.89682 62.4835 6.70158C62.0388 6.5009 61.4774 6.40057 60.7995 6.40057H58.424V20.1818H54.9014ZM63.899 12.5997L68.0399 20.1818H64.1512L60.0998 12.5997H63.899Z" fill="white"/>
<path d="M36.3574 20.1818V3.52066H39.88V10.8669H40.0997L46.0954 3.52066H50.3177L44.1348 10.9808L50.3909 20.1818H46.1768L41.6128 13.3319L39.88 15.4471V20.1818H36.3574Z" fill="white"/>
<path d="M0 1.16364C0 0.520978 0.520978 0 1.16364 0H6.83636C7.47902 0 8 0.520978 8 1.16364V6.10909C8 10.1334 5.02853 13.4637 1.15997 14.0256C0.523989 14.118 0 13.5881 0 12.9455V1.16364Z" fill="white"/>
<path d="M8.05058 14.5931C7.94114 15.21 7.43616 15.7091 6.80968 15.7091H1.16364C0.520979 15.7091 0 16.2301 0 16.8727V22.8364C0 23.479 0.520978 24 1.16364 24H6.83636C7.47902 24 8 23.479 8 22.8364V17.1636C8 16.521 8.52098 16 9.16364 16L14.8364 16C15.479 16 16 16.521 16 17.1636V22.8364C16 23.479 16.521 24 17.1636 24H23.8545C23.9349 24 24 23.9349 24 23.8545C24 19.8517 21.0601 16.5354 17.2217 15.9472C16.5905 15.8505 16.0727 15.3402 16.0727 14.7015V9.29845C16.0727 8.65984 16.5905 8.14949 17.2217 8.05276C21.0601 7.46458 24 4.14834 24 0.145455C24 0.0651222 23.9349 0 23.8545 0H17.1636C16.521 0 16 0.520978 16 1.16364V7.92727C16 7.96744 15.9674 8 15.9273 8C11.989 8 8.71539 10.8458 8.05058 14.5931Z" fill="white"/>
</svg>
