<svg width="2001" height="868" viewBox="0 0 2001 868" fill="none" xmlns="http://www.w3.org/2000/svg">
<mask id="mask0_0_1" style="mask-type:alpha" maskUnits="userSpaceOnUse" x="40" y="40" width="1921" height="788">
<rect x="40" y="40" width="1921" height="788" fill="#04030C"/>
</mask>
<g mask="url(#mask0_0_1)">
<g filter="url(#filter0_f_0_1)">
<ellipse cx="1453.02" cy="149.906" rx="30.3442" ry="535.208" transform="rotate(45 1453.02 149.906)" fill="#915BF0"/>
</g>
<g style="mix-blend-mode:plus-lighter" filter="url(#filter1_f_0_1)">
<ellipse cx="1336.56" cy="318.446" rx="5.37524" ry="730.806" transform="rotate(45 1336.56 318.446)" fill="#D0B9F9"/>
</g>
<g style="mix-blend-mode:plus-lighter" filter="url(#filter2_f_0_1)">
<ellipse cx="1379.19" cy="1150.07" rx="5.37524" ry="730.806" transform="rotate(45 1379.19 1150.07)" fill="#D0B9F9"/>
</g>
<g filter="url(#filter3_f_0_1)">
<ellipse cx="1599.53" cy="949.421" rx="30.3442" ry="535.208" transform="rotate(45 1599.53 949.421)" fill="#915BF0"/>
</g>
<g filter="url(#filter4_f_0_1)">
<ellipse cx="1563.16" cy="187.052" rx="9.58647" ry="278.257" transform="rotate(45 1563.16 187.052)" fill="#1FC5D6"/>
</g>
</g>
<rect x="40" y="4" width="73.0781" height="30" rx="3" fill="#444444"/>
<rect x="40.5" y="4.5" width="72.0781" height="29" rx="2.5" stroke="white" stroke-opacity="0.0980392"/>
<path d="M46.9688 14H48.125L50.8438 20.6406H50.9375L53.6563 14H54.8125V22H53.9062V15.9219H53.8281L51.3281 22H50.4531L47.9531 15.9219H47.875V22H46.9688V14ZM58.3955 22.1406C58.0153 22.1406 57.6702 22.069 57.3604 21.9258C57.0505 21.7799 56.8044 21.5703 56.6221 21.2969C56.4398 21.0208 56.3486 20.6875 56.3486 20.2969C56.3486 19.9531 56.4163 19.6745 56.5518 19.4609C56.6872 19.2448 56.8682 19.0755 57.0947 18.9531C57.3213 18.8307 57.5713 18.7396 57.8447 18.6797C58.1208 18.6172 58.3981 18.5677 58.6768 18.5313C59.0413 18.4844 59.3369 18.4492 59.5635 18.4258C59.7926 18.3997 59.9593 18.3568 60.0635 18.2969C60.1702 18.237 60.2236 18.1328 60.2236 17.9844V17.9531C60.2236 17.5677 60.1182 17.2682 59.9072 17.0547C59.6989 16.8411 59.3825 16.7344 58.958 16.7344C58.5179 16.7344 58.1729 16.8307 57.9229 17.0234C57.6729 17.2161 57.4971 17.4219 57.3955 17.6406L56.5205 17.3281C56.6768 16.9635 56.8851 16.6797 57.1455 16.4766C57.4085 16.2708 57.695 16.1276 58.0049 16.0469C58.3174 15.9635 58.6247 15.9219 58.9268 15.9219C59.1195 15.9219 59.3408 15.9453 59.5908 15.9922C59.8434 16.0365 60.0869 16.1289 60.3213 16.2695C60.5583 16.4102 60.7549 16.6224 60.9111 16.9062C61.0674 17.1901 61.1455 17.5703 61.1455 18.0469V22H60.2236V21.1875H60.1768C60.1143 21.3177 60.0101 21.457 59.8643 21.6055C59.7184 21.7539 59.5244 21.8802 59.2822 21.9844C59.04 22.0885 58.7445 22.1406 58.3955 22.1406ZM58.5361 21.3125C58.9007 21.3125 59.208 21.2409 59.458 21.0977C59.7106 20.9544 59.9007 20.7695 60.0283 20.543C60.1585 20.3164 60.2236 20.0781 60.2236 19.8281V18.9844C60.1846 19.0312 60.0986 19.0742 59.9658 19.1133C59.8356 19.1497 59.6846 19.1823 59.5127 19.2109C59.3434 19.237 59.1781 19.2604 59.0166 19.2812C58.8577 19.2995 58.7288 19.3151 58.6299 19.3281C58.3903 19.3594 58.1663 19.4102 57.958 19.4805C57.7523 19.5482 57.5856 19.651 57.458 19.7891C57.333 19.9245 57.2705 20.1094 57.2705 20.3437C57.2705 20.6641 57.389 20.9062 57.626 21.0703C57.8656 21.2318 58.1689 21.3125 58.5361 21.3125ZM67.0781 17.3437L66.25 17.5781C66.1979 17.4401 66.1211 17.306 66.0195 17.1758C65.9206 17.043 65.7852 16.9336 65.6133 16.8477C65.4414 16.7617 65.2214 16.7187 64.9531 16.7187C64.5859 16.7187 64.2799 16.8034 64.0352 16.9727C63.793 17.1393 63.6719 17.3516 63.6719 17.6094C63.6719 17.8385 63.7552 18.0195 63.9219 18.1523C64.0885 18.2852 64.349 18.3958 64.7031 18.4844L65.5938 18.7031C66.1302 18.8333 66.5299 19.0326 66.793 19.3008C67.056 19.5664 67.1875 19.9089 67.1875 20.3281C67.1875 20.6719 67.0885 20.9792 66.8906 21.25C66.6953 21.5208 66.4219 21.7344 66.0703 21.8906C65.7188 22.0469 65.3099 22.125 64.8438 22.125C64.2318 22.125 63.7253 21.9922 63.3242 21.7266C62.9232 21.4609 62.6693 21.0729 62.5625 20.5625L63.4375 20.3437C63.5208 20.6667 63.6784 20.9089 63.9102 21.0703C64.1445 21.2318 64.4505 21.3125 64.8281 21.3125C65.2578 21.3125 65.599 21.2214 65.8516 21.0391C66.1068 20.8542 66.2344 20.6328 66.2344 20.375C66.2344 20.1667 66.1615 19.9922 66.0156 19.8516C65.8698 19.7083 65.6458 19.6016 65.3438 19.5312L64.3438 19.2969C63.7943 19.1667 63.3906 18.9648 63.1328 18.6914C62.8776 18.4154 62.75 18.0703 62.75 17.6562C62.75 17.3177 62.8451 17.0182 63.0352 16.7578C63.2279 16.4974 63.4896 16.293 63.8203 16.1445C64.1536 15.9961 64.5313 15.9219 64.9531 15.9219C65.5469 15.9219 66.013 16.0521 66.3516 16.3125C66.6927 16.5729 66.9349 16.9167 67.0781 17.3437ZM69.4346 19.8125L69.4189 18.6719H69.6064L72.2314 16H73.3721L70.5752 18.8281H70.4971L69.4346 19.8125ZM68.5752 22V14H69.4971V22H68.5752ZM72.3877 22L70.0439 19.0312L70.7002 18.3906L73.5596 22H72.3877ZM80.0742 24.375C79.6289 24.375 79.2461 24.3177 78.9258 24.2031C78.6055 24.0911 78.3385 23.9427 78.125 23.7578C77.9141 23.5755 77.7461 23.3802 77.6211 23.1719L78.3555 22.6563C78.4388 22.7656 78.5443 22.8906 78.6719 23.0312C78.7995 23.1745 78.974 23.2982 79.1953 23.4023C79.4193 23.5091 79.7122 23.5625 80.0742 23.5625C80.5586 23.5625 80.9583 23.4453 81.2734 23.2109C81.5885 22.9766 81.7461 22.6094 81.7461 22.1094V20.8906H81.668C81.6003 21 81.5039 21.1354 81.3789 21.2969C81.2565 21.4557 81.0794 21.5977 80.8477 21.7227C80.6185 21.8451 80.3086 21.9062 79.918 21.9062C79.4336 21.9062 78.9987 21.7917 78.6133 21.5625C78.2305 21.3333 77.9271 21 77.7031 20.5625C77.4818 20.125 77.3711 19.5937 77.3711 18.9687C77.3711 18.3542 77.4792 17.819 77.6953 17.3633C77.9115 16.9049 78.2122 16.5508 78.5977 16.3008C78.9831 16.0482 79.4284 15.9219 79.9336 15.9219C80.3242 15.9219 80.6341 15.987 80.8633 16.1172C81.0951 16.2448 81.2721 16.3906 81.3945 16.5547C81.5195 16.7161 81.6159 16.849 81.6836 16.9531H81.7773V16H82.668V22.1719C82.668 22.6875 82.5508 23.1068 82.3164 23.4297C82.0846 23.7552 81.7721 23.9935 81.3789 24.1445C80.9883 24.2982 80.5534 24.375 80.0742 24.375ZM80.043 21.0781C80.4128 21.0781 80.7253 20.9935 80.9805 20.8242C81.2357 20.6549 81.4297 20.4115 81.5625 20.0938C81.6953 19.776 81.7617 19.3958 81.7617 18.9531C81.7617 18.5208 81.6966 18.1393 81.5664 17.8086C81.4362 17.4779 81.2435 17.2187 80.9883 17.0312C80.7331 16.8437 80.418 16.75 80.043 16.75C79.6523 16.75 79.3268 16.849 79.0664 17.0469C78.8086 17.2448 78.6146 17.5104 78.4844 17.8438C78.3568 18.1771 78.293 18.5469 78.293 18.9531C78.293 19.3698 78.3581 19.7383 78.4883 20.0586C78.6211 20.3763 78.8164 20.6263 79.0742 20.8086C79.3346 20.9883 79.6576 21.0781 80.043 21.0781ZM84.3555 22V16H85.2461V16.9062H85.3086C85.418 16.6094 85.6159 16.3685 85.9023 16.1836C86.1888 15.9987 86.5117 15.9062 86.8711 15.9062C86.9388 15.9062 87.0234 15.9076 87.125 15.9102C87.2266 15.9128 87.3034 15.9167 87.3555 15.9219V16.8594C87.3242 16.8516 87.2526 16.8398 87.1406 16.8242C87.0313 16.806 86.9154 16.7969 86.793 16.7969C86.5013 16.7969 86.2409 16.8581 86.0117 16.9805C85.7852 17.1003 85.6055 17.2669 85.4727 17.4805C85.3424 17.6914 85.2773 17.9323 85.2773 18.2031V22H84.3555ZM90.7031 22.125C90.1615 22.125 89.6862 21.9961 89.2773 21.7383C88.8711 21.4805 88.5534 21.1198 88.3242 20.6562C88.0977 20.1927 87.9844 19.651 87.9844 19.0312C87.9844 18.4062 88.0977 17.8607 88.3242 17.3945C88.5534 16.9284 88.8711 16.5664 89.2773 16.3086C89.6862 16.0508 90.1615 15.9219 90.7031 15.9219C91.2448 15.9219 91.7188 16.0508 92.125 16.3086C92.5339 16.5664 92.8516 16.9284 93.0781 17.3945C93.3073 17.8607 93.4219 18.4062 93.4219 19.0312C93.4219 19.651 93.3073 20.1927 93.0781 20.6562C92.8516 21.1198 92.5339 21.4805 92.125 21.7383C91.7188 21.9961 91.2448 22.125 90.7031 22.125ZM90.7031 21.2969C91.1146 21.2969 91.4531 21.1914 91.7188 20.9805C91.9844 20.7695 92.181 20.4922 92.3086 20.1484C92.4362 19.8047 92.5 19.4323 92.5 19.0312C92.5 18.6302 92.4362 18.2565 92.3086 17.9102C92.181 17.5638 91.9844 17.2839 91.7188 17.0703C91.4531 16.8568 91.1146 16.75 90.7031 16.75C90.2917 16.75 89.9531 16.8568 89.6875 17.0703C89.4219 17.2839 89.2253 17.5638 89.0977 17.9102C88.9701 18.2565 88.9063 18.6302 88.9063 19.0312C88.9063 19.4323 88.9701 19.8047 89.0977 20.1484C89.2253 20.4922 89.4219 20.7695 89.6875 20.9805C89.9531 21.1914 90.2917 21.2969 90.7031 21.2969ZM98.6104 19.5469V16H99.5322V22H98.6104V20.9844H98.5479C98.4072 21.2891 98.1885 21.5482 97.8916 21.7617C97.5947 21.9727 97.2197 22.0781 96.7666 22.0781C96.3916 22.0781 96.0583 21.9961 95.7666 21.832C95.4749 21.6654 95.2458 21.4154 95.0791 21.082C94.9124 20.7461 94.8291 20.3229 94.8291 19.8125V16H95.751V19.75C95.751 20.1875 95.8734 20.5365 96.1182 20.7969C96.3656 21.0573 96.6807 21.1875 97.0635 21.1875C97.2926 21.1875 97.5257 21.1289 97.7627 21.0117C98.0023 20.8945 98.2028 20.7148 98.3643 20.4727C98.5283 20.2305 98.6104 19.9219 98.6104 19.5469ZM101.221 24.25V16H102.111V16.9531H102.221C102.288 16.849 102.382 16.7161 102.502 16.5547C102.624 16.3906 102.799 16.2448 103.025 16.1172C103.255 15.987 103.564 15.9219 103.955 15.9219C104.46 15.9219 104.906 16.0482 105.291 16.3008C105.676 16.5534 105.977 16.9115 106.193 17.375C106.41 17.8385 106.518 18.3854 106.518 19.0156C106.518 19.651 106.41 20.2018 106.193 20.668C105.977 21.1315 105.678 21.4909 105.295 21.7461C104.912 21.9987 104.471 22.125 103.971 22.125C103.585 22.125 103.277 22.0612 103.045 21.9336C102.813 21.8034 102.635 21.6562 102.51 21.4922C102.385 21.3255 102.288 21.1875 102.221 21.0781H102.143V24.25H101.221ZM102.127 19C102.127 19.4531 102.193 19.8529 102.326 20.1992C102.459 20.543 102.653 20.8125 102.908 21.0078C103.163 21.2005 103.476 21.2969 103.846 21.2969C104.231 21.2969 104.553 21.1953 104.811 20.9922C105.071 20.7865 105.266 20.5104 105.396 20.1641C105.529 19.8151 105.596 19.4271 105.596 19C105.596 18.5781 105.531 18.1979 105.4 17.8594C105.273 17.5182 105.079 17.2487 104.818 17.0508C104.561 16.8503 104.236 16.75 103.846 16.75C103.471 16.75 103.156 16.8451 102.9 17.0352C102.645 17.2227 102.452 17.4857 102.322 17.8242C102.192 18.1602 102.127 18.5521 102.127 19Z" fill="white"/>
<defs>
<filter id="filter0_f_0_1" x="813.051" y="-490.062" width="1279.94" height="1279.94" filterUnits="userSpaceOnUse" color-interpolation-filters="sRGB">
<feFlood flood-opacity="0" result="BackgroundImageFix"/>
<feBlend mode="normal" in="SourceGraphic" in2="BackgroundImageFix" result="shape"/>
<feGaussianBlur stdDeviation="130.45" result="effect1_foregroundBlur_0_1"/>
</filter>
<filter id="filter1_f_0_1" x="745.187" y="-272.927" width="1182.74" height="1182.74" filterUnits="userSpaceOnUse" color-interpolation-filters="sRGB">
<feFlood flood-opacity="0" result="BackgroundImageFix"/>
<feBlend mode="normal" in="SourceGraphic" in2="BackgroundImageFix" result="shape"/>
<feGaussianBlur stdDeviation="37.3" result="effect1_foregroundBlur_0_1"/>
</filter>
<filter id="filter2_f_0_1" x="787.816" y="558.702" width="1182.74" height="1182.74" filterUnits="userSpaceOnUse" color-interpolation-filters="sRGB">
<feFlood flood-opacity="0" result="BackgroundImageFix"/>
<feBlend mode="normal" in="SourceGraphic" in2="BackgroundImageFix" result="shape"/>
<feGaussianBlur stdDeviation="37.3" result="effect1_foregroundBlur_0_1"/>
</filter>
<filter id="filter3_f_0_1" x="959.567" y="309.454" width="1279.94" height="1279.94" filterUnits="userSpaceOnUse" color-interpolation-filters="sRGB">
<feFlood flood-opacity="0" result="BackgroundImageFix"/>
<feBlend mode="normal" in="SourceGraphic" in2="BackgroundImageFix" result="shape"/>
<feGaussianBlur stdDeviation="130.45" result="effect1_foregroundBlur_0_1"/>
</filter>
<filter id="filter4_f_0_1" x="1219.29" y="-156.825" width="687.752" height="687.753" filterUnits="userSpaceOnUse" color-interpolation-filters="sRGB">
<feFlood flood-opacity="0" result="BackgroundImageFix"/>
<feBlend mode="normal" in="SourceGraphic" in2="BackgroundImageFix" result="shape"/>
<feGaussianBlur stdDeviation="73.5" result="effect1_foregroundBlur_0_1"/>
</filter>
</defs>
</svg>
