<svg width="487" height="314" viewBox="0 0 487 314" fill="none" xmlns="http://www.w3.org/2000/svg">
<g filter="url(#filter0_b_0_1)">
<rect y="3" width="475" height="311" rx="8" fill="url(#paint0_linear_0_1)" fill-opacity="0.3"/>
<rect x="0.5" y="3.5" width="474" height="310" rx="7.5" stroke="url(#paint1_linear_0_1)" stroke-opacity="0.08"/>
<rect x="0.5" y="3.5" width="474" height="310" rx="7.5" stroke="url(#paint2_linear_0_1)" stroke-opacity="0.3"/>
<path d="M82.5313 43H79.6953V35H82.5547C83.3594 35 84.0521 35.1602 84.6328 35.4805C85.2135 35.7982 85.6602 36.2552 85.9727 36.8516C86.2878 37.4479 86.4453 38.1615 86.4453 38.9922C86.4453 39.8255 86.2878 40.5417 85.9727 41.1406C85.6602 41.7396 85.2109 42.1992 84.625 42.5195C84.0417 42.8398 83.3438 43 82.5313 43ZM81.3867 41.5508H82.4609C82.9609 41.5508 83.3815 41.4622 83.7227 41.2852C84.0664 41.1055 84.3242 40.8281 84.4961 40.4531C84.6706 40.0755 84.7578 39.5885 84.7578 38.9922C84.7578 38.401 84.6706 37.918 84.4961 37.543C84.3242 37.168 84.0677 36.8919 83.7266 36.7148C83.3854 36.5378 82.9648 36.4492 82.4648 36.4492H81.3867V41.5508ZM90.4014 43.1172C89.7842 43.1172 89.2529 42.9922 88.8076 42.7422C88.3649 42.4896 88.0238 42.1328 87.7842 41.6719C87.5446 41.2083 87.4248 40.6602 87.4248 40.0273C87.4248 39.4102 87.5446 38.8685 87.7842 38.4023C88.0238 37.9362 88.361 37.5729 88.7959 37.3125C89.2334 37.0521 89.7464 36.9219 90.335 36.9219C90.7308 36.9219 91.0993 36.9857 91.4404 37.1133C91.7842 37.2383 92.0837 37.4271 92.3389 37.6797C92.5967 37.9323 92.7972 38.25 92.9404 38.6328C93.0837 39.013 93.1553 39.4583 93.1553 39.9687V40.4258H88.0889V39.3945H91.5889C91.5889 39.1549 91.5368 38.9427 91.4326 38.7578C91.3285 38.5729 91.1839 38.4284 90.999 38.3242C90.8167 38.2174 90.6045 38.1641 90.3623 38.1641C90.1097 38.1641 89.8857 38.2227 89.6904 38.3398C89.4977 38.4544 89.3467 38.6094 89.2373 38.8047C89.1279 38.9974 89.0719 39.2122 89.0693 39.4492V40.4297C89.0693 40.7266 89.124 40.9831 89.2334 41.1992C89.3454 41.4154 89.5029 41.582 89.7061 41.6992C89.9092 41.8164 90.1501 41.875 90.4287 41.875C90.6136 41.875 90.7829 41.849 90.9365 41.7969C91.0902 41.7448 91.2217 41.6667 91.3311 41.5625C91.4404 41.4583 91.5238 41.3307 91.5811 41.1797L93.1201 41.2812C93.042 41.651 92.8818 41.974 92.6396 42.25C92.4001 42.5234 92.0902 42.737 91.71 42.8906C91.3324 43.0417 90.8962 43.1172 90.4014 43.1172ZM96.9443 45.375C96.4053 45.375 95.943 45.3008 95.5576 45.1523C95.1748 45.0065 94.8701 44.8073 94.6436 44.5547C94.417 44.3021 94.2699 44.0182 94.2021 43.7031L95.7412 43.4961C95.7881 43.6159 95.8623 43.7279 95.9639 43.832C96.0654 43.9362 96.1995 44.0195 96.3662 44.082C96.5355 44.1471 96.7412 44.1797 96.9834 44.1797C97.3454 44.1797 97.6436 44.0911 97.8779 43.9141C98.1149 43.7396 98.2334 43.4466 98.2334 43.0352V41.9375H98.1631C98.0902 42.1042 97.9808 42.2617 97.835 42.4102C97.6891 42.5586 97.5016 42.6797 97.2725 42.7734C97.0433 42.8672 96.7699 42.9141 96.4521 42.9141C96.0016 42.9141 95.5915 42.8099 95.2217 42.6016C94.8545 42.3906 94.5615 42.069 94.3428 41.6367C94.1266 41.2018 94.0186 40.6523 94.0186 39.9883C94.0186 39.3086 94.1292 38.7409 94.3506 38.2852C94.5719 37.8294 94.8662 37.4883 95.2334 37.2617C95.6032 37.0352 96.0081 36.9219 96.4482 36.9219C96.7842 36.9219 97.0654 36.9792 97.292 37.0938C97.5186 37.2057 97.7008 37.3464 97.8389 37.5156C97.9795 37.6823 98.0876 37.8464 98.1631 38.0078H98.2256V37H99.8779V43.0586C99.8779 43.569 99.7529 43.9961 99.5029 44.3398C99.2529 44.6836 98.9066 44.9414 98.4639 45.1133C98.0238 45.2878 97.5173 45.375 96.9443 45.375ZM96.9795 41.6641C97.2477 41.6641 97.4743 41.5977 97.6592 41.4648C97.8467 41.3294 97.9899 41.1367 98.0889 40.8867C98.1904 40.6341 98.2412 40.332 98.2412 39.9805C98.2412 39.6289 98.1917 39.3242 98.0928 39.0664C97.9938 38.806 97.8506 38.6042 97.6631 38.4609C97.4756 38.3177 97.2477 38.2461 96.9795 38.2461C96.7061 38.2461 96.4756 38.3203 96.2881 38.4687C96.1006 38.6146 95.9587 38.8177 95.8623 39.0781C95.766 39.3385 95.7178 39.6393 95.7178 39.9805C95.7178 40.3268 95.766 40.6263 95.8623 40.8789C95.9613 41.1289 96.1032 41.3229 96.2881 41.4609C96.4756 41.5964 96.7061 41.6641 96.9795 41.6641ZM103.937 43.1172C103.319 43.1172 102.788 42.9922 102.343 42.7422C101.9 42.4896 101.559 42.1328 101.319 41.6719C101.08 41.2083 100.96 40.6602 100.96 40.0273C100.96 39.4102 101.08 38.8685 101.319 38.4023C101.559 37.9362 101.896 37.5729 102.331 37.3125C102.769 37.0521 103.282 36.9219 103.87 36.9219C104.266 36.9219 104.634 36.9857 104.976 37.1133C105.319 37.2383 105.619 37.4271 105.874 37.6797C106.132 37.9323 106.332 38.25 106.476 38.6328C106.619 39.013 106.69 39.4583 106.69 39.9687V40.4258H101.624V39.3945H105.124C105.124 39.1549 105.072 38.9427 104.968 38.7578C104.864 38.5729 104.719 38.4284 104.534 38.3242C104.352 38.2174 104.14 38.1641 103.897 38.1641C103.645 38.1641 103.421 38.2227 103.226 38.3398C103.033 38.4544 102.882 38.6094 102.772 38.8047C102.663 38.9974 102.607 39.2122 102.604 39.4492V40.4297C102.604 40.7266 102.659 40.9831 102.769 41.1992C102.881 41.4154 103.038 41.582 103.241 41.6992C103.444 41.8164 103.685 41.875 103.964 41.875C104.149 41.875 104.318 41.849 104.472 41.7969C104.625 41.7448 104.757 41.6667 104.866 41.5625C104.976 41.4583 105.059 41.3307 105.116 41.1797L106.655 41.2812C106.577 41.651 106.417 41.974 106.175 42.25C105.935 42.5234 105.625 42.737 105.245 42.8906C104.868 43.0417 104.431 43.1172 103.937 43.1172ZM109.44 39.5313V43H107.776V37H109.362V38.0586H109.433C109.565 37.7096 109.788 37.4336 110.101 37.2305C110.413 37.0247 110.792 36.9219 111.237 36.9219C111.654 36.9219 112.017 37.013 112.327 37.1953C112.637 37.3776 112.878 37.638 113.05 37.9766C113.222 38.3125 113.308 38.7135 113.308 39.1797V43H111.644V39.4766C111.646 39.1094 111.552 38.8229 111.362 38.6172C111.172 38.4089 110.91 38.3047 110.577 38.3047C110.353 38.3047 110.155 38.3529 109.983 38.4492C109.814 38.5456 109.681 38.6862 109.585 38.8711C109.491 39.0534 109.443 39.2734 109.44 39.5313ZM120.356 37V38.25H116.743V37H120.356ZM117.563 35.5625H119.228V41.1562C119.228 41.3099 119.251 41.4297 119.298 41.5156C119.345 41.599 119.41 41.6576 119.493 41.6914C119.579 41.7253 119.678 41.7422 119.79 41.7422C119.868 41.7422 119.946 41.7357 120.024 41.7227C120.103 41.707 120.162 41.6953 120.204 41.6875L120.466 42.9258C120.382 42.9518 120.265 42.9818 120.114 43.0156C119.963 43.0521 119.78 43.0742 119.563 43.082C119.162 43.0977 118.811 43.0443 118.509 42.9219C118.209 42.7995 117.976 42.6094 117.81 42.3516C117.643 42.0937 117.561 41.7682 117.563 41.375V35.5625ZM121.44 43V37H123.054V38.0469H123.116C123.226 37.6745 123.409 37.3932 123.667 37.2031C123.925 37.0104 124.222 36.9141 124.558 36.9141C124.641 36.9141 124.731 36.9193 124.827 36.9297C124.924 36.9401 125.008 36.9544 125.081 36.9727V38.4492C125.003 38.4258 124.895 38.4049 124.757 38.3867C124.619 38.3685 124.493 38.3594 124.378 38.3594C124.133 38.3594 123.914 38.4128 123.722 38.5195C123.532 38.6237 123.381 38.7695 123.269 38.957C123.159 39.1445 123.104 39.3607 123.104 39.6055V43H121.44ZM127.48 43.1133C127.098 43.1133 126.757 43.0469 126.457 42.9141C126.158 42.7786 125.921 42.5794 125.746 42.3164C125.574 42.0508 125.488 41.7201 125.488 41.3242C125.488 40.9909 125.549 40.7109 125.672 40.4844C125.794 40.2578 125.961 40.0755 126.172 39.9375C126.383 39.7995 126.622 39.6953 126.891 39.625C127.161 39.5547 127.445 39.5052 127.742 39.4766C128.091 39.4401 128.372 39.4062 128.586 39.375C128.799 39.3411 128.954 39.2917 129.051 39.2266C129.147 39.1615 129.195 39.0651 129.195 38.9375V38.9141C129.195 38.6667 129.117 38.4753 128.961 38.3398C128.807 38.2044 128.589 38.1367 128.305 38.1367C128.005 38.1367 127.767 38.2031 127.59 38.3359C127.413 38.4661 127.296 38.6302 127.238 38.8281L125.699 38.7031C125.777 38.3385 125.931 38.0234 126.16 37.7578C126.389 37.4896 126.685 37.2839 127.047 37.1406C127.411 36.9948 127.833 36.9219 128.313 36.9219C128.646 36.9219 128.965 36.9609 129.27 37.0391C129.577 37.1172 129.849 37.2383 130.086 37.4023C130.326 37.5664 130.514 37.7773 130.652 38.0352C130.79 38.2904 130.859 38.5964 130.859 38.9531V43H129.281V42.168H129.234C129.138 42.3555 129.009 42.5208 128.848 42.6641C128.686 42.8047 128.492 42.9154 128.266 42.9961C128.039 43.0742 127.777 43.1133 127.48 43.1133ZM127.957 41.9648C128.202 41.9648 128.418 41.9167 128.605 41.8203C128.793 41.7214 128.94 41.5885 129.047 41.4219C129.154 41.2552 129.207 41.0664 129.207 40.8555V40.2188C129.155 40.2526 129.083 40.2839 128.992 40.3125C128.904 40.3385 128.803 40.3633 128.691 40.3867C128.579 40.4076 128.467 40.4271 128.355 40.4453C128.243 40.4609 128.142 40.4753 128.051 40.4883C127.855 40.5169 127.685 40.5625 127.539 40.625C127.393 40.6875 127.28 40.7721 127.199 40.8789C127.118 40.9831 127.078 41.1133 127.078 41.2695C127.078 41.4961 127.16 41.6693 127.324 41.7891C127.491 41.9062 127.702 41.9648 127.957 41.9648ZM134.361 43.0977C133.906 43.0977 133.493 42.9805 133.123 42.7461C132.756 42.5091 132.464 42.1615 132.248 41.7031C132.035 41.2422 131.928 40.6771 131.928 40.0078C131.928 39.3203 132.038 38.7487 132.26 38.293C132.481 37.8346 132.775 37.4922 133.143 37.2656C133.512 37.0365 133.917 36.9219 134.357 36.9219C134.693 36.9219 134.973 36.9792 135.197 37.0938C135.424 37.2057 135.606 37.3464 135.744 37.5156C135.885 37.6823 135.992 37.8464 136.064 38.0078H136.115V35H137.775V43H136.135V42.0391H136.064C135.986 42.2057 135.876 42.3711 135.732 42.5352C135.592 42.6966 135.408 42.8307 135.182 42.9375C134.958 43.0443 134.684 43.0977 134.361 43.0977ZM134.889 41.7734C135.157 41.7734 135.383 41.7005 135.568 41.5547C135.756 41.4062 135.899 41.1992 135.998 40.9336C136.1 40.668 136.15 40.3568 136.15 40C136.15 39.6432 136.101 39.3333 136.002 39.0703C135.903 38.8073 135.76 38.6042 135.572 38.4609C135.385 38.3177 135.157 38.2461 134.889 38.2461C134.615 38.2461 134.385 38.3203 134.197 38.4687C134.01 38.6172 133.868 38.8229 133.771 39.0859C133.675 39.349 133.627 39.6536 133.627 40C133.627 40.349 133.675 40.6576 133.771 40.9258C133.87 41.1914 134.012 41.3997 134.197 41.5508C134.385 41.6992 134.615 41.7734 134.889 41.7734ZM141.878 43.1172C141.261 43.1172 140.729 42.9922 140.284 42.7422C139.841 42.4896 139.5 42.1328 139.261 41.6719C139.021 41.2083 138.901 40.6602 138.901 40.0273C138.901 39.4102 139.021 38.8685 139.261 38.4023C139.5 37.9362 139.838 37.5729 140.272 37.3125C140.71 37.0521 141.223 36.9219 141.812 36.9219C142.207 36.9219 142.576 36.9857 142.917 37.1133C143.261 37.2383 143.56 37.4271 143.815 37.6797C144.073 37.9323 144.274 38.25 144.417 38.6328C144.56 39.013 144.632 39.4583 144.632 39.9687V40.4258H139.565V39.3945H143.065C143.065 39.1549 143.013 38.9427 142.909 38.7578C142.805 38.5729 142.66 38.4284 142.476 38.3242C142.293 38.2174 142.081 38.1641 141.839 38.1641C141.586 38.1641 141.362 38.2227 141.167 38.3398C140.974 38.4544 140.823 38.6094 140.714 38.8047C140.604 38.9974 140.549 39.2122 140.546 39.4492V40.4297C140.546 40.7266 140.601 40.9831 140.71 41.1992C140.822 41.4154 140.979 41.582 141.183 41.6992C141.386 41.8164 141.627 41.875 141.905 41.875C142.09 41.875 142.259 41.849 142.413 41.7969C142.567 41.7448 142.698 41.6667 142.808 41.5625C142.917 41.4583 143 41.3307 143.058 41.1797L144.597 41.2812C144.519 41.651 144.358 41.974 144.116 42.25C143.877 42.5234 143.567 42.737 143.187 42.8906C142.809 43.0417 142.373 43.1172 141.878 43.1172ZM145.718 43V37H147.331V38.0469H147.394C147.503 37.6745 147.687 37.3932 147.944 37.2031C148.202 37.0104 148.499 36.9141 148.835 36.9141C148.918 36.9141 149.008 36.9193 149.104 36.9297C149.201 36.9401 149.285 36.9544 149.358 36.9727V38.4492C149.28 38.4258 149.172 38.4049 149.034 38.3867C148.896 38.3685 148.77 38.3594 148.655 38.3594C148.41 38.3594 148.192 38.4128 147.999 38.5195C147.809 38.6237 147.658 38.7695 147.546 38.957C147.437 39.1445 147.382 39.3607 147.382 39.6055V43H145.718ZM154.476 43.1133C154.093 43.1133 153.752 43.0469 153.452 42.9141C153.153 42.7786 152.916 42.5794 152.741 42.3164C152.569 42.0508 152.483 41.7201 152.483 41.3242C152.483 40.9909 152.545 40.7109 152.667 40.4844C152.789 40.2578 152.956 40.0755 153.167 39.9375C153.378 39.7995 153.618 39.6953 153.886 39.625C154.157 39.5547 154.44 39.5052 154.737 39.4766C155.086 39.4401 155.368 39.4062 155.581 39.375C155.795 39.3411 155.95 39.2917 156.046 39.2266C156.142 39.1615 156.19 39.0651 156.19 38.9375V38.9141C156.19 38.6667 156.112 38.4753 155.956 38.3398C155.802 38.2044 155.584 38.1367 155.3 38.1367C155 38.1367 154.762 38.2031 154.585 38.3359C154.408 38.4661 154.291 38.6302 154.233 38.8281L152.694 38.7031C152.772 38.3385 152.926 38.0234 153.155 37.7578C153.384 37.4896 153.68 37.2839 154.042 37.1406C154.407 36.9948 154.828 36.9219 155.308 36.9219C155.641 36.9219 155.96 36.9609 156.265 37.0391C156.572 37.1172 156.844 37.2383 157.081 37.4023C157.321 37.5664 157.509 37.7773 157.647 38.0352C157.785 38.2904 157.854 38.5964 157.854 38.9531V43H156.276V42.168H156.229C156.133 42.3555 156.004 42.5208 155.843 42.6641C155.681 42.8047 155.487 42.9154 155.261 42.9961C155.034 43.0742 154.772 43.1133 154.476 43.1133ZM154.952 41.9648C155.197 41.9648 155.413 41.9167 155.601 41.8203C155.788 41.7214 155.935 41.5885 156.042 41.4219C156.149 41.2552 156.202 41.0664 156.202 40.8555V40.2188C156.15 40.2526 156.078 40.2839 155.987 40.3125C155.899 40.3385 155.799 40.3633 155.687 40.3867C155.575 40.4076 155.463 40.4271 155.351 40.4453C155.239 40.4609 155.137 40.4753 155.046 40.4883C154.851 40.5169 154.68 40.5625 154.534 40.625C154.388 40.6875 154.275 40.7721 154.194 40.8789C154.114 40.9831 154.073 41.1133 154.073 41.2695C154.073 41.4961 154.155 41.6693 154.319 41.7891C154.486 41.9062 154.697 41.9648 154.952 41.9648ZM161.849 45.375C161.31 45.375 160.847 45.3008 160.462 45.1523C160.079 45.0065 159.774 44.8073 159.548 44.5547C159.321 44.3021 159.174 44.0182 159.106 43.7031L160.646 43.4961C160.692 43.6159 160.767 43.7279 160.868 43.832C160.97 43.9362 161.104 44.0195 161.271 44.082C161.44 44.1471 161.646 44.1797 161.888 44.1797C162.25 44.1797 162.548 44.0911 162.782 43.9141C163.019 43.7396 163.138 43.4466 163.138 43.0352V41.9375H163.067C162.994 42.1042 162.885 42.2617 162.739 42.4102C162.593 42.5586 162.406 42.6797 162.177 42.7734C161.948 42.8672 161.674 42.9141 161.356 42.9141C160.906 42.9141 160.496 42.8099 160.126 42.6016C159.759 42.3906 159.466 42.069 159.247 41.6367C159.031 41.2018 158.923 40.6523 158.923 39.9883C158.923 39.3086 159.034 38.7409 159.255 38.2852C159.476 37.8294 159.771 37.4883 160.138 37.2617C160.507 37.0352 160.912 36.9219 161.353 36.9219C161.688 36.9219 161.97 36.9792 162.196 37.0938C162.423 37.2057 162.605 37.3464 162.743 37.5156C162.884 37.6823 162.992 37.8464 163.067 38.0078H163.13V37H164.782V43.0586C164.782 43.569 164.657 43.9961 164.407 44.3398C164.157 44.6836 163.811 44.9414 163.368 45.1133C162.928 45.2878 162.422 45.375 161.849 45.375ZM161.884 41.6641C162.152 41.6641 162.379 41.5977 162.563 41.4648C162.751 41.3294 162.894 41.1367 162.993 40.8867C163.095 40.6341 163.146 40.332 163.146 39.9805C163.146 39.6289 163.096 39.3242 162.997 39.0664C162.898 38.806 162.755 38.6042 162.567 38.4609C162.38 38.3177 162.152 38.2461 161.884 38.2461C161.61 38.2461 161.38 38.3203 161.192 38.4687C161.005 38.6146 160.863 38.8177 160.767 39.0781C160.67 39.3385 160.622 39.6393 160.622 39.9805C160.622 40.3268 160.67 40.6263 160.767 40.8789C160.866 41.1289 161.007 41.3229 161.192 41.4609C161.38 41.5964 161.61 41.6641 161.884 41.6641ZM168.841 43.1172C168.224 43.1172 167.692 42.9922 167.247 42.7422C166.804 42.4896 166.463 42.1328 166.224 41.6719C165.984 41.2083 165.864 40.6602 165.864 40.0273C165.864 39.4102 165.984 38.8685 166.224 38.4023C166.463 37.9362 166.8 37.5729 167.235 37.3125C167.673 37.0521 168.186 36.9219 168.774 36.9219C169.17 36.9219 169.539 36.9857 169.88 37.1133C170.224 37.2383 170.523 37.4271 170.778 37.6797C171.036 37.9323 171.237 38.25 171.38 38.6328C171.523 39.013 171.595 39.4583 171.595 39.9687V40.4258H166.528V39.3945H170.028C170.028 39.1549 169.976 38.9427 169.872 38.7578C169.768 38.5729 169.623 38.4284 169.438 38.3242C169.256 38.2174 169.044 38.1641 168.802 38.1641C168.549 38.1641 168.325 38.2227 168.13 38.3398C167.937 38.4544 167.786 38.6094 167.677 38.8047C167.567 38.9974 167.511 39.2122 167.509 39.4492V40.4297C167.509 40.7266 167.563 40.9831 167.673 41.1992C167.785 41.4154 167.942 41.582 168.146 41.6992C168.349 41.8164 168.59 41.875 168.868 41.875C169.053 41.875 169.222 41.849 169.376 41.7969C169.53 41.7448 169.661 41.6667 169.771 41.5625C169.88 41.4583 169.963 41.3307 170.021 41.1797L171.56 41.2812C171.481 41.651 171.321 41.974 171.079 42.25C170.84 42.5234 170.53 42.737 170.149 42.8906C169.772 43.0417 169.336 43.1172 168.841 43.1172ZM174.345 39.5313V43H172.681V37H174.267V38.0586H174.337C174.47 37.7096 174.692 37.4336 175.005 37.2305C175.317 37.0247 175.696 36.9219 176.142 36.9219C176.558 36.9219 176.922 37.013 177.231 37.1953C177.541 37.3776 177.782 37.638 177.954 37.9766C178.126 38.3125 178.212 38.7135 178.212 39.1797V43H176.548V39.4766C176.55 39.1094 176.457 38.8229 176.267 38.6172C176.076 38.4089 175.815 38.3047 175.481 38.3047C175.257 38.3047 175.06 38.3529 174.888 38.4492C174.718 38.5456 174.586 38.6862 174.489 38.8711C174.396 39.0534 174.347 39.2734 174.345 39.5313ZM182.715 37V38.25H179.102V37H182.715ZM179.922 35.5625H181.586V41.1562C181.586 41.3099 181.609 41.4297 181.656 41.5156C181.703 41.599 181.768 41.6576 181.852 41.6914C181.938 41.7253 182.036 41.7422 182.148 41.7422C182.227 41.7422 182.305 41.7357 182.383 41.7227C182.461 41.707 182.521 41.6953 182.563 41.6875L182.824 42.9258C182.741 42.9518 182.624 42.9818 182.473 43.0156C182.322 43.0521 182.138 43.0742 181.922 43.082C181.521 43.0977 181.169 43.0443 180.867 42.9219C180.568 42.7995 180.335 42.6094 180.168 42.3516C180.001 42.0937 179.919 41.7682 179.922 41.375V35.5625Z" fill="url(#paint3_linear_0_1)"/>
<path d="M64.0342 246C64.0342 246.844 63.8818 247.573 63.5771 248.187C63.2725 248.802 62.8545 249.276 62.3232 249.609C61.792 249.943 61.1852 250.109 60.5029 250.109C59.8206 250.109 59.2139 249.943 58.6826 249.609C58.1514 249.276 57.7334 248.802 57.4287 248.187C57.124 247.573 56.9717 246.844 56.9717 246C56.9717 245.156 57.124 244.427 57.4287 243.812C57.7334 243.198 58.1514 242.724 58.6826 242.391C59.2139 242.057 59.8206 241.891 60.5029 241.891C61.1852 241.891 61.792 242.057 62.3232 242.391C62.8545 242.724 63.2725 243.198 63.5771 243.812C63.8818 244.427 64.0342 245.156 64.0342 246ZM63.0967 246C63.0967 245.307 62.9808 244.723 62.749 244.246C62.5199 243.77 62.2087 243.409 61.8154 243.164C61.4248 242.919 60.9873 242.797 60.5029 242.797C60.0186 242.797 59.5798 242.919 59.1865 243.164C58.7959 243.409 58.4847 243.77 58.2529 244.246C58.0238 244.723 57.9092 245.307 57.9092 246C57.9092 246.693 58.0238 247.277 58.2529 247.754C58.4847 248.23 58.7959 248.591 59.1865 248.836C59.5798 249.081 60.0186 249.203 60.5029 249.203C60.9873 249.203 61.4248 249.081 61.8154 248.836C62.2087 248.591 62.5199 248.23 62.749 247.754C62.9808 247.277 63.0967 246.693 63.0967 246ZM65.5381 252.25V244H66.4287V244.953H66.5381C66.6058 244.849 66.6995 244.716 66.8193 244.555C66.9417 244.391 67.1162 244.245 67.3428 244.117C67.5719 243.987 67.8818 243.922 68.2725 243.922C68.7777 243.922 69.223 244.048 69.6084 244.301C69.9938 244.553 70.2946 244.911 70.5107 245.375C70.7269 245.839 70.835 246.385 70.835 247.016C70.835 247.651 70.7269 248.202 70.5107 248.668C70.2946 249.132 69.9951 249.491 69.6123 249.746C69.2295 249.999 68.7881 250.125 68.2881 250.125C67.9027 250.125 67.5941 250.061 67.3623 249.934C67.1305 249.803 66.9521 249.656 66.8271 249.492C66.7021 249.326 66.6058 249.187 66.5381 249.078H66.46V252.25H65.5381ZM66.4443 247C66.4443 247.453 66.5107 247.853 66.6436 248.199C66.7764 248.543 66.9704 248.812 67.2256 249.008C67.4808 249.201 67.7933 249.297 68.1631 249.297C68.5485 249.297 68.8701 249.195 69.1279 248.992C69.3883 248.786 69.5837 248.51 69.7139 248.164C69.8467 247.815 69.9131 247.427 69.9131 247C69.9131 246.578 69.848 246.198 69.7178 245.859C69.5902 245.518 69.3962 245.249 69.1357 245.051C68.8779 244.85 68.5537 244.75 68.1631 244.75C67.7881 244.75 67.473 244.845 67.2178 245.035C66.9626 245.223 66.7699 245.486 66.6396 245.824C66.5094 246.16 66.4443 246.552 66.4443 247ZM72.2412 252.25V244H73.1318V244.953H73.2412C73.3089 244.849 73.4027 244.716 73.5225 244.555C73.6449 244.391 73.8193 244.245 74.0459 244.117C74.2751 243.987 74.585 243.922 74.9756 243.922C75.4808 243.922 75.9261 244.048 76.3115 244.301C76.6969 244.553 76.9977 244.911 77.2139 245.375C77.43 245.839 77.5381 246.385 77.5381 247.016C77.5381 247.651 77.43 248.202 77.2139 248.668C76.9977 249.132 76.6982 249.491 76.3154 249.746C75.9326 249.999 75.4912 250.125 74.9912 250.125C74.6058 250.125 74.2972 250.061 74.0654 249.934C73.8337 249.803 73.6553 249.656 73.5303 249.492C73.4053 249.326 73.3089 249.187 73.2412 249.078H73.1631V252.25H72.2412ZM73.1475 247C73.1475 247.453 73.2139 247.853 73.3467 248.199C73.4795 248.543 73.6735 248.812 73.9287 249.008C74.1839 249.201 74.4964 249.297 74.8662 249.297C75.2516 249.297 75.5732 249.195 75.8311 248.992C76.0915 248.786 76.2868 248.51 76.417 248.164C76.5498 247.815 76.6162 247.427 76.6162 247C76.6162 246.578 76.5511 246.198 76.4209 245.859C76.2933 245.518 76.0993 245.249 75.8389 245.051C75.5811 244.85 75.2568 244.75 74.8662 244.75C74.4912 244.75 74.1761 244.845 73.9209 245.035C73.6657 245.223 73.473 245.486 73.3428 245.824C73.2126 246.16 73.1475 246.552 73.1475 247ZM81.3818 250.125C80.8402 250.125 80.3649 249.996 79.9561 249.738C79.5498 249.48 79.2321 249.12 79.0029 248.656C78.7764 248.193 78.6631 247.651 78.6631 247.031C78.6631 246.406 78.7764 245.861 79.0029 245.395C79.2321 244.928 79.5498 244.566 79.9561 244.309C80.3649 244.051 80.8402 243.922 81.3818 243.922C81.9235 243.922 82.3975 244.051 82.8037 244.309C83.2126 244.566 83.5303 244.928 83.7568 245.395C83.986 245.861 84.1006 246.406 84.1006 247.031C84.1006 247.651 83.986 248.193 83.7568 248.656C83.5303 249.12 83.2126 249.48 82.8037 249.738C82.3975 249.996 81.9235 250.125 81.3818 250.125ZM81.3818 249.297C81.7933 249.297 82.1318 249.191 82.3975 248.98C82.6631 248.77 82.8597 248.492 82.9873 248.148C83.1149 247.805 83.1787 247.432 83.1787 247.031C83.1787 246.63 83.1149 246.257 82.9873 245.91C82.8597 245.564 82.6631 245.284 82.3975 245.07C82.1318 244.857 81.7933 244.75 81.3818 244.75C80.9704 244.75 80.6318 244.857 80.3662 245.07C80.1006 245.284 79.904 245.564 79.7764 245.91C79.6488 246.257 79.585 246.63 79.585 247.031C79.585 247.432 79.6488 247.805 79.7764 248.148C79.904 248.492 80.1006 248.77 80.3662 248.98C80.6318 249.191 80.9704 249.297 81.3818 249.297ZM85.5078 250V244H86.3984V244.906H86.4609C86.5703 244.609 86.7682 244.368 87.0547 244.184C87.3411 243.999 87.6641 243.906 88.0234 243.906C88.0911 243.906 88.1758 243.908 88.2773 243.91C88.3789 243.913 88.4557 243.917 88.5078 243.922V244.859C88.4766 244.852 88.4049 244.84 88.293 244.824C88.1836 244.806 88.0677 244.797 87.9453 244.797C87.6536 244.797 87.3932 244.858 87.1641 244.98C86.9375 245.1 86.7578 245.267 86.625 245.48C86.4948 245.691 86.4297 245.932 86.4297 246.203V250H85.5078ZM92.5859 244V244.781H89.4766V244H92.5859ZM90.3828 242.562H91.3047V248.281C91.3047 248.542 91.3424 248.737 91.418 248.867C91.4961 248.995 91.5951 249.081 91.7148 249.125C91.8372 249.167 91.9661 249.187 92.1016 249.187C92.2031 249.187 92.2865 249.182 92.3516 249.172C92.4167 249.159 92.4688 249.148 92.5078 249.141L92.6953 249.969C92.6328 249.992 92.5456 250.016 92.4336 250.039C92.3216 250.065 92.1797 250.078 92.0078 250.078C91.7474 250.078 91.4922 250.022 91.2422 249.91C90.9948 249.798 90.7891 249.628 90.625 249.398C90.4635 249.169 90.3828 248.88 90.3828 248.531V242.562ZM97.7539 247.547V244H98.6758V250H97.7539V248.984H97.6914C97.5508 249.289 97.332 249.548 97.0352 249.762C96.7383 249.973 96.3633 250.078 95.9102 250.078C95.5352 250.078 95.2018 249.996 94.9102 249.832C94.6185 249.665 94.3893 249.415 94.2227 249.082C94.056 248.746 93.9727 248.323 93.9727 247.812V244H94.8945V247.75C94.8945 248.187 95.0169 248.536 95.2617 248.797C95.5091 249.057 95.8242 249.187 96.207 249.187C96.4362 249.187 96.6693 249.129 96.9063 249.012C97.1458 248.895 97.3464 248.715 97.5078 248.473C97.6719 248.23 97.7539 247.922 97.7539 247.547ZM101.286 246.391V250H100.364V244H101.255V244.937H101.333C101.474 244.633 101.687 244.388 101.974 244.203C102.26 244.016 102.63 243.922 103.083 243.922C103.489 243.922 103.845 244.005 104.149 244.172C104.454 244.336 104.691 244.586 104.86 244.922C105.03 245.255 105.114 245.677 105.114 246.188V250H104.192V246.25C104.192 245.779 104.07 245.411 103.825 245.148C103.58 244.883 103.244 244.75 102.817 244.75C102.523 244.75 102.26 244.814 102.028 244.941C101.799 245.069 101.618 245.255 101.485 245.5C101.353 245.745 101.286 246.042 101.286 246.391ZM106.799 250V244H107.721V250H106.799ZM107.268 243C107.088 243 106.933 242.939 106.803 242.816C106.675 242.694 106.611 242.547 106.611 242.375C106.611 242.203 106.675 242.056 106.803 241.934C106.933 241.811 107.088 241.75 107.268 241.75C107.447 241.75 107.601 241.811 107.729 241.934C107.859 242.056 107.924 242.203 107.924 242.375C107.924 242.547 107.859 242.694 107.729 242.816C107.601 242.939 107.447 243 107.268 243ZM112.019 244V244.781H108.909V244H112.019ZM109.815 242.562H110.737V248.281C110.737 248.542 110.775 248.737 110.851 248.867C110.929 248.995 111.028 249.081 111.147 249.125C111.27 249.167 111.399 249.187 111.534 249.187C111.636 249.187 111.719 249.182 111.784 249.172C111.849 249.159 111.901 249.148 111.94 249.141L112.128 249.969C112.065 249.992 111.978 250.016 111.866 250.039C111.754 250.065 111.612 250.078 111.44 250.078C111.18 250.078 110.925 250.022 110.675 249.91C110.427 249.798 110.222 249.628 110.058 249.398C109.896 249.169 109.815 248.88 109.815 248.531V242.562ZM113.999 252.25C113.843 252.25 113.703 252.237 113.581 252.211C113.459 252.188 113.374 252.164 113.327 252.141L113.562 251.328C113.785 251.385 113.983 251.406 114.155 251.391C114.327 251.375 114.479 251.298 114.612 251.16C114.748 251.025 114.871 250.805 114.983 250.5L115.155 250.031L112.937 244H113.937L115.593 248.781H115.655L117.312 244H118.312L115.765 250.875C115.65 251.185 115.508 251.441 115.339 251.645C115.17 251.85 114.973 252.003 114.749 252.102C114.528 252.201 114.278 252.25 113.999 252.25Z" fill="#EFF0F3"/>
<path d="M226.667 244C226.62 243.604 226.43 243.297 226.096 243.078C225.763 242.859 225.354 242.75 224.87 242.75C224.515 242.75 224.206 242.807 223.94 242.922C223.677 243.036 223.471 243.194 223.323 243.395C223.177 243.595 223.104 243.823 223.104 244.078C223.104 244.292 223.155 244.475 223.256 244.629C223.361 244.78 223.493 244.906 223.655 245.008C223.816 245.107 223.986 245.189 224.163 245.254C224.34 245.316 224.502 245.367 224.651 245.406L225.463 245.625C225.672 245.68 225.903 245.755 226.159 245.852C226.417 245.948 226.663 246.079 226.897 246.246C227.134 246.41 227.329 246.621 227.483 246.879C227.637 247.137 227.713 247.453 227.713 247.828C227.713 248.26 227.6 248.651 227.374 249C227.15 249.349 226.821 249.626 226.389 249.832C225.959 250.038 225.437 250.141 224.823 250.141C224.25 250.141 223.754 250.048 223.334 249.863C222.918 249.678 222.59 249.421 222.35 249.09C222.113 248.759 221.979 248.375 221.948 247.938H222.948C222.974 248.24 223.075 248.49 223.252 248.687C223.432 248.883 223.659 249.029 223.932 249.125C224.208 249.219 224.505 249.266 224.823 249.266C225.193 249.266 225.525 249.206 225.819 249.086C226.113 248.964 226.346 248.794 226.518 248.578C226.69 248.359 226.776 248.104 226.776 247.812C226.776 247.547 226.702 247.331 226.553 247.164C226.405 246.997 226.209 246.862 225.967 246.758C225.725 246.654 225.463 246.562 225.182 246.484L224.198 246.203C223.573 246.023 223.078 245.767 222.713 245.434C222.349 245.1 222.167 244.664 222.167 244.125C222.167 243.677 222.288 243.286 222.53 242.953C222.775 242.617 223.103 242.357 223.514 242.172C223.928 241.984 224.39 241.891 224.901 241.891C225.417 241.891 225.875 241.983 226.276 242.168C226.677 242.35 226.995 242.6 227.229 242.918C227.466 243.236 227.591 243.596 227.604 244H226.667ZM229.181 252.25V244H230.072V244.953H230.181C230.249 244.849 230.343 244.716 230.462 244.555C230.585 244.391 230.759 244.245 230.986 244.117C231.215 243.987 231.525 243.922 231.916 243.922C232.421 243.922 232.866 244.048 233.251 244.301C233.637 244.553 233.938 244.911 234.154 245.375C234.37 245.839 234.478 246.385 234.478 247.016C234.478 247.651 234.37 248.202 234.154 248.668C233.938 249.132 233.638 249.491 233.255 249.746C232.873 249.999 232.431 250.125 231.931 250.125C231.546 250.125 231.237 250.061 231.005 249.934C230.774 249.803 230.595 249.656 230.47 249.492C230.345 249.326 230.249 249.187 230.181 249.078H230.103V252.25H229.181ZM230.087 247C230.087 247.453 230.154 247.853 230.287 248.199C230.419 248.543 230.613 248.812 230.869 249.008C231.124 249.201 231.436 249.297 231.806 249.297C232.192 249.297 232.513 249.195 232.771 248.992C233.031 248.786 233.227 248.51 233.357 248.164C233.49 247.815 233.556 247.427 233.556 247C233.556 246.578 233.491 246.198 233.361 245.859C233.233 245.518 233.039 245.249 232.779 245.051C232.521 244.85 232.197 244.75 231.806 244.75C231.431 244.75 231.116 244.845 230.861 245.035C230.606 245.223 230.413 245.486 230.283 245.824C230.153 246.16 230.087 246.552 230.087 247ZM238.4 250.125C237.822 250.125 237.323 249.997 236.904 249.742C236.487 249.484 236.166 249.125 235.939 248.664C235.715 248.201 235.603 247.661 235.603 247.047C235.603 246.432 235.715 245.891 235.939 245.422C236.166 244.951 236.481 244.583 236.884 244.32C237.291 244.055 237.764 243.922 238.306 243.922C238.619 243.922 238.927 243.974 239.232 244.078C239.537 244.182 239.814 244.352 240.064 244.586C240.314 244.818 240.513 245.125 240.662 245.508C240.81 245.891 240.884 246.362 240.884 246.922V247.312H236.259V246.516H239.947C239.947 246.177 239.879 245.875 239.744 245.609C239.611 245.344 239.421 245.134 239.173 244.98C238.929 244.827 238.639 244.75 238.306 244.75C237.939 244.75 237.621 244.841 237.353 245.023C237.087 245.203 236.883 245.437 236.74 245.727C236.597 246.016 236.525 246.326 236.525 246.656V247.188C236.525 247.641 236.603 248.025 236.759 248.34C236.918 248.652 237.138 248.891 237.419 249.055C237.701 249.216 238.028 249.297 238.4 249.297C238.642 249.297 238.861 249.263 239.056 249.195C239.254 249.125 239.425 249.021 239.568 248.883C239.711 248.742 239.822 248.568 239.9 248.359L240.791 248.609C240.697 248.911 240.539 249.177 240.318 249.406C240.097 249.633 239.823 249.81 239.498 249.937C239.172 250.063 238.806 250.125 238.4 250.125ZM244.802 250.125C244.224 250.125 243.725 249.997 243.306 249.742C242.889 249.484 242.568 249.125 242.341 248.664C242.117 248.201 242.005 247.661 242.005 247.047C242.005 246.432 242.117 245.891 242.341 245.422C242.568 244.951 242.883 244.583 243.287 244.32C243.693 244.055 244.167 243.922 244.708 243.922C245.021 243.922 245.33 243.974 245.634 244.078C245.939 244.182 246.216 244.352 246.466 244.586C246.716 244.818 246.916 245.125 247.064 245.508C247.212 245.891 247.287 246.362 247.287 246.922V247.312H242.662V246.516H246.349C246.349 246.177 246.281 245.875 246.146 245.609C246.013 245.344 245.823 245.134 245.576 244.98C245.331 244.827 245.042 244.75 244.708 244.75C244.341 244.75 244.024 244.841 243.755 245.023C243.49 245.203 243.285 245.437 243.142 245.727C242.999 246.016 242.927 246.326 242.927 246.656V247.188C242.927 247.641 243.005 248.025 243.162 248.34C243.32 248.652 243.541 248.891 243.822 249.055C244.103 249.216 244.43 249.297 244.802 249.297C245.044 249.297 245.263 249.263 245.458 249.195C245.656 249.125 245.827 249.021 245.97 248.883C246.113 248.742 246.224 248.568 246.302 248.359L247.193 248.609C247.099 248.911 246.942 249.177 246.72 249.406C246.499 249.633 246.225 249.81 245.9 249.937C245.574 250.063 245.208 250.125 244.802 250.125ZM250.955 250.125C250.455 250.125 250.013 249.999 249.63 249.746C249.248 249.491 248.948 249.132 248.732 248.668C248.516 248.202 248.408 247.651 248.408 247.016C248.408 246.385 248.516 245.839 248.732 245.375C248.948 244.911 249.249 244.553 249.634 244.301C250.02 244.048 250.465 243.922 250.97 243.922C251.361 243.922 251.669 243.987 251.896 244.117C252.125 244.245 252.3 244.391 252.419 244.555C252.542 244.716 252.637 244.849 252.705 244.953H252.783V242H253.705V250H252.814V249.078H252.705C252.637 249.187 252.541 249.326 252.416 249.492C252.291 249.656 252.112 249.803 251.88 249.934C251.649 250.061 251.34 250.125 250.955 250.125ZM251.08 249.297C251.449 249.297 251.762 249.201 252.017 249.008C252.272 248.812 252.466 248.543 252.599 248.199C252.732 247.853 252.798 247.453 252.798 247C252.798 246.552 252.733 246.16 252.603 245.824C252.473 245.486 252.28 245.223 252.025 245.035C251.77 244.845 251.455 244.75 251.08 244.75C250.689 244.75 250.363 244.85 250.103 245.051C249.845 245.249 249.651 245.518 249.521 245.859C249.393 246.198 249.33 246.578 249.33 247C249.33 247.427 249.395 247.815 249.525 248.164C249.658 248.51 249.853 248.786 250.111 248.992C250.371 249.195 250.694 249.297 251.08 249.297Z" fill="#EFF0F3"/>
<path d="M363.063 250V242H367.892V242.859H364.032V245.562H367.642V246.422H364.032V249.141H367.954V250H363.063ZM370.2 244L371.638 246.453L373.075 244H374.138L372.2 247L374.138 250H373.075L371.638 247.672L370.2 250H369.138L371.044 247L369.138 244H370.2ZM377.722 250.125C377.144 250.125 376.645 249.997 376.226 249.742C375.809 249.484 375.487 249.125 375.261 248.664C375.037 248.201 374.925 247.661 374.925 247.047C374.925 246.432 375.037 245.891 375.261 245.422C375.487 244.951 375.802 244.583 376.206 244.32C376.612 244.055 377.086 243.922 377.628 243.922C377.94 243.922 378.249 243.974 378.554 244.078C378.858 244.182 379.136 244.352 379.386 244.586C379.636 244.818 379.835 245.125 379.983 245.508C380.132 245.891 380.206 246.362 380.206 246.922V247.312H375.581V246.516H379.269C379.269 246.177 379.201 245.875 379.065 245.609C378.933 245.344 378.743 245.134 378.495 244.98C378.25 244.827 377.961 244.75 377.628 244.75C377.261 244.75 376.943 244.841 376.675 245.023C376.409 245.203 376.205 245.437 376.062 245.727C375.918 246.016 375.847 246.326 375.847 246.656V247.188C375.847 247.641 375.925 248.025 376.081 248.34C376.24 248.652 376.46 248.891 376.741 249.055C377.022 249.216 377.349 249.297 377.722 249.297C377.964 249.297 378.183 249.263 378.378 249.195C378.576 249.125 378.746 249.021 378.89 248.883C379.033 248.742 379.144 248.568 379.222 248.359L380.112 248.609C380.019 248.911 379.861 249.177 379.64 249.406C379.418 249.633 379.145 249.81 378.819 249.937C378.494 250.063 378.128 250.125 377.722 250.125ZM384.046 250.125C383.483 250.125 382.999 249.992 382.593 249.727C382.187 249.461 381.874 249.095 381.655 248.629C381.437 248.163 381.327 247.63 381.327 247.031C381.327 246.422 381.439 245.884 381.663 245.418C381.89 244.949 382.205 244.583 382.608 244.32C383.015 244.055 383.489 243.922 384.03 243.922C384.452 243.922 384.832 244 385.171 244.156C385.509 244.312 385.787 244.531 386.003 244.812C386.219 245.094 386.353 245.422 386.405 245.797H385.483C385.413 245.523 385.257 245.281 385.015 245.07C384.775 244.857 384.452 244.75 384.046 244.75C383.687 244.75 383.371 244.844 383.101 245.031C382.832 245.216 382.623 245.478 382.472 245.816C382.323 246.152 382.249 246.547 382.249 247C382.249 247.464 382.322 247.867 382.468 248.211C382.616 248.555 382.825 248.822 383.093 249.012C383.364 249.202 383.681 249.297 384.046 249.297C384.285 249.297 384.503 249.255 384.698 249.172C384.894 249.089 385.059 248.969 385.194 248.812C385.33 248.656 385.426 248.469 385.483 248.25H386.405C386.353 248.604 386.224 248.923 386.019 249.207C385.815 249.488 385.546 249.712 385.21 249.879C384.877 250.043 384.489 250.125 384.046 250.125ZM391.534 247.547V244H392.456V250H391.534V248.984H391.472C391.331 249.289 391.112 249.548 390.815 249.762C390.519 249.973 390.144 250.078 389.69 250.078C389.315 250.078 388.982 249.996 388.69 249.832C388.399 249.665 388.17 249.415 388.003 249.082C387.836 248.746 387.753 248.323 387.753 247.812V244H388.675V247.75C388.675 248.187 388.797 248.536 389.042 248.797C389.289 249.057 389.604 249.187 389.987 249.187C390.216 249.187 390.45 249.129 390.687 249.012C390.926 248.895 391.127 248.715 391.288 248.473C391.452 248.23 391.534 247.922 391.534 247.547ZM396.754 244V244.781H393.645V244H396.754ZM394.551 242.562H395.473V248.281C395.473 248.542 395.51 248.737 395.586 248.867C395.664 248.995 395.763 249.081 395.883 249.125C396.005 249.167 396.134 249.187 396.27 249.187C396.371 249.187 396.454 249.182 396.52 249.172C396.585 249.159 396.637 249.148 396.676 249.141L396.863 249.969C396.801 249.992 396.714 250.016 396.602 250.039C396.49 250.065 396.348 250.078 396.176 250.078C395.915 250.078 395.66 250.022 395.41 249.91C395.163 249.798 394.957 249.628 394.793 249.398C394.632 249.169 394.551 248.88 394.551 248.531V242.562ZM398.141 250V244H399.063V250H398.141ZM398.609 243C398.43 243 398.275 242.939 398.145 242.816C398.017 242.694 397.953 242.547 397.953 242.375C397.953 242.203 398.017 242.056 398.145 241.934C398.275 241.811 398.43 241.75 398.609 241.75C398.789 241.75 398.943 241.811 399.07 241.934C399.201 242.056 399.266 242.203 399.266 242.375C399.266 242.547 399.201 242.694 399.07 242.816C398.943 242.939 398.789 243 398.609 243ZM403.188 250.125C402.647 250.125 402.172 249.996 401.763 249.738C401.356 249.48 401.039 249.12 400.81 248.656C400.583 248.193 400.47 247.651 400.47 247.031C400.47 246.406 400.583 245.861 400.81 245.395C401.039 244.928 401.356 244.566 401.763 244.309C402.172 244.051 402.647 243.922 403.188 243.922C403.73 243.922 404.204 244.051 404.61 244.309C405.019 244.566 405.337 244.928 405.563 245.395C405.793 245.861 405.907 246.406 405.907 247.031C405.907 247.651 405.793 248.193 405.563 248.656C405.337 249.12 405.019 249.48 404.61 249.738C404.204 249.996 403.73 250.125 403.188 250.125ZM403.188 249.297C403.6 249.297 403.938 249.191 404.204 248.98C404.47 248.77 404.666 248.492 404.794 248.148C404.922 247.805 404.985 247.432 404.985 247.031C404.985 246.63 404.922 246.257 404.794 245.91C404.666 245.564 404.47 245.284 404.204 245.07C403.938 244.857 403.6 244.75 403.188 244.75C402.777 244.75 402.438 244.857 402.173 245.07C401.907 245.284 401.711 245.564 401.583 245.91C401.455 246.257 401.392 246.63 401.392 247.031C401.392 247.432 401.455 247.805 401.583 248.148C401.711 248.492 401.907 248.77 402.173 248.98C402.438 249.191 402.777 249.297 403.188 249.297ZM408.236 246.391V250H407.314V244H408.205V244.937H408.283C408.424 244.633 408.637 244.388 408.924 244.203C409.21 244.016 409.58 243.922 410.033 243.922C410.439 243.922 410.795 244.005 411.1 244.172C411.404 244.336 411.641 244.586 411.811 244.922C411.98 245.255 412.064 245.677 412.064 246.188V250H411.143V246.25C411.143 245.779 411.02 245.411 410.775 245.148C410.531 244.883 410.195 244.75 409.768 244.75C409.473 244.75 409.21 244.814 408.979 244.941C408.749 245.069 408.568 245.255 408.436 245.5C408.303 245.745 408.236 246.042 408.236 246.391Z" fill="#EFF0F3"/>
<path fill-rule="evenodd" clip-rule="evenodd" d="M35.375 24.5329C35.375 24.2386 35.1364 24 34.8421 24C34.5478 24 34.3092 24.2386 34.3092 24.5329V36.4405C33.0187 36.5315 32 37.6073 32 38.9211V42.4737C32 43.8471 33.1134 44.9605 34.4868 44.9605H36.2632V48.5132C36.2632 49.8866 37.3766 51 38.75 51H54.3816C55.755 51 56.8684 49.8866 56.8684 48.5132V44.9605H58.6447C60.0182 44.9605 61.1316 43.8471 61.1316 42.4737V38.9211C61.1316 37.6073 60.1129 36.5315 58.8224 36.4405V24.5329C58.8224 24.2386 58.5838 24 58.2895 24C57.9952 24 57.7566 24.2386 57.7566 24.5329V36.4342H56.8684V32.8816C56.8684 31.5081 55.755 30.3947 54.3816 30.3947H38.75C37.3766 30.3947 36.2632 31.5081 36.2632 32.8816V36.4342H35.375V24.5329ZM41.2368 37.8553C39.8634 37.8553 38.75 38.9687 38.75 40.3421V41.0526C38.75 42.4261 39.8634 43.5395 41.2368 43.5395H51.8947C53.2682 43.5395 54.3816 42.4261 54.3816 41.0526V40.3421C54.3816 38.9687 53.2682 37.8553 51.8947 37.8553H41.2368Z" fill="url(#paint4_linear_0_1)"/>
<path fill-rule="evenodd" clip-rule="evenodd" d="M35.375 24.5329C35.375 24.2386 35.1364 24 34.8421 24C34.5478 24 34.3092 24.2386 34.3092 24.5329V36.4405C33.0187 36.5315 32 37.6073 32 38.9211V42.4737C32 43.8471 33.1134 44.9605 34.4868 44.9605H36.2632V48.5132C36.2632 49.8866 37.3766 51 38.75 51H54.3816C55.755 51 56.8684 49.8866 56.8684 48.5132V44.9605H58.6447C60.0182 44.9605 61.1316 43.8471 61.1316 42.4737V38.9211C61.1316 37.6073 60.1129 36.5315 58.8224 36.4405V24.5329C58.8224 24.2386 58.5838 24 58.2895 24C57.9952 24 57.7566 24.2386 57.7566 24.5329V36.4342H56.8684V32.8816C56.8684 31.5081 55.755 30.3947 54.3816 30.3947H38.75C37.3766 30.3947 36.2632 31.5081 36.2632 32.8816V36.4342H35.375V24.5329ZM41.2368 37.8553C39.8634 37.8553 38.75 38.9687 38.75 40.3421V41.0526C38.75 42.4261 39.8634 43.5395 41.2368 43.5395H51.8947C53.2682 43.5395 54.3816 42.4261 54.3816 41.0526V40.3421C54.3816 38.9687 53.2682 37.8553 51.8947 37.8553H41.2368Z" fill="url(#paint5_radial_0_1)" fill-opacity="0.4"/>
<path fill-rule="evenodd" clip-rule="evenodd" d="M35.375 24.5329C35.375 24.2386 35.1364 24 34.8421 24C34.5478 24 34.3092 24.2386 34.3092 24.5329V36.4405C33.0187 36.5315 32 37.6073 32 38.9211V42.4737C32 43.8471 33.1134 44.9605 34.4868 44.9605H36.2632V48.5132C36.2632 49.8866 37.3766 51 38.75 51H54.3816C55.755 51 56.8684 49.8866 56.8684 48.5132V44.9605H58.6447C60.0182 44.9605 61.1316 43.8471 61.1316 42.4737V38.9211C61.1316 37.6073 60.1129 36.5315 58.8224 36.4405V24.5329C58.8224 24.2386 58.5838 24 58.2895 24C57.9952 24 57.7566 24.2386 57.7566 24.5329V36.4342H56.8684V32.8816C56.8684 31.5081 55.755 30.3947 54.3816 30.3947H38.75C37.3766 30.3947 36.2632 31.5081 36.2632 32.8816V36.4342H35.375V24.5329ZM41.2368 37.8553C39.8634 37.8553 38.75 38.9687 38.75 40.3421V41.0526C38.75 42.4261 39.8634 43.5395 41.2368 43.5395H51.8947C53.2682 43.5395 54.3816 42.4261 54.3816 41.0526V40.3421C54.3816 38.9687 53.2682 37.8553 51.8947 37.8553H41.2368Z" fill="url(#paint6_radial_0_1)" fill-opacity="0.4"/>
<circle cx="87.5" cy="165.5" r="55.5" fill="#04030C"/>
<circle cx="87.5" cy="165.5" r="55" stroke="url(#paint7_linear_0_1)" stroke-opacity="0.08"/>
<circle cx="87.5" cy="165.5" r="55" stroke="url(#paint8_linear_0_1)" stroke-opacity="0.3"/>
<circle cx="237.85" cy="165.5" r="55.5" fill="#04030C"/>
<circle cx="237.85" cy="165.5" r="55" stroke="url(#paint9_linear_0_1)" stroke-opacity="0.08"/>
<circle cx="237.85" cy="165.5" r="55" stroke="url(#paint10_linear_0_1)" stroke-opacity="0.3"/>
<circle cx="388.199" cy="165.5" r="55.5" fill="#04030C"/>
<circle cx="388.199" cy="165.5" r="55" stroke="url(#paint11_linear_0_1)" stroke-opacity="0.08"/>
<circle cx="388.199" cy="165.5" r="55" stroke="url(#paint12_linear_0_1)" stroke-opacity="0.3"/>
<ellipse cx="87.5" cy="166" rx="42.5" ry="42" fill="#04030C"/>
<ellipse cx="87.5" cy="166" rx="42.5" ry="42" fill="url(#paint13_linear_0_1)" fill-opacity="0.3"/>
<path d="M129.5 166C129.5 188.914 110.702 207.5 87.5 207.5C64.2984 207.5 45.5 188.914 45.5 166C45.5 143.086 64.2984 124.5 87.5 124.5C110.702 124.5 129.5 143.086 129.5 166Z" stroke="url(#paint14_linear_0_1)" stroke-opacity="0.08"/>
<path d="M129.5 166C129.5 188.914 110.702 207.5 87.5 207.5C64.2984 207.5 45.5 188.914 45.5 166C45.5 143.086 64.2984 124.5 87.5 124.5C110.702 124.5 129.5 143.086 129.5 166Z" stroke="url(#paint15_linear_0_1)" stroke-opacity="0.3"/>
<ellipse cx="237.5" cy="166" rx="42.5" ry="42" fill="#04030C"/>
<ellipse cx="237.5" cy="166" rx="42.5" ry="42" fill="url(#paint16_linear_0_1)" fill-opacity="0.3"/>
<path d="M279.5 166C279.5 188.914 260.702 207.5 237.5 207.5C214.298 207.5 195.5 188.914 195.5 166C195.5 143.086 214.298 124.5 237.5 124.5C260.702 124.5 279.5 143.086 279.5 166Z" stroke="url(#paint17_linear_0_1)" stroke-opacity="0.08"/>
<path d="M279.5 166C279.5 188.914 260.702 207.5 237.5 207.5C214.298 207.5 195.5 188.914 195.5 166C195.5 143.086 214.298 124.5 237.5 124.5C260.702 124.5 279.5 143.086 279.5 166Z" stroke="url(#paint18_linear_0_1)" stroke-opacity="0.3"/>
<ellipse cx="388.5" cy="166" rx="42.5" ry="42" fill="#04030C"/>
<ellipse cx="388.5" cy="166" rx="42.5" ry="42" fill="url(#paint19_linear_0_1)" fill-opacity="0.3"/>
<path d="M430.5 166C430.5 188.914 411.702 207.5 388.5 207.5C365.298 207.5 346.5 188.914 346.5 166C346.5 143.086 365.298 124.5 388.5 124.5C411.702 124.5 430.5 143.086 430.5 166Z" stroke="url(#paint20_linear_0_1)" stroke-opacity="0.08"/>
<path d="M430.5 166C430.5 188.914 411.702 207.5 388.5 207.5C365.298 207.5 346.5 188.914 346.5 166C346.5 143.086 365.298 124.5 388.5 124.5C411.702 124.5 430.5 143.086 430.5 166Z" stroke="url(#paint21_linear_0_1)" stroke-opacity="0.3"/>
<path d="M53.2498 200.25C34.141 181.141 33.9846 150.316 52.9003 131.401C71.8161 112.485 102.641 112.641 121.75 131.75" stroke="#915BF0" stroke-width="2" stroke-linecap="round"/>
<g filter="url(#filter1_f_0_1)">
<path d="M53.2498 200.25C34.141 181.141 33.9846 150.316 52.9003 131.401C71.8161 112.485 102.641 112.641 121.75 131.75" stroke="url(#paint22_linear_0_1)" stroke-width="5" stroke-linecap="round"/>
</g>
<path d="M203.599 200.25C184.491 181.141 184.334 150.316 203.25 131.401C222.166 112.485 252.991 112.641 272.1 131.75C282.614 142.265 287.39 156.327 286.409 170" stroke="#915BF0" stroke-width="2" stroke-linecap="round"/>
<g filter="url(#filter2_f_0_1)">
<path d="M203.599 200.25C184.491 181.141 184.334 150.316 203.25 131.401C222.166 112.485 252.991 112.641 272.1 131.75C282.614 142.265 287.39 156.327 286.409 170" stroke="url(#paint23_linear_0_1)" stroke-width="4" stroke-linecap="round"/>
</g>
<path d="M422.799 200.6C441.714 181.684 441.558 150.859 422.449 131.75C403.34 112.641 372.515 112.485 353.6 131.401C334.684 150.316 334.84 181.141 353.949 200.25" stroke="#915BF0" stroke-width="2"/>
<g filter="url(#filter3_f_0_1)">
<path d="M422.799 200.6C441.714 181.684 441.558 150.859 422.449 131.75C403.34 112.641 372.515 112.485 353.6 131.401C334.684 150.316 334.84 181.141 353.949 200.25" stroke="url(#paint24_linear_0_1)" stroke-width="4" stroke-linecap="round"/>
</g>
<path d="M72.1207 173.199C71.3726 173.194 70.6506 173.069 69.9545 172.822C69.2633 172.576 68.643 172.176 68.0938 171.622C67.5445 171.068 67.1089 170.334 66.7869 169.42C66.4697 168.507 66.3111 167.384 66.3111 166.054C66.3158 164.832 66.4555 163.741 66.7301 162.78C67.0095 161.814 67.4072 160.995 67.9233 160.322C68.4441 159.65 69.0668 159.139 69.7912 158.788C70.5156 158.433 71.3277 158.256 72.2273 158.256C73.1979 158.256 74.0549 158.445 74.7983 158.824C75.5417 159.198 76.1383 159.707 76.5881 160.351C77.0426 160.995 77.3172 161.717 77.4119 162.517H74.3793C74.2609 162.01 74.0123 161.613 73.6335 161.324C73.2547 161.035 72.786 160.891 72.2273 160.891C71.2803 160.891 70.5606 161.303 70.0682 162.126C69.5805 162.95 69.3319 164.07 69.3224 165.486H69.4219C69.6397 165.055 69.9332 164.688 70.3026 164.385C70.6766 164.077 71.1004 163.843 71.5739 163.682C72.0521 163.516 72.5563 163.433 73.0866 163.433C73.9484 163.433 74.7154 163.637 75.3878 164.044C76.0601 164.446 76.5904 165 76.9787 165.706C77.367 166.411 77.5611 167.219 77.5611 168.128C77.5611 169.113 77.3314 169.989 76.8722 170.756C76.4176 171.523 75.7808 172.124 74.9616 172.56C74.1473 172.991 73.2003 173.204 72.1207 173.199ZM72.1065 170.784C72.58 170.784 73.0038 170.67 73.3778 170.443C73.7519 170.216 74.0455 169.908 74.2585 169.52C74.4716 169.132 74.5781 168.696 74.5781 168.213C74.5781 167.73 74.4716 167.297 74.2585 166.913C74.0502 166.53 73.7614 166.224 73.392 165.997C73.0227 165.77 72.6013 165.656 72.1278 165.656C71.7727 165.656 71.4437 165.723 71.1406 165.855C70.8423 165.988 70.5795 166.172 70.3523 166.409C70.1297 166.646 69.9545 166.92 69.8267 167.233C69.6989 167.541 69.6349 167.87 69.6349 168.22C69.6349 168.689 69.7415 169.117 69.9545 169.506C70.1723 169.894 70.4659 170.204 70.8352 170.436C71.2093 170.668 71.633 170.784 72.1065 170.784ZM85.054 173.199C84.0502 173.199 83.1553 173.014 82.3693 172.645C81.5881 172.276 80.9678 171.767 80.5085 171.118C80.0492 170.469 79.8101 169.726 79.7912 168.888H82.7741C82.8073 169.451 83.044 169.908 83.4844 170.259C83.9247 170.609 84.4479 170.784 85.054 170.784C85.5369 170.784 85.9631 170.678 86.3324 170.464C86.7064 170.247 86.9976 169.946 87.206 169.562C87.419 169.174 87.5256 168.729 87.5256 168.227C87.5256 167.716 87.4167 167.266 87.1989 166.878C86.9858 166.49 86.6899 166.187 86.3111 165.969C85.9323 165.751 85.4991 165.64 85.0114 165.635C84.5852 165.635 84.1709 165.723 83.7685 165.898C83.3707 166.073 83.0606 166.312 82.8381 166.615L80.1037 166.125L80.7926 158.455H89.6847V160.969H83.3281L82.9517 164.612H83.0369C83.2926 164.252 83.6785 163.954 84.1946 163.717C84.7107 163.481 85.2884 163.362 85.9276 163.362C86.8035 163.362 87.5848 163.568 88.2713 163.98C88.9579 164.392 89.5 164.958 89.8977 165.678C90.2955 166.393 90.492 167.216 90.4872 168.149C90.492 169.129 90.2647 170 89.8054 170.763C89.3509 171.52 88.714 172.117 87.8949 172.553C87.0805 172.983 86.1335 173.199 85.054 173.199ZM100.594 170.273V169.506C100.594 168.923 100.717 168.388 100.963 167.901C101.214 167.408 101.576 167.015 102.05 166.722C102.528 166.423 103.11 166.274 103.797 166.274C104.493 166.274 105.078 166.421 105.551 166.714C106.029 167.008 106.389 167.401 106.631 167.893C106.877 168.381 107 168.919 107 169.506V170.273C107 170.855 106.877 171.393 106.631 171.885C106.384 172.373 106.022 172.763 105.544 173.057C105.066 173.355 104.483 173.504 103.797 173.504C103.101 173.504 102.516 173.355 102.043 173.057C101.569 172.763 101.209 172.373 100.963 171.885C100.717 171.393 100.594 170.855 100.594 170.273ZM102.661 169.506V170.273C102.661 170.609 102.741 170.926 102.902 171.224C103.068 171.523 103.366 171.672 103.797 171.672C104.228 171.672 104.521 171.525 104.678 171.232C104.839 170.938 104.919 170.618 104.919 170.273V169.506C104.919 169.16 104.843 168.838 104.692 168.54C104.54 168.241 104.242 168.092 103.797 168.092C103.371 168.092 103.075 168.241 102.909 168.54C102.743 168.838 102.661 169.16 102.661 169.506ZM93.1293 161.949V161.182C93.1293 160.595 93.2547 160.057 93.5057 159.57C93.7566 159.077 94.1188 158.684 94.5923 158.391C95.0705 158.097 95.6482 157.95 96.3253 157.95C97.026 157.95 97.6132 158.097 98.0866 158.391C98.5601 158.684 98.92 159.077 99.1662 159.57C99.4124 160.057 99.5355 160.595 99.5355 161.182V161.949C99.5355 162.536 99.41 163.073 99.1591 163.561C98.9129 164.049 98.5507 164.439 98.0724 164.733C97.599 165.022 97.0166 165.166 96.3253 165.166C95.634 165.166 95.0492 165.019 94.571 164.726C94.0975 164.428 93.7377 164.037 93.4915 163.554C93.25 163.066 93.1293 162.531 93.1293 161.949ZM95.2102 161.182V161.949C95.2102 162.295 95.2907 162.614 95.4517 162.908C95.6174 163.201 95.9086 163.348 96.3253 163.348C96.7609 163.348 97.0568 163.201 97.2131 162.908C97.3741 162.614 97.4545 162.295 97.4545 161.949V161.182C97.4545 160.836 97.3788 160.514 97.2273 160.216C97.0758 159.918 96.7751 159.768 96.3253 159.768C95.9039 159.768 95.6127 159.92 95.4517 160.223C95.2907 160.526 95.2102 160.846 95.2102 161.182ZM94.0668 173L104.067 158.455H105.928L95.9276 173H94.0668Z" fill="#EFF0F3"/>
<path d="M222.101 173.199C221.007 173.199 220.034 173.021 219.182 172.666C218.335 172.306 217.669 171.816 217.186 171.196C216.703 170.576 216.462 169.873 216.462 169.087C216.462 168.481 216.599 167.924 216.874 167.418C217.153 166.906 217.532 166.482 218.01 166.146C218.489 165.805 219.024 165.588 219.615 165.493V165.393C218.839 165.237 218.209 164.861 217.726 164.264C217.243 163.663 217.002 162.964 217.002 162.169C217.002 161.416 217.222 160.746 217.662 160.159C218.103 159.567 218.706 159.103 219.473 158.767C220.245 158.426 221.121 158.256 222.101 158.256C223.081 158.256 223.955 158.426 224.722 158.767C225.494 159.108 226.1 159.574 226.54 160.166C226.98 160.753 227.203 161.421 227.208 162.169C227.203 162.969 226.957 163.668 226.469 164.264C225.981 164.861 225.356 165.237 224.594 165.393V165.493C225.176 165.588 225.704 165.805 226.178 166.146C226.656 166.482 227.035 166.906 227.314 167.418C227.598 167.924 227.743 168.481 227.748 169.087C227.743 169.873 227.499 170.576 227.016 171.196C226.533 171.816 225.865 172.306 225.013 172.666C224.166 173.021 223.195 173.199 222.101 173.199ZM222.101 170.94C222.589 170.94 223.015 170.853 223.38 170.678C223.744 170.498 224.028 170.251 224.232 169.939C224.44 169.622 224.544 169.257 224.544 168.845C224.544 168.424 224.438 168.052 224.225 167.73C224.012 167.403 223.723 167.148 223.358 166.963C222.994 166.774 222.575 166.679 222.101 166.679C221.632 166.679 221.213 166.774 220.844 166.963C220.475 167.148 220.184 167.403 219.971 167.73C219.762 168.052 219.658 168.424 219.658 168.845C219.658 169.257 219.76 169.622 219.963 169.939C220.167 170.251 220.453 170.498 220.823 170.678C221.192 170.853 221.618 170.94 222.101 170.94ZM222.101 164.442C222.508 164.442 222.871 164.359 223.188 164.193C223.505 164.027 223.754 163.798 223.934 163.504C224.114 163.211 224.203 162.872 224.203 162.489C224.203 162.11 224.114 161.778 223.934 161.494C223.754 161.205 223.507 160.981 223.195 160.82C222.882 160.654 222.518 160.571 222.101 160.571C221.689 160.571 221.325 160.654 221.007 160.82C220.69 160.981 220.442 161.205 220.262 161.494C220.087 161.778 219.999 162.11 219.999 162.489C219.999 162.872 220.089 163.211 220.269 163.504C220.449 163.798 220.697 164.027 221.015 164.193C221.332 164.359 221.694 164.442 222.101 164.442ZM229.898 173V170.784L235.075 165.99C235.516 165.564 235.885 165.18 236.183 164.839C236.486 164.499 236.716 164.165 236.872 163.838C237.028 163.507 237.107 163.149 237.107 162.766C237.107 162.339 237.009 161.973 236.815 161.665C236.621 161.352 236.356 161.113 236.02 160.947C235.684 160.777 235.303 160.692 234.876 160.692C234.431 160.692 234.043 160.782 233.712 160.962C233.38 161.142 233.125 161.4 232.945 161.736C232.765 162.072 232.675 162.472 232.675 162.936H229.756C229.756 161.984 229.971 161.158 230.402 160.457C230.833 159.757 231.437 159.214 232.213 158.831C232.99 158.447 233.884 158.256 234.898 158.256C235.939 158.256 236.846 158.44 237.618 158.81C238.394 159.174 238.998 159.681 239.429 160.33C239.86 160.978 240.075 161.722 240.075 162.56C240.075 163.109 239.966 163.651 239.749 164.186C239.536 164.721 239.154 165.315 238.605 165.969C238.056 166.617 237.282 167.396 236.283 168.305L234.159 170.386V170.486H240.267V173H229.898ZM250.457 170.273V169.506C250.457 168.923 250.58 168.388 250.826 167.901C251.077 167.408 251.44 167.015 251.913 166.722C252.391 166.423 252.974 166.274 253.66 166.274C254.356 166.274 254.941 166.421 255.414 166.714C255.893 167.008 256.252 167.401 256.494 167.893C256.74 168.381 256.863 168.919 256.863 169.506V170.273C256.863 170.855 256.74 171.393 256.494 171.885C256.248 172.373 255.886 172.763 255.407 173.057C254.929 173.355 254.347 173.504 253.66 173.504C252.964 173.504 252.379 173.355 251.906 173.057C251.432 172.763 251.073 172.373 250.826 171.885C250.58 171.393 250.457 170.855 250.457 170.273ZM252.524 169.506V170.273C252.524 170.609 252.604 170.926 252.765 171.224C252.931 171.523 253.229 171.672 253.66 171.672C254.091 171.672 254.385 171.525 254.541 171.232C254.702 170.938 254.782 170.618 254.782 170.273V169.506C254.782 169.16 254.707 168.838 254.555 168.54C254.404 168.241 254.105 168.092 253.66 168.092C253.234 168.092 252.938 168.241 252.772 168.54C252.607 168.838 252.524 169.16 252.524 169.506ZM242.993 161.949V161.182C242.993 160.595 243.118 160.057 243.369 159.57C243.62 159.077 243.982 158.684 244.456 158.391C244.934 158.097 245.511 157.95 246.189 157.95C246.889 157.95 247.476 158.097 247.95 158.391C248.423 158.684 248.783 159.077 249.029 159.57C249.276 160.057 249.399 160.595 249.399 161.182V161.949C249.399 162.536 249.273 163.073 249.022 163.561C248.776 164.049 248.414 164.439 247.936 164.733C247.462 165.022 246.88 165.166 246.189 165.166C245.497 165.166 244.913 165.019 244.434 164.726C243.961 164.428 243.601 164.037 243.355 163.554C243.113 163.066 242.993 162.531 242.993 161.949ZM245.074 161.182V161.949C245.074 162.295 245.154 162.614 245.315 162.908C245.481 163.201 245.772 163.348 246.189 163.348C246.624 163.348 246.92 163.201 247.076 162.908C247.237 162.614 247.318 162.295 247.318 161.949V161.182C247.318 160.836 247.242 160.514 247.091 160.216C246.939 159.918 246.638 159.768 246.189 159.768C245.767 159.768 245.476 159.92 245.315 160.223C245.154 160.526 245.074 160.846 245.074 161.182ZM243.93 173L253.93 158.455H255.791L245.791 173H243.93Z" fill="#EFF0F3"/>
<path d="M368.751 158.455V173H365.676V161.374H365.591L362.26 163.462V160.734L365.861 158.455H368.751ZM377.911 173.32C376.69 173.315 375.639 173.014 374.758 172.418C373.882 171.821 373.207 170.957 372.734 169.825C372.265 168.694 372.033 167.332 372.038 165.741C372.038 164.155 372.272 162.804 372.741 161.686C373.214 160.569 373.889 159.719 374.765 159.136C375.646 158.549 376.695 158.256 377.911 158.256C379.128 158.256 380.175 158.549 381.051 159.136C381.931 159.723 382.608 160.576 383.082 161.693C383.555 162.806 383.79 164.155 383.785 165.741C383.785 167.337 383.548 168.701 383.075 169.832C382.606 170.964 381.934 171.828 381.058 172.425C380.182 173.021 379.133 173.32 377.911 173.32ZM377.911 170.77C378.745 170.77 379.41 170.351 379.907 169.513C380.404 168.675 380.651 167.418 380.646 165.741C380.646 164.638 380.532 163.72 380.305 162.986C380.082 162.252 379.765 161.7 379.353 161.331C378.946 160.962 378.465 160.777 377.911 160.777C377.083 160.777 376.42 161.191 375.923 162.02C375.426 162.848 375.175 164.089 375.17 165.741C375.17 166.859 375.281 167.792 375.504 168.54C375.731 169.283 376.051 169.842 376.463 170.216C376.874 170.585 377.357 170.77 377.911 170.77ZM391.681 173.32C390.459 173.315 389.408 173.014 388.528 172.418C387.652 171.821 386.977 170.957 386.503 169.825C386.035 168.694 385.803 167.332 385.807 165.741C385.807 164.155 386.042 162.804 386.51 161.686C386.984 160.569 387.659 159.719 388.535 159.136C389.415 158.549 390.464 158.256 391.681 158.256C392.898 158.256 393.944 158.549 394.82 159.136C395.701 159.723 396.378 160.576 396.851 161.693C397.325 162.806 397.559 164.155 397.555 165.741C397.555 167.337 397.318 168.701 396.844 169.832C396.376 170.964 395.703 171.828 394.827 172.425C393.951 173.021 392.903 173.32 391.681 173.32ZM391.681 170.77C392.514 170.77 393.18 170.351 393.677 169.513C394.174 168.675 394.42 167.418 394.415 165.741C394.415 164.638 394.302 163.72 394.074 162.986C393.852 162.252 393.535 161.7 393.123 161.331C392.715 160.962 392.235 160.777 391.681 160.777C390.852 160.777 390.189 161.191 389.692 162.02C389.195 162.848 388.944 164.089 388.939 165.741C388.939 166.859 389.051 167.792 389.273 168.54C389.501 169.283 389.82 169.842 390.232 170.216C390.644 170.585 391.127 170.77 391.681 170.77ZM407.709 170.273V169.506C407.709 168.923 407.832 168.388 408.078 167.901C408.329 167.408 408.691 167.015 409.165 166.722C409.643 166.423 410.226 166.274 410.912 166.274C411.608 166.274 412.193 166.421 412.666 166.714C413.145 167.008 413.504 167.401 413.746 167.893C413.992 168.381 414.115 168.919 414.115 169.506V170.273C414.115 170.855 413.992 171.393 413.746 171.885C413.5 172.373 413.137 172.763 412.659 173.057C412.181 173.355 411.599 173.504 410.912 173.504C410.216 173.504 409.631 173.355 409.158 173.057C408.684 172.763 408.325 172.373 408.078 171.885C407.832 171.393 407.709 170.855 407.709 170.273ZM409.776 169.506V170.273C409.776 170.609 409.856 170.926 410.017 171.224C410.183 171.523 410.481 171.672 410.912 171.672C411.343 171.672 411.637 171.525 411.793 171.232C411.954 170.938 412.034 170.618 412.034 170.273V169.506C412.034 169.16 411.959 168.838 411.807 168.54C411.655 168.241 411.357 168.092 410.912 168.092C410.486 168.092 410.19 168.241 410.024 168.54C409.859 168.838 409.776 169.16 409.776 169.506ZM400.244 161.949V161.182C400.244 160.595 400.37 160.057 400.621 159.57C400.872 159.077 401.234 158.684 401.708 158.391C402.186 158.097 402.763 157.95 403.441 157.95C404.141 157.95 404.728 158.097 405.202 158.391C405.675 158.684 406.035 159.077 406.281 159.57C406.528 160.057 406.651 160.595 406.651 161.182V161.949C406.651 162.536 406.525 163.073 406.274 163.561C406.028 164.049 405.666 164.439 405.188 164.733C404.714 165.022 404.132 165.166 403.441 165.166C402.749 165.166 402.164 165.019 401.686 164.726C401.213 164.428 400.853 164.037 400.607 163.554C400.365 163.066 400.244 162.531 400.244 161.949ZM402.325 161.182V161.949C402.325 162.295 402.406 162.614 402.567 162.908C402.733 163.201 403.024 163.348 403.441 163.348C403.876 163.348 404.172 163.201 404.328 162.908C404.489 162.614 404.57 162.295 404.57 161.949V161.182C404.57 160.836 404.494 160.514 404.343 160.216C404.191 159.918 403.89 159.768 403.441 159.768C403.019 159.768 402.728 159.92 402.567 160.223C402.406 160.526 402.325 160.846 402.325 161.182ZM401.182 173L411.182 158.455H413.043L403.043 173H401.182Z" fill="#EFF0F3"/>
<g style="mix-blend-mode:plus-lighter" filter="url(#filter4_f_0_1)">
<ellipse cx="118.948" cy="128.948" rx="5.90151" ry="2" transform="rotate(45 118.948 128.948)" fill="#915BF0"/>
</g>
<g style="mix-blend-mode:plus-lighter" filter="url(#filter5_f_0_1)">
<ellipse cx="286" cy="164.5" rx="2" ry="7.5" fill="#915BF0"/>
</g>
<g style="mix-blend-mode:plus-lighter" filter="url(#filter6_f_0_1)">
<ellipse cx="426.207" cy="196.133" rx="2" ry="7.5" transform="rotate(38.1649 426.207 196.133)" fill="#915BF0"/>
</g>
</g>
<path d="M255.192 41.6924L213.5 0H486.5V45.5H264.385C260.937 45.5 257.63 44.1304 255.192 41.6924Z" fill="url(#paint25_linear_0_1)" fill-opacity="0.5"/>
<defs>
<filter id="filter0_b_0_1" x="-135.8" y="-132.8" width="746.6" height="582.6" filterUnits="userSpaceOnUse" color-interpolation-filters="sRGB">
<feFlood flood-opacity="0" result="BackgroundImageFix"/>
<feGaussianBlur in="BackgroundImageFix" stdDeviation="67.9"/>
<feComposite in2="SourceAlpha" operator="in" result="effect1_backgroundBlur_0_1"/>
<feBlend mode="normal" in="SourceGraphic" in2="effect1_backgroundBlur_0_1" result="shape"/>
</filter>
<filter id="filter1_f_0_1" x="32.3154" y="110.816" width="95.9346" height="95.9346" filterUnits="userSpaceOnUse" color-interpolation-filters="sRGB">
<feFlood flood-opacity="0" result="BackgroundImageFix"/>
<feBlend mode="normal" in="SourceGraphic" in2="BackgroundImageFix" result="shape"/>
<feGaussianBlur stdDeviation="2" result="effect1_foregroundBlur_0_1"/>
</filter>
<filter id="filter2_f_0_1" x="183.165" y="111.316" width="109.369" height="94.9346" filterUnits="userSpaceOnUse" color-interpolation-filters="sRGB">
<feFlood flood-opacity="0" result="BackgroundImageFix"/>
<feBlend mode="normal" in="SourceGraphic" in2="BackgroundImageFix" result="shape"/>
<feGaussianBlur stdDeviation="2" result="effect1_foregroundBlur_0_1"/>
</filter>
<filter id="filter3_f_0_1" x="333.515" y="111.316" width="109.369" height="95.2842" filterUnits="userSpaceOnUse" color-interpolation-filters="sRGB">
<feFlood flood-opacity="0" result="BackgroundImageFix"/>
<feBlend mode="normal" in="SourceGraphic" in2="BackgroundImageFix" result="shape"/>
<feGaussianBlur stdDeviation="2" result="effect1_foregroundBlur_0_1"/>
</filter>
<filter id="filter4_f_0_1" x="107.741" y="117.741" width="22.4145" height="22.4147" filterUnits="userSpaceOnUse" color-interpolation-filters="sRGB">
<feFlood flood-opacity="0" result="BackgroundImageFix"/>
<feBlend mode="normal" in="SourceGraphic" in2="BackgroundImageFix" result="shape"/>
<feGaussianBlur stdDeviation="3.4" result="effect1_foregroundBlur_0_1"/>
</filter>
<filter id="filter5_f_0_1" x="277.2" y="150.2" width="17.6" height="28.6" filterUnits="userSpaceOnUse" color-interpolation-filters="sRGB">
<feFlood flood-opacity="0" result="BackgroundImageFix"/>
<feBlend mode="normal" in="SourceGraphic" in2="BackgroundImageFix" result="shape"/>
<feGaussianBlur stdDeviation="3.4" result="effect1_foregroundBlur_0_1"/>
</filter>
<filter id="filter6_f_0_1" x="414.512" y="183.306" width="23.3905" height="25.6522" filterUnits="userSpaceOnUse" color-interpolation-filters="sRGB">
<feFlood flood-opacity="0" result="BackgroundImageFix"/>
<feBlend mode="normal" in="SourceGraphic" in2="BackgroundImageFix" result="shape"/>
<feGaussianBlur stdDeviation="3.4" result="effect1_foregroundBlur_0_1"/>
</filter>
<linearGradient id="paint0_linear_0_1" x1="237.5" y1="3" x2="237.5" y2="314" gradientUnits="userSpaceOnUse">
<stop stop-color="#2A274E"/>
<stop offset="1" stop-color="#090911"/>
</linearGradient>
<linearGradient id="paint1_linear_0_1" x1="317.5" y1="21.5" x2="279" y2="214.5" gradientUnits="userSpaceOnUse">
<stop stop-color="white"/>
<stop offset="1" stop-color="white" stop-opacity="0.1"/>
</linearGradient>
<linearGradient id="paint2_linear_0_1" x1="26" y1="42.5" x2="95.9801" y2="161.317" gradientUnits="userSpaceOnUse">
<stop stop-color="#1FC5D6"/>
<stop offset="0.575" stop-color="#1FC5D6" stop-opacity="0"/>
</linearGradient>
<linearGradient id="paint3_linear_0_1" x1="79" y1="38.5" x2="184" y2="38.5" gradientUnits="userSpaceOnUse">
<stop stop-color="#EFF0F3"/>
<stop offset="1" stop-color="#45378A"/>
</linearGradient>
<linearGradient id="paint4_linear_0_1" x1="38.7666" y1="35.5671" x2="47.7818" y2="44.931" gradientUnits="userSpaceOnUse">
<stop stop-color="#D0B9F9"/>
<stop offset="1" stop-color="white" stop-opacity="0.1"/>
</linearGradient>
<radialGradient id="paint5_radial_0_1" cx="0" cy="0" r="1" gradientUnits="userSpaceOnUse" gradientTransform="translate(39.573 44.512) rotate(81.2169) scale(18.7314 65.152)">
<stop stop-color="#915BF0"/>
<stop offset="0.365" stop-color="#915BF0" stop-opacity="0"/>
</radialGradient>
<radialGradient id="paint6_radial_0_1" cx="0" cy="0" r="1" gradientUnits="userSpaceOnUse" gradientTransform="translate(43.9611 38.2939) rotate(93.8742) scale(14.914 40.4587)">
<stop stop-color="#1FC5D6"/>
<stop offset="0.365" stop-color="#1FC5D6" stop-opacity="0"/>
</radialGradient>
<linearGradient id="paint7_linear_0_1" x1="106.195" y1="116.603" x2="86.2259" y2="182.144" gradientUnits="userSpaceOnUse">
<stop stop-color="white"/>
<stop offset="1" stop-color="white" stop-opacity="0.1"/>
</linearGradient>
<linearGradient id="paint8_linear_0_1" x1="38.0758" y1="124.098" x2="66.4756" y2="155.669" gradientUnits="userSpaceOnUse">
<stop stop-color="#1FC5D6"/>
<stop offset="0.575" stop-color="#1FC5D6" stop-opacity="0"/>
</linearGradient>
<linearGradient id="paint9_linear_0_1" x1="256.544" y1="116.603" x2="236.576" y2="182.144" gradientUnits="userSpaceOnUse">
<stop stop-color="white"/>
<stop offset="1" stop-color="white" stop-opacity="0.1"/>
</linearGradient>
<linearGradient id="paint10_linear_0_1" x1="188.425" y1="124.098" x2="216.825" y2="155.669" gradientUnits="userSpaceOnUse">
<stop stop-color="#1FC5D6"/>
<stop offset="0.575" stop-color="#1FC5D6" stop-opacity="0"/>
</linearGradient>
<linearGradient id="paint11_linear_0_1" x1="406.894" y1="116.603" x2="386.925" y2="182.144" gradientUnits="userSpaceOnUse">
<stop stop-color="white"/>
<stop offset="1" stop-color="white" stop-opacity="0.1"/>
</linearGradient>
<linearGradient id="paint12_linear_0_1" x1="338.775" y1="124.098" x2="367.175" y2="155.669" gradientUnits="userSpaceOnUse">
<stop stop-color="#1FC5D6"/>
<stop offset="0.575" stop-color="#1FC5D6" stop-opacity="0"/>
</linearGradient>
<linearGradient id="paint13_linear_0_1" x1="87.5" y1="124" x2="87.5" y2="208" gradientUnits="userSpaceOnUse">
<stop stop-color="#2A274E"/>
<stop offset="1" stop-color="#090911"/>
</linearGradient>
<linearGradient id="paint14_linear_0_1" x1="101.816" y1="128.997" x2="86.8523" y2="178.694" gradientUnits="userSpaceOnUse">
<stop stop-color="white"/>
<stop offset="1" stop-color="white" stop-opacity="0.1"/>
</linearGradient>
<linearGradient id="paint15_linear_0_1" x1="49.6526" y1="134.669" x2="71.1161" y2="158.813" gradientUnits="userSpaceOnUse">
<stop stop-color="#1FC5D6"/>
<stop offset="0.575" stop-color="#1FC5D6" stop-opacity="0"/>
</linearGradient>
<linearGradient id="paint16_linear_0_1" x1="237.5" y1="124" x2="237.5" y2="208" gradientUnits="userSpaceOnUse">
<stop stop-color="#2A274E"/>
<stop offset="1" stop-color="#090911"/>
</linearGradient>
<linearGradient id="paint17_linear_0_1" x1="251.816" y1="128.997" x2="236.852" y2="178.694" gradientUnits="userSpaceOnUse">
<stop stop-color="white"/>
<stop offset="1" stop-color="white" stop-opacity="0.1"/>
</linearGradient>
<linearGradient id="paint18_linear_0_1" x1="199.653" y1="134.669" x2="221.116" y2="158.813" gradientUnits="userSpaceOnUse">
<stop stop-color="#1FC5D6"/>
<stop offset="0.575" stop-color="#1FC5D6" stop-opacity="0"/>
</linearGradient>
<linearGradient id="paint19_linear_0_1" x1="388.5" y1="124" x2="388.5" y2="208" gradientUnits="userSpaceOnUse">
<stop stop-color="#2A274E"/>
<stop offset="1" stop-color="#090911"/>
</linearGradient>
<linearGradient id="paint20_linear_0_1" x1="402.816" y1="128.997" x2="387.852" y2="178.694" gradientUnits="userSpaceOnUse">
<stop stop-color="white"/>
<stop offset="1" stop-color="white" stop-opacity="0.1"/>
</linearGradient>
<linearGradient id="paint21_linear_0_1" x1="350.653" y1="134.669" x2="372.116" y2="158.813" gradientUnits="userSpaceOnUse">
<stop stop-color="#1FC5D6"/>
<stop offset="0.575" stop-color="#1FC5D6" stop-opacity="0"/>
</linearGradient>
<linearGradient id="paint22_linear_0_1" x1="122" y1="131.5" x2="36.4999" y2="172.5" gradientUnits="userSpaceOnUse">
<stop stop-color="#915BF0"/>
<stop offset="1" stop-color="#915BF0" stop-opacity="0"/>
</linearGradient>
<linearGradient id="paint23_linear_0_1" x1="285.5" y1="162" x2="204" y2="210.5" gradientUnits="userSpaceOnUse">
<stop stop-color="#915BF0"/>
<stop offset="1" stop-color="#915BF0" stop-opacity="0"/>
</linearGradient>
<linearGradient id="paint24_linear_0_1" x1="422.449" y1="131.75" x2="353.949" y2="200.25" gradientUnits="userSpaceOnUse">
<stop stop-color="#915BF0"/>
<stop offset="1" stop-color="#915BF0" stop-opacity="0"/>
</linearGradient>
<linearGradient id="paint25_linear_0_1" x1="213.5" y1="22.75" x2="486.5" y2="22.75" gradientUnits="userSpaceOnUse">
<stop stop-color="#04030C"/>
<stop offset="1" stop-color="#04030C" stop-opacity="0"/>
</linearGradient>
</defs>
</svg>
