<svg width="960" height="640" viewBox="0 0 960 640" fill="none" xmlns="http://www.w3.org/2000/svg">
<g filter="url(#filter0_f_0_1)">
<rect width="378.703" height="378.703" rx="189.351" transform="matrix(0.866044 -0.499967 0.866044 0.499967 186 270.339)" fill="#0A071D"/>
</g>
<rect x="0.866044" width="361.968" height="361.968" rx="180.984" transform="matrix(0.866044 -0.499967 0.866044 0.499967 177.743 258.772)" stroke="#615B8A" stroke-opacity="0.2"/>
<rect x="0.866044" width="521.174" height="521.174" rx="260.587" transform="matrix(0.866044 -0.499967 0.866044 0.499967 39.8641 258.772)" stroke="#615B8A" stroke-opacity="0.1"/>
<rect width="119.288" height="119.288" rx="59.6441" transform="matrix(0.866044 -0.499967 0.866044 0.499967 135 371.517)" fill="url(#paint0_linear_0_1)" fill-opacity="0.8"/>
<rect x="0.866044" width="118.288" height="118.288" rx="59.1441" transform="matrix(0.866044 -0.499967 0.866044 0.499967 135.116 371.95)" stroke="url(#paint1_linear_0_1)" stroke-opacity="0.08"/>
<rect x="0.866044" width="118.288" height="118.288" rx="59.1441" transform="matrix(0.866044 -0.499967 0.866044 0.499967 135.116 371.95)" stroke="url(#paint2_linear_0_1)" stroke-opacity="0.3"/>
<g opacity="0.6">
<path fill-rule="evenodd" clip-rule="evenodd" d="M190.952 368.388C190.429 368.085 189.58 368.085 189.056 368.388C188.533 368.69 188.533 369.18 189.056 369.482L210.24 381.712C208.106 383.131 208.208 385.282 210.545 386.631L216.865 390.28C219.308 391.69 223.27 391.69 225.713 390.28L228.873 388.455L235.194 392.104C237.637 393.515 241.598 393.515 244.042 392.104L271.851 376.05C274.294 374.639 274.294 372.352 271.851 370.942L265.531 367.293L268.691 365.469C271.134 364.058 271.134 361.771 268.691 360.361L262.37 356.712C260.033 355.363 256.307 355.304 253.849 356.536L232.666 344.307C232.142 344.004 231.293 344.004 230.769 344.307C230.246 344.609 230.246 345.099 230.769 345.401L251.942 357.624L250.362 358.536L244.042 354.888C241.598 353.477 237.637 353.477 235.194 354.888L207.385 370.942C204.941 372.352 204.941 374.639 207.385 376.05L213.705 379.699L212.125 380.611L190.952 368.388ZM225.081 376.05C222.638 377.46 222.638 379.747 225.081 381.158L226.345 381.888C228.789 383.298 232.75 383.298 235.194 381.888L254.154 370.942C256.598 369.531 256.598 367.244 254.154 365.834L252.89 365.104C250.447 363.693 246.485 363.693 244.042 365.104L225.081 376.05Z" fill="url(#paint3_linear_0_1)"/>
<path fill-rule="evenodd" clip-rule="evenodd" d="M190.952 368.388C190.429 368.085 189.58 368.085 189.056 368.388C188.533 368.69 188.533 369.18 189.056 369.482L210.24 381.712C208.106 383.131 208.208 385.282 210.545 386.631L216.865 390.28C219.308 391.69 223.27 391.69 225.713 390.28L228.873 388.455L235.194 392.104C237.637 393.515 241.598 393.515 244.042 392.104L271.851 376.05C274.294 374.639 274.294 372.352 271.851 370.942L265.531 367.293L268.691 365.469C271.134 364.058 271.134 361.771 268.691 360.361L262.37 356.712C260.033 355.363 256.307 355.304 253.849 356.536L232.666 344.307C232.142 344.004 231.293 344.004 230.769 344.307C230.246 344.609 230.246 345.099 230.769 345.401L251.942 357.624L250.362 358.536L244.042 354.888C241.598 353.477 237.637 353.477 235.194 354.888L207.385 370.942C204.941 372.352 204.941 374.639 207.385 376.05L213.705 379.699L212.125 380.611L190.952 368.388ZM225.081 376.05C222.638 377.46 222.638 379.747 225.081 381.158L226.345 381.888C228.789 383.298 232.75 383.298 235.194 381.888L254.154 370.942C256.598 369.531 256.598 367.244 254.154 365.834L252.89 365.104C250.447 363.693 246.485 363.693 244.042 365.104L225.081 376.05Z" fill="url(#paint4_radial_0_1)" fill-opacity="0.4"/>
<path fill-rule="evenodd" clip-rule="evenodd" d="M190.952 368.388C190.429 368.085 189.58 368.085 189.056 368.388C188.533 368.69 188.533 369.18 189.056 369.482L210.24 381.712C208.106 383.131 208.208 385.282 210.545 386.631L216.865 390.28C219.308 391.69 223.27 391.69 225.713 390.28L228.873 388.455L235.194 392.104C237.637 393.515 241.598 393.515 244.042 392.104L271.851 376.05C274.294 374.639 274.294 372.352 271.851 370.942L265.531 367.293L268.691 365.469C271.134 364.058 271.134 361.771 268.691 360.361L262.37 356.712C260.033 355.363 256.307 355.304 253.849 356.536L232.666 344.307C232.142 344.004 231.293 344.004 230.769 344.307C230.246 344.609 230.246 345.099 230.769 345.401L251.942 357.624L250.362 358.536L244.042 354.888C241.598 353.477 237.637 353.477 235.194 354.888L207.385 370.942C204.941 372.352 204.941 374.639 207.385 376.05L213.705 379.699L212.125 380.611L190.952 368.388ZM225.081 376.05C222.638 377.46 222.638 379.747 225.081 381.158L226.345 381.888C228.789 383.298 232.75 383.298 235.194 381.888L254.154 370.942C256.598 369.531 256.598 367.244 254.154 365.834L252.89 365.104C250.447 363.693 246.485 363.693 244.042 365.104L225.081 376.05Z" fill="url(#paint5_radial_0_1)" fill-opacity="0.4"/>
<path d="M189.056 369.482L188.84 369.607L189.056 369.482ZM210.24 381.712L210.471 381.828L210.658 381.703L210.456 381.587L210.24 381.712ZM225.713 390.28L225.93 390.405L225.713 390.28ZM228.873 388.455L229.09 388.33L228.873 388.205L228.657 388.33L228.873 388.455ZM265.531 367.293L265.314 367.168L265.097 367.293L265.314 367.418L265.531 367.293ZM253.849 356.536L253.633 356.661L253.835 356.778L254.05 356.67L253.849 356.536ZM232.666 344.307L232.882 344.182L232.666 344.307ZM251.942 357.624L252.159 357.749L252.375 357.624L252.159 357.499L251.942 357.624ZM250.362 358.536L250.146 358.661L250.362 358.786L250.579 358.661L250.362 358.536ZM213.705 379.699L213.921 379.824L214.138 379.699L213.921 379.574L213.705 379.699ZM212.125 380.611L211.908 380.736L212.125 380.861L212.341 380.736L212.125 380.611ZM225.081 381.158L225.298 381.033L225.081 381.158ZM226.345 381.888L226.129 382.013L226.345 381.888ZM189.273 368.513C189.677 368.279 190.332 368.279 190.736 368.513L191.169 368.263C190.526 367.891 189.483 367.891 188.84 368.263L189.273 368.513ZM189.273 369.357C188.869 369.124 188.869 368.746 189.273 368.513L188.84 368.263C188.196 368.634 188.196 369.236 188.84 369.607L189.273 369.357ZM210.456 381.587L189.273 369.357L188.84 369.607L210.023 381.837L210.456 381.587ZM210.761 386.506C208.539 385.223 208.442 383.177 210.471 381.828L210.009 381.596C207.77 383.084 207.877 385.341 210.328 386.756L210.761 386.506ZM217.082 390.155L210.761 386.506L210.328 386.756L216.649 390.405L217.082 390.155ZM225.497 390.155C223.173 391.496 219.405 391.496 217.082 390.155L216.649 390.405C219.211 391.884 223.367 391.884 225.93 390.405L225.497 390.155ZM228.657 388.33L225.497 390.155L225.93 390.405L229.09 388.58L228.657 388.33ZM235.41 391.979L229.09 388.33L228.657 388.58L234.977 392.229L235.41 391.979ZM243.825 391.979C241.502 393.32 237.734 393.32 235.41 391.979L234.977 392.229C237.54 393.709 241.695 393.709 244.258 392.229L243.825 391.979ZM271.634 375.925L243.825 391.979L244.258 392.229L272.067 376.175L271.634 375.925ZM271.634 371.067C273.958 372.408 273.958 374.583 271.634 375.925L272.067 376.175C274.63 374.695 274.63 372.296 272.067 370.817L271.634 371.067ZM265.314 367.418L271.634 371.067L272.067 370.817L265.747 367.168L265.314 367.418ZM268.474 365.344L265.314 367.168L265.747 367.418L268.907 365.594L268.474 365.344ZM268.474 360.486C270.798 361.827 270.798 364.002 268.474 365.344L268.907 365.594C271.47 364.114 271.47 361.715 268.907 360.236L268.474 360.486ZM262.154 356.837L268.474 360.486L268.907 360.236L262.587 356.587L262.154 356.837ZM254.05 356.67C256.387 355.498 259.931 355.554 262.154 356.837L262.587 356.587C260.135 355.172 256.227 355.11 253.649 356.403L254.05 356.67ZM232.449 344.432L253.633 356.661L254.066 356.411L232.882 344.182L232.449 344.432ZM230.986 344.432C231.39 344.198 232.045 344.198 232.449 344.432L232.882 344.182C232.239 343.81 231.196 343.81 230.553 344.182L230.986 344.432ZM230.986 345.276C230.582 345.043 230.582 344.665 230.986 344.432L230.553 344.182C229.91 344.553 229.91 345.155 230.553 345.526L230.986 345.276ZM252.159 357.499L230.986 345.276L230.553 345.526L251.726 357.749L252.159 357.499ZM250.579 358.661L252.159 357.749L251.726 357.499L250.146 358.411L250.579 358.661ZM243.825 355.013L250.146 358.661L250.579 358.411L244.258 354.763L243.825 355.013ZM235.41 355.013C237.734 353.671 241.502 353.671 243.825 355.013L244.258 354.763C241.695 353.283 237.54 353.283 234.977 354.763L235.41 355.013ZM207.601 371.067L235.41 355.013L234.977 354.763L207.168 370.817L207.601 371.067ZM207.601 375.925C205.277 374.583 205.277 372.408 207.601 371.067L207.168 370.817C204.605 372.296 204.605 374.695 207.168 376.175L207.601 375.925ZM213.921 379.574L207.601 375.925L207.168 376.175L213.488 379.824L213.921 379.574ZM212.341 380.736L213.921 379.824L213.488 379.574L211.908 380.486L212.341 380.736ZM190.736 368.513L211.908 380.736L212.341 380.486L191.169 368.263L190.736 368.513ZM225.298 381.033C222.974 379.691 222.974 377.516 225.298 376.175L224.865 375.925C222.302 377.404 222.302 379.803 224.865 381.283L225.298 381.033ZM226.562 381.763L225.298 381.033L224.865 381.283L226.129 382.013L226.562 381.763ZM234.977 381.763C232.653 383.104 228.886 383.104 226.562 381.763L226.129 382.013C228.692 383.492 232.847 383.492 235.41 382.013L234.977 381.763ZM253.938 370.817L234.977 381.763L235.41 382.013L254.371 371.067L253.938 370.817ZM253.938 365.959C256.261 367.3 256.261 369.475 253.938 370.817L254.371 371.067C256.934 369.587 256.934 367.188 254.371 365.709L253.938 365.959ZM252.674 365.229L253.938 365.959L254.371 365.709L253.107 364.979L252.674 365.229ZM244.258 365.229C246.582 363.887 250.35 363.887 252.674 365.229L253.107 364.979C250.544 363.499 246.388 363.499 243.825 364.979L244.258 365.229ZM225.298 376.175L244.258 365.229L243.825 364.979L224.865 375.925L225.298 376.175Z" fill="url(#paint6_linear_0_1)" fill-opacity="0.4"/>
</g>
<rect width="151.55" height="151.55" rx="75.7752" transform="matrix(0.866044 -0.499967 0.866044 0.499967 219.334 317.565)" fill="url(#paint7_linear_0_1)" fill-opacity="0.8"/>
<rect width="151.55" height="151.55" rx="75.7752" transform="matrix(0.866044 -0.499967 0.866044 0.499967 219.334 317.565)" fill="url(#paint8_radial_0_1)"/>
<rect x="0.866044" width="150.55" height="150.55" rx="75.2752" transform="matrix(0.866044 -0.499967 0.866044 0.499967 219.45 317.998)" stroke="url(#paint9_linear_0_1)" stroke-opacity="0.38"/>
<rect x="0.866044" width="150.55" height="150.55" rx="75.2752" transform="matrix(0.866044 -0.499967 0.866044 0.499967 219.45 317.998)" stroke="url(#paint10_linear_0_1)" stroke-opacity="0.3"/>
<g opacity="0.4">
<path fill-rule="evenodd" clip-rule="evenodd" d="M375.076 330.336C386.637 323.662 390.184 314.24 385.385 306.463L387.375 300.911C387.511 300.531 387.34 300.136 386.912 299.838L386.603 299.622C383.488 297.452 380.017 295.461 376.238 293.676C375.75 293.445 375.109 293.354 374.491 293.428L364.808 294.585C351.338 291.814 335.017 293.862 323.456 300.536C311.895 307.21 308.348 316.632 313.147 324.409L311.144 329.998C311.016 330.355 311.174 330.725 311.573 331.007C314.665 333.189 318.114 335.192 321.874 336.991L322.246 337.169C322.764 337.416 323.448 337.515 324.106 337.436L333.724 336.287C347.194 339.058 363.515 337.01 375.076 330.336ZM322.704 314.634C322.935 314.157 323.785 313.882 324.622 313.994L326.08 314.188C326.637 314.262 327.221 314.165 327.626 313.932L346.66 302.943C347.065 302.709 347.233 302.372 347.104 302.05L346.768 301.209C346.575 300.726 347.051 300.235 347.877 300.102C358.095 298.45 368.894 299.676 376.249 303.922C385.539 309.285 386.482 317.818 379.582 324.842C379.229 325.201 378.505 325.375 377.81 325.282L375.972 325.037C375.415 324.963 374.83 325.06 374.426 325.293L366.341 329.961C365.936 330.194 365.769 330.532 365.897 330.853L366.321 331.914C366.482 332.316 366.181 332.734 365.56 332.937C353.392 336.921 338.612 336.376 329.322 331.013C321.966 326.767 319.843 320.533 322.704 314.634Z" fill="url(#paint11_linear_0_1)"/>
<path fill-rule="evenodd" clip-rule="evenodd" d="M375.076 330.336C386.637 323.662 390.184 314.24 385.385 306.463L387.375 300.911C387.511 300.531 387.34 300.136 386.912 299.838L386.603 299.622C383.488 297.452 380.017 295.461 376.238 293.676C375.75 293.445 375.109 293.354 374.491 293.428L364.808 294.585C351.338 291.814 335.017 293.862 323.456 300.536C311.895 307.21 308.348 316.632 313.147 324.409L311.144 329.998C311.016 330.355 311.174 330.725 311.573 331.007C314.665 333.189 318.114 335.192 321.874 336.991L322.246 337.169C322.764 337.416 323.448 337.515 324.106 337.436L333.724 336.287C347.194 339.058 363.515 337.01 375.076 330.336ZM322.704 314.634C322.935 314.157 323.785 313.882 324.622 313.994L326.08 314.188C326.637 314.262 327.221 314.165 327.626 313.932L346.66 302.943C347.065 302.709 347.233 302.372 347.104 302.05L346.768 301.209C346.575 300.726 347.051 300.235 347.877 300.102C358.095 298.45 368.894 299.676 376.249 303.922C385.539 309.285 386.482 317.818 379.582 324.842C379.229 325.201 378.505 325.375 377.81 325.282L375.972 325.037C375.415 324.963 374.83 325.06 374.426 325.293L366.341 329.961C365.936 330.194 365.769 330.532 365.897 330.853L366.321 331.914C366.482 332.316 366.181 332.734 365.56 332.937C353.392 336.921 338.612 336.376 329.322 331.013C321.966 326.767 319.843 320.533 322.704 314.634Z" fill="url(#paint12_radial_0_1)" fill-opacity="0.4"/>
<path fill-rule="evenodd" clip-rule="evenodd" d="M375.076 330.336C386.637 323.662 390.184 314.24 385.385 306.463L387.375 300.911C387.511 300.531 387.34 300.136 386.912 299.838L386.603 299.622C383.488 297.452 380.017 295.461 376.238 293.676C375.75 293.445 375.109 293.354 374.491 293.428L364.808 294.585C351.338 291.814 335.017 293.862 323.456 300.536C311.895 307.21 308.348 316.632 313.147 324.409L311.144 329.998C311.016 330.355 311.174 330.725 311.573 331.007C314.665 333.189 318.114 335.192 321.874 336.991L322.246 337.169C322.764 337.416 323.448 337.515 324.106 337.436L333.724 336.287C347.194 339.058 363.515 337.01 375.076 330.336ZM322.704 314.634C322.935 314.157 323.785 313.882 324.622 313.994L326.08 314.188C326.637 314.262 327.221 314.165 327.626 313.932L346.66 302.943C347.065 302.709 347.233 302.372 347.104 302.05L346.768 301.209C346.575 300.726 347.051 300.235 347.877 300.102C358.095 298.45 368.894 299.676 376.249 303.922C385.539 309.285 386.482 317.818 379.582 324.842C379.229 325.201 378.505 325.375 377.81 325.282L375.972 325.037C375.415 324.963 374.83 325.06 374.426 325.293L366.341 329.961C365.936 330.194 365.769 330.532 365.897 330.853L366.321 331.914C366.482 332.316 366.181 332.734 365.56 332.937C353.392 336.921 338.612 336.376 329.322 331.013C321.966 326.767 319.843 320.533 322.704 314.634Z" fill="url(#paint13_radial_0_1)" fill-opacity="0.4"/>
<path fill-rule="evenodd" clip-rule="evenodd" d="M375.076 330.336C386.637 323.662 390.184 314.24 385.385 306.463L387.375 300.911C387.511 300.531 387.34 300.136 386.912 299.838L386.603 299.622C383.488 297.452 380.017 295.461 376.238 293.676C375.75 293.445 375.109 293.354 374.491 293.428L364.808 294.585C351.338 291.814 335.017 293.862 323.456 300.536C311.895 307.21 308.348 316.632 313.147 324.409L311.144 329.998C311.016 330.355 311.174 330.725 311.573 331.007C314.665 333.189 318.114 335.192 321.874 336.991L322.246 337.169C322.764 337.416 323.448 337.515 324.106 337.436L333.724 336.287C347.194 339.058 363.515 337.01 375.076 330.336ZM322.704 314.634C322.935 314.157 323.785 313.882 324.622 313.994L326.08 314.188C326.637 314.262 327.221 314.165 327.626 313.932L346.66 302.943C347.065 302.709 347.233 302.372 347.104 302.05L346.768 301.209C346.575 300.726 347.051 300.235 347.877 300.102C358.095 298.45 368.894 299.676 376.249 303.922C385.539 309.285 386.482 317.818 379.582 324.842C379.229 325.201 378.505 325.375 377.81 325.282L375.972 325.037C375.415 324.963 374.83 325.06 374.426 325.293L366.341 329.961C365.936 330.194 365.769 330.532 365.897 330.853L366.321 331.914C366.482 332.316 366.181 332.734 365.56 332.937C353.392 336.921 338.612 336.376 329.322 331.013C321.966 326.767 319.843 320.533 322.704 314.634Z" stroke="url(#paint14_linear_0_1)" stroke-opacity="0.4"/>
<circle cx="2.70929" cy="2.70929" r="2.70929" transform="matrix(0.866044 -0.499967 0.866044 0.499967 336.752 320.854)" fill="url(#paint15_linear_0_1)"/>
<circle cx="2.70929" cy="2.70929" r="2.70929" transform="matrix(0.866044 -0.499967 0.866044 0.499967 336.752 320.854)" fill="url(#paint16_radial_0_1)" fill-opacity="0.4"/>
<circle cx="2.70929" cy="2.70929" r="2.70929" transform="matrix(0.866044 -0.499967 0.866044 0.499967 336.752 320.854)" fill="url(#paint17_radial_0_1)" fill-opacity="0.4"/>
<circle cx="2.70929" cy="2.70929" r="2.20929" transform="matrix(0.866044 -0.499967 0.866044 0.499967 336.752 320.854)" stroke="url(#paint18_linear_0_1)" stroke-opacity="0.4"/>
<circle cx="2.70929" cy="2.70929" r="2.70929" transform="matrix(0.866044 -0.499967 0.866044 0.499967 353.959 310.921)" fill="url(#paint19_linear_0_1)"/>
<circle cx="2.70929" cy="2.70929" r="2.70929" transform="matrix(0.866044 -0.499967 0.866044 0.499967 353.959 310.921)" fill="url(#paint20_radial_0_1)" fill-opacity="0.4"/>
<circle cx="2.70929" cy="2.70929" r="2.70929" transform="matrix(0.866044 -0.499967 0.866044 0.499967 353.959 310.921)" fill="url(#paint21_radial_0_1)" fill-opacity="0.4"/>
<circle cx="2.70929" cy="2.70929" r="2.20929" transform="matrix(0.866044 -0.499967 0.866044 0.499967 353.959 310.921)" stroke="url(#paint22_linear_0_1)" stroke-opacity="0.4"/>
</g>
<rect width="119.288" height="119.288" rx="59.6441" transform="matrix(0.866044 -0.499967 0.866044 0.499967 687.333 125.64)" fill="url(#paint23_linear_0_1)" fill-opacity="0.8"/>
<rect x="0.866044" width="118.288" height="118.288" rx="59.1441" transform="matrix(0.866044 -0.499967 0.866044 0.499967 687.449 126.073)" stroke="url(#paint24_linear_0_1)" stroke-opacity="0.08"/>
<rect x="0.866044" width="118.288" height="118.288" rx="59.1441" transform="matrix(0.866044 -0.499967 0.866044 0.499967 687.449 126.073)" stroke="url(#paint25_linear_0_1)" stroke-opacity="0.3"/>
<g opacity="0.5">
<path d="M798.27 120.672C799.142 117.292 797.052 113.518 792.148 110.687C784.434 106.234 772.677 105.8 765.888 109.719C759.099 113.639 759.85 120.426 767.564 124.879C772.468 127.71 779.005 128.917 784.861 128.414L787.678 130.04L778.739 135.201C776.579 136.448 776.579 138.47 778.739 139.717L788.237 145.2L827.348 122.622L817.85 117.138C815.69 115.891 812.187 115.891 810.027 117.138L801.088 122.299L798.27 120.672Z" fill="url(#paint26_linear_0_1)"/>
<path d="M798.27 120.672C799.142 117.292 797.052 113.518 792.148 110.687C784.434 106.234 772.677 105.8 765.888 109.719C759.099 113.639 759.85 120.426 767.564 124.879C772.468 127.71 779.005 128.917 784.861 128.414L787.678 130.04L778.739 135.201C776.579 136.448 776.579 138.47 778.739 139.717L788.237 145.2L827.348 122.622L817.85 117.138C815.69 115.891 812.187 115.891 810.027 117.138L801.088 122.299L798.27 120.672Z" fill="url(#paint27_radial_0_1)" fill-opacity="0.4"/>
<path d="M798.27 120.672C799.142 117.292 797.052 113.518 792.148 110.687C784.434 106.234 772.677 105.8 765.888 109.719C759.099 113.639 759.85 120.426 767.564 124.879C772.468 127.71 779.005 128.917 784.861 128.414L787.678 130.04L778.739 135.201C776.579 136.448 776.579 138.47 778.739 139.717L788.237 145.2L827.348 122.622L817.85 117.138C815.69 115.891 812.187 115.891 810.027 117.138L801.088 122.299L798.27 120.672Z" fill="url(#paint28_radial_0_1)" fill-opacity="0.4"/>
</g>
<path opacity="0.5" d="M780.043 111.224L768.494 117.891C767.125 118.682 767.81 120.033 769.701 120.273L784.498 122.148C786.244 122.369 787.8 121.471 787.416 120.463L784.168 111.921C783.753 110.829 781.412 110.434 780.043 111.224Z" fill="url(#paint29_linear_0_1)"/>
<g filter="url(#filter1_b_0_1)">
<rect width="153.577" height="153.577" rx="76.7883" transform="matrix(0.866044 -0.499967 0.866044 0.499967 537.667 172.479)" fill="url(#paint30_linear_0_1)" fill-opacity="0.8"/>
<rect x="0.866044" width="152.577" height="152.577" rx="76.2883" transform="matrix(0.866044 -0.499967 0.866044 0.499967 537.783 172.912)" stroke="url(#paint31_linear_0_1)" stroke-opacity="0.08"/>
<rect x="0.866044" width="152.577" height="152.577" rx="76.2883" transform="matrix(0.866044 -0.499967 0.866044 0.499967 537.783 172.912)" stroke="url(#paint32_linear_0_1)" stroke-opacity="0.3"/>
<g opacity="0.8">
<path fill-rule="evenodd" clip-rule="evenodd" d="M622.425 163.979C624.338 165.084 624.338 166.875 622.425 167.979C620.512 169.084 617.41 169.084 615.496 167.979C613.583 166.875 613.583 165.084 615.496 163.979C617.41 162.875 620.512 162.875 622.425 163.979ZM690.842 184.478C701.843 178.127 701.843 167.83 690.842 161.48C679.841 155.129 662.005 155.129 651.004 161.48C640.003 167.83 640.003 178.127 651.004 184.478C662.005 190.829 679.841 190.829 690.842 184.478ZM689.11 204.477C691.98 202.82 691.98 200.134 689.11 198.477C686.24 196.82 681.587 196.82 678.718 198.477C675.848 200.134 675.848 202.82 678.718 204.477C681.587 206.133 686.24 206.133 689.11 204.477ZM697.771 150.48C703.032 147.443 703.032 142.518 697.771 139.481C692.509 136.443 683.979 136.443 678.718 139.481C673.456 142.518 673.456 147.443 678.718 150.48C683.979 153.517 692.509 153.517 697.771 150.48ZM683.914 180.478C691.088 176.336 691.088 169.621 683.914 165.479C676.739 161.337 665.107 161.337 657.933 165.479C650.758 169.621 650.758 176.336 657.933 180.478C665.107 184.62 676.739 184.62 683.914 180.478Z" fill="url(#paint33_linear_0_1)"/>
<path fill-rule="evenodd" clip-rule="evenodd" d="M622.425 163.979C624.338 165.084 624.338 166.875 622.425 167.979C620.512 169.084 617.41 169.084 615.496 167.979C613.583 166.875 613.583 165.084 615.496 163.979C617.41 162.875 620.512 162.875 622.425 163.979ZM690.842 184.478C701.843 178.127 701.843 167.83 690.842 161.48C679.841 155.129 662.005 155.129 651.004 161.48C640.003 167.83 640.003 178.127 651.004 184.478C662.005 190.829 679.841 190.829 690.842 184.478ZM689.11 204.477C691.98 202.82 691.98 200.134 689.11 198.477C686.24 196.82 681.587 196.82 678.718 198.477C675.848 200.134 675.848 202.82 678.718 204.477C681.587 206.133 686.24 206.133 689.11 204.477ZM697.771 150.48C703.032 147.443 703.032 142.518 697.771 139.481C692.509 136.443 683.979 136.443 678.718 139.481C673.456 142.518 673.456 147.443 678.718 150.48C683.979 153.517 692.509 153.517 697.771 150.48ZM683.914 180.478C691.088 176.336 691.088 169.621 683.914 165.479C676.739 161.337 665.107 161.337 657.933 165.479C650.758 169.621 650.758 176.336 657.933 180.478C665.107 184.62 676.739 184.62 683.914 180.478Z" fill="url(#paint34_radial_0_1)" fill-opacity="0.4"/>
<path fill-rule="evenodd" clip-rule="evenodd" d="M622.425 163.979C624.338 165.084 624.338 166.875 622.425 167.979C620.512 169.084 617.41 169.084 615.496 167.979C613.583 166.875 613.583 165.084 615.496 163.979C617.41 162.875 620.512 162.875 622.425 163.979ZM690.842 184.478C701.843 178.127 701.843 167.83 690.842 161.48C679.841 155.129 662.005 155.129 651.004 161.48C640.003 167.83 640.003 178.127 651.004 184.478C662.005 190.829 679.841 190.829 690.842 184.478ZM689.11 204.477C691.98 202.82 691.98 200.134 689.11 198.477C686.24 196.82 681.587 196.82 678.718 198.477C675.848 200.134 675.848 202.82 678.718 204.477C681.587 206.133 686.24 206.133 689.11 204.477ZM697.771 150.48C703.032 147.443 703.032 142.518 697.771 139.481C692.509 136.443 683.979 136.443 678.718 139.481C673.456 142.518 673.456 147.443 678.718 150.48C683.979 153.517 692.509 153.517 697.771 150.48ZM683.914 180.478C691.088 176.336 691.088 169.621 683.914 165.479C676.739 161.337 665.107 161.337 657.933 165.479C650.758 169.621 650.758 176.336 657.933 180.478C665.107 184.62 676.739 184.62 683.914 180.478Z" fill="url(#paint35_radial_0_1)" fill-opacity="0.4"/>
<circle cx="12" cy="12" r="12" transform="matrix(0.866044 -0.499967 0.866044 0.499967 650.138 172.979)" fill="url(#paint36_linear_0_1)" fill-opacity="0.3"/>
</g>
</g>
<g filter="url(#filter2_bi_0_1)">
<rect width="240.453" height="240.453" rx="120.226" transform="matrix(0.866044 -0.499967 0.866044 0.499967 285.853 245.608)" fill="url(#paint37_linear_0_1)" fill-opacity="0.3"/>
<rect width="240.453" height="240.453" rx="120.226" transform="matrix(0.866044 -0.499967 0.866044 0.499967 285.853 245.608)" fill="url(#paint38_linear_0_1)" fill-opacity="0.05"/>
<rect x="0.866044" width="239.453" height="239.453" rx="119.726" transform="matrix(0.866044 -0.499967 0.866044 0.499967 285.969 246.041)" stroke="url(#paint39_linear_0_1)" stroke-opacity="0.08"/>
<rect x="0.866044" width="239.453" height="239.453" rx="119.726" transform="matrix(0.866044 -0.499967 0.866044 0.499967 285.969 246.041)" stroke="url(#paint40_linear_0_1)" stroke-opacity="0.3"/>
<path fill-rule="evenodd" clip-rule="evenodd" d="M457.422 291.654L426.162 207.699C424.741 203.881 430.617 200.488 437.231 201.309L582.658 219.355C589.875 220.251 592.509 225.405 587.289 228.419L473.122 294.327C467.902 297.341 458.974 295.82 457.422 291.654ZM525.263 258.52C542.549 248.541 542.18 232.149 524.44 221.907C506.699 211.665 478.305 211.453 461.019 221.432C443.733 231.411 444.102 247.803 461.843 258.044C479.583 268.286 507.978 268.499 525.263 258.52Z" fill="url(#paint41_linear_0_1)"/>
<path fill-rule="evenodd" clip-rule="evenodd" d="M457.422 291.654L426.162 207.699C424.741 203.881 430.617 200.488 437.231 201.309L582.658 219.355C589.875 220.251 592.509 225.405 587.289 228.419L473.122 294.327C467.902 297.341 458.974 295.82 457.422 291.654ZM525.263 258.52C542.549 248.541 542.18 232.149 524.44 221.907C506.699 211.665 478.305 211.453 461.019 221.432C443.733 231.411 444.102 247.803 461.843 258.044C479.583 268.286 507.978 268.499 525.263 258.52Z" fill="url(#paint42_radial_0_1)" fill-opacity="0.4"/>
<path fill-rule="evenodd" clip-rule="evenodd" d="M457.422 291.654L426.162 207.699C424.741 203.881 430.617 200.488 437.231 201.309L582.658 219.355C589.875 220.251 592.509 225.405 587.289 228.419L473.122 294.327C467.902 297.341 458.974 295.82 457.422 291.654ZM525.263 258.52C542.549 248.541 542.18 232.149 524.44 221.907C506.699 211.665 478.305 211.453 461.019 221.432C443.733 231.411 444.102 247.803 461.843 258.044C479.583 268.286 507.978 268.499 525.263 258.52Z" fill="url(#paint43_radial_0_1)" fill-opacity="0.4"/>
<path d="M426.162 207.699L426.761 207.625L426.162 207.699ZM457.422 291.654L456.823 291.728L457.422 291.654ZM437.231 201.309L437.36 200.963L437.36 200.963L437.231 201.309ZM582.658 219.355L582.529 219.701L582.529 219.701L582.658 219.355ZM425.563 207.773L456.823 291.728L458.021 291.579L426.761 207.625L425.563 207.773ZM437.36 200.963C430.312 200.089 424.048 203.704 425.563 207.773L426.761 207.625C425.433 204.058 430.923 200.888 437.102 201.655L437.36 200.963ZM582.786 219.01L437.36 200.963L437.102 201.655L582.529 219.701L582.786 219.01ZM587.722 228.669C593.285 225.457 590.478 219.964 582.786 219.01L582.529 219.701C589.272 220.538 591.733 225.353 586.856 228.169L587.722 228.669ZM473.555 294.577L587.722 228.669L586.856 228.169L472.689 294.077L473.555 294.577ZM456.823 291.728C458.477 296.168 467.992 297.789 473.555 294.577L472.689 294.077C467.812 296.893 459.47 295.472 458.021 291.579L456.823 291.728ZM524.007 222.157C541.519 232.267 541.866 248.435 524.83 258.27L525.696 258.77C543.232 248.647 542.842 232.031 524.873 221.657L524.007 222.157ZM461.452 221.682C478.488 211.847 506.495 212.047 524.007 222.157L524.873 221.657C506.904 211.284 478.121 211.058 460.586 221.182L461.452 221.682ZM462.276 257.794C444.764 247.685 444.416 231.516 461.452 221.682L460.586 221.182C443.051 231.305 443.441 247.921 461.41 258.294L462.276 257.794ZM524.83 258.27C507.794 268.105 479.788 267.904 462.276 257.794L461.41 258.294C479.379 268.668 508.161 268.893 525.696 258.77L524.83 258.27Z" fill="url(#paint44_linear_0_1)" fill-opacity="0.4"/>
<circle cx="8.10723" cy="8.10723" r="8.10723" transform="matrix(0.866044 -0.499967 0.866044 0.499967 470.525 235.026)" fill="#D9D9D9"/>
<circle cx="8.10723" cy="8.10723" r="7.60723" transform="matrix(0.866044 -0.499967 0.866044 0.499967 470.525 235.026)" stroke="url(#paint45_linear_0_1)" stroke-opacity="0.4"/>
<circle cx="8.10723" cy="8.10723" r="8.10723" transform="matrix(0.866044 -0.499967 0.866044 0.499967 495.099 239.079)" fill="#D9D9D9"/>
<circle cx="8.10723" cy="8.10723" r="7.60723" transform="matrix(0.866044 -0.499967 0.866044 0.499967 495.099 239.079)" stroke="url(#paint46_linear_0_1)" stroke-opacity="0.4"/>
<circle cx="8.10723" cy="8.10723" r="8.10723" transform="matrix(0.866044 -0.499967 0.866044 0.499967 477.546 249.212)" fill="#D9D9D9"/>
<circle cx="8.10723" cy="8.10723" r="7.60723" transform="matrix(0.866044 -0.499967 0.866044 0.499967 477.546 249.212)" stroke="url(#paint47_linear_0_1)" stroke-opacity="0.4"/>
</g>
<g filter="url(#filter3_f_0_1)">
<ellipse cx="170.586" cy="394.323" rx="112.493" ry="137.801" transform="rotate(-60 170.586 394.323)" fill="#04030C"/>
</g>
<g filter="url(#filter4_f_0_1)">
<ellipse cx="830.586" cy="103.323" rx="112.493" ry="137.801" transform="rotate(-60 830.586 103.323)" fill="#04030C"/>
</g>
<defs>
<filter id="filter0_f_0_1" x="114.4" y="9.4" width="799.147" height="521.878" filterUnits="userSpaceOnUse" color-interpolation-filters="sRGB">
<feFlood flood-opacity="0" result="BackgroundImageFix"/>
<feBlend mode="normal" in="SourceGraphic" in2="BackgroundImageFix" result="shape"/>
<feGaussianBlur stdDeviation="35.8" result="effect1_foregroundBlur_0_1"/>
</filter>
<filter id="filter1_b_0_1" x="533.667" y="91.6956" width="274.008" height="161.566" filterUnits="userSpaceOnUse" color-interpolation-filters="sRGB">
<feFlood flood-opacity="0" result="BackgroundImageFix"/>
<feGaussianBlur in="BackgroundImageFix" stdDeviation="2"/>
<feComposite in2="SourceAlpha" operator="in" result="effect1_backgroundBlur_0_1"/>
<feBlend mode="normal" in="SourceGraphic" in2="effect1_backgroundBlur_0_1" result="shape"/>
</filter>
<filter id="filter2_bi_0_1" x="277.053" y="116.589" width="434.085" height="258.037" filterUnits="userSpaceOnUse" color-interpolation-filters="sRGB">
<feFlood flood-opacity="0" result="BackgroundImageFix"/>
<feGaussianBlur in="BackgroundImageFix" stdDeviation="4.4"/>
<feComposite in2="SourceAlpha" operator="in" result="effect1_backgroundBlur_0_1"/>
<feBlend mode="normal" in="SourceGraphic" in2="effect1_backgroundBlur_0_1" result="shape"/>
<feColorMatrix in="SourceAlpha" type="matrix" values="0 0 0 0 0 0 0 0 0 0 0 0 0 0 0 0 0 0 127 0" result="hardAlpha"/>
<feOffset dx="-2" dy="4"/>
<feGaussianBlur stdDeviation="1"/>
<feComposite in2="hardAlpha" operator="arithmetic" k2="-1" k3="1"/>
<feColorMatrix type="matrix" values="0 0 0 0 1 0 0 0 0 1 0 0 0 0 1 0 0 0 0.02 0"/>
<feBlend mode="normal" in2="shape" result="effect2_innerShadow_0_1"/>
</filter>
<filter id="filter3_f_0_1" x="-141.375" y="94.9883" width="623.922" height="598.668" filterUnits="userSpaceOnUse" color-interpolation-filters="sRGB">
<feFlood flood-opacity="0" result="BackgroundImageFix"/>
<feBlend mode="normal" in="SourceGraphic" in2="BackgroundImageFix" result="shape"/>
<feGaussianBlur stdDeviation="90" result="effect1_foregroundBlur_0_1"/>
</filter>
<filter id="filter4_f_0_1" x="518.625" y="-196.012" width="623.922" height="598.668" filterUnits="userSpaceOnUse" color-interpolation-filters="sRGB">
<feFlood flood-opacity="0" result="BackgroundImageFix"/>
<feBlend mode="normal" in="SourceGraphic" in2="BackgroundImageFix" result="shape"/>
<feGaussianBlur stdDeviation="90" result="effect1_foregroundBlur_0_1"/>
</filter>
<linearGradient id="paint0_linear_0_1" x1="59.6441" y1="0" x2="59.6441" y2="119.288" gradientUnits="userSpaceOnUse">
<stop stop-color="#2A274E"/>
<stop offset="1" stop-color="#090911"/>
</linearGradient>
<linearGradient id="paint1_linear_0_1" x1="113.177" y1="83.4636" x2="79.3147" y2="51.7557" gradientUnits="userSpaceOnUse">
<stop stop-color="white"/>
<stop offset="1" stop-color="white" stop-opacity="0.1"/>
</linearGradient>
<linearGradient id="paint2_linear_0_1" x1="3.40951" y1="63.2713" x2="60.0104" y2="89.4574" gradientUnits="userSpaceOnUse">
<stop stop-color="#1FC5D6"/>
<stop offset="0.575" stop-color="#1FC5D6" stop-opacity="0"/>
</linearGradient>
<linearGradient id="paint3_linear_0_1" x1="216.616" y1="376.237" x2="249.289" y2="377.311" gradientUnits="userSpaceOnUse">
<stop stop-color="#D0B9F9"/>
<stop offset="1" stop-color="white" stop-opacity="0.1"/>
</linearGradient>
<radialGradient id="paint4_radial_0_1" cx="0" cy="0" r="1" gradientUnits="userSpaceOnUse" gradientTransform="translate(233.964 384.595) rotate(22.9178) scale(41.2794 108.033)">
<stop stop-color="#915BF0"/>
<stop offset="0.365" stop-color="#915BF0" stop-opacity="0"/>
</radialGradient>
<radialGradient id="paint5_radial_0_1" cx="0" cy="0" r="1" gradientUnits="userSpaceOnUse" gradientTransform="translate(230.708 373.702) rotate(33.4715) scale(29.5854 74.5282)">
<stop stop-color="#1FC5D6"/>
<stop offset="0.365" stop-color="#1FC5D6" stop-opacity="0"/>
</radialGradient>
<linearGradient id="paint6_linear_0_1" x1="209.913" y1="356.347" x2="233.926" y2="397.944" gradientUnits="userSpaceOnUse">
<stop stop-color="white"/>
<stop offset="1" stop-color="white" stop-opacity="0.04"/>
</linearGradient>
<linearGradient id="paint7_linear_0_1" x1="75.7752" y1="0" x2="75.7752" y2="151.55" gradientUnits="userSpaceOnUse">
<stop stop-color="#2A274E"/>
<stop offset="1" stop-color="#090911"/>
</linearGradient>
<radialGradient id="paint8_radial_0_1" cx="0" cy="0" r="1" gradientUnits="userSpaceOnUse" gradientTransform="translate(145.93 68.0292) rotate(-7.7795) scale(80.166 79.1169)">
<stop stop-color="#04030C"/>
<stop offset="1" stop-color="#04030C" stop-opacity="0"/>
</radialGradient>
<linearGradient id="paint9_linear_0_1" x1="159.322" y1="68.3535" x2="111.053" y2="45.9021" gradientUnits="userSpaceOnUse">
<stop stop-color="white"/>
<stop offset="1" stop-color="white" stop-opacity="0.1"/>
</linearGradient>
<linearGradient id="paint10_linear_0_1" x1="4.33164" y1="80.3834" x2="76.2406" y2="113.652" gradientUnits="userSpaceOnUse">
<stop stop-color="#1FC5D6"/>
<stop offset="0.575" stop-color="#1FC5D6" stop-opacity="0"/>
</linearGradient>
<linearGradient id="paint11_linear_0_1" x1="328.116" y1="323.379" x2="364.925" y2="329.591" gradientUnits="userSpaceOnUse">
<stop stop-color="#D0B9F9"/>
<stop offset="1" stop-color="white" stop-opacity="0.1"/>
</linearGradient>
<radialGradient id="paint12_radial_0_1" cx="0" cy="0" r="1" gradientUnits="userSpaceOnUse" gradientTransform="translate(347.022 332.21) rotate(21.824) scale(45.0194 133.921)">
<stop stop-color="#915BF0"/>
<stop offset="0.365" stop-color="#915BF0" stop-opacity="0"/>
</radialGradient>
<radialGradient id="paint13_radial_0_1" cx="0" cy="0" r="1" gradientUnits="userSpaceOnUse" gradientTransform="translate(344.954 319.677) rotate(34.0867) scale(31.6268 94.2544)">
<stop stop-color="#1FC5D6"/>
<stop offset="0.365" stop-color="#1FC5D6" stop-opacity="0"/>
</radialGradient>
<linearGradient id="paint14_linear_0_1" x1="323.456" y1="300.536" x2="349.263" y2="345.238" gradientUnits="userSpaceOnUse">
<stop stop-color="white"/>
<stop offset="1" stop-color="white" stop-opacity="0.04"/>
</linearGradient>
<linearGradient id="paint15_linear_0_1" x1="1.25861" y1="2.32138" x2="3.06785" y2="4.06309" gradientUnits="userSpaceOnUse">
<stop stop-color="#D0B9F9"/>
<stop offset="1" stop-color="white" stop-opacity="0.1"/>
</linearGradient>
<radialGradient id="paint16_radial_0_1" cx="0" cy="0" r="1" gradientUnits="userSpaceOnUse" gradientTransform="translate(1.40861 4.11651) rotate(81.8506) scale(3.75299 12.1385)">
<stop stop-color="#915BF0"/>
<stop offset="0.365" stop-color="#915BF0" stop-opacity="0"/>
</radialGradient>
<radialGradient id="paint17_radial_0_1" cx="0" cy="0" r="1" gradientUnits="userSpaceOnUse" gradientTransform="translate(2.22481 2.86861) rotate(93.5915) scale(2.9921 7.52789)">
<stop stop-color="#1FC5D6"/>
<stop offset="0.365" stop-color="#1FC5D6" stop-opacity="0"/>
</radialGradient>
<linearGradient id="paint18_linear_0_1" x1="2.70929" y1="0" x2="2.70929" y2="5.41858" gradientUnits="userSpaceOnUse">
<stop stop-color="white"/>
<stop offset="1" stop-color="white" stop-opacity="0.04"/>
</linearGradient>
<linearGradient id="paint19_linear_0_1" x1="1.25861" y1="2.32138" x2="3.06785" y2="4.06309" gradientUnits="userSpaceOnUse">
<stop stop-color="#D0B9F9"/>
<stop offset="1" stop-color="white" stop-opacity="0.1"/>
</linearGradient>
<radialGradient id="paint20_radial_0_1" cx="0" cy="0" r="1" gradientUnits="userSpaceOnUse" gradientTransform="translate(1.40861 4.11651) rotate(81.8506) scale(3.75299 12.1385)">
<stop stop-color="#915BF0"/>
<stop offset="0.365" stop-color="#915BF0" stop-opacity="0"/>
</radialGradient>
<radialGradient id="paint21_radial_0_1" cx="0" cy="0" r="1" gradientUnits="userSpaceOnUse" gradientTransform="translate(2.22481 2.86861) rotate(93.5915) scale(2.9921 7.52789)">
<stop stop-color="#1FC5D6"/>
<stop offset="0.365" stop-color="#1FC5D6" stop-opacity="0"/>
</radialGradient>
<linearGradient id="paint22_linear_0_1" x1="2.70929" y1="0" x2="2.70929" y2="5.41858" gradientUnits="userSpaceOnUse">
<stop stop-color="white"/>
<stop offset="1" stop-color="white" stop-opacity="0.04"/>
</linearGradient>
<linearGradient id="paint23_linear_0_1" x1="59.6441" y1="0" x2="59.6441" y2="119.288" gradientUnits="userSpaceOnUse">
<stop stop-color="#2A274E"/>
<stop offset="1" stop-color="#090911"/>
</linearGradient>
<linearGradient id="paint24_linear_0_1" x1="113.177" y1="83.4636" x2="79.3147" y2="51.7557" gradientUnits="userSpaceOnUse">
<stop stop-color="white"/>
<stop offset="1" stop-color="white" stop-opacity="0.1"/>
</linearGradient>
<linearGradient id="paint25_linear_0_1" x1="3.40951" y1="63.2713" x2="60.0104" y2="89.4574" gradientUnits="userSpaceOnUse">
<stop stop-color="#1FC5D6"/>
<stop offset="0.575" stop-color="#1FC5D6" stop-opacity="0"/>
</linearGradient>
<linearGradient id="paint26_linear_0_1" x1="773.369" y1="126.128" x2="799.651" y2="123.694" gradientUnits="userSpaceOnUse">
<stop stop-color="#D0B9F9"/>
<stop offset="1" stop-color="white" stop-opacity="0.1"/>
</linearGradient>
<radialGradient id="paint27_radial_0_1" cx="0" cy="0" r="1" gradientUnits="userSpaceOnUse" gradientTransform="translate(788.335 133.518) rotate(23.806) scale(35.5994 82.474)">
<stop stop-color="#915BF0"/>
<stop offset="0.365" stop-color="#915BF0" stop-opacity="0"/>
</radialGradient>
<radialGradient id="paint28_radial_0_1" cx="0" cy="0" r="1" gradientUnits="userSpaceOnUse" gradientTransform="translate(784.575 124.545) rotate(32.9895) scale(25.9201 56.0055)">
<stop stop-color="#1FC5D6"/>
<stop offset="0.365" stop-color="#1FC5D6" stop-opacity="0"/>
</radialGradient>
<linearGradient id="paint29_linear_0_1" x1="774.269" y1="114.558" x2="782.515" y2="130.692" gradientUnits="userSpaceOnUse">
<stop stop-color="#04030C"/>
<stop offset="0.67" stop-color="#04030C" stop-opacity="0"/>
</linearGradient>
<linearGradient id="paint30_linear_0_1" x1="76.7883" y1="0" x2="76.7883" y2="153.577" gradientUnits="userSpaceOnUse">
<stop stop-color="#2A274E"/>
<stop offset="1" stop-color="#090911"/>
</linearGradient>
<linearGradient id="paint31_linear_0_1" x1="145.709" y1="107.455" x2="102.113" y2="66.6324" gradientUnits="userSpaceOnUse">
<stop stop-color="white"/>
<stop offset="1" stop-color="white" stop-opacity="0.1"/>
</linearGradient>
<linearGradient id="paint32_linear_0_1" x1="4.38955" y1="81.4581" x2="77.26" y2="115.171" gradientUnits="userSpaceOnUse">
<stop stop-color="#1FC5D6"/>
<stop offset="0.575" stop-color="#1FC5D6" stop-opacity="0"/>
</linearGradient>
<linearGradient id="paint33_linear_0_1" x1="634.422" y1="166.556" x2="656.828" y2="194.151" gradientUnits="userSpaceOnUse">
<stop stop-color="#D0B9F9"/>
<stop offset="1" stop-color="white" stop-opacity="0.1"/>
</linearGradient>
<radialGradient id="paint34_radial_0_1" cx="0" cy="0" r="1" gradientUnits="userSpaceOnUse" gradientTransform="translate(636.848 189.255) rotate(79.6185) scale(47.758 195.117)">
<stop stop-color="#915BF0"/>
<stop offset="0.365" stop-color="#915BF0" stop-opacity="0"/>
</radialGradient>
<radialGradient id="paint35_radial_0_1" cx="0" cy="0" r="1" gradientUnits="userSpaceOnUse" gradientTransform="translate(650.052 173.476) rotate(94.5909) scale(37.8815 121.625)">
<stop stop-color="#1FC5D6"/>
<stop offset="0.365" stop-color="#1FC5D6" stop-opacity="0"/>
</radialGradient>
<linearGradient id="paint36_linear_0_1" x1="-6.32023" y1="10.3957" x2="17.516" y2="10.2292" gradientUnits="userSpaceOnUse">
<stop stop-color="white"/>
<stop offset="1" stop-color="white" stop-opacity="0"/>
</linearGradient>
<linearGradient id="paint37_linear_0_1" x1="120.226" y1="0" x2="120.226" y2="240.453" gradientUnits="userSpaceOnUse">
<stop stop-color="#2A274E"/>
<stop offset="1" stop-color="#090911"/>
</linearGradient>
<linearGradient id="paint38_linear_0_1" x1="80.2823" y1="90.4739" x2="164.083" y2="210.397" gradientUnits="userSpaceOnUse">
<stop stop-color="white"/>
<stop offset="0.37" stop-color="white" stop-opacity="0"/>
</linearGradient>
<linearGradient id="paint39_linear_0_1" x1="228.134" y1="168.24" x2="159.877" y2="104.326" gradientUnits="userSpaceOnUse">
<stop stop-color="white"/>
<stop offset="1" stop-color="white" stop-opacity="0.1"/>
</linearGradient>
<linearGradient id="paint40_linear_0_1" x1="6.87266" y1="127.538" x2="120.965" y2="180.322" gradientUnits="userSpaceOnUse">
<stop stop-color="#1FC5D6"/>
<stop offset="0.575" stop-color="#1FC5D6" stop-opacity="0"/>
</linearGradient>
<linearGradient id="paint41_linear_0_1" x1="438.077" y1="247.558" x2="510.385" y2="259.345" gradientUnits="userSpaceOnUse">
<stop stop-color="#D0B9F9"/>
<stop offset="1" stop-color="white" stop-opacity="0.1"/>
</linearGradient>
<radialGradient id="paint42_radial_0_1" cx="0" cy="0" r="1" gradientUnits="userSpaceOnUse" gradientTransform="translate(475.237 264.939) rotate(21.8735) scale(88.48 261.801)">
<stop stop-color="#915BF0"/>
<stop offset="0.365" stop-color="#915BF0" stop-opacity="0"/>
</radialGradient>
<radialGradient id="paint43_radial_0_1" cx="0" cy="0" r="1" gradientUnits="userSpaceOnUse" gradientTransform="translate(471.041 240.366) rotate(34.0583) scale(62.2157 184.088)">
<stop stop-color="#1FC5D6"/>
<stop offset="0.365" stop-color="#1FC5D6" stop-opacity="0"/>
</radialGradient>
<linearGradient id="paint44_linear_0_1" x1="428.683" y1="202.764" x2="479.438" y2="290.681" gradientUnits="userSpaceOnUse">
<stop stop-color="white"/>
<stop offset="1" stop-color="white" stop-opacity="0.04"/>
</linearGradient>
<linearGradient id="paint45_linear_0_1" x1="8.10723" y1="0" x2="8.10723" y2="16.2145" gradientUnits="userSpaceOnUse">
<stop stop-color="white"/>
<stop offset="1" stop-color="white" stop-opacity="0.04"/>
</linearGradient>
<linearGradient id="paint46_linear_0_1" x1="8.10723" y1="0" x2="8.10723" y2="16.2145" gradientUnits="userSpaceOnUse">
<stop stop-color="white"/>
<stop offset="1" stop-color="white" stop-opacity="0.04"/>
</linearGradient>
<linearGradient id="paint47_linear_0_1" x1="8.10723" y1="0" x2="8.10723" y2="16.2145" gradientUnits="userSpaceOnUse">
<stop stop-color="white"/>
<stop offset="1" stop-color="white" stop-opacity="0.04"/>
</linearGradient>
</defs>
</svg>
