<svg width="560" height="311" viewBox="0 0 560 311" fill="none" xmlns="http://www.w3.org/2000/svg">
<g filter="url(#filter0_b_12_1188)">
<rect width="624" height="311" rx="8" fill="url(#paint0_linear_12_1188)" fill-opacity="0.3"/>
<rect x="0.5" y="0.5" width="623" height="310" rx="7.5" stroke="url(#paint1_linear_12_1188)" stroke-opacity="0.08"/>
<rect x="0.5" y="0.5" width="623" height="310" rx="7.5" stroke="url(#paint2_linear_12_1188)" stroke-opacity="0.3"/>
<path d="M32.0742 40H30.2617L33.0234 32H35.2031L37.9609 40H36.1484L34.1445 33.8281H34.082L32.0742 40ZM31.9609 36.8555H36.2422V38.1758H31.9609V36.8555ZM41.3164 42.375C40.7773 42.375 40.3151 42.3008 39.9297 42.1523C39.5469 42.0065 39.2422 41.8073 39.0156 41.5547C38.7891 41.3021 38.6419 41.0182 38.5742 40.7031L40.1133 40.4961C40.1602 40.6159 40.2344 40.7279 40.3359 40.832C40.4375 40.9362 40.5716 41.0195 40.7383 41.082C40.9076 41.1471 41.1133 41.1797 41.3555 41.1797C41.7174 41.1797 42.0156 41.0911 42.25 40.9141C42.487 40.7396 42.6055 40.4466 42.6055 40.0352V38.9375H42.5352C42.4622 39.1042 42.3529 39.2617 42.207 39.4102C42.0612 39.5586 41.8737 39.6797 41.6445 39.7734C41.4154 39.8672 41.1419 39.9141 40.8242 39.9141C40.3737 39.9141 39.9635 39.8099 39.5938 39.6016C39.2266 39.3906 38.9336 39.069 38.7148 38.6367C38.4987 38.2018 38.3906 37.6523 38.3906 36.9883C38.3906 36.3086 38.5013 35.7409 38.7227 35.2852C38.944 34.8294 39.2383 34.4883 39.6055 34.2617C39.9753 34.0352 40.3802 33.9219 40.8203 33.9219C41.1563 33.9219 41.4375 33.9792 41.6641 34.0938C41.8906 34.2057 42.0729 34.3464 42.2109 34.5156C42.3516 34.6823 42.4596 34.8464 42.5352 35.0078H42.5977V34H44.25V40.0586C44.25 40.569 44.125 40.9961 43.875 41.3398C43.625 41.6836 43.2786 41.9414 42.8359 42.1133C42.3958 42.2878 41.8893 42.375 41.3164 42.375ZM41.3516 38.6641C41.6198 38.6641 41.8464 38.5977 42.0312 38.4648C42.2188 38.3294 42.362 38.1367 42.4609 37.8867C42.5625 37.6341 42.6133 37.332 42.6133 36.9805C42.6133 36.6289 42.5638 36.3242 42.4648 36.0664C42.3659 35.806 42.2227 35.6042 42.0352 35.4609C41.8477 35.3177 41.6198 35.2461 41.3516 35.2461C41.0781 35.2461 40.8477 35.3203 40.6602 35.4687C40.4727 35.6146 40.3307 35.8177 40.2344 36.0781C40.138 36.3385 40.0898 36.6393 40.0898 36.9805C40.0898 37.3268 40.138 37.6263 40.2344 37.8789C40.3333 38.1289 40.4753 38.3229 40.6602 38.4609C40.8477 38.5964 41.0781 38.6641 41.3516 38.6641ZM48.3086 40.1172C47.6914 40.1172 47.1602 39.9922 46.7148 39.7422C46.2721 39.4896 45.931 39.1328 45.6914 38.6719C45.4518 38.2083 45.332 37.6602 45.332 37.0273C45.332 36.4102 45.4518 35.8685 45.6914 35.4023C45.931 34.9362 46.2682 34.5729 46.7031 34.3125C47.1406 34.0521 47.6536 33.9219 48.2422 33.9219C48.638 33.9219 49.0065 33.9857 49.3477 34.1133C49.6914 34.2383 49.9909 34.4271 50.2461 34.6797C50.5039 34.9323 50.7044 35.25 50.8477 35.6328C50.9909 36.013 51.0625 36.4583 51.0625 36.9687V37.4258H45.9961V36.3945H49.4961C49.4961 36.1549 49.444 35.9427 49.3398 35.7578C49.2357 35.5729 49.0911 35.4284 48.9062 35.3242C48.724 35.2174 48.5117 35.1641 48.2695 35.1641C48.0169 35.1641 47.793 35.2227 47.5977 35.3398C47.4049 35.4544 47.2539 35.6094 47.1445 35.8047C47.0352 35.9974 46.9792 36.2122 46.9766 36.4492V37.4297C46.9766 37.7266 47.0313 37.9831 47.1406 38.1992C47.2526 38.4154 47.4102 38.582 47.6133 38.6992C47.8164 38.8164 48.0573 38.875 48.3359 38.875C48.5208 38.875 48.6901 38.849 48.8438 38.7969C48.9974 38.7448 49.1289 38.6667 49.2383 38.5625C49.3477 38.4583 49.431 38.3307 49.4883 38.1797L51.0273 38.2812C50.9492 38.651 50.7891 38.974 50.5469 39.25C50.3073 39.5234 49.9974 39.737 49.6172 39.8906C49.2396 40.0417 48.8034 40.1172 48.3086 40.1172ZM53.8125 36.5313V40H52.1484V34H53.7344V35.0586H53.8047C53.9375 34.7096 54.1602 34.4336 54.4727 34.2305C54.7852 34.0247 55.1641 33.9219 55.6094 33.9219C56.026 33.9219 56.3893 34.013 56.6992 34.1953C57.0091 34.3776 57.25 34.638 57.4219 34.9766C57.5938 35.3125 57.6797 35.7135 57.6797 36.1797V40H56.0156V36.4766C56.0182 36.1094 55.9245 35.8229 55.7344 35.6172C55.5443 35.4089 55.2826 35.3047 54.9492 35.3047C54.7253 35.3047 54.5273 35.3529 54.3555 35.4492C54.1862 35.5456 54.0534 35.6862 53.957 35.8711C53.8633 36.0534 53.8151 36.2734 53.8125 36.5313ZM62.1826 34V35.25H58.5693V34H62.1826ZM59.3896 32.5625H61.0537V38.1562C61.0537 38.3099 61.0771 38.4297 61.124 38.5156C61.1709 38.599 61.236 38.6576 61.3193 38.6914C61.4053 38.7253 61.5042 38.7422 61.6162 38.7422C61.6943 38.7422 61.7725 38.7357 61.8506 38.7227C61.9287 38.707 61.9886 38.6953 62.0303 38.6875L62.292 39.9258C62.2087 39.9518 62.0915 39.9818 61.9404 40.0156C61.7894 40.0521 61.6058 40.0742 61.3896 40.082C60.9886 40.0977 60.637 40.0443 60.335 39.9219C60.0355 39.7995 59.8024 39.6094 59.6357 39.3516C59.4691 39.0937 59.387 38.7682 59.3896 38.375V32.5625ZM68.5234 40.1172C67.9089 40.1172 67.3802 39.987 66.9375 39.7266C66.4974 39.4635 66.1589 39.099 65.9219 38.6328C65.6875 38.1667 65.5703 37.6302 65.5703 37.0234C65.5703 36.4089 65.6888 35.8698 65.9258 35.4062C66.1654 34.9401 66.5052 34.5768 66.9453 34.3164C67.3854 34.0534 67.9089 33.9219 68.5156 33.9219C69.0391 33.9219 69.4974 34.0169 69.8906 34.207C70.2839 34.3971 70.5951 34.6641 70.8242 35.0078C71.0534 35.3516 71.1797 35.7552 71.2031 36.2188H69.6328C69.5885 35.9193 69.4714 35.6784 69.2813 35.4961C69.0938 35.3112 68.8477 35.2187 68.543 35.2187C68.2852 35.2187 68.0599 35.2891 67.8672 35.4297C67.6771 35.5677 67.5286 35.7695 67.4219 36.0352C67.3151 36.3008 67.2617 36.6224 67.2617 37C67.2617 37.3828 67.3138 37.7083 67.418 37.9766C67.5247 38.2448 67.6745 38.4492 67.8672 38.5898C68.0599 38.7305 68.2852 38.8008 68.543 38.8008C68.7331 38.8008 68.9036 38.7617 69.0547 38.6836C69.2083 38.6055 69.3346 38.4922 69.4336 38.3437C69.5352 38.1927 69.6016 38.0117 69.6328 37.8008H71.2031C71.1771 38.2591 71.0521 38.6628 70.8281 39.0117C70.6068 39.3581 70.3008 39.6289 69.9102 39.8242C69.5195 40.0195 69.0573 40.1172 68.5234 40.1172ZM74.9795 40.1172C74.3727 40.1172 73.848 39.9883 73.4053 39.7305C72.9652 39.4701 72.6253 39.1081 72.3857 38.6445C72.1462 38.1784 72.0264 37.638 72.0264 37.0234C72.0264 36.4036 72.1462 35.862 72.3857 35.3984C72.6253 34.9323 72.9652 34.5703 73.4053 34.3125C73.848 34.0521 74.3727 33.9219 74.9795 33.9219C75.5863 33.9219 76.1097 34.0521 76.5498 34.3125C76.9925 34.5703 77.3337 34.9323 77.5732 35.3984C77.8128 35.862 77.9326 36.4036 77.9326 37.0234C77.9326 37.638 77.8128 38.1784 77.5732 38.6445C77.3337 39.1081 76.9925 39.4701 76.5498 39.7305C76.1097 39.9883 75.5863 40.1172 74.9795 40.1172ZM74.9873 38.8281C75.2633 38.8281 75.4938 38.75 75.6787 38.5938C75.8636 38.4349 76.0029 38.2187 76.0967 37.9453C76.193 37.6719 76.2412 37.3607 76.2412 37.0117C76.2412 36.6628 76.193 36.3516 76.0967 36.0781C76.0029 35.8047 75.8636 35.5885 75.6787 35.4297C75.4938 35.2708 75.2633 35.1914 74.9873 35.1914C74.7087 35.1914 74.4743 35.2708 74.2842 35.4297C74.0967 35.5885 73.9548 35.8047 73.8584 36.0781C73.7646 36.3516 73.7178 36.6628 73.7178 37.0117C73.7178 37.3607 73.7646 37.6719 73.8584 37.9453C73.9548 38.2187 74.0967 38.4349 74.2842 38.5938C74.4743 38.75 74.7087 38.8281 74.9873 38.8281ZM79.0146 40V34H80.6006V35.0586H80.6709C80.7959 34.707 81.0042 34.4297 81.2959 34.2266C81.5876 34.0234 81.9365 33.9219 82.3428 33.9219C82.7542 33.9219 83.1045 34.0247 83.3936 34.2305C83.6826 34.4336 83.8753 34.7096 83.9717 35.0586H84.0342C84.1566 34.7148 84.3779 34.4401 84.6982 34.2344C85.0212 34.026 85.4027 33.9219 85.8428 33.9219C86.4027 33.9219 86.8571 34.1003 87.2061 34.457C87.5576 34.8112 87.7334 35.3138 87.7334 35.9648V40H86.0732V36.293C86.0732 35.9596 85.9847 35.7096 85.8076 35.543C85.6305 35.3763 85.4092 35.293 85.1436 35.293C84.8415 35.293 84.6058 35.3893 84.4365 35.582C84.2673 35.7721 84.1826 36.0234 84.1826 36.3359V40H82.5693V36.2578C82.5693 35.9635 82.4847 35.7292 82.3154 35.5547C82.1488 35.3802 81.9287 35.293 81.6553 35.293C81.4704 35.293 81.3037 35.3398 81.1553 35.4336C81.0094 35.5247 80.8936 35.6536 80.8076 35.8203C80.7217 35.9844 80.6787 36.1771 80.6787 36.3984V40H79.0146ZM89.0479 42.25V34H90.6885V35.0078H90.7627C90.8356 34.8464 90.9411 34.6823 91.0791 34.5156C91.2197 34.3464 91.402 34.2057 91.626 34.0938C91.8525 33.9792 92.1338 33.9219 92.4697 33.9219C92.9072 33.9219 93.3109 34.0365 93.6807 34.2656C94.0505 34.4922 94.346 34.8346 94.5674 35.293C94.7887 35.7487 94.8994 36.3203 94.8994 37.0078C94.8994 37.6771 94.7913 38.2422 94.5752 38.7031C94.3617 39.1615 94.07 39.5091 93.7002 39.7461C93.333 39.9805 92.9215 40.0977 92.4658 40.0977C92.1429 40.0977 91.8682 40.0443 91.6416 39.9375C91.4176 39.8307 91.234 39.6966 91.0908 39.5352C90.9476 39.3711 90.8382 39.2057 90.7627 39.0391H90.7119V42.25H89.0479ZM90.6768 37C90.6768 37.3568 90.7262 37.668 90.8252 37.9336C90.9242 38.1992 91.0674 38.4062 91.2549 38.5547C91.4424 38.7005 91.6702 38.7734 91.9385 38.7734C92.2093 38.7734 92.4385 38.6992 92.626 38.5508C92.8135 38.3997 92.9554 38.1914 93.0518 37.9258C93.1507 37.6576 93.2002 37.349 93.2002 37C93.2002 36.6536 93.152 36.349 93.0557 36.0859C92.9593 35.8229 92.8174 35.6172 92.6299 35.4687C92.4424 35.3203 92.2119 35.2461 91.9385 35.2461C91.6676 35.2461 91.4385 35.3177 91.251 35.4609C91.0661 35.6042 90.9242 35.8073 90.8252 36.0703C90.7262 36.3333 90.6768 36.6432 90.6768 37ZM97.7197 40.1133C97.3369 40.1133 96.9958 40.0469 96.6963 39.9141C96.3968 39.7786 96.1598 39.5794 95.9854 39.3164C95.8135 39.0508 95.7275 38.7201 95.7275 38.3242C95.7275 37.9909 95.7887 37.7109 95.9111 37.4844C96.0335 37.2578 96.2002 37.0755 96.4111 36.9375C96.6221 36.7995 96.8617 36.6953 97.1299 36.625C97.4007 36.5547 97.6846 36.5052 97.9814 36.4766C98.3304 36.4401 98.6117 36.4062 98.8252 36.375C99.0387 36.3411 99.1937 36.2917 99.29 36.2266C99.3864 36.1615 99.4346 36.0651 99.4346 35.9375V35.9141C99.4346 35.6667 99.3564 35.4753 99.2002 35.3398C99.0465 35.2044 98.8278 35.1367 98.5439 35.1367C98.2445 35.1367 98.0062 35.2031 97.8291 35.3359C97.652 35.4661 97.5348 35.6302 97.4775 35.8281L95.9385 35.7031C96.0166 35.3385 96.1702 35.0234 96.3994 34.7578C96.6286 34.4896 96.9242 34.2839 97.2861 34.1406C97.6507 33.9948 98.0726 33.9219 98.5518 33.9219C98.8851 33.9219 99.2041 33.9609 99.5088 34.0391C99.8161 34.1172 100.088 34.2383 100.325 34.4023C100.565 34.5664 100.754 34.7773 100.892 35.0352C101.03 35.2904 101.099 35.5964 101.099 35.9531V40H99.5205V39.168H99.4736C99.3773 39.3555 99.2484 39.5208 99.0869 39.6641C98.9255 39.8047 98.7314 39.9154 98.5049 39.9961C98.2783 40.0742 98.0166 40.1133 97.7197 40.1133ZM98.1963 38.9648C98.4411 38.9648 98.6572 38.9167 98.8447 38.8203C99.0322 38.7214 99.1794 38.5885 99.2861 38.4219C99.3929 38.2552 99.4463 38.0664 99.4463 37.8555V37.2188C99.3942 37.2526 99.3226 37.2839 99.2314 37.3125C99.1429 37.3385 99.0426 37.3633 98.9307 37.3867C98.8187 37.4076 98.7067 37.4271 98.5947 37.4453C98.4827 37.4609 98.3812 37.4753 98.29 37.4883C98.0947 37.5169 97.9242 37.5625 97.7783 37.625C97.6325 37.6875 97.5192 37.7721 97.4385 37.8789C97.3577 37.9831 97.3174 38.1133 97.3174 38.2695C97.3174 38.4961 97.3994 38.6693 97.5635 38.7891C97.7301 38.9062 97.9411 38.9648 98.1963 38.9648ZM102.39 40V34H104.003V35.0469H104.065C104.175 34.6745 104.358 34.3932 104.616 34.2031C104.874 34.0104 105.171 33.9141 105.507 33.9141C105.59 33.9141 105.68 33.9193 105.776 33.9297C105.873 33.9401 105.957 33.9544 106.03 33.9727V35.4492C105.952 35.4258 105.844 35.4049 105.706 35.3867C105.568 35.3685 105.442 35.3594 105.327 35.3594C105.082 35.3594 104.864 35.4128 104.671 35.5195C104.481 35.6237 104.33 35.7695 104.218 35.957C104.108 36.1445 104.054 36.3607 104.054 36.6055V40H102.39ZM106.891 40V34H108.555V40H106.891ZM107.727 33.2266C107.479 33.2266 107.267 33.1445 107.09 32.9805C106.915 32.8138 106.828 32.6146 106.828 32.3828C106.828 32.1536 106.915 31.957 107.09 31.793C107.267 31.6263 107.479 31.543 107.727 31.543C107.974 31.543 108.185 31.6263 108.359 31.793C108.536 31.957 108.625 32.1536 108.625 32.3828C108.625 32.6146 108.536 32.8138 108.359 32.9805C108.185 33.1445 107.974 33.2266 107.727 33.2266ZM114.88 35.7109L113.356 35.8047C113.33 35.6745 113.274 35.5573 113.188 35.4531C113.103 35.3464 112.989 35.2617 112.849 35.1992C112.711 35.1341 112.545 35.1016 112.353 35.1016C112.095 35.1016 111.877 35.1562 111.7 35.2656C111.523 35.3724 111.435 35.5156 111.435 35.6953C111.435 35.8385 111.492 35.9596 111.606 36.0586C111.721 36.1576 111.918 36.237 112.196 36.2969L113.282 36.5156C113.866 36.6354 114.3 36.8281 114.587 37.0937C114.873 37.3594 115.017 37.7083 115.017 38.1406C115.017 38.5339 114.901 38.8789 114.669 39.1758C114.44 39.4727 114.125 39.7044 113.724 39.8711C113.325 40.0352 112.866 40.1172 112.345 40.1172C111.55 40.1172 110.918 39.9518 110.446 39.6211C109.978 39.2878 109.703 38.8346 109.622 38.2617L111.259 38.1758C111.308 38.418 111.428 38.6029 111.618 38.7305C111.808 38.8555 112.052 38.918 112.349 38.918C112.64 38.918 112.875 38.862 113.052 38.75C113.231 38.6354 113.323 38.4883 113.325 38.3086C113.323 38.1576 113.259 38.0339 113.134 37.9375C113.009 37.8385 112.816 37.763 112.556 37.7109L111.517 37.5039C110.931 37.3867 110.494 37.1836 110.208 36.8945C109.924 36.6055 109.782 36.237 109.782 35.7891C109.782 35.4036 109.886 35.0716 110.095 34.793C110.306 34.5143 110.601 34.2995 110.981 34.1484C111.364 33.9974 111.812 33.9219 112.325 33.9219C113.083 33.9219 113.679 34.082 114.114 34.4023C114.552 34.7227 114.807 35.1589 114.88 35.7109ZM118.775 40.1172C118.169 40.1172 117.644 39.9883 117.201 39.7305C116.761 39.4701 116.421 39.1081 116.182 38.6445C115.942 38.1784 115.822 37.638 115.822 37.0234C115.822 36.4036 115.942 35.862 116.182 35.3984C116.421 34.9323 116.761 34.5703 117.201 34.3125C117.644 34.0521 118.169 33.9219 118.775 33.9219C119.382 33.9219 119.906 34.0521 120.346 34.3125C120.788 34.5703 121.13 34.9323 121.369 35.3984C121.609 35.862 121.729 36.4036 121.729 37.0234C121.729 37.638 121.609 38.1784 121.369 38.6445C121.13 39.1081 120.788 39.4701 120.346 39.7305C119.906 39.9883 119.382 40.1172 118.775 40.1172ZM118.783 38.8281C119.059 38.8281 119.29 38.75 119.475 38.5938C119.66 38.4349 119.799 38.2187 119.893 37.9453C119.989 37.6719 120.037 37.3607 120.037 37.0117C120.037 36.6628 119.989 36.3516 119.893 36.0781C119.799 35.8047 119.66 35.5885 119.475 35.4297C119.29 35.2708 119.059 35.1914 118.783 35.1914C118.505 35.1914 118.27 35.2708 118.08 35.4297C117.893 35.5885 117.751 35.8047 117.654 36.0781C117.561 36.3516 117.514 36.6628 117.514 37.0117C117.514 37.3607 117.561 37.6719 117.654 37.9453C117.751 38.2187 117.893 38.4349 118.08 38.5938C118.27 38.75 118.505 38.8281 118.783 38.8281ZM124.475 36.5313V40H122.811V34H124.396V35.0586H124.467C124.6 34.7096 124.822 34.4336 125.135 34.2305C125.447 34.0247 125.826 33.9219 126.271 33.9219C126.688 33.9219 127.051 34.013 127.361 34.1953C127.671 34.3776 127.912 34.638 128.084 34.9766C128.256 35.3125 128.342 35.7135 128.342 36.1797V40H126.678V36.4766C126.68 36.1094 126.587 35.8229 126.396 35.6172C126.206 35.4089 125.945 35.3047 125.611 35.3047C125.387 35.3047 125.189 35.3529 125.018 35.4492C124.848 35.5456 124.715 35.6862 124.619 35.8711C124.525 36.0534 124.477 36.2734 124.475 36.5313Z" fill="url(#paint3_linear_12_1188)"/>
<path d="M74.179 75H73.2557L75.9261 67.7273H76.8352L79.5057 75H78.5824L76.4091 68.8778H76.3523L74.179 75ZM74.5199 72.1591H78.2415V72.9403H74.5199V72.1591ZM82.7266 77.1591C82.3217 77.1591 81.9737 77.107 81.6825 77.0028C81.3913 76.901 81.1487 76.7661 80.9545 76.598C80.7628 76.4323 80.6101 76.2547 80.4964 76.0653L81.1641 75.5966C81.2398 75.696 81.3357 75.8097 81.4517 75.9375C81.5677 76.0677 81.7263 76.1802 81.9276 76.2749C82.1312 76.3719 82.3975 76.4205 82.7266 76.4205C83.1669 76.4205 83.5303 76.3139 83.8168 76.1009C84.1032 75.8878 84.2464 75.554 84.2464 75.0994V73.9915H84.1754C84.1139 74.0909 84.0263 74.214 83.9126 74.3608C83.8014 74.5052 83.6404 74.6342 83.4297 74.7479C83.2214 74.8591 82.9396 74.9148 82.5845 74.9148C82.1442 74.9148 81.7488 74.8106 81.3984 74.6023C81.0504 74.3939 80.7746 74.0909 80.571 73.6932C80.3698 73.2955 80.2692 72.8125 80.2692 72.2443C80.2692 71.6856 80.3674 71.1991 80.5639 70.7848C80.7604 70.3681 81.0339 70.0462 81.3842 69.8189C81.7346 69.5893 82.1394 69.4744 82.5987 69.4744C82.9538 69.4744 83.2356 69.5336 83.4439 69.652C83.6546 69.768 83.8156 69.9006 83.9268 70.0497C84.0405 70.1965 84.1281 70.3172 84.1896 70.4119H84.2749V69.5455H85.0845V75.1562C85.0845 75.625 84.978 76.0062 84.7649 76.2997C84.5542 76.5956 84.2701 76.8123 83.9126 76.9496C83.5575 77.0893 83.1622 77.1591 82.7266 77.1591ZM82.6982 74.1619C83.0343 74.1619 83.3184 74.085 83.5504 73.9311C83.7824 73.7772 83.9588 73.5559 84.0795 73.267C84.2003 72.9782 84.2607 72.6326 84.2607 72.2301C84.2607 71.8371 84.2015 71.4903 84.0831 71.1896C83.9647 70.889 83.7895 70.6534 83.5575 70.483C83.3255 70.3125 83.0391 70.2273 82.6982 70.2273C82.343 70.2273 82.0471 70.3172 81.8104 70.4972C81.576 70.6771 81.3996 70.9186 81.2812 71.2216C81.1652 71.5246 81.1072 71.8608 81.1072 72.2301C81.1072 72.6089 81.1664 72.9439 81.2848 73.2351C81.4055 73.5239 81.5831 73.7512 81.8175 73.9169C82.0542 74.0803 82.3478 74.1619 82.6982 74.1619ZM88.9055 75.1136C88.38 75.1136 87.9266 74.9976 87.5455 74.7656C87.1667 74.5312 86.8743 74.2045 86.6683 73.7855C86.4647 73.3641 86.3629 72.8741 86.3629 72.3153C86.3629 71.7566 86.4647 71.2642 86.6683 70.8381C86.8743 70.4096 87.1607 70.0758 87.5277 69.8366C87.897 69.5952 88.3279 69.4744 88.8203 69.4744C89.1044 69.4744 89.3849 69.5218 89.6619 69.6165C89.9389 69.7112 90.1911 69.8651 90.4183 70.0781C90.6456 70.2888 90.8267 70.5682 90.9616 70.9162C91.0966 71.2642 91.1641 71.6927 91.1641 72.2017V72.5568H86.9595V71.8324H90.3118C90.3118 71.5246 90.2502 71.25 90.1271 71.0085C90.0064 70.767 89.8336 70.5765 89.6087 70.4368C89.3861 70.2971 89.1233 70.2273 88.8203 70.2273C88.4865 70.2273 88.1977 70.3101 87.9538 70.4759C87.7124 70.6392 87.5265 70.8523 87.3963 71.1151C87.2661 71.3778 87.201 71.6596 87.201 71.9602V72.4432C87.201 72.8551 87.272 73.2043 87.4141 73.4908C87.5585 73.7749 87.7585 73.9915 88.0142 74.1406C88.2699 74.2874 88.567 74.3608 88.9055 74.3608C89.1257 74.3608 89.3246 74.33 89.5021 74.2685C89.6821 74.2045 89.8371 74.1098 89.9673 73.9844C90.0975 73.8565 90.1982 73.6979 90.2692 73.5085L91.0788 73.7358C90.9936 74.0104 90.8504 74.2519 90.6491 74.4602C90.4479 74.6662 90.1993 74.8272 89.9034 74.9432C89.6075 75.0568 89.2749 75.1136 88.9055 75.1136ZM93.277 71.7188V75H92.4389V69.5455H93.2486V70.3977H93.3196C93.4474 70.1207 93.6416 69.8982 93.902 69.7301C94.1624 69.5597 94.4986 69.4744 94.9105 69.4744C95.2798 69.4744 95.603 69.5502 95.88 69.7017C96.157 69.8509 96.3724 70.0781 96.5263 70.3835C96.6802 70.6866 96.7571 71.0701 96.7571 71.5341V75H95.919V71.5909C95.919 71.1624 95.8078 70.8286 95.5852 70.5895C95.3627 70.348 95.0573 70.2273 94.669 70.2273C94.4015 70.2273 94.1624 70.2853 93.9517 70.4013C93.7434 70.5173 93.5788 70.6866 93.4581 70.9091C93.3374 71.1316 93.277 71.4015 93.277 71.7188ZM100.661 69.5455V70.2557H97.834V69.5455H100.661ZM98.6578 68.2386H99.4959V73.4375C99.4959 73.6742 99.5302 73.8518 99.5989 73.9702C99.6699 74.0862 99.7599 74.1643 99.8688 74.2045C99.9801 74.2424 100.097 74.2614 100.22 74.2614C100.313 74.2614 100.388 74.2566 100.448 74.2472C100.507 74.2353 100.554 74.2259 100.59 74.2188L100.76 74.9716C100.703 74.9929 100.624 75.0142 100.522 75.0355C100.42 75.0592 100.291 75.071 100.135 75.071C99.8984 75.071 99.6664 75.0201 99.4391 74.9183C99.2142 74.8165 99.0272 74.6615 98.878 74.4531C98.7312 74.2448 98.6578 73.982 98.6578 73.6648V68.2386ZM106.95 75.1136C106.457 75.1136 106.025 74.9964 105.654 74.7621C105.284 74.5277 104.995 74.1998 104.787 73.7784C104.581 73.357 104.478 72.8646 104.478 72.3011C104.478 71.733 104.581 71.237 104.787 70.8132C104.995 70.3894 105.284 70.0604 105.654 69.826C106.025 69.5916 106.457 69.4744 106.95 69.4744C107.442 69.4744 107.873 69.5916 108.242 69.826C108.614 70.0604 108.903 70.3894 109.109 70.8132C109.317 71.237 109.421 71.733 109.421 72.3011C109.421 72.8646 109.317 73.357 109.109 73.7784C108.903 74.1998 108.614 74.5277 108.242 74.7621C107.873 74.9964 107.442 75.1136 106.95 75.1136ZM106.95 74.3608C107.324 74.3608 107.632 74.2649 107.873 74.0732C108.115 73.8814 108.293 73.6293 108.409 73.3168C108.525 73.0043 108.583 72.6657 108.583 72.3011C108.583 71.9366 108.525 71.5968 108.409 71.282C108.293 70.9671 108.115 70.7126 107.873 70.5185C107.632 70.3243 107.324 70.2273 106.95 70.2273C106.576 70.2273 106.268 70.3243 106.026 70.5185C105.785 70.7126 105.606 70.9671 105.49 71.282C105.374 71.5968 105.316 71.9366 105.316 72.3011C105.316 72.6657 105.374 73.0043 105.49 73.3168C105.606 73.6293 105.785 73.8814 106.026 74.0732C106.268 74.2649 106.576 74.3608 106.95 74.3608ZM111.539 71.7188V75H110.701V69.5455H111.51V70.3977H111.581C111.709 70.1207 111.903 69.8982 112.164 69.7301C112.424 69.5597 112.76 69.4744 113.172 69.4744C113.542 69.4744 113.865 69.5502 114.142 69.7017C114.419 69.8509 114.634 70.0781 114.788 70.3835C114.942 70.6866 115.019 71.0701 115.019 71.5341V75H114.181V71.5909C114.181 71.1624 114.069 70.8286 113.847 70.5895C113.624 70.348 113.319 70.2273 112.931 70.2273C112.663 70.2273 112.424 70.2853 112.213 70.4013C112.005 70.5173 111.841 70.6866 111.72 70.9091C111.599 71.1316 111.539 71.4015 111.539 71.7188ZM118.837 75.1136C118.312 75.1136 117.858 74.9976 117.477 74.7656C117.098 74.5312 116.806 74.2045 116.6 73.7855C116.396 73.3641 116.295 72.8741 116.295 72.3153C116.295 71.7566 116.396 71.2642 116.6 70.8381C116.806 70.4096 117.092 70.0758 117.459 69.8366C117.829 69.5952 118.26 69.4744 118.752 69.4744C119.036 69.4744 119.317 69.5218 119.594 69.6165C119.871 69.7112 120.123 69.8651 120.35 70.0781C120.577 70.2888 120.758 70.5682 120.893 70.9162C121.028 71.2642 121.096 71.6927 121.096 72.2017V72.5568H116.891V71.8324H120.243C120.243 71.5246 120.182 71.25 120.059 71.0085C119.938 70.767 119.765 70.5765 119.54 70.4368C119.318 70.2971 119.055 70.2273 118.752 70.2273C118.418 70.2273 118.129 70.3101 117.885 70.4759C117.644 70.6392 117.458 70.8523 117.328 71.1151C117.198 71.3778 117.133 71.6596 117.133 71.9602V72.4432C117.133 72.8551 117.204 73.2043 117.346 73.4908C117.49 73.7749 117.69 73.9915 117.946 74.1406C118.202 74.2874 118.499 74.3608 118.837 74.3608C119.057 74.3608 119.256 74.33 119.434 74.2685C119.614 74.2045 119.769 74.1098 119.899 73.9844C120.029 73.8565 120.13 73.6979 120.201 73.5085L121.01 73.7358C120.925 74.0104 120.782 74.2519 120.581 74.4602C120.38 74.6662 120.131 74.8272 119.835 74.9432C119.539 75.0568 119.206 75.1136 118.837 75.1136Z" fill="#8781BB"/>
<path d="M296.179 75H295.256L297.926 67.7273H298.835L301.506 75H300.582L298.409 68.8778H298.352L296.179 75ZM296.52 72.1591H300.241V72.9403H296.52V72.1591ZM304.727 77.1591C304.322 77.1591 303.974 77.107 303.683 77.0028C303.391 76.901 303.149 76.7661 302.955 76.598C302.763 76.4323 302.61 76.2547 302.496 76.0653L303.164 75.5966C303.24 75.696 303.336 75.8097 303.452 75.9375C303.568 76.0677 303.726 76.1802 303.928 76.2749C304.131 76.3719 304.397 76.4205 304.727 76.4205C305.167 76.4205 305.53 76.3139 305.817 76.1009C306.103 75.8878 306.246 75.554 306.246 75.0994V73.9915H306.175C306.114 74.0909 306.026 74.214 305.913 74.3608C305.801 74.5052 305.64 74.6342 305.43 74.7479C305.221 74.8591 304.94 74.9148 304.585 74.9148C304.144 74.9148 303.749 74.8106 303.398 74.6023C303.05 74.3939 302.775 74.0909 302.571 73.6932C302.37 73.2955 302.269 72.8125 302.269 72.2443C302.269 71.6856 302.367 71.1991 302.564 70.7848C302.76 70.3681 303.034 70.0462 303.384 69.8189C303.735 69.5893 304.139 69.4744 304.599 69.4744C304.954 69.4744 305.236 69.5336 305.444 69.652C305.655 69.768 305.816 69.9006 305.927 70.0497C306.04 70.1965 306.128 70.3172 306.19 70.4119H306.275V69.5455H307.085V75.1562C307.085 75.625 306.978 76.0062 306.765 76.2997C306.554 76.5956 306.27 76.8123 305.913 76.9496C305.558 77.0893 305.162 77.1591 304.727 77.1591ZM304.698 74.1619C305.034 74.1619 305.318 74.085 305.55 73.9311C305.782 73.7772 305.959 73.5559 306.08 73.267C306.2 72.9782 306.261 72.6326 306.261 72.2301C306.261 71.8371 306.201 71.4903 306.083 71.1896C305.965 70.889 305.79 70.6534 305.558 70.483C305.326 70.3125 305.039 70.2273 304.698 70.2273C304.343 70.2273 304.047 70.3172 303.81 70.4972C303.576 70.6771 303.4 70.9186 303.281 71.2216C303.165 71.5246 303.107 71.8608 303.107 72.2301C303.107 72.6089 303.166 72.9439 303.285 73.2351C303.406 73.5239 303.583 73.7512 303.817 73.9169C304.054 74.0803 304.348 74.1619 304.698 74.1619ZM310.906 75.1136C310.38 75.1136 309.927 74.9976 309.545 74.7656C309.167 74.5312 308.874 74.2045 308.668 73.7855C308.465 73.3641 308.363 72.8741 308.363 72.3153C308.363 71.7566 308.465 71.2642 308.668 70.8381C308.874 70.4096 309.161 70.0758 309.528 69.8366C309.897 69.5952 310.328 69.4744 310.82 69.4744C311.104 69.4744 311.385 69.5218 311.662 69.6165C311.939 69.7112 312.191 69.8651 312.418 70.0781C312.646 70.2888 312.827 70.5682 312.962 70.9162C313.097 71.2642 313.164 71.6927 313.164 72.2017V72.5568H308.96V71.8324H312.312C312.312 71.5246 312.25 71.25 312.127 71.0085C312.006 70.767 311.834 70.5765 311.609 70.4368C311.386 70.2971 311.123 70.2273 310.82 70.2273C310.487 70.2273 310.198 70.3101 309.954 70.4759C309.712 70.6392 309.527 70.8523 309.396 71.1151C309.266 71.3778 309.201 71.6596 309.201 71.9602V72.4432C309.201 72.8551 309.272 73.2043 309.414 73.4908C309.558 73.7749 309.759 73.9915 310.014 74.1406C310.27 74.2874 310.567 74.3608 310.906 74.3608C311.126 74.3608 311.325 74.33 311.502 74.2685C311.682 74.2045 311.837 74.1098 311.967 73.9844C312.098 73.8565 312.198 73.6979 312.269 73.5085L313.079 73.7358C312.994 74.0104 312.85 74.2519 312.649 74.4602C312.448 74.6662 312.199 74.8272 311.903 74.9432C311.607 75.0568 311.275 75.1136 310.906 75.1136ZM315.277 71.7188V75H314.439V69.5455H315.249V70.3977H315.32C315.447 70.1207 315.642 69.8982 315.902 69.7301C316.162 69.5597 316.499 69.4744 316.911 69.4744C317.28 69.4744 317.603 69.5502 317.88 69.7017C318.157 69.8509 318.372 70.0781 318.526 70.3835C318.68 70.6866 318.757 71.0701 318.757 71.5341V75H317.919V71.5909C317.919 71.1624 317.808 70.8286 317.585 70.5895C317.363 70.348 317.057 70.2273 316.669 70.2273C316.402 70.2273 316.162 70.2853 315.952 70.4013C315.743 70.5173 315.579 70.6866 315.458 70.9091C315.337 71.1316 315.277 71.4015 315.277 71.7188ZM322.661 69.5455V70.2557H319.834V69.5455H322.661ZM320.658 68.2386H321.496V73.4375C321.496 73.6742 321.53 73.8518 321.599 73.9702C321.67 74.0862 321.76 74.1643 321.869 74.2045C321.98 74.2424 322.097 74.2614 322.22 74.2614C322.313 74.2614 322.388 74.2566 322.448 74.2472C322.507 74.2353 322.554 74.2259 322.59 74.2188L322.76 74.9716C322.703 74.9929 322.624 75.0142 322.522 75.0355C322.42 75.0592 322.291 75.071 322.135 75.071C321.898 75.071 321.666 75.0201 321.439 74.9183C321.214 74.8165 321.027 74.6615 320.878 74.4531C320.731 74.2448 320.658 73.982 320.658 73.6648V68.2386ZM329.106 69.5455V70.2557H326.279V69.5455H329.106ZM327.103 68.2386H327.941V73.4375C327.941 73.6742 327.976 73.8518 328.044 73.9702C328.115 74.0862 328.205 74.1643 328.314 74.2045C328.425 74.2424 328.543 74.2614 328.666 74.2614C328.758 74.2614 328.834 74.2566 328.893 74.2472C328.952 74.2353 328.999 74.2259 329.035 74.2188L329.205 74.9716C329.149 74.9929 329.069 75.0142 328.968 75.0355C328.866 75.0592 328.737 75.071 328.58 75.071C328.344 75.071 328.112 75.0201 327.884 74.9183C327.66 74.8165 327.472 74.6615 327.323 74.4531C327.177 74.2448 327.103 73.982 327.103 73.6648V68.2386ZM331.322 71.7188V75H330.484V67.7273H331.322V70.3977H331.393C331.521 70.116 331.713 69.8923 331.968 69.7266C332.226 69.5585 332.57 69.4744 332.998 69.4744C333.37 69.4744 333.695 69.549 333.975 69.6982C334.254 69.8449 334.471 70.071 334.624 70.3764C334.781 70.6795 334.859 71.0653 334.859 71.5341V75H334.021V71.5909C334.021 71.1577 333.908 70.8227 333.683 70.5859C333.461 70.3468 333.152 70.2273 332.757 70.2273C332.482 70.2273 332.236 70.2853 332.018 70.4013C331.802 70.5173 331.632 70.6866 331.507 70.9091C331.383 71.1316 331.322 71.4015 331.322 71.7188ZM336.392 75V69.5455H337.202V70.3693H337.259C337.358 70.0994 337.538 69.8804 337.798 69.7124C338.059 69.5443 338.352 69.4602 338.679 69.4602C338.741 69.4602 338.817 69.4614 338.91 69.4638C339.002 69.4661 339.072 69.4697 339.119 69.4744V70.3267C339.091 70.3196 339.026 70.3089 338.924 70.2947C338.825 70.2782 338.719 70.2699 338.608 70.2699C338.343 70.2699 338.106 70.3255 337.898 70.4368C337.692 70.5457 337.528 70.6972 337.408 70.8913C337.289 71.0831 337.23 71.3021 337.23 71.5483V75H336.392ZM342.234 75.1136C341.708 75.1136 341.255 74.9976 340.874 74.7656C340.495 74.5312 340.202 74.2045 339.996 73.7855C339.793 73.3641 339.691 72.8741 339.691 72.3153C339.691 71.7566 339.793 71.2642 339.996 70.8381C340.202 70.4096 340.489 70.0758 340.856 69.8366C341.225 69.5952 341.656 69.4744 342.148 69.4744C342.433 69.4744 342.713 69.5218 342.99 69.6165C343.267 69.7112 343.519 69.8651 343.746 70.0781C343.974 70.2888 344.155 70.5682 344.29 70.9162C344.425 71.2642 344.492 71.6927 344.492 72.2017V72.5568H340.288V71.8324H343.64C343.64 71.5246 343.578 71.25 343.455 71.0085C343.335 70.767 343.162 70.5765 342.937 70.4368C342.714 70.2971 342.451 70.2273 342.148 70.2273C341.815 70.2273 341.526 70.3101 341.282 70.4759C341.04 70.6392 340.855 70.8523 340.724 71.1151C340.594 71.3778 340.529 71.6596 340.529 71.9602V72.4432C340.529 72.8551 340.6 73.2043 340.742 73.4908C340.887 73.7749 341.087 73.9915 341.342 74.1406C341.598 74.2874 341.895 74.3608 342.234 74.3608C342.454 74.3608 342.653 74.33 342.83 74.2685C343.01 74.2045 343.165 74.1098 343.295 73.9844C343.426 73.8565 343.526 73.6979 343.597 73.5085L344.407 73.7358C344.322 74.0104 344.179 74.2519 343.977 74.4602C343.776 74.6662 343.527 74.8272 343.232 74.9432C342.936 75.0568 342.603 75.1136 342.234 75.1136ZM348.054 75.1136C347.528 75.1136 347.075 74.9976 346.694 74.7656C346.315 74.5312 346.023 74.2045 345.817 73.7855C345.613 73.3641 345.511 72.8741 345.511 72.3153C345.511 71.7566 345.613 71.2642 345.817 70.8381C346.023 70.4096 346.309 70.0758 346.676 69.8366C347.045 69.5952 347.476 69.4744 347.969 69.4744C348.253 69.4744 348.533 69.5218 348.81 69.6165C349.087 69.7112 349.339 69.8651 349.567 70.0781C349.794 70.2888 349.975 70.5682 350.11 70.9162C350.245 71.2642 350.312 71.6927 350.312 72.2017V72.5568H346.108V71.8324H349.46C349.46 71.5246 349.399 71.25 349.276 71.0085C349.155 70.767 348.982 70.5765 348.757 70.4368C348.535 70.2971 348.272 70.2273 347.969 70.2273C347.635 70.2273 347.346 70.3101 347.102 70.4759C346.861 70.6392 346.675 70.8523 346.545 71.1151C346.415 71.3778 346.349 71.6596 346.349 71.9602V72.4432C346.349 72.8551 346.42 73.2043 346.562 73.4908C346.707 73.7749 346.907 73.9915 347.163 74.1406C347.418 74.2874 347.715 74.3608 348.054 74.3608C348.274 74.3608 348.473 74.33 348.651 74.2685C348.83 74.2045 348.986 74.1098 349.116 73.9844C349.246 73.8565 349.347 73.6979 349.418 73.5085L350.227 73.7358C350.142 74.0104 349.999 74.2519 349.798 74.4602C349.596 74.6662 349.348 74.8272 349.052 74.9432C348.756 75.0568 348.423 75.1136 348.054 75.1136Z" fill="#8781BB"/>
<rect x="29" y="59" width="24" height="24" rx="3" fill="#04030C"/>
<rect x="29.5" y="59.5" width="23" height="23" rx="2.5" stroke="url(#paint4_linear_12_1188)" stroke-opacity="0.08"/>
<rect x="29.5" y="59.5" width="23" height="23" rx="2.5" stroke="url(#paint5_linear_12_1188)" stroke-opacity="0.3"/>
<rect x="142" y="59" width="24" height="24" rx="3" fill="#04030C"/>
<rect x="142.5" y="59.5" width="23" height="23" rx="2.5" stroke="url(#paint6_linear_12_1188)" stroke-opacity="0.08"/>
<rect x="142.5" y="59.5" width="23" height="23" rx="2.5" stroke="url(#paint7_linear_12_1188)" stroke-opacity="0.3"/>
<rect x="260" y="59" width="24" height="24" rx="3" fill="#04030C"/>
<rect x="260.5" y="59.5" width="23" height="23" rx="2.5" stroke="url(#paint8_linear_12_1188)" stroke-opacity="0.08"/>
<rect x="260.5" y="59.5" width="23" height="23" rx="2.5" stroke="url(#paint9_linear_12_1188)" stroke-opacity="0.3"/>
<rect x="33" y="63" width="16" height="16" rx="3" fill="#915BF0"/>
<rect x="33.5" y="63.5" width="15" height="15" rx="2.5" stroke="url(#paint10_linear_12_1188)" stroke-opacity="0.3"/>
<rect x="146" y="63" width="16" height="16" rx="3" fill="#1FC5D6"/>
<rect x="146.5" y="63.5" width="15" height="15" rx="2.5" stroke="url(#paint11_linear_12_1188)" stroke-opacity="0.3"/>
<rect x="264" y="63" width="16" height="16" rx="3" fill="#D6741F"/>
<rect x="264.5" y="63.5" width="15" height="15" rx="2.5" stroke="url(#paint12_linear_12_1188)" stroke-opacity="0.3"/>
<g style="mix-blend-mode:plus-lighter" filter="url(#filter1_f_12_1188)">
<circle cx="41" cy="65" r="6" fill="#915BF0"/>
</g>
<g style="mix-blend-mode:plus-lighter" filter="url(#filter2_f_12_1188)">
<circle cx="154" cy="65" r="6" fill="#22D6EA"/>
</g>
<g style="mix-blend-mode:plus-lighter" filter="url(#filter3_f_12_1188)">
<circle cx="272" cy="65" r="6" fill="#D6741F"/>
</g>
<path d="M187.179 75H186.256L188.926 67.7273H189.835L192.506 75H191.582L189.409 68.8778H189.352L187.179 75ZM187.52 72.1591H191.241V72.9403H187.52V72.1591ZM195.727 77.1591C195.322 77.1591 194.974 77.107 194.683 77.0028C194.391 76.901 194.149 76.7661 193.955 76.598C193.763 76.4323 193.61 76.2547 193.496 76.0653L194.164 75.5966C194.24 75.696 194.336 75.8097 194.452 75.9375C194.568 76.0677 194.726 76.1802 194.928 76.2749C195.131 76.3719 195.397 76.4205 195.727 76.4205C196.167 76.4205 196.53 76.3139 196.817 76.1009C197.103 75.8878 197.246 75.554 197.246 75.0994V73.9915H197.175C197.114 74.0909 197.026 74.214 196.913 74.3608C196.801 74.5052 196.64 74.6342 196.43 74.7479C196.221 74.8591 195.94 74.9148 195.585 74.9148C195.144 74.9148 194.749 74.8106 194.398 74.6023C194.05 74.3939 193.775 74.0909 193.571 73.6932C193.37 73.2955 193.269 72.8125 193.269 72.2443C193.269 71.6856 193.367 71.1991 193.564 70.7848C193.76 70.3681 194.034 70.0462 194.384 69.8189C194.735 69.5893 195.139 69.4744 195.599 69.4744C195.954 69.4744 196.236 69.5336 196.444 69.652C196.655 69.768 196.816 69.9006 196.927 70.0497C197.04 70.1965 197.128 70.3172 197.19 70.4119H197.275V69.5455H198.085V75.1562C198.085 75.625 197.978 76.0062 197.765 76.2997C197.554 76.5956 197.27 76.8123 196.913 76.9496C196.558 77.0893 196.162 77.1591 195.727 77.1591ZM195.698 74.1619C196.034 74.1619 196.318 74.085 196.55 73.9311C196.782 73.7772 196.959 73.5559 197.08 73.267C197.2 72.9782 197.261 72.6326 197.261 72.2301C197.261 71.8371 197.201 71.4903 197.083 71.1896C196.965 70.889 196.79 70.6534 196.558 70.483C196.326 70.3125 196.039 70.2273 195.698 70.2273C195.343 70.2273 195.047 70.3172 194.81 70.4972C194.576 70.6771 194.4 70.9186 194.281 71.2216C194.165 71.5246 194.107 71.8608 194.107 72.2301C194.107 72.6089 194.166 72.9439 194.285 73.2351C194.406 73.5239 194.583 73.7512 194.817 73.9169C195.054 74.0803 195.348 74.1619 195.698 74.1619ZM201.906 75.1136C201.38 75.1136 200.927 74.9976 200.545 74.7656C200.167 74.5312 199.874 74.2045 199.668 73.7855C199.465 73.3641 199.363 72.8741 199.363 72.3153C199.363 71.7566 199.465 71.2642 199.668 70.8381C199.874 70.4096 200.161 70.0758 200.528 69.8366C200.897 69.5952 201.328 69.4744 201.82 69.4744C202.104 69.4744 202.385 69.5218 202.662 69.6165C202.939 69.7112 203.191 69.8651 203.418 70.0781C203.646 70.2888 203.827 70.5682 203.962 70.9162C204.097 71.2642 204.164 71.6927 204.164 72.2017V72.5568H199.96V71.8324H203.312C203.312 71.5246 203.25 71.25 203.127 71.0085C203.006 70.767 202.834 70.5765 202.609 70.4368C202.386 70.2971 202.123 70.2273 201.82 70.2273C201.487 70.2273 201.198 70.3101 200.954 70.4759C200.712 70.6392 200.527 70.8523 200.396 71.1151C200.266 71.3778 200.201 71.6596 200.201 71.9602V72.4432C200.201 72.8551 200.272 73.2043 200.414 73.4908C200.558 73.7749 200.759 73.9915 201.014 74.1406C201.27 74.2874 201.567 74.3608 201.906 74.3608C202.126 74.3608 202.325 74.33 202.502 74.2685C202.682 74.2045 202.837 74.1098 202.967 73.9844C203.098 73.8565 203.198 73.6979 203.269 73.5085L204.079 73.7358C203.994 74.0104 203.85 74.2519 203.649 74.4602C203.448 74.6662 203.199 74.8272 202.903 74.9432C202.607 75.0568 202.275 75.1136 201.906 75.1136ZM206.277 71.7188V75H205.439V69.5455H206.249V70.3977H206.32C206.447 70.1207 206.642 69.8982 206.902 69.7301C207.162 69.5597 207.499 69.4744 207.911 69.4744C208.28 69.4744 208.603 69.5502 208.88 69.7017C209.157 69.8509 209.372 70.0781 209.526 70.3835C209.68 70.6866 209.757 71.0701 209.757 71.5341V75H208.919V71.5909C208.919 71.1624 208.808 70.8286 208.585 70.5895C208.363 70.348 208.057 70.2273 207.669 70.2273C207.402 70.2273 207.162 70.2853 206.952 70.4013C206.743 70.5173 206.579 70.6866 206.458 70.9091C206.337 71.1316 206.277 71.4015 206.277 71.7188ZM213.661 69.5455V70.2557H210.834V69.5455H213.661ZM211.658 68.2386H212.496V73.4375C212.496 73.6742 212.53 73.8518 212.599 73.9702C212.67 74.0862 212.76 74.1643 212.869 74.2045C212.98 74.2424 213.097 74.2614 213.22 74.2614C213.313 74.2614 213.388 74.2566 213.448 74.2472C213.507 74.2353 213.554 74.2259 213.59 74.2188L213.76 74.9716C213.703 74.9929 213.624 75.0142 213.522 75.0355C213.42 75.0592 213.291 75.071 213.135 75.071C212.898 75.071 212.666 75.0201 212.439 74.9183C212.214 74.8165 212.027 74.6615 211.878 74.4531C211.731 74.2448 211.658 73.982 211.658 73.6648V68.2386ZM220.106 69.5455V70.2557H217.279V69.5455H220.106ZM218.103 68.2386H218.941V73.4375C218.941 73.6742 218.976 73.8518 219.044 73.9702C219.115 74.0862 219.205 74.1643 219.314 74.2045C219.425 74.2424 219.543 74.2614 219.666 74.2614C219.758 74.2614 219.834 74.2566 219.893 74.2472C219.952 74.2353 219.999 74.2259 220.035 74.2188L220.205 74.9716C220.149 74.9929 220.069 75.0142 219.968 75.0355C219.866 75.0592 219.737 75.071 219.58 75.071C219.344 75.071 219.112 75.0201 218.884 74.9183C218.66 74.8165 218.472 74.6615 218.323 74.4531C218.177 74.2448 218.103 73.982 218.103 73.6648V68.2386ZM222.602 75L220.941 69.5455H221.821L223 73.7216H223.057L224.222 69.5455H225.117L226.267 73.7074H226.324L227.503 69.5455H228.384L226.722 75H225.898L224.705 70.8097H224.619L223.426 75H222.602ZM231.522 75.1136C231.03 75.1136 230.598 74.9964 230.226 74.7621C229.857 74.5277 229.568 74.1998 229.359 73.7784C229.153 73.357 229.05 72.8646 229.05 72.3011C229.05 71.733 229.153 71.237 229.359 70.8132C229.568 70.3894 229.857 70.0604 230.226 69.826C230.598 69.5916 231.03 69.4744 231.522 69.4744C232.014 69.4744 232.445 69.5916 232.815 69.826C233.186 70.0604 233.475 70.3894 233.681 70.8132C233.889 71.237 233.994 71.733 233.994 72.3011C233.994 72.8646 233.889 73.357 233.681 73.7784C233.475 74.1998 233.186 74.5277 232.815 74.7621C232.445 74.9964 232.014 75.1136 231.522 75.1136ZM231.522 74.3608C231.896 74.3608 232.204 74.2649 232.445 74.0732C232.687 73.8814 232.866 73.6293 232.982 73.3168C233.098 73.0043 233.156 72.6657 233.156 72.3011C233.156 71.9366 233.098 71.5968 232.982 71.282C232.866 70.9671 232.687 70.7126 232.445 70.5185C232.204 70.3243 231.896 70.2273 231.522 70.2273C231.148 70.2273 230.84 70.3243 230.599 70.5185C230.357 70.7126 230.179 70.9671 230.062 71.282C229.946 71.5968 229.888 71.9366 229.888 72.3011C229.888 72.6657 229.946 73.0043 230.062 73.3168C230.179 73.6293 230.357 73.8814 230.599 74.0732C230.84 74.2649 231.148 74.3608 231.522 74.3608Z" fill="#8781BB"/>
<g opacity="0.2">
<path d="M30 141L608 141" stroke="url(#paint13_linear_12_1188)" stroke-linecap="round"/>
<path d="M30 211L608 211" stroke="url(#paint14_linear_12_1188)" stroke-linecap="round"/>
<path d="M30 281L608 281" stroke="url(#paint15_linear_12_1188)" stroke-linecap="round"/>
</g>
<path d="M35.5 240.5C38.5 240.5 46.4 239.9 54 237.5C63.5 234.5 63.5 230 73 228C82.5 226 107.5 210 119.5 208.5C131.5 207 149.5 204 155.5 199.5C161.5 195 172 224.5 187 224.5C202 224.5 210.5 215 222.5 215C234.5 215 272 199.5 286.5 199.5C301 199.5 347 188.5 357.5 179C368 169.5 380.5 155.5 390.5 161" stroke="url(#paint16_linear_12_1188)" stroke-width="3" stroke-linecap="round"/>
<path d="M35.5 209.5C38.5 209.5 46.4 208.9 54 206.5C63.5 203.5 63.5 199 73 197C82.5 195 107.5 233.241 119.5 231.741C131.5 230.241 138.413 241.618 144.5 246C157 255 172 260.741 187 260.741C202 260.741 219 238 231 238C243 238 272 222.741 286.5 222.741C301 222.741 347 265.5 357.5 256C368 246.5 380.5 232.5 390.5 238" stroke="url(#paint17_linear_12_1188)" stroke-width="3" stroke-linecap="round"/>
<path d="M35.5 265C38.5 265 46.4 264.4 54 262C63.5 259 63.5 254.5 73 252.5C82.5 250.5 107.5 233.242 119.5 231.742C131.5 230.242 138.413 159.876 144.5 164.259C157 173.259 172 179 187 179C202 179 219 156.259 231 156.259C243 156.259 272 168.241 286.5 168.241C301 168.241 311.5 150 322 137C332.5 124 362 137 390.5 111.5" stroke="url(#paint18_linear_12_1188)" stroke-width="3" stroke-linecap="round"/>
</g>
<defs>
<filter id="filter0_b_12_1188" x="-135.8" y="-135.8" width="895.6" height="582.6" filterUnits="userSpaceOnUse" color-interpolation-filters="sRGB">
<feFlood flood-opacity="0" result="BackgroundImageFix"/>
<feGaussianBlur in="BackgroundImageFix" stdDeviation="67.9"/>
<feComposite in2="SourceAlpha" operator="in" result="effect1_backgroundBlur_12_1188"/>
<feBlend mode="normal" in="SourceGraphic" in2="effect1_backgroundBlur_12_1188" result="shape"/>
</filter>
<filter id="filter1_f_12_1188" x="21.3" y="45.3" width="39.4" height="39.4" filterUnits="userSpaceOnUse" color-interpolation-filters="sRGB">
<feFlood flood-opacity="0" result="BackgroundImageFix"/>
<feBlend mode="normal" in="SourceGraphic" in2="BackgroundImageFix" result="shape"/>
<feGaussianBlur stdDeviation="6.85" result="effect1_foregroundBlur_12_1188"/>
</filter>
<filter id="filter2_f_12_1188" x="134.3" y="45.3" width="39.4" height="39.4" filterUnits="userSpaceOnUse" color-interpolation-filters="sRGB">
<feFlood flood-opacity="0" result="BackgroundImageFix"/>
<feBlend mode="normal" in="SourceGraphic" in2="BackgroundImageFix" result="shape"/>
<feGaussianBlur stdDeviation="6.85" result="effect1_foregroundBlur_12_1188"/>
</filter>
<filter id="filter3_f_12_1188" x="252.3" y="45.3" width="39.4" height="39.4" filterUnits="userSpaceOnUse" color-interpolation-filters="sRGB">
<feFlood flood-opacity="0" result="BackgroundImageFix"/>
<feBlend mode="normal" in="SourceGraphic" in2="BackgroundImageFix" result="shape"/>
<feGaussianBlur stdDeviation="6.85" result="effect1_foregroundBlur_12_1188"/>
</filter>
<linearGradient id="paint0_linear_12_1188" x1="312" y1="0" x2="312" y2="311" gradientUnits="userSpaceOnUse">
<stop stop-color="#2A274E"/>
<stop offset="1" stop-color="#090911"/>
</linearGradient>
<linearGradient id="paint1_linear_12_1188" x1="417.095" y1="18.5" x2="387.308" y2="214.657" gradientUnits="userSpaceOnUse">
<stop stop-color="white"/>
<stop offset="1" stop-color="white" stop-opacity="0.1"/>
</linearGradient>
<linearGradient id="paint2_linear_12_1188" x1="34.1558" y1="39.5" x2="93.8965" y2="172.75" gradientUnits="userSpaceOnUse">
<stop stop-color="#1FC5D6"/>
<stop offset="0.575" stop-color="#1FC5D6" stop-opacity="0"/>
</linearGradient>
<linearGradient id="paint3_linear_12_1188" x1="30" y1="35.5" x2="129" y2="35.5" gradientUnits="userSpaceOnUse">
<stop stop-color="#EFF0F3"/>
<stop offset="1" stop-color="#45378A"/>
</linearGradient>
<linearGradient id="paint4_linear_12_1188" x1="45.0421" y1="60.4277" x2="40.7245" y2="74.5988" gradientUnits="userSpaceOnUse">
<stop stop-color="white"/>
<stop offset="1" stop-color="white" stop-opacity="0.1"/>
</linearGradient>
<linearGradient id="paint5_linear_12_1188" x1="30.3137" y1="62.0482" x2="36.4542" y2="68.8744" gradientUnits="userSpaceOnUse">
<stop stop-color="#915BF0"/>
<stop offset="0.575" stop-color="#915BF0" stop-opacity="0"/>
</linearGradient>
<linearGradient id="paint6_linear_12_1188" x1="158.042" y1="60.4277" x2="153.725" y2="74.5988" gradientUnits="userSpaceOnUse">
<stop stop-color="white"/>
<stop offset="1" stop-color="white" stop-opacity="0.1"/>
</linearGradient>
<linearGradient id="paint7_linear_12_1188" x1="143.314" y1="62.0482" x2="149.454" y2="68.8744" gradientUnits="userSpaceOnUse">
<stop stop-color="#1FC5D6"/>
<stop offset="0.575" stop-color="#1FC5D6" stop-opacity="0"/>
</linearGradient>
<linearGradient id="paint8_linear_12_1188" x1="276.042" y1="60.4277" x2="271.725" y2="74.5988" gradientUnits="userSpaceOnUse">
<stop stop-color="white"/>
<stop offset="1" stop-color="white" stop-opacity="0.1"/>
</linearGradient>
<linearGradient id="paint9_linear_12_1188" x1="261.314" y1="62.0482" x2="267.454" y2="68.8744" gradientUnits="userSpaceOnUse">
<stop stop-color="#D6741F"/>
<stop offset="0.575" stop-color="#D6741F" stop-opacity="0"/>
</linearGradient>
<linearGradient id="paint10_linear_12_1188" x1="41" y1="63" x2="41" y2="79" gradientUnits="userSpaceOnUse">
<stop stop-color="white"/>
<stop offset="1" stop-color="white" stop-opacity="0.1"/>
</linearGradient>
<linearGradient id="paint11_linear_12_1188" x1="154" y1="63" x2="154" y2="79" gradientUnits="userSpaceOnUse">
<stop stop-color="white"/>
<stop offset="1" stop-color="white" stop-opacity="0.1"/>
</linearGradient>
<linearGradient id="paint12_linear_12_1188" x1="272" y1="63" x2="272" y2="79" gradientUnits="userSpaceOnUse">
<stop stop-color="white"/>
<stop offset="1" stop-color="white" stop-opacity="0.1"/>
</linearGradient>
<linearGradient id="paint13_linear_12_1188" x1="30" y1="141.5" x2="608" y2="141.5" gradientUnits="userSpaceOnUse">
<stop stop-color="#3F396A" stop-opacity="0.1"/>
<stop offset="0.251666" stop-color="#3F396A"/>
<stop offset="0.606666" stop-color="#534B8B"/>
<stop offset="0.911666" stop-color="#3F396A"/>
<stop offset="1" stop-color="#3F396A" stop-opacity="0.1"/>
</linearGradient>
<linearGradient id="paint14_linear_12_1188" x1="30" y1="211.5" x2="608" y2="211.5" gradientUnits="userSpaceOnUse">
<stop stop-color="#3F396A" stop-opacity="0.1"/>
<stop offset="0.251666" stop-color="#3F396A"/>
<stop offset="0.606666" stop-color="#534B8B"/>
<stop offset="0.911666" stop-color="#3F396A"/>
<stop offset="1" stop-color="#3F396A" stop-opacity="0.1"/>
</linearGradient>
<linearGradient id="paint15_linear_12_1188" x1="30" y1="281.5" x2="608" y2="281.5" gradientUnits="userSpaceOnUse">
<stop stop-color="#3F396A" stop-opacity="0.1"/>
<stop offset="0.251666" stop-color="#3F396A"/>
<stop offset="0.606666" stop-color="#534B8B"/>
<stop offset="0.911666" stop-color="#3F396A"/>
<stop offset="1" stop-color="#3F396A" stop-opacity="0.1"/>
</linearGradient>
<linearGradient id="paint16_linear_12_1188" x1="35.5" y1="200.129" x2="390.5" y2="200.129" gradientUnits="userSpaceOnUse">
<stop stop-color="#915BF0" stop-opacity="0.1"/>
<stop offset="0.251666" stop-color="#915BF0"/>
<stop offset="0.606666" stop-color="#915BF0"/>
<stop offset="0.911666" stop-color="#915BF0"/>
<stop offset="1" stop-color="#915BF0" stop-opacity="0.1"/>
</linearGradient>
<linearGradient id="paint17_linear_12_1188" x1="35.5" y1="223.371" x2="390.5" y2="223.371" gradientUnits="userSpaceOnUse">
<stop stop-color="#1FC5D6" stop-opacity="0.1"/>
<stop offset="0.251666" stop-color="#1FC5D6"/>
<stop offset="0.606666" stop-color="#1FC5D6"/>
<stop offset="0.911666" stop-color="#1FC5D6"/>
<stop offset="1" stop-color="#1FC5D6" stop-opacity="0.1"/>
</linearGradient>
<linearGradient id="paint18_linear_12_1188" x1="35.5" y1="223.371" x2="390.5" y2="223.371" gradientUnits="userSpaceOnUse">
<stop stop-color="#D6741F" stop-opacity="0.1"/>
<stop offset="0.251666" stop-color="#D6741F"/>
<stop offset="0.606666" stop-color="#D6741F"/>
<stop offset="0.911666" stop-color="#D6741F"/>
<stop offset="1" stop-color="#D6741F" stop-opacity="0.1"/>
</linearGradient>
</defs>
</svg>
