<svg width="54" height="54" viewBox="0 0 54 54" fill="none" xmlns="http://www.w3.org/2000/svg">
<rect x="0.5" y="0.5" width="53" height="53" rx="26.5" fill="#0D0D0D"/>
<rect x="0.5" y="0.5" width="53" height="53" rx="26.5" stroke="url(#paint0_linear_29_33)" stroke-opacity="0.08"/>
<rect x="0.5" y="0.5" width="53" height="53" rx="26.5" stroke="url(#paint1_linear_29_33)" stroke-opacity="0.3"/>
<rect x="0.5" y="0.5" width="53" height="53" rx="26.5" stroke="url(#paint2_radial_29_33)"/>
<path fill-rule="evenodd" clip-rule="evenodd" d="M23.78 13C21.7744 13 20.1486 14.674 20.1486 16.739C20.1486 17.1419 19.8313 17.4686 19.44 17.4686C19.0487 17.4686 18.7314 17.1419 18.7314 16.739C18.7314 15.2777 19.3171 13.9572 20.2599 13.0129C18.645 13.1384 17.2769 14.1739 16.6378 15.6227C15.0531 15.9128 13.7659 17.0885 13.2759 18.6351C13.9314 18.2971 14.6713 18.1069 15.4543 18.1069C15.8456 18.1069 16.1629 18.4336 16.1629 18.8365C16.1629 19.2394 15.8456 19.566 15.4543 19.566C13.5465 19.566 12 21.1584 12 23.1226C12 25.0869 13.5465 26.6792 15.4543 26.6792C15.8456 26.6792 16.1629 27.0059 16.1629 27.4088C16.1629 27.8117 15.8456 28.1384 15.4543 28.1384C14.4488 28.1384 13.5144 27.8247 12.7385 27.2872C12.9863 29.4107 14.7422 31.0566 16.8714 31.0566C17.0937 31.0566 17.312 31.0387 17.5249 31.0041C17.5028 30.7815 17.4914 30.5556 17.4914 30.327C17.4914 28.5274 18.1956 26.8956 19.334 25.7103C19.6092 25.4238 20.0578 25.4212 20.3361 25.7045C20.6143 25.9878 20.6168 26.4498 20.3417 26.7363C19.4549 27.6595 18.9086 28.9269 18.9086 30.327C18.9086 33.1475 21.1293 35.434 23.8686 35.434C25.3616 35.434 26.7007 34.7553 27.6108 33.6789C26.6108 32.6265 25.9943 31.1861 25.9943 29.5975C25.9943 29.1945 26.3115 28.8679 26.7029 28.8679C27.0942 28.8679 27.4114 29.1945 27.4114 29.5975C27.4114 32.015 29.3149 33.9748 31.6629 33.9748C34.0109 33.9748 35.9143 32.015 35.9143 29.5975C35.9143 29.1945 36.2316 28.8679 36.6229 28.8679C37.0142 28.8679 37.3315 29.1945 37.3315 29.5975C37.3315 31.2804 36.6397 32.797 35.5329 33.8622C35.7594 34.0469 36.0457 34.1572 36.3571 34.1572C36.616 34.1572 36.8575 34.081 37.0617 33.9492C37.6811 34.4237 38.4487 34.7044 39.28 34.7044C41.3345 34.7044 43 32.9896 43 30.8742C43 30.2612 42.8601 29.6819 42.6115 29.1682C42.861 28.6043 43 27.9777 43 27.3176C43 26.5184 42.7962 25.7681 42.4392 25.119C41.71 26.8914 40.0189 28.1384 38.04 28.1384C37.6487 28.1384 37.3315 27.8117 37.3315 27.4088C37.3315 27.0059 37.6487 26.6792 38.04 26.6792C39.8911 26.6792 41.4058 25.1137 41.4058 23.1644C41.4058 21.9051 40.7726 20.803 39.8222 20.182C39.6789 20.0883 39.5793 19.9504 39.5296 19.7965C39.4832 19.6995 39.4572 19.5903 39.4572 19.4748C39.4572 17.4099 37.8313 15.7358 35.8257 15.7358C33.8202 15.7358 32.1943 17.4099 32.1943 19.4748C32.1943 19.8778 31.8771 20.2044 31.4857 20.2044C31.0944 20.2044 30.7772 19.8778 30.7772 19.4748C30.7772 16.9624 32.5083 14.8663 34.8095 14.3821C34.0978 13.8566 33.2254 13.5472 32.2828 13.5472C31.6519 13.5472 31.0523 13.6858 30.5114 13.9352C29.7772 13.3489 28.8553 13 27.8543 13C27.6736 13 27.4955 13.0114 27.3206 13.0335C28.2514 13.9764 28.8286 15.2883 28.8286 16.739C28.8286 17.1419 28.5114 17.4686 28.12 17.4686C27.7287 17.4686 27.4114 17.1419 27.4114 16.739C27.4114 14.674 25.7856 13 23.78 13ZM23.9688 16.6551C24.3562 16.7121 24.6254 17.0817 24.57 17.4805C24.4234 18.5373 23.9583 20.1406 22.6646 21.4726C21.3541 22.822 19.2749 23.8088 16.064 23.7609C15.6727 23.7551 15.3601 23.4238 15.3658 23.0209C15.3715 22.618 15.6933 22.2961 16.0846 22.302C18.9851 22.3452 20.6702 21.4626 21.6625 20.4409C22.6717 19.4018 23.048 18.1326 23.1671 17.2742C23.2225 16.8753 23.5814 16.5982 23.9688 16.6551ZM28.8286 22.3019C29.2199 22.3019 29.5372 22.6285 29.5372 23.0314C29.5372 24.3007 29.102 25.1679 28.3791 25.7494C27.7264 26.2745 26.8872 26.5174 26.2114 26.7131L26.1861 26.7204C25.4396 26.9366 24.8726 27.1052 24.4671 27.414C24.1314 27.6696 23.8686 28.0533 23.8686 28.8679C23.8686 29.2708 23.5513 29.5975 23.16 29.5975C22.7687 29.5975 22.4514 29.2708 22.4514 28.8679C22.4514 27.6307 22.8972 26.7946 23.6244 26.2409C24.2516 25.7632 25.0545 25.5316 25.7093 25.3427L25.8025 25.3158C26.5395 25.1023 27.1047 24.923 27.5066 24.5996C27.8466 24.3261 28.12 23.9053 28.12 23.0314C28.12 22.6285 28.4373 22.3019 28.8286 22.3019ZM37.1502 20.8551C37.1925 21.2557 36.9114 21.6157 36.5223 21.6593C34.9002 21.8408 33.8505 23.2226 33.1907 25.0523C32.5414 26.8531 32.3715 28.8369 32.3715 29.6887C32.3715 30.0916 32.0542 30.4182 31.6629 30.4182C31.2715 30.4182 30.9543 30.0916 30.9543 29.6887C30.9543 28.7166 31.1387 26.551 31.8622 24.5444C32.5753 22.5667 33.917 20.4831 36.3692 20.2087C36.7582 20.1651 37.1079 20.4546 37.1502 20.8551Z" fill="url(#paint3_linear_29_33)"/>
<path fill-rule="evenodd" clip-rule="evenodd" d="M23.78 13C21.7744 13 20.1486 14.674 20.1486 16.739C20.1486 17.1419 19.8313 17.4686 19.44 17.4686C19.0487 17.4686 18.7314 17.1419 18.7314 16.739C18.7314 15.2777 19.3171 13.9572 20.2599 13.0129C18.645 13.1384 17.2769 14.1739 16.6378 15.6227C15.0531 15.9128 13.7659 17.0885 13.2759 18.6351C13.9314 18.2971 14.6713 18.1069 15.4543 18.1069C15.8456 18.1069 16.1629 18.4336 16.1629 18.8365C16.1629 19.2394 15.8456 19.566 15.4543 19.566C13.5465 19.566 12 21.1584 12 23.1226C12 25.0869 13.5465 26.6792 15.4543 26.6792C15.8456 26.6792 16.1629 27.0059 16.1629 27.4088C16.1629 27.8117 15.8456 28.1384 15.4543 28.1384C14.4488 28.1384 13.5144 27.8247 12.7385 27.2872C12.9863 29.4107 14.7422 31.0566 16.8714 31.0566C17.0937 31.0566 17.312 31.0387 17.5249 31.0041C17.5028 30.7815 17.4914 30.5556 17.4914 30.327C17.4914 28.5274 18.1956 26.8956 19.334 25.7103C19.6092 25.4238 20.0578 25.4212 20.3361 25.7045C20.6143 25.9878 20.6168 26.4498 20.3417 26.7363C19.4549 27.6595 18.9086 28.9269 18.9086 30.327C18.9086 33.1475 21.1293 35.434 23.8686 35.434C25.3616 35.434 26.7007 34.7553 27.6108 33.6789C26.6108 32.6265 25.9943 31.1861 25.9943 29.5975C25.9943 29.1945 26.3115 28.8679 26.7029 28.8679C27.0942 28.8679 27.4114 29.1945 27.4114 29.5975C27.4114 32.015 29.3149 33.9748 31.6629 33.9748C34.0109 33.9748 35.9143 32.015 35.9143 29.5975C35.9143 29.1945 36.2316 28.8679 36.6229 28.8679C37.0142 28.8679 37.3315 29.1945 37.3315 29.5975C37.3315 31.2804 36.6397 32.797 35.5329 33.8622C35.7594 34.0469 36.0457 34.1572 36.3571 34.1572C36.616 34.1572 36.8575 34.081 37.0617 33.9492C37.6811 34.4237 38.4487 34.7044 39.28 34.7044C41.3345 34.7044 43 32.9896 43 30.8742C43 30.2612 42.8601 29.6819 42.6115 29.1682C42.861 28.6043 43 27.9777 43 27.3176C43 26.5184 42.7962 25.7681 42.4392 25.119C41.71 26.8914 40.0189 28.1384 38.04 28.1384C37.6487 28.1384 37.3315 27.8117 37.3315 27.4088C37.3315 27.0059 37.6487 26.6792 38.04 26.6792C39.8911 26.6792 41.4058 25.1137 41.4058 23.1644C41.4058 21.9051 40.7726 20.803 39.8222 20.182C39.6789 20.0883 39.5793 19.9504 39.5296 19.7965C39.4832 19.6995 39.4572 19.5903 39.4572 19.4748C39.4572 17.4099 37.8313 15.7358 35.8257 15.7358C33.8202 15.7358 32.1943 17.4099 32.1943 19.4748C32.1943 19.8778 31.8771 20.2044 31.4857 20.2044C31.0944 20.2044 30.7772 19.8778 30.7772 19.4748C30.7772 16.9624 32.5083 14.8663 34.8095 14.3821C34.0978 13.8566 33.2254 13.5472 32.2828 13.5472C31.6519 13.5472 31.0523 13.6858 30.5114 13.9352C29.7772 13.3489 28.8553 13 27.8543 13C27.6736 13 27.4955 13.0114 27.3206 13.0335C28.2514 13.9764 28.8286 15.2883 28.8286 16.739C28.8286 17.1419 28.5114 17.4686 28.12 17.4686C27.7287 17.4686 27.4114 17.1419 27.4114 16.739C27.4114 14.674 25.7856 13 23.78 13ZM23.9688 16.6551C24.3562 16.7121 24.6254 17.0817 24.57 17.4805C24.4234 18.5373 23.9583 20.1406 22.6646 21.4726C21.3541 22.822 19.2749 23.8088 16.064 23.7609C15.6727 23.7551 15.3601 23.4238 15.3658 23.0209C15.3715 22.618 15.6933 22.2961 16.0846 22.302C18.9851 22.3452 20.6702 21.4626 21.6625 20.4409C22.6717 19.4018 23.048 18.1326 23.1671 17.2742C23.2225 16.8753 23.5814 16.5982 23.9688 16.6551ZM28.8286 22.3019C29.2199 22.3019 29.5372 22.6285 29.5372 23.0314C29.5372 24.3007 29.102 25.1679 28.3791 25.7494C27.7264 26.2745 26.8872 26.5174 26.2114 26.7131L26.1861 26.7204C25.4396 26.9366 24.8726 27.1052 24.4671 27.414C24.1314 27.6696 23.8686 28.0533 23.8686 28.8679C23.8686 29.2708 23.5513 29.5975 23.16 29.5975C22.7687 29.5975 22.4514 29.2708 22.4514 28.8679C22.4514 27.6307 22.8972 26.7946 23.6244 26.2409C24.2516 25.7632 25.0545 25.5316 25.7093 25.3427L25.8025 25.3158C26.5395 25.1023 27.1047 24.923 27.5066 24.5996C27.8466 24.3261 28.12 23.9053 28.12 23.0314C28.12 22.6285 28.4373 22.3019 28.8286 22.3019ZM37.1502 20.8551C37.1925 21.2557 36.9114 21.6157 36.5223 21.6593C34.9002 21.8408 33.8505 23.2226 33.1907 25.0523C32.5414 26.8531 32.3715 28.8369 32.3715 29.6887C32.3715 30.0916 32.0542 30.4182 31.6629 30.4182C31.2715 30.4182 30.9543 30.0916 30.9543 29.6887C30.9543 28.7166 31.1387 26.551 31.8622 24.5444C32.5753 22.5667 33.917 20.4831 36.3692 20.2087C36.7582 20.1651 37.1079 20.4546 37.1502 20.8551Z" fill="url(#paint4_radial_29_33)" fill-opacity="0.4"/>
<path fill-rule="evenodd" clip-rule="evenodd" d="M23.78 13C21.7744 13 20.1486 14.674 20.1486 16.739C20.1486 17.1419 19.8313 17.4686 19.44 17.4686C19.0487 17.4686 18.7314 17.1419 18.7314 16.739C18.7314 15.2777 19.3171 13.9572 20.2599 13.0129C18.645 13.1384 17.2769 14.1739 16.6378 15.6227C15.0531 15.9128 13.7659 17.0885 13.2759 18.6351C13.9314 18.2971 14.6713 18.1069 15.4543 18.1069C15.8456 18.1069 16.1629 18.4336 16.1629 18.8365C16.1629 19.2394 15.8456 19.566 15.4543 19.566C13.5465 19.566 12 21.1584 12 23.1226C12 25.0869 13.5465 26.6792 15.4543 26.6792C15.8456 26.6792 16.1629 27.0059 16.1629 27.4088C16.1629 27.8117 15.8456 28.1384 15.4543 28.1384C14.4488 28.1384 13.5144 27.8247 12.7385 27.2872C12.9863 29.4107 14.7422 31.0566 16.8714 31.0566C17.0937 31.0566 17.312 31.0387 17.5249 31.0041C17.5028 30.7815 17.4914 30.5556 17.4914 30.327C17.4914 28.5274 18.1956 26.8956 19.334 25.7103C19.6092 25.4238 20.0578 25.4212 20.3361 25.7045C20.6143 25.9878 20.6168 26.4498 20.3417 26.7363C19.4549 27.6595 18.9086 28.9269 18.9086 30.327C18.9086 33.1475 21.1293 35.434 23.8686 35.434C25.3616 35.434 26.7007 34.7553 27.6108 33.6789C26.6108 32.6265 25.9943 31.1861 25.9943 29.5975C25.9943 29.1945 26.3115 28.8679 26.7029 28.8679C27.0942 28.8679 27.4114 29.1945 27.4114 29.5975C27.4114 32.015 29.3149 33.9748 31.6629 33.9748C34.0109 33.9748 35.9143 32.015 35.9143 29.5975C35.9143 29.1945 36.2316 28.8679 36.6229 28.8679C37.0142 28.8679 37.3315 29.1945 37.3315 29.5975C37.3315 31.2804 36.6397 32.797 35.5329 33.8622C35.7594 34.0469 36.0457 34.1572 36.3571 34.1572C36.616 34.1572 36.8575 34.081 37.0617 33.9492C37.6811 34.4237 38.4487 34.7044 39.28 34.7044C41.3345 34.7044 43 32.9896 43 30.8742C43 30.2612 42.8601 29.6819 42.6115 29.1682C42.861 28.6043 43 27.9777 43 27.3176C43 26.5184 42.7962 25.7681 42.4392 25.119C41.71 26.8914 40.0189 28.1384 38.04 28.1384C37.6487 28.1384 37.3315 27.8117 37.3315 27.4088C37.3315 27.0059 37.6487 26.6792 38.04 26.6792C39.8911 26.6792 41.4058 25.1137 41.4058 23.1644C41.4058 21.9051 40.7726 20.803 39.8222 20.182C39.6789 20.0883 39.5793 19.9504 39.5296 19.7965C39.4832 19.6995 39.4572 19.5903 39.4572 19.4748C39.4572 17.4099 37.8313 15.7358 35.8257 15.7358C33.8202 15.7358 32.1943 17.4099 32.1943 19.4748C32.1943 19.8778 31.8771 20.2044 31.4857 20.2044C31.0944 20.2044 30.7772 19.8778 30.7772 19.4748C30.7772 16.9624 32.5083 14.8663 34.8095 14.3821C34.0978 13.8566 33.2254 13.5472 32.2828 13.5472C31.6519 13.5472 31.0523 13.6858 30.5114 13.9352C29.7772 13.3489 28.8553 13 27.8543 13C27.6736 13 27.4955 13.0114 27.3206 13.0335C28.2514 13.9764 28.8286 15.2883 28.8286 16.739C28.8286 17.1419 28.5114 17.4686 28.12 17.4686C27.7287 17.4686 27.4114 17.1419 27.4114 16.739C27.4114 14.674 25.7856 13 23.78 13ZM23.9688 16.6551C24.3562 16.7121 24.6254 17.0817 24.57 17.4805C24.4234 18.5373 23.9583 20.1406 22.6646 21.4726C21.3541 22.822 19.2749 23.8088 16.064 23.7609C15.6727 23.7551 15.3601 23.4238 15.3658 23.0209C15.3715 22.618 15.6933 22.2961 16.0846 22.302C18.9851 22.3452 20.6702 21.4626 21.6625 20.4409C22.6717 19.4018 23.048 18.1326 23.1671 17.2742C23.2225 16.8753 23.5814 16.5982 23.9688 16.6551ZM28.8286 22.3019C29.2199 22.3019 29.5372 22.6285 29.5372 23.0314C29.5372 24.3007 29.102 25.1679 28.3791 25.7494C27.7264 26.2745 26.8872 26.5174 26.2114 26.7131L26.1861 26.7204C25.4396 26.9366 24.8726 27.1052 24.4671 27.414C24.1314 27.6696 23.8686 28.0533 23.8686 28.8679C23.8686 29.2708 23.5513 29.5975 23.16 29.5975C22.7687 29.5975 22.4514 29.2708 22.4514 28.8679C22.4514 27.6307 22.8972 26.7946 23.6244 26.2409C24.2516 25.7632 25.0545 25.5316 25.7093 25.3427L25.8025 25.3158C26.5395 25.1023 27.1047 24.923 27.5066 24.5996C27.8466 24.3261 28.12 23.9053 28.12 23.0314C28.12 22.6285 28.4373 22.3019 28.8286 22.3019ZM37.1502 20.8551C37.1925 21.2557 36.9114 21.6157 36.5223 21.6593C34.9002 21.8408 33.8505 23.2226 33.1907 25.0523C32.5414 26.8531 32.3715 28.8369 32.3715 29.6887C32.3715 30.0916 32.0542 30.4182 31.6629 30.4182C31.2715 30.4182 30.9543 30.0916 30.9543 29.6887C30.9543 28.7166 31.1387 26.551 31.8622 24.5444C32.5753 22.5667 33.917 20.4831 36.3692 20.2087C36.7582 20.1651 37.1079 20.4546 37.1502 20.8551Z" fill="url(#paint5_radial_29_33)" fill-opacity="0.7"/>
<path d="M34.113 34.8621C33.3714 35.2286 32.5404 35.434 31.6629 35.434C30.7452 35.434 29.8784 35.2094 29.1116 34.8108C30.139 36.5963 32.7129 38.5346 35.0456 38.5346C36.6017 38.5346 37.8239 37.5012 38.2403 36.0723C37.9964 36.0116 37.42 35.817 37.0657 35.5252C36.4935 35.5252 35.0916 35.4475 34.113 34.8621Z" fill="url(#paint6_linear_29_33)"/>
<path d="M34.113 34.8621C33.3714 35.2286 32.5404 35.434 31.6629 35.434C30.7452 35.434 29.8784 35.2094 29.1116 34.8108C30.139 36.5963 32.7129 38.5346 35.0456 38.5346C36.6017 38.5346 37.8239 37.5012 38.2403 36.0723C37.9964 36.0116 37.42 35.817 37.0657 35.5252C36.4935 35.5252 35.0916 35.4475 34.113 34.8621Z" fill="url(#paint7_radial_29_33)" fill-opacity="0.4"/>
<path d="M34.113 34.8621C33.3714 35.2286 32.5404 35.434 31.6629 35.434C30.7452 35.434 29.8784 35.2094 29.1116 34.8108C30.139 36.5963 32.7129 38.5346 35.0456 38.5346C36.6017 38.5346 37.8239 37.5012 38.2403 36.0723C37.9964 36.0116 37.42 35.817 37.0657 35.5252C36.4935 35.5252 35.0916 35.4475 34.113 34.8621Z" fill="url(#paint8_radial_29_33)" fill-opacity="0.7"/>
<path d="M27.1457 35.9811C27.4291 35.8352 27.7952 35.5556 27.9428 35.434C28.74 36.5891 30.8657 39.0635 32.9914 39.7201V42H30.2457C30.2457 41.6656 30.1394 40.8327 29.7143 40.1761C29.2891 39.5195 27.8247 37.1059 27.1457 35.9811Z" fill="url(#paint9_linear_29_33)"/>
<path d="M27.1457 35.9811C27.4291 35.8352 27.7952 35.5556 27.9428 35.434C28.74 36.5891 30.8657 39.0635 32.9914 39.7201V42H30.2457C30.2457 41.6656 30.1394 40.8327 29.7143 40.1761C29.2891 39.5195 27.8247 37.1059 27.1457 35.9811Z" fill="url(#paint10_radial_29_33)" fill-opacity="0.4"/>
<path d="M27.1457 35.9811C27.4291 35.8352 27.7952 35.5556 27.9428 35.434C28.74 36.5891 30.8657 39.0635 32.9914 39.7201V42H30.2457C30.2457 41.6656 30.1394 40.8327 29.7143 40.1761C29.2891 39.5195 27.8247 37.1059 27.1457 35.9811Z" fill="url(#paint11_radial_29_33)" fill-opacity="0.7"/>
<defs>
<linearGradient id="paint0_linear_29_33" x1="27" y1="0" x2="27" y2="37" gradientUnits="userSpaceOnUse">
<stop stop-color="white"/>
<stop offset="1" stop-color="white" stop-opacity="0.1"/>
</linearGradient>
<linearGradient id="paint1_linear_29_33" x1="27" y1="54" x2="27" y2="27" gradientUnits="userSpaceOnUse">
<stop stop-color="#1FC5D6"/>
<stop offset="0.276825" stop-color="#1FC5D6" stop-opacity="0"/>
</linearGradient>
<radialGradient id="paint2_radial_29_33" cx="0" cy="0" r="1" gradientUnits="userSpaceOnUse" gradientTransform="translate(44 7.5) rotate(130.446) scale(80.1561 11.561)">
<stop stop-color="#915BF0"/>
<stop offset="1" stop-color="#915BF0" stop-opacity="0"/>
</radialGradient>
<linearGradient id="paint3_linear_29_33" x1="23.0132" y1="24.0658" x2="30.2471" y2="31.7986" gradientUnits="userSpaceOnUse">
<stop stop-color="#D0B9F9"/>
<stop offset="1" stop-color="white" stop-opacity="0.1"/>
</linearGradient>
<radialGradient id="paint4_radial_29_33" cx="0" cy="0" r="1" gradientUnits="userSpaceOnUse" gradientTransform="translate(27.5 25.9737) rotate(44.7751) scale(18.9618 37.3964)">
<stop stop-color="#1FC5D6"/>
<stop offset="0.279894" stop-color="#1FC5D6" stop-opacity="0"/>
</radialGradient>
<radialGradient id="paint5_radial_29_33" cx="0" cy="0" r="1" gradientUnits="userSpaceOnUse" gradientTransform="translate(26.2763 26.3553) rotate(43.0909) scale(8.37828 29.3745)">
<stop stop-color="#915BF0"/>
<stop offset="0.313259" stop-color="#915BF0" stop-opacity="0"/>
</radialGradient>
<linearGradient id="paint6_linear_29_33" x1="23.0132" y1="24.0658" x2="30.2471" y2="31.7986" gradientUnits="userSpaceOnUse">
<stop stop-color="#D0B9F9"/>
<stop offset="1" stop-color="white" stop-opacity="0.1"/>
</linearGradient>
<radialGradient id="paint7_radial_29_33" cx="0" cy="0" r="1" gradientUnits="userSpaceOnUse" gradientTransform="translate(27.5 25.9737) rotate(44.7751) scale(18.9618 37.3964)">
<stop stop-color="#1FC5D6"/>
<stop offset="0.279894" stop-color="#1FC5D6" stop-opacity="0"/>
</radialGradient>
<radialGradient id="paint8_radial_29_33" cx="0" cy="0" r="1" gradientUnits="userSpaceOnUse" gradientTransform="translate(26.2763 26.3553) rotate(43.0909) scale(8.37828 29.3745)">
<stop stop-color="#915BF0"/>
<stop offset="0.313259" stop-color="#915BF0" stop-opacity="0"/>
</radialGradient>
<linearGradient id="paint9_linear_29_33" x1="23.0132" y1="24.0658" x2="30.2471" y2="31.7986" gradientUnits="userSpaceOnUse">
<stop stop-color="#D0B9F9"/>
<stop offset="1" stop-color="white" stop-opacity="0.1"/>
</linearGradient>
<radialGradient id="paint10_radial_29_33" cx="0" cy="0" r="1" gradientUnits="userSpaceOnUse" gradientTransform="translate(27.5 25.9737) rotate(44.7751) scale(18.9618 37.3964)">
<stop stop-color="#1FC5D6"/>
<stop offset="0.279894" stop-color="#1FC5D6" stop-opacity="0"/>
</radialGradient>
<radialGradient id="paint11_radial_29_33" cx="0" cy="0" r="1" gradientUnits="userSpaceOnUse" gradientTransform="translate(26.2763 26.3553) rotate(43.0909) scale(8.37828 29.3745)">
<stop stop-color="#915BF0"/>
<stop offset="0.313259" stop-color="#915BF0" stop-opacity="0"/>
</radialGradient>
</defs>
</svg>
