<svg width="40" height="40" viewBox="0 0 40 40" fill="none" xmlns="http://www.w3.org/2000/svg">
<rect width="40" height="40" rx="8" fill="url(#paint0_linear_0_1)" fill-opacity="0.6"/>
<rect x="0.5" y="0.5" width="39" height="39" rx="7.5" stroke="url(#paint1_linear_0_1)" stroke-opacity="0.08"/>
<rect x="0.5" y="0.5" width="39" height="39" rx="7.5" stroke="url(#paint2_radial_0_1)" stroke-opacity="0.58"/>
<rect x="0.5" y="0.5" width="39" height="39" rx="7.5" stroke="url(#paint3_linear_0_1)" stroke-opacity="0.3"/>
<path d="M20 16C26.6274 16 32 14.2091 32 12C32 9.79086 26.6274 8 20 8C13.3726 8 8 9.79086 8 12C8 14.2091 13.3726 16 20 16Z" fill="url(#paint4_linear_0_1)"/>
<path d="M20 16C26.6274 16 32 14.2091 32 12C32 9.79086 26.6274 8 20 8C13.3726 8 8 9.79086 8 12C8 14.2091 13.3726 16 20 16Z" fill="url(#paint5_radial_0_1)" fill-opacity="0.4"/>
<path d="M20 16C26.6274 16 32 14.2091 32 12C32 9.79086 26.6274 8 20 8C13.3726 8 8 9.79086 8 12C8 14.2091 13.3726 16 20 16Z" fill="url(#paint6_radial_0_1)" fill-opacity="0.7"/>
<path d="M9 16C9.54097 16 9.9816 16.4296 9.99944 16.9662C10.0148 16.9969 10.0913 17.1242 10.4063 17.3273C10.8411 17.6076 11.5364 17.8979 12.4849 18.1566C14.3677 18.67 17.025 19 20 19C22.975 19 25.6323 18.67 27.5151 18.1566C28.4636 17.8979 29.1589 17.6076 29.5937 17.3273C29.9087 17.1242 29.9851 16.9969 30.0006 16.9662C30.0184 16.4296 30.459 16 31 16C31.5523 16 32 16.4477 32 17C32 17.9438 31.3112 18.5995 30.6775 19.0082C29.9989 19.4457 29.0834 19.8019 28.0413 20.0861C25.9428 20.6584 23.1002 21 20 21C16.8998 21 14.0572 20.6584 11.9587 20.0861C10.9166 19.8019 10.0011 19.4457 9.32252 19.0082C8.68876 18.5995 8 17.9438 8 17C8 16.4477 8.44772 16 9 16Z" fill="url(#paint7_linear_0_1)"/>
<path d="M9 16C9.54097 16 9.9816 16.4296 9.99944 16.9662C10.0148 16.9969 10.0913 17.1242 10.4063 17.3273C10.8411 17.6076 11.5364 17.8979 12.4849 18.1566C14.3677 18.67 17.025 19 20 19C22.975 19 25.6323 18.67 27.5151 18.1566C28.4636 17.8979 29.1589 17.6076 29.5937 17.3273C29.9087 17.1242 29.9851 16.9969 30.0006 16.9662C30.0184 16.4296 30.459 16 31 16C31.5523 16 32 16.4477 32 17C32 17.9438 31.3112 18.5995 30.6775 19.0082C29.9989 19.4457 29.0834 19.8019 28.0413 20.0861C25.9428 20.6584 23.1002 21 20 21C16.8998 21 14.0572 20.6584 11.9587 20.0861C10.9166 19.8019 10.0011 19.4457 9.32252 19.0082C8.68876 18.5995 8 17.9438 8 17C8 16.4477 8.44772 16 9 16Z" fill="url(#paint8_radial_0_1)" fill-opacity="0.4"/>
<path d="M9 16C9.54097 16 9.9816 16.4296 9.99944 16.9662C10.0148 16.9969 10.0913 17.1242 10.4063 17.3273C10.8411 17.6076 11.5364 17.8979 12.4849 18.1566C14.3677 18.67 17.025 19 20 19C22.975 19 25.6323 18.67 27.5151 18.1566C28.4636 17.8979 29.1589 17.6076 29.5937 17.3273C29.9087 17.1242 29.9851 16.9969 30.0006 16.9662C30.0184 16.4296 30.459 16 31 16C31.5523 16 32 16.4477 32 17C32 17.9438 31.3112 18.5995 30.6775 19.0082C29.9989 19.4457 29.0834 19.8019 28.0413 20.0861C25.9428 20.6584 23.1002 21 20 21C16.8998 21 14.0572 20.6584 11.9587 20.0861C10.9166 19.8019 10.0011 19.4457 9.32252 19.0082C8.68876 18.5995 8 17.9438 8 17C8 16.4477 8.44772 16 9 16Z" fill="url(#paint9_radial_0_1)" fill-opacity="0.7"/>
<path d="M9 21C9.55228 21 10 21.4477 10 22C10 22.1512 10.0811 22.4245 10.5164 22.7987C10.9483 23.1701 11.6319 23.5499 12.5636 23.8886C14.4186 24.5632 17.0477 25 20 25C22.9523 25 25.5814 24.5632 27.4364 23.8886C28.3681 23.5499 29.0517 23.1701 29.4836 22.7987C29.9189 22.4245 30 22.1512 30 22C30 21.4477 30.4477 21 31 21C31.5523 21 32 21.4477 32 22C32 22.9534 31.4655 23.7323 30.7875 24.3153C30.1062 24.901 29.1789 25.3831 28.1199 25.7682C25.9938 26.5414 23.1228 27 20 27C16.8772 27 14.0062 26.5414 11.8801 25.7682C10.8211 25.3831 9.8938 24.901 9.21251 24.3153C8.53447 23.7323 8 22.9534 8 22C8 21.4477 8.44772 21 9 21Z" fill="url(#paint10_linear_0_1)"/>
<path d="M9 21C9.55228 21 10 21.4477 10 22C10 22.1512 10.0811 22.4245 10.5164 22.7987C10.9483 23.1701 11.6319 23.5499 12.5636 23.8886C14.4186 24.5632 17.0477 25 20 25C22.9523 25 25.5814 24.5632 27.4364 23.8886C28.3681 23.5499 29.0517 23.1701 29.4836 22.7987C29.9189 22.4245 30 22.1512 30 22C30 21.4477 30.4477 21 31 21C31.5523 21 32 21.4477 32 22C32 22.9534 31.4655 23.7323 30.7875 24.3153C30.1062 24.901 29.1789 25.3831 28.1199 25.7682C25.9938 26.5414 23.1228 27 20 27C16.8772 27 14.0062 26.5414 11.8801 25.7682C10.8211 25.3831 9.8938 24.901 9.21251 24.3153C8.53447 23.7323 8 22.9534 8 22C8 21.4477 8.44772 21 9 21Z" fill="url(#paint11_radial_0_1)" fill-opacity="0.4"/>
<path d="M9 21C9.55228 21 10 21.4477 10 22C10 22.1512 10.0811 22.4245 10.5164 22.7987C10.9483 23.1701 11.6319 23.5499 12.5636 23.8886C14.4186 24.5632 17.0477 25 20 25C22.9523 25 25.5814 24.5632 27.4364 23.8886C28.3681 23.5499 29.0517 23.1701 29.4836 22.7987C29.9189 22.4245 30 22.1512 30 22C30 21.4477 30.4477 21 31 21C31.5523 21 32 21.4477 32 22C32 22.9534 31.4655 23.7323 30.7875 24.3153C30.1062 24.901 29.1789 25.3831 28.1199 25.7682C25.9938 26.5414 23.1228 27 20 27C16.8772 27 14.0062 26.5414 11.8801 25.7682C10.8211 25.3831 9.8938 24.901 9.21251 24.3153C8.53447 23.7323 8 22.9534 8 22C8 21.4477 8.44772 21 9 21Z" fill="url(#paint12_radial_0_1)" fill-opacity="0.7"/>
<path d="M9 27C9.54097 27 9.9816 27.4296 9.99944 27.9662C10.0148 27.9969 10.0913 28.1242 10.4063 28.3273C10.8411 28.6076 11.5364 28.8979 12.4849 29.1566C14.3677 29.67 17.025 30 20 30C22.975 30 25.6323 29.67 27.5151 29.1566C28.4636 28.8979 29.1589 28.6076 29.5937 28.3273C29.9087 28.1242 29.9851 27.9969 30.0006 27.9662C30.0184 27.4296 30.459 27 31 27C31.5523 27 32 27.4477 32 28C32 28.9438 31.3112 29.5995 30.6775 30.0082C29.9989 30.4457 29.0834 30.8019 28.0413 31.0861C25.9428 31.6584 23.1002 32 20 32C16.8998 32 14.0572 31.6584 11.9587 31.0861C10.9166 30.8019 10.0011 30.4457 9.32252 30.0082C8.68876 29.5995 8 28.9438 8 28C8 27.4477 8.44772 27 9 27Z" fill="url(#paint13_linear_0_1)"/>
<path d="M9 27C9.54097 27 9.9816 27.4296 9.99944 27.9662C10.0148 27.9969 10.0913 28.1242 10.4063 28.3273C10.8411 28.6076 11.5364 28.8979 12.4849 29.1566C14.3677 29.67 17.025 30 20 30C22.975 30 25.6323 29.67 27.5151 29.1566C28.4636 28.8979 29.1589 28.6076 29.5937 28.3273C29.9087 28.1242 29.9851 27.9969 30.0006 27.9662C30.0184 27.4296 30.459 27 31 27C31.5523 27 32 27.4477 32 28C32 28.9438 31.3112 29.5995 30.6775 30.0082C29.9989 30.4457 29.0834 30.8019 28.0413 31.0861C25.9428 31.6584 23.1002 32 20 32C16.8998 32 14.0572 31.6584 11.9587 31.0861C10.9166 30.8019 10.0011 30.4457 9.32252 30.0082C8.68876 29.5995 8 28.9438 8 28C8 27.4477 8.44772 27 9 27Z" fill="url(#paint14_radial_0_1)" fill-opacity="0.4"/>
<path d="M9 27C9.54097 27 9.9816 27.4296 9.99944 27.9662C10.0148 27.9969 10.0913 28.1242 10.4063 28.3273C10.8411 28.6076 11.5364 28.8979 12.4849 29.1566C14.3677 29.67 17.025 30 20 30C22.975 30 25.6323 29.67 27.5151 29.1566C28.4636 28.8979 29.1589 28.6076 29.5937 28.3273C29.9087 28.1242 29.9851 27.9969 30.0006 27.9662C30.0184 27.4296 30.459 27 31 27C31.5523 27 32 27.4477 32 28C32 28.9438 31.3112 29.5995 30.6775 30.0082C29.9989 30.4457 29.0834 30.8019 28.0413 31.0861C25.9428 31.6584 23.1002 32 20 32C16.8998 32 14.0572 31.6584 11.9587 31.0861C10.9166 30.8019 10.0011 30.4457 9.32252 30.0082C8.68876 29.5995 8 28.9438 8 28C8 27.4477 8.44772 27 9 27Z" fill="url(#paint15_radial_0_1)" fill-opacity="0.7"/>
<defs>
<linearGradient id="paint0_linear_0_1" x1="20" y1="0" x2="20" y2="40" gradientUnits="userSpaceOnUse">
<stop stop-color="#2A274E"/>
<stop offset="1" stop-color="#090911"/>
</linearGradient>
<linearGradient id="paint1_linear_0_1" x1="15.2872" y1="1.68414e-06" x2="15.2872" y2="29.4319" gradientUnits="userSpaceOnUse">
<stop stop-color="white"/>
<stop offset="1" stop-color="white" stop-opacity="0.1"/>
</linearGradient>
<radialGradient id="paint2_radial_0_1" cx="0" cy="0" r="1" gradientUnits="userSpaceOnUse" gradientTransform="translate(38 1.5) rotate(129.116) scale(36.0009 29.5199)">
<stop stop-color="#915BF0"/>
<stop offset="0.543281" stop-color="#915BF0" stop-opacity="0.1"/>
</radialGradient>
<linearGradient id="paint3_linear_0_1" x1="20" y1="40" x2="20" y2="34.5" gradientUnits="userSpaceOnUse">
<stop stop-color="#1FC5D6"/>
<stop offset="0.575" stop-color="#1FC5D6" stop-opacity="0"/>
</linearGradient>
<linearGradient id="paint4_linear_0_1" x1="16.5263" y1="17.1579" x2="22.5263" y2="23.1579" gradientUnits="userSpaceOnUse">
<stop stop-color="#D0B9F9"/>
<stop offset="1" stop-color="white" stop-opacity="0.1"/>
</linearGradient>
<radialGradient id="paint5_radial_0_1" cx="0" cy="0" r="1" gradientUnits="userSpaceOnUse" gradientTransform="translate(20 18.7368) rotate(46.6847) scale(15.1908 29.9084)">
<stop stop-color="#1FC5D6"/>
<stop offset="0.279894" stop-color="#1FC5D6" stop-opacity="0"/>
</radialGradient>
<radialGradient id="paint6_radial_0_1" cx="0" cy="0" r="1" gradientUnits="userSpaceOnUse" gradientTransform="translate(19.0526 19.0526) rotate(45) scale(6.69891 23.5388)">
<stop stop-color="#915BF0"/>
<stop offset="0.313259" stop-color="#915BF0" stop-opacity="0"/>
</radialGradient>
<linearGradient id="paint7_linear_0_1" x1="16.5263" y1="17.1579" x2="22.5263" y2="23.1579" gradientUnits="userSpaceOnUse">
<stop stop-color="#D0B9F9"/>
<stop offset="1" stop-color="white" stop-opacity="0.1"/>
</linearGradient>
<radialGradient id="paint8_radial_0_1" cx="0" cy="0" r="1" gradientUnits="userSpaceOnUse" gradientTransform="translate(20 18.7368) rotate(46.6847) scale(15.1908 29.9084)">
<stop stop-color="#1FC5D6"/>
<stop offset="0.279894" stop-color="#1FC5D6" stop-opacity="0"/>
</radialGradient>
<radialGradient id="paint9_radial_0_1" cx="0" cy="0" r="1" gradientUnits="userSpaceOnUse" gradientTransform="translate(19.0526 19.0526) rotate(45) scale(6.69891 23.5388)">
<stop stop-color="#915BF0"/>
<stop offset="0.313259" stop-color="#915BF0" stop-opacity="0"/>
</radialGradient>
<linearGradient id="paint10_linear_0_1" x1="16.5263" y1="17.1579" x2="22.5263" y2="23.1579" gradientUnits="userSpaceOnUse">
<stop stop-color="#D0B9F9"/>
<stop offset="1" stop-color="white" stop-opacity="0.1"/>
</linearGradient>
<radialGradient id="paint11_radial_0_1" cx="0" cy="0" r="1" gradientUnits="userSpaceOnUse" gradientTransform="translate(20 18.7368) rotate(46.6847) scale(15.1908 29.9084)">
<stop stop-color="#1FC5D6"/>
<stop offset="0.279894" stop-color="#1FC5D6" stop-opacity="0"/>
</radialGradient>
<radialGradient id="paint12_radial_0_1" cx="0" cy="0" r="1" gradientUnits="userSpaceOnUse" gradientTransform="translate(19.0526 19.0526) rotate(45) scale(6.69891 23.5388)">
<stop stop-color="#915BF0"/>
<stop offset="0.313259" stop-color="#915BF0" stop-opacity="0"/>
</radialGradient>
<linearGradient id="paint13_linear_0_1" x1="16.5263" y1="17.1579" x2="22.5263" y2="23.1579" gradientUnits="userSpaceOnUse">
<stop stop-color="#D0B9F9"/>
<stop offset="1" stop-color="white" stop-opacity="0.1"/>
</linearGradient>
<radialGradient id="paint14_radial_0_1" cx="0" cy="0" r="1" gradientUnits="userSpaceOnUse" gradientTransform="translate(20 18.7368) rotate(46.6847) scale(15.1908 29.9084)">
<stop stop-color="#1FC5D6"/>
<stop offset="0.279894" stop-color="#1FC5D6" stop-opacity="0"/>
</radialGradient>
<radialGradient id="paint15_radial_0_1" cx="0" cy="0" r="1" gradientUnits="userSpaceOnUse" gradientTransform="translate(19.0526 19.0526) rotate(45) scale(6.69891 23.5388)">
<stop stop-color="#915BF0"/>
<stop offset="0.313259" stop-color="#915BF0" stop-opacity="0"/>
</radialGradient>
</defs>
</svg>
