<svg width="40" height="40" viewBox="0 0 40 40" fill="none" xmlns="http://www.w3.org/2000/svg">
<rect width="40" height="40" rx="8" fill="url(#paint0_linear_0_1)" fill-opacity="0.6"/>
<rect x="0.5" y="0.5" width="39" height="39" rx="7.5" stroke="url(#paint1_linear_0_1)" stroke-opacity="0.08"/>
<rect x="0.5" y="0.5" width="39" height="39" rx="7.5" stroke="url(#paint2_radial_0_1)" stroke-opacity="0.58"/>
<rect x="0.5" y="0.5" width="39" height="39" rx="7.5" stroke="url(#paint3_linear_0_1)" stroke-opacity="0.3"/>
<path fill-rule="evenodd" clip-rule="evenodd" d="M17.2363 9.07422C15.7463 9.07422 14.5384 10.2821 14.5384 11.7722C14.5384 12.0629 14.3027 12.2986 14.0119 12.2986C13.7212 12.2986 13.4855 12.0629 13.4855 11.7722C13.4855 10.7178 13.9206 9.76494 14.621 9.0835C13.4213 9.17412 12.4048 9.92129 11.93 10.9667C10.7527 11.176 9.79633 12.0244 9.4323 13.1404C9.91931 12.8965 10.469 12.7592 11.0507 12.7592C11.3415 12.7592 11.5772 12.9949 11.5772 13.2857C11.5772 13.5764 11.3415 13.8121 11.0507 13.8121C9.63337 13.8121 8.48438 14.9611 8.48438 16.3785C8.48438 17.7958 9.63337 18.9448 11.0507 18.9448C11.3415 18.9448 11.5772 19.1805 11.5772 19.4713C11.5772 19.762 11.3415 19.9977 11.0507 19.9977C10.3037 19.9977 9.60951 19.7714 9.03302 19.3835C9.21715 20.9158 10.5217 22.1034 12.1036 22.1034C12.2688 22.1034 12.4309 22.0905 12.5891 22.0655C12.5727 21.9049 12.5642 21.742 12.5642 21.577C12.5642 20.2784 13.0874 19.101 13.9332 18.2457C14.1376 18.0389 14.4709 18.0371 14.6777 18.2415C14.8844 18.4459 14.8862 18.7792 14.6818 18.986C14.023 19.6522 13.6171 20.5667 13.6171 21.577C13.6171 23.6122 15.2669 25.262 17.3021 25.262C18.4114 25.262 19.4062 24.7724 20.0824 23.9957C19.3394 23.2363 18.8814 22.1969 18.8814 21.0506C18.8814 20.7598 19.1171 20.5241 19.4079 20.5241C19.6986 20.5241 19.9343 20.7598 19.9343 21.0506C19.9343 22.795 21.3484 24.2092 23.0929 24.2092C24.8373 24.2092 26.2515 22.795 26.2515 21.0506C26.2515 20.7598 26.4872 20.5241 26.7779 20.5241C27.0687 20.5241 27.3044 20.7598 27.3044 21.0506C27.3044 22.2649 26.7904 23.3593 25.9681 24.1279C26.1364 24.2612 26.3491 24.3408 26.5805 24.3408C26.7728 24.3408 26.9522 24.2858 27.104 24.1907C27.5641 24.533 28.1344 24.7356 28.752 24.7356C30.2784 24.7356 31.5158 23.4982 31.5158 21.9718C31.5158 21.5295 31.4119 21.1115 31.2272 20.7408C31.4125 20.3339 31.5158 19.8818 31.5158 19.4055C31.5158 18.8287 31.3644 18.2874 31.0991 17.819C30.5574 19.098 29.301 19.9977 27.8308 19.9977C27.54 19.9977 27.3044 19.762 27.3044 19.4713C27.3044 19.1805 27.54 18.9448 27.8308 18.9448C29.206 18.9448 30.3313 17.8152 30.3313 16.4086C30.3313 15.4999 29.8609 14.7047 29.1549 14.2566C29.0483 14.189 28.9744 14.0895 28.9375 13.9784C28.903 13.9084 28.8837 13.8296 28.8837 13.7463C28.8837 12.2563 27.6757 11.0483 26.1857 11.0483C24.6956 11.0483 23.4877 12.2563 23.4877 13.7463C23.4877 14.0371 23.252 14.2727 22.9613 14.2727C22.6705 14.2727 22.4349 14.0371 22.4349 13.7463C22.4349 11.9334 23.721 10.4209 25.4306 10.0715C24.9019 9.69231 24.2538 9.46906 23.5535 9.46906C23.0847 9.46906 22.6393 9.56911 22.2374 9.74901C21.6919 9.32601 21.007 9.07423 20.2633 9.07423C20.129 9.07423 19.9967 9.08243 19.8668 9.09837C20.5584 9.77877 20.9872 10.7254 20.9872 11.7722C20.9872 12.0629 20.7515 12.2986 20.4607 12.2986C20.17 12.2986 19.9343 12.0629 19.9343 11.7722C19.9343 10.2821 18.7264 9.07422 17.2363 9.07422ZM17.3766 11.7117C17.6644 11.7528 17.8644 12.0194 17.8233 12.3073C17.7143 13.0698 17.3688 14.2267 16.4076 15.1879C15.434 16.1615 13.8893 16.8736 11.5037 16.8391C11.213 16.8348 10.9808 16.5958 10.985 16.305C10.9892 16.0143 11.2283 15.7821 11.519 15.7863C13.6739 15.8175 14.9259 15.1807 15.6632 14.4434C16.4129 13.6936 16.6925 12.7778 16.781 12.1584C16.8221 11.8706 17.0888 11.6706 17.3766 11.7117ZM20.9872 15.7862C21.2779 15.7862 21.5136 16.0219 21.5136 16.3127C21.5136 17.2285 21.1903 17.8543 20.6532 18.2739C20.1683 18.6528 19.5448 18.8281 19.0427 18.9693L19.024 18.9745C18.4693 19.1305 18.0481 19.2522 17.7468 19.475C17.4974 19.6595 17.3021 19.9363 17.3021 20.5241C17.3021 20.8149 17.0664 21.0506 16.7757 21.0506C16.485 21.0506 16.2493 20.8149 16.2493 20.5241C16.2493 19.6314 16.5804 19.0281 17.1207 18.6285C17.5867 18.2839 18.1832 18.1167 18.6697 17.9804L18.7389 17.961C19.2865 17.807 19.7064 17.6775 20.005 17.4442C20.2576 17.2469 20.4607 16.9432 20.4607 16.3127C20.4607 16.0219 20.6964 15.7862 20.9872 15.7862ZM27.1697 14.7423C27.2011 15.0313 26.9922 15.2911 26.7032 15.3225C25.498 15.4535 24.7182 16.4506 24.228 17.7709C23.7456 19.0703 23.6193 20.5017 23.6193 21.1164C23.6193 21.4071 23.3836 21.6428 23.0929 21.6428C22.8022 21.6428 22.5665 21.4071 22.5665 21.1164C22.5665 20.4149 22.7034 18.8523 23.241 17.4044C23.7708 15.9773 24.7676 14.4739 26.5894 14.2758C26.8785 14.2444 27.1382 14.4533 27.1697 14.7423Z" fill="url(#paint4_linear_0_1)"/>
<path fill-rule="evenodd" clip-rule="evenodd" d="M17.2363 9.07422C15.7463 9.07422 14.5384 10.2821 14.5384 11.7722C14.5384 12.0629 14.3027 12.2986 14.0119 12.2986C13.7212 12.2986 13.4855 12.0629 13.4855 11.7722C13.4855 10.7178 13.9206 9.76494 14.621 9.0835C13.4213 9.17412 12.4048 9.92129 11.93 10.9667C10.7527 11.176 9.79633 12.0244 9.4323 13.1404C9.91931 12.8965 10.469 12.7592 11.0507 12.7592C11.3415 12.7592 11.5772 12.9949 11.5772 13.2857C11.5772 13.5764 11.3415 13.8121 11.0507 13.8121C9.63337 13.8121 8.48438 14.9611 8.48438 16.3785C8.48438 17.7958 9.63337 18.9448 11.0507 18.9448C11.3415 18.9448 11.5772 19.1805 11.5772 19.4713C11.5772 19.762 11.3415 19.9977 11.0507 19.9977C10.3037 19.9977 9.60951 19.7714 9.03302 19.3835C9.21715 20.9158 10.5217 22.1034 12.1036 22.1034C12.2688 22.1034 12.4309 22.0905 12.5891 22.0655C12.5727 21.9049 12.5642 21.742 12.5642 21.577C12.5642 20.2784 13.0874 19.101 13.9332 18.2457C14.1376 18.0389 14.4709 18.0371 14.6777 18.2415C14.8844 18.4459 14.8862 18.7792 14.6818 18.986C14.023 19.6522 13.6171 20.5667 13.6171 21.577C13.6171 23.6122 15.2669 25.262 17.3021 25.262C18.4114 25.262 19.4062 24.7724 20.0824 23.9957C19.3394 23.2363 18.8814 22.1969 18.8814 21.0506C18.8814 20.7598 19.1171 20.5241 19.4079 20.5241C19.6986 20.5241 19.9343 20.7598 19.9343 21.0506C19.9343 22.795 21.3484 24.2092 23.0929 24.2092C24.8373 24.2092 26.2515 22.795 26.2515 21.0506C26.2515 20.7598 26.4872 20.5241 26.7779 20.5241C27.0687 20.5241 27.3044 20.7598 27.3044 21.0506C27.3044 22.2649 26.7904 23.3593 25.9681 24.1279C26.1364 24.2612 26.3491 24.3408 26.5805 24.3408C26.7728 24.3408 26.9522 24.2858 27.104 24.1907C27.5641 24.533 28.1344 24.7356 28.752 24.7356C30.2784 24.7356 31.5158 23.4982 31.5158 21.9718C31.5158 21.5295 31.4119 21.1115 31.2272 20.7408C31.4125 20.3339 31.5158 19.8818 31.5158 19.4055C31.5158 18.8287 31.3644 18.2874 31.0991 17.819C30.5574 19.098 29.301 19.9977 27.8308 19.9977C27.54 19.9977 27.3044 19.762 27.3044 19.4713C27.3044 19.1805 27.54 18.9448 27.8308 18.9448C29.206 18.9448 30.3313 17.8152 30.3313 16.4086C30.3313 15.4999 29.8609 14.7047 29.1549 14.2566C29.0483 14.189 28.9744 14.0895 28.9375 13.9784C28.903 13.9084 28.8837 13.8296 28.8837 13.7463C28.8837 12.2563 27.6757 11.0483 26.1857 11.0483C24.6956 11.0483 23.4877 12.2563 23.4877 13.7463C23.4877 14.0371 23.252 14.2727 22.9613 14.2727C22.6705 14.2727 22.4349 14.0371 22.4349 13.7463C22.4349 11.9334 23.721 10.4209 25.4306 10.0715C24.9019 9.69231 24.2538 9.46906 23.5535 9.46906C23.0847 9.46906 22.6393 9.56911 22.2374 9.74901C21.6919 9.32601 21.007 9.07423 20.2633 9.07423C20.129 9.07423 19.9967 9.08243 19.8668 9.09837C20.5584 9.77877 20.9872 10.7254 20.9872 11.7722C20.9872 12.0629 20.7515 12.2986 20.4607 12.2986C20.17 12.2986 19.9343 12.0629 19.9343 11.7722C19.9343 10.2821 18.7264 9.07422 17.2363 9.07422ZM17.3766 11.7117C17.6644 11.7528 17.8644 12.0194 17.8233 12.3073C17.7143 13.0698 17.3688 14.2267 16.4076 15.1879C15.434 16.1615 13.8893 16.8736 11.5037 16.8391C11.213 16.8348 10.9808 16.5958 10.985 16.305C10.9892 16.0143 11.2283 15.7821 11.519 15.7863C13.6739 15.8175 14.9259 15.1807 15.6632 14.4434C16.4129 13.6936 16.6925 12.7778 16.781 12.1584C16.8221 11.8706 17.0888 11.6706 17.3766 11.7117ZM20.9872 15.7862C21.2779 15.7862 21.5136 16.0219 21.5136 16.3127C21.5136 17.2285 21.1903 17.8543 20.6532 18.2739C20.1683 18.6528 19.5448 18.8281 19.0427 18.9693L19.024 18.9745C18.4693 19.1305 18.0481 19.2522 17.7468 19.475C17.4974 19.6595 17.3021 19.9363 17.3021 20.5241C17.3021 20.8149 17.0664 21.0506 16.7757 21.0506C16.485 21.0506 16.2493 20.8149 16.2493 20.5241C16.2493 19.6314 16.5804 19.0281 17.1207 18.6285C17.5867 18.2839 18.1832 18.1167 18.6697 17.9804L18.7389 17.961C19.2865 17.807 19.7064 17.6775 20.005 17.4442C20.2576 17.2469 20.4607 16.9432 20.4607 16.3127C20.4607 16.0219 20.6964 15.7862 20.9872 15.7862ZM27.1697 14.7423C27.2011 15.0313 26.9922 15.2911 26.7032 15.3225C25.498 15.4535 24.7182 16.4506 24.228 17.7709C23.7456 19.0703 23.6193 20.5017 23.6193 21.1164C23.6193 21.4071 23.3836 21.6428 23.0929 21.6428C22.8022 21.6428 22.5665 21.4071 22.5665 21.1164C22.5665 20.4149 22.7034 18.8523 23.241 17.4044C23.7708 15.9773 24.7676 14.4739 26.5894 14.2758C26.8785 14.2444 27.1382 14.4533 27.1697 14.7423Z" fill="url(#paint5_radial_0_1)" fill-opacity="0.4"/>
<path fill-rule="evenodd" clip-rule="evenodd" d="M17.2363 9.07422C15.7463 9.07422 14.5384 10.2821 14.5384 11.7722C14.5384 12.0629 14.3027 12.2986 14.0119 12.2986C13.7212 12.2986 13.4855 12.0629 13.4855 11.7722C13.4855 10.7178 13.9206 9.76494 14.621 9.0835C13.4213 9.17412 12.4048 9.92129 11.93 10.9667C10.7527 11.176 9.79633 12.0244 9.4323 13.1404C9.91931 12.8965 10.469 12.7592 11.0507 12.7592C11.3415 12.7592 11.5772 12.9949 11.5772 13.2857C11.5772 13.5764 11.3415 13.8121 11.0507 13.8121C9.63337 13.8121 8.48438 14.9611 8.48438 16.3785C8.48438 17.7958 9.63337 18.9448 11.0507 18.9448C11.3415 18.9448 11.5772 19.1805 11.5772 19.4713C11.5772 19.762 11.3415 19.9977 11.0507 19.9977C10.3037 19.9977 9.60951 19.7714 9.03302 19.3835C9.21715 20.9158 10.5217 22.1034 12.1036 22.1034C12.2688 22.1034 12.4309 22.0905 12.5891 22.0655C12.5727 21.9049 12.5642 21.742 12.5642 21.577C12.5642 20.2784 13.0874 19.101 13.9332 18.2457C14.1376 18.0389 14.4709 18.0371 14.6777 18.2415C14.8844 18.4459 14.8862 18.7792 14.6818 18.986C14.023 19.6522 13.6171 20.5667 13.6171 21.577C13.6171 23.6122 15.2669 25.262 17.3021 25.262C18.4114 25.262 19.4062 24.7724 20.0824 23.9957C19.3394 23.2363 18.8814 22.1969 18.8814 21.0506C18.8814 20.7598 19.1171 20.5241 19.4079 20.5241C19.6986 20.5241 19.9343 20.7598 19.9343 21.0506C19.9343 22.795 21.3484 24.2092 23.0929 24.2092C24.8373 24.2092 26.2515 22.795 26.2515 21.0506C26.2515 20.7598 26.4872 20.5241 26.7779 20.5241C27.0687 20.5241 27.3044 20.7598 27.3044 21.0506C27.3044 22.2649 26.7904 23.3593 25.9681 24.1279C26.1364 24.2612 26.3491 24.3408 26.5805 24.3408C26.7728 24.3408 26.9522 24.2858 27.104 24.1907C27.5641 24.533 28.1344 24.7356 28.752 24.7356C30.2784 24.7356 31.5158 23.4982 31.5158 21.9718C31.5158 21.5295 31.4119 21.1115 31.2272 20.7408C31.4125 20.3339 31.5158 19.8818 31.5158 19.4055C31.5158 18.8287 31.3644 18.2874 31.0991 17.819C30.5574 19.098 29.301 19.9977 27.8308 19.9977C27.54 19.9977 27.3044 19.762 27.3044 19.4713C27.3044 19.1805 27.54 18.9448 27.8308 18.9448C29.206 18.9448 30.3313 17.8152 30.3313 16.4086C30.3313 15.4999 29.8609 14.7047 29.1549 14.2566C29.0483 14.189 28.9744 14.0895 28.9375 13.9784C28.903 13.9084 28.8837 13.8296 28.8837 13.7463C28.8837 12.2563 27.6757 11.0483 26.1857 11.0483C24.6956 11.0483 23.4877 12.2563 23.4877 13.7463C23.4877 14.0371 23.252 14.2727 22.9613 14.2727C22.6705 14.2727 22.4349 14.0371 22.4349 13.7463C22.4349 11.9334 23.721 10.4209 25.4306 10.0715C24.9019 9.69231 24.2538 9.46906 23.5535 9.46906C23.0847 9.46906 22.6393 9.56911 22.2374 9.74901C21.6919 9.32601 21.007 9.07423 20.2633 9.07423C20.129 9.07423 19.9967 9.08243 19.8668 9.09837C20.5584 9.77877 20.9872 10.7254 20.9872 11.7722C20.9872 12.0629 20.7515 12.2986 20.4607 12.2986C20.17 12.2986 19.9343 12.0629 19.9343 11.7722C19.9343 10.2821 18.7264 9.07422 17.2363 9.07422ZM17.3766 11.7117C17.6644 11.7528 17.8644 12.0194 17.8233 12.3073C17.7143 13.0698 17.3688 14.2267 16.4076 15.1879C15.434 16.1615 13.8893 16.8736 11.5037 16.8391C11.213 16.8348 10.9808 16.5958 10.985 16.305C10.9892 16.0143 11.2283 15.7821 11.519 15.7863C13.6739 15.8175 14.9259 15.1807 15.6632 14.4434C16.4129 13.6936 16.6925 12.7778 16.781 12.1584C16.8221 11.8706 17.0888 11.6706 17.3766 11.7117ZM20.9872 15.7862C21.2779 15.7862 21.5136 16.0219 21.5136 16.3127C21.5136 17.2285 21.1903 17.8543 20.6532 18.2739C20.1683 18.6528 19.5448 18.8281 19.0427 18.9693L19.024 18.9745C18.4693 19.1305 18.0481 19.2522 17.7468 19.475C17.4974 19.6595 17.3021 19.9363 17.3021 20.5241C17.3021 20.8149 17.0664 21.0506 16.7757 21.0506C16.485 21.0506 16.2493 20.8149 16.2493 20.5241C16.2493 19.6314 16.5804 19.0281 17.1207 18.6285C17.5867 18.2839 18.1832 18.1167 18.6697 17.9804L18.7389 17.961C19.2865 17.807 19.7064 17.6775 20.005 17.4442C20.2576 17.2469 20.4607 16.9432 20.4607 16.3127C20.4607 16.0219 20.6964 15.7862 20.9872 15.7862ZM27.1697 14.7423C27.2011 15.0313 26.9922 15.2911 26.7032 15.3225C25.498 15.4535 24.7182 16.4506 24.228 17.7709C23.7456 19.0703 23.6193 20.5017 23.6193 21.1164C23.6193 21.4071 23.3836 21.6428 23.0929 21.6428C22.8022 21.6428 22.5665 21.4071 22.5665 21.1164C22.5665 20.4149 22.7034 18.8523 23.241 17.4044C23.7708 15.9773 24.7676 14.4739 26.5894 14.2758C26.8785 14.2444 27.1382 14.4533 27.1697 14.7423Z" fill="url(#paint6_radial_0_1)" fill-opacity="0.7"/>
<path d="M24.9132 24.8494C24.3622 25.1139 23.7449 25.262 23.0929 25.262C22.4111 25.262 21.7671 25.1 21.1974 24.8124C21.9607 26.1008 23.873 27.4994 25.606 27.4994C26.7621 27.4994 27.6702 26.7537 27.9796 25.7227C27.7983 25.6788 27.3701 25.5384 27.1069 25.3279C26.6818 25.3279 25.6403 25.2718 24.9132 24.8494Z" fill="url(#paint7_linear_0_1)"/>
<path d="M24.9132 24.8494C24.3622 25.1139 23.7449 25.262 23.0929 25.262C22.4111 25.262 21.7671 25.1 21.1974 24.8124C21.9607 26.1008 23.873 27.4994 25.606 27.4994C26.7621 27.4994 27.6702 26.7537 27.9796 25.7227C27.7983 25.6788 27.3701 25.5384 27.1069 25.3279C26.6818 25.3279 25.6403 25.2718 24.9132 24.8494Z" fill="url(#paint8_radial_0_1)" fill-opacity="0.4"/>
<path d="M24.9132 24.8494C24.3622 25.1139 23.7449 25.262 23.0929 25.262C22.4111 25.262 21.7671 25.1 21.1974 24.8124C21.9607 26.1008 23.873 27.4994 25.606 27.4994C26.7621 27.4994 27.6702 26.7537 27.9796 25.7227C27.7983 25.6788 27.3701 25.5384 27.1069 25.3279C26.6818 25.3279 25.6403 25.2718 24.9132 24.8494Z" fill="url(#paint9_radial_0_1)" fill-opacity="0.7"/>
<path d="M19.7369 25.6569C19.9474 25.5516 20.2194 25.3498 20.3291 25.262C20.9213 26.0956 22.5006 27.881 24.0799 28.3548V29.9999H22.04C22.04 29.7587 21.961 29.1577 21.6452 28.6839C21.3293 28.2101 20.2413 26.4685 19.7369 25.6569Z" fill="url(#paint10_linear_0_1)"/>
<path d="M19.7369 25.6569C19.9474 25.5516 20.2194 25.3498 20.3291 25.262C20.9213 26.0956 22.5006 27.881 24.0799 28.3548V29.9999H22.04C22.04 29.7587 21.961 29.1577 21.6452 28.6839C21.3293 28.2101 20.2413 26.4685 19.7369 25.6569Z" fill="url(#paint11_radial_0_1)" fill-opacity="0.4"/>
<path d="M19.7369 25.6569C19.9474 25.5516 20.2194 25.3498 20.3291 25.262C20.9213 26.0956 22.5006 27.881 24.0799 28.3548V29.9999H22.04C22.04 29.7587 21.961 29.1577 21.6452 28.6839C21.3293 28.2101 20.2413 26.4685 19.7369 25.6569Z" fill="url(#paint12_radial_0_1)" fill-opacity="0.7"/>
<defs>
<linearGradient id="paint0_linear_0_1" x1="20" y1="0" x2="20" y2="40" gradientUnits="userSpaceOnUse">
<stop stop-color="#2A274E"/>
<stop offset="1" stop-color="#090911"/>
</linearGradient>
<linearGradient id="paint1_linear_0_1" x1="15.2872" y1="1.68414e-06" x2="15.2872" y2="29.4319" gradientUnits="userSpaceOnUse">
<stop stop-color="white"/>
<stop offset="1" stop-color="white" stop-opacity="0.1"/>
</linearGradient>
<radialGradient id="paint2_radial_0_1" cx="0" cy="0" r="1" gradientUnits="userSpaceOnUse" gradientTransform="translate(38 1.5) rotate(129.116) scale(36.0009 29.5199)">
<stop stop-color="#915BF0"/>
<stop offset="0.543281" stop-color="#915BF0" stop-opacity="0.1"/>
</radialGradient>
<linearGradient id="paint3_linear_0_1" x1="20" y1="40" x2="20" y2="34.5" gradientUnits="userSpaceOnUse">
<stop stop-color="#1FC5D6"/>
<stop offset="0.575" stop-color="#1FC5D6" stop-opacity="0"/>
</linearGradient>
<linearGradient id="paint4_linear_0_1" x1="16.6666" y1="17.059" x2="21.8741" y2="22.7905" gradientUnits="userSpaceOnUse">
<stop stop-color="#D0B9F9"/>
<stop offset="1" stop-color="white" stop-opacity="0.1"/>
</linearGradient>
<radialGradient id="paint5_radial_0_1" cx="0" cy="0" r="1" gradientUnits="userSpaceOnUse" gradientTransform="translate(20.0001 18.4357) rotate(43.9391) scale(13.8881 27.3721)">
<stop stop-color="#1FC5D6"/>
<stop offset="0.279894" stop-color="#1FC5D6" stop-opacity="0"/>
</radialGradient>
<radialGradient id="paint6_radial_0_1" cx="0" cy="0" r="1" gradientUnits="userSpaceOnUse" gradientTransform="translate(19.0909 18.7111) rotate(42.2574) scale(6.14172 21.4821)">
<stop stop-color="#915BF0"/>
<stop offset="0.313259" stop-color="#915BF0" stop-opacity="0"/>
</radialGradient>
<linearGradient id="paint7_linear_0_1" x1="16.6666" y1="17.059" x2="21.8741" y2="22.7905" gradientUnits="userSpaceOnUse">
<stop stop-color="#D0B9F9"/>
<stop offset="1" stop-color="white" stop-opacity="0.1"/>
</linearGradient>
<radialGradient id="paint8_radial_0_1" cx="0" cy="0" r="1" gradientUnits="userSpaceOnUse" gradientTransform="translate(20.0001 18.4357) rotate(43.9391) scale(13.8881 27.3721)">
<stop stop-color="#1FC5D6"/>
<stop offset="0.279894" stop-color="#1FC5D6" stop-opacity="0"/>
</radialGradient>
<radialGradient id="paint9_radial_0_1" cx="0" cy="0" r="1" gradientUnits="userSpaceOnUse" gradientTransform="translate(19.0909 18.7111) rotate(42.2574) scale(6.14172 21.4821)">
<stop stop-color="#915BF0"/>
<stop offset="0.313259" stop-color="#915BF0" stop-opacity="0"/>
</radialGradient>
<linearGradient id="paint10_linear_0_1" x1="16.6666" y1="17.059" x2="21.8741" y2="22.7905" gradientUnits="userSpaceOnUse">
<stop stop-color="#D0B9F9"/>
<stop offset="1" stop-color="white" stop-opacity="0.1"/>
</linearGradient>
<radialGradient id="paint11_radial_0_1" cx="0" cy="0" r="1" gradientUnits="userSpaceOnUse" gradientTransform="translate(20.0001 18.4357) rotate(43.9391) scale(13.8881 27.3721)">
<stop stop-color="#1FC5D6"/>
<stop offset="0.279894" stop-color="#1FC5D6" stop-opacity="0"/>
</radialGradient>
<radialGradient id="paint12_radial_0_1" cx="0" cy="0" r="1" gradientUnits="userSpaceOnUse" gradientTransform="translate(19.0909 18.7111) rotate(42.2574) scale(6.14172 21.4821)">
<stop stop-color="#915BF0"/>
<stop offset="0.313259" stop-color="#915BF0" stop-opacity="0"/>
</radialGradient>
</defs>
</svg>
