<svg width="40" height="40" viewBox="0 0 40 40" fill="none" xmlns="http://www.w3.org/2000/svg">
<rect width="40" height="40" rx="8" fill="url(#paint0_linear_0_1)" fill-opacity="0.6"/>
<rect x="0.5" y="0.5" width="39" height="39" rx="7.5" stroke="url(#paint1_linear_0_1)" stroke-opacity="0.08"/>
<rect x="0.5" y="0.5" width="39" height="39" rx="7.5" stroke="url(#paint2_radial_0_1)" stroke-opacity="0.58"/>
<rect x="0.5" y="0.5" width="39" height="39" rx="7.5" stroke="url(#paint3_linear_0_1)" stroke-opacity="0.3"/>
<path d="M24.6361 21.5158C26.409 11.3145 22.2933 8.26018 19.7606 6C20.2671 9.72624 20.3938 11.6199 13.9353 16.69C6.20564 22.7581 11.4659 31.7172 16.0881 32.8167L20.5 34L23.8763 33C32.8042 30.19 30.0815 19.1335 27.4221 15.8348C27.2322 20.1109 25.7125 20.9661 24.6361 21.5158Z" fill="url(#paint4_linear_0_1)"/>
<path d="M24.6361 21.5158C26.409 11.3145 22.2933 8.26018 19.7606 6C20.2671 9.72624 20.3938 11.6199 13.9353 16.69C6.20564 22.7581 11.4659 31.7172 16.0881 32.8167L20.5 34L23.8763 33C32.8042 30.19 30.0815 19.1335 27.4221 15.8348C27.2322 20.1109 25.7125 20.9661 24.6361 21.5158Z" fill="url(#paint5_radial_0_1)" fill-opacity="0.4"/>
<path d="M24.6361 21.5158C26.409 11.3145 22.2933 8.26018 19.7606 6C20.2671 9.72624 20.3938 11.6199 13.9353 16.69C6.20564 22.7581 11.4659 31.7172 16.0881 32.8167L20.5 34L23.8763 33C32.8042 30.19 30.0815 19.1335 27.4221 15.8348C27.2322 20.1109 25.7125 20.9661 24.6361 21.5158Z" fill="url(#paint6_radial_0_1)" fill-opacity="0.7"/>
<defs>
<linearGradient id="paint0_linear_0_1" x1="20" y1="0" x2="20" y2="40" gradientUnits="userSpaceOnUse">
<stop stop-color="#2A274E"/>
<stop offset="1" stop-color="#090911"/>
</linearGradient>
<linearGradient id="paint1_linear_0_1" x1="15.2872" y1="1.68414e-06" x2="15.2872" y2="29.4319" gradientUnits="userSpaceOnUse">
<stop stop-color="white"/>
<stop offset="1" stop-color="white" stop-opacity="0.1"/>
</linearGradient>
<radialGradient id="paint2_radial_0_1" cx="0" cy="0" r="1" gradientUnits="userSpaceOnUse" gradientTransform="translate(38 1.5) rotate(129.116) scale(36.0009 29.5199)">
<stop stop-color="#915BF0"/>
<stop offset="0.543281" stop-color="#915BF0" stop-opacity="0.1"/>
</radialGradient>
<linearGradient id="paint3_linear_0_1" x1="20" y1="40" x2="20" y2="34.5" gradientUnits="userSpaceOnUse">
<stop stop-color="#1FC5D6"/>
<stop offset="0.575" stop-color="#1FC5D6" stop-opacity="0"/>
</linearGradient>
<linearGradient id="paint4_linear_0_1" x1="17.1053" y1="16.6842" x2="27.0404" y2="24.0937" gradientUnits="userSpaceOnUse">
<stop stop-color="#D0B9F9"/>
<stop offset="1" stop-color="white" stop-opacity="0.1"/>
</linearGradient>
<radialGradient id="paint5_radial_0_1" cx="0" cy="0" r="1" gradientUnits="userSpaceOnUse" gradientTransform="translate(20 18.5263) rotate(37.8053) scale(17.0865 57.8229)">
<stop stop-color="#1FC5D6"/>
<stop offset="0.279894" stop-color="#1FC5D6" stop-opacity="0"/>
</radialGradient>
<radialGradient id="paint6_radial_0_1" cx="0" cy="0" r="1" gradientUnits="userSpaceOnUse" gradientTransform="translate(19.2105 18.8947) rotate(54.4623) scale(6.79131 22.5736)">
<stop stop-color="#915BF0"/>
<stop offset="0.313259" stop-color="#915BF0" stop-opacity="0"/>
</radialGradient>
</defs>
</svg>
