<svg width="40" height="40" viewBox="0 0 40 40" fill="none" xmlns="http://www.w3.org/2000/svg">
<rect width="40" height="40" rx="8" fill="url(#paint0_linear_0_1)" fill-opacity="0.6"/>
<rect x="0.5" y="0.5" width="39" height="39" rx="7.5" stroke="url(#paint1_linear_0_1)" stroke-opacity="0.08"/>
<rect x="0.5" y="0.5" width="39" height="39" rx="7.5" stroke="url(#paint2_radial_0_1)" stroke-opacity="0.58"/>
<rect x="0.5" y="0.5" width="39" height="39" rx="7.5" stroke="url(#paint3_linear_0_1)" stroke-opacity="0.3"/>
<path fill-rule="evenodd" clip-rule="evenodd" d="M11 11C11 12.3613 11.6802 13.564 12.7192 14.2866C11.703 14.7671 11 15.8013 11 17V21C11 21.5522 11.4478 22 12 22H18C18.5522 22 19 21.5522 19 21V11C19 8.79102 17.2091 7 15 7C12.7909 7 11 8.79102 11 11ZM18 14V11C18 9.34326 16.6569 8 15 8C13.3431 8 12 9.34326 12 11C12 12.6567 13.3431 14 15 14H18Z" fill="url(#paint4_linear_0_1)"/>
<path fill-rule="evenodd" clip-rule="evenodd" d="M11 11C11 12.3613 11.6802 13.564 12.7192 14.2866C11.703 14.7671 11 15.8013 11 17V21C11 21.5522 11.4478 22 12 22H18C18.5522 22 19 21.5522 19 21V11C19 8.79102 17.2091 7 15 7C12.7909 7 11 8.79102 11 11ZM18 14V11C18 9.34326 16.6569 8 15 8C13.3431 8 12 9.34326 12 11C12 12.6567 13.3431 14 15 14H18Z" fill="url(#paint5_radial_0_1)" fill-opacity="0.4"/>
<path fill-rule="evenodd" clip-rule="evenodd" d="M11 11C11 12.3613 11.6802 13.564 12.7192 14.2866C11.703 14.7671 11 15.8013 11 17V21C11 21.5522 11.4478 22 12 22H18C18.5522 22 19 21.5522 19 21V11C19 8.79102 17.2091 7 15 7C12.7909 7 11 8.79102 11 11ZM18 14V11C18 9.34326 16.6569 8 15 8C13.3431 8 12 9.34326 12 11C12 12.6567 13.3431 14 15 14H18Z" fill="url(#paint6_radial_0_1)" fill-opacity="0.7"/>
<path d="M12 24C11.4478 24 11 24.4478 11 25V29C11 30.6567 12.3431 32 14 32H19V25C19 24.4478 18.5522 24 18 24H12Z" fill="url(#paint7_linear_0_1)"/>
<path d="M12 24C11.4478 24 11 24.4478 11 25V29C11 30.6567 12.3431 32 14 32H19V25C19 24.4478 18.5522 24 18 24H12Z" fill="url(#paint8_radial_0_1)" fill-opacity="0.4"/>
<path d="M12 24C11.4478 24 11 24.4478 11 25V29C11 30.6567 12.3431 32 14 32H19V25C19 24.4478 18.5522 24 18 24H12Z" fill="url(#paint9_radial_0_1)" fill-opacity="0.7"/>
<path fill-rule="evenodd" clip-rule="evenodd" d="M27.2808 14.2866C28.3198 13.564 29 12.3613 29 11C29 8.79102 27.2091 7 25 7C22.7909 7 21 8.79102 21 11V21C21 21.5522 21.4478 22 22 22H28C28.5522 22 29 21.5522 29 21V17C29 15.8013 28.297 14.7671 27.2808 14.2866ZM22 14V11C22 9.34326 23.3431 8 25 8C26.6569 8 28 9.34326 28 11C28 12.6567 26.6569 14 25 14H22Z" fill="url(#paint10_linear_0_1)"/>
<path fill-rule="evenodd" clip-rule="evenodd" d="M27.2808 14.2866C28.3198 13.564 29 12.3613 29 11C29 8.79102 27.2091 7 25 7C22.7909 7 21 8.79102 21 11V21C21 21.5522 21.4478 22 22 22H28C28.5522 22 29 21.5522 29 21V17C29 15.8013 28.297 14.7671 27.2808 14.2866ZM22 14V11C22 9.34326 23.3431 8 25 8C26.6569 8 28 9.34326 28 11C28 12.6567 26.6569 14 25 14H22Z" fill="url(#paint11_radial_0_1)" fill-opacity="0.4"/>
<path fill-rule="evenodd" clip-rule="evenodd" d="M27.2808 14.2866C28.3198 13.564 29 12.3613 29 11C29 8.79102 27.2091 7 25 7C22.7909 7 21 8.79102 21 11V21C21 21.5522 21.4478 22 22 22H28C28.5522 22 29 21.5522 29 21V17C29 15.8013 28.297 14.7671 27.2808 14.2866ZM22 14V11C22 9.34326 23.3431 8 25 8C26.6569 8 28 9.34326 28 11C28 12.6567 26.6569 14 25 14H22Z" fill="url(#paint12_radial_0_1)" fill-opacity="0.7"/>
<path d="M22 24C21.4478 24 21 24.4478 21 25V32H26C27.6569 32 29 30.6567 29 29V25C29 24.4478 28.5522 24 28 24H22Z" fill="url(#paint13_linear_0_1)"/>
<path d="M22 24C21.4478 24 21 24.4478 21 25V32H26C27.6569 32 29 30.6567 29 29V25C29 24.4478 28.5522 24 28 24H22Z" fill="url(#paint14_radial_0_1)" fill-opacity="0.4"/>
<path d="M22 24C21.4478 24 21 24.4478 21 25V32H26C27.6569 32 29 30.6567 29 29V25C29 24.4478 28.5522 24 28 24H22Z" fill="url(#paint15_radial_0_1)" fill-opacity="0.7"/>
<defs>
<linearGradient id="paint0_linear_0_1" x1="20" y1="0" x2="20" y2="40" gradientUnits="userSpaceOnUse">
<stop stop-color="#2A274E"/>
<stop offset="1" stop-color="#090911"/>
</linearGradient>
<linearGradient id="paint1_linear_0_1" x1="15.2872" y1="1.68414e-06" x2="15.2872" y2="29.4319" gradientUnits="userSpaceOnUse">
<stop stop-color="white"/>
<stop offset="1" stop-color="white" stop-opacity="0.1"/>
</linearGradient>
<radialGradient id="paint2_radial_0_1" cx="0" cy="0" r="1" gradientUnits="userSpaceOnUse" gradientTransform="translate(38 1.5) rotate(129.116) scale(36.0009 29.5199)">
<stop stop-color="#915BF0"/>
<stop offset="0.543281" stop-color="#915BF0" stop-opacity="0.1"/>
</radialGradient>
<linearGradient id="paint3_linear_0_1" x1="20" y1="40" x2="20" y2="34.5" gradientUnits="userSpaceOnUse">
<stop stop-color="#1FC5D6"/>
<stop offset="0.575" stop-color="#1FC5D6" stop-opacity="0"/>
</linearGradient>
<linearGradient id="paint4_linear_0_1" x1="15.3466" y1="12.9769" x2="26.4315" y2="21.5919" gradientUnits="userSpaceOnUse">
<stop stop-color="#D0B9F9"/>
<stop offset="1" stop-color="white" stop-opacity="0.1"/>
</linearGradient>
<radialGradient id="paint5_radial_0_1" cx="0" cy="0" r="1" gradientUnits="userSpaceOnUse" gradientTransform="translate(20 18.1842) rotate(55.8291) scale(13.9154 25.5073)">
<stop stop-color="#1FC5D6"/>
<stop offset="0.279894" stop-color="#1FC5D6" stop-opacity="0"/>
</radialGradient>
<radialGradient id="paint6_radial_0_1" cx="0" cy="0" r="1" gradientUnits="userSpaceOnUse" gradientTransform="translate(19.2895 18.5132) rotate(54.2461) scale(6.0801 20.2613)">
<stop stop-color="#915BF0"/>
<stop offset="0.313259" stop-color="#915BF0" stop-opacity="0"/>
</radialGradient>
<linearGradient id="paint7_linear_0_1" x1="15.3466" y1="12.9769" x2="26.4315" y2="21.5919" gradientUnits="userSpaceOnUse">
<stop stop-color="#D0B9F9"/>
<stop offset="1" stop-color="white" stop-opacity="0.1"/>
</linearGradient>
<radialGradient id="paint8_radial_0_1" cx="0" cy="0" r="1" gradientUnits="userSpaceOnUse" gradientTransform="translate(20 18.1842) rotate(55.8291) scale(13.9154 25.5073)">
<stop stop-color="#1FC5D6"/>
<stop offset="0.279894" stop-color="#1FC5D6" stop-opacity="0"/>
</radialGradient>
<radialGradient id="paint9_radial_0_1" cx="0" cy="0" r="1" gradientUnits="userSpaceOnUse" gradientTransform="translate(19.2895 18.5132) rotate(54.2461) scale(6.0801 20.2613)">
<stop stop-color="#915BF0"/>
<stop offset="0.313259" stop-color="#915BF0" stop-opacity="0"/>
</radialGradient>
<linearGradient id="paint10_linear_0_1" x1="15.3466" y1="12.9769" x2="26.4315" y2="21.5919" gradientUnits="userSpaceOnUse">
<stop stop-color="#D0B9F9"/>
<stop offset="1" stop-color="white" stop-opacity="0.1"/>
</linearGradient>
<radialGradient id="paint11_radial_0_1" cx="0" cy="0" r="1" gradientUnits="userSpaceOnUse" gradientTransform="translate(20 18.1842) rotate(55.8291) scale(13.9154 25.5073)">
<stop stop-color="#1FC5D6"/>
<stop offset="0.279894" stop-color="#1FC5D6" stop-opacity="0"/>
</radialGradient>
<radialGradient id="paint12_radial_0_1" cx="0" cy="0" r="1" gradientUnits="userSpaceOnUse" gradientTransform="translate(19.2895 18.5132) rotate(54.2461) scale(6.0801 20.2613)">
<stop stop-color="#915BF0"/>
<stop offset="0.313259" stop-color="#915BF0" stop-opacity="0"/>
</radialGradient>
<linearGradient id="paint13_linear_0_1" x1="15.3466" y1="12.9769" x2="26.4315" y2="21.5919" gradientUnits="userSpaceOnUse">
<stop stop-color="#D0B9F9"/>
<stop offset="1" stop-color="white" stop-opacity="0.1"/>
</linearGradient>
<radialGradient id="paint14_radial_0_1" cx="0" cy="0" r="1" gradientUnits="userSpaceOnUse" gradientTransform="translate(20 18.1842) rotate(55.8291) scale(13.9154 25.5073)">
<stop stop-color="#1FC5D6"/>
<stop offset="0.279894" stop-color="#1FC5D6" stop-opacity="0"/>
</radialGradient>
<radialGradient id="paint15_radial_0_1" cx="0" cy="0" r="1" gradientUnits="userSpaceOnUse" gradientTransform="translate(19.2895 18.5132) rotate(54.2461) scale(6.0801 20.2613)">
<stop stop-color="#915BF0"/>
<stop offset="0.313259" stop-color="#915BF0" stop-opacity="0"/>
</radialGradient>
</defs>
</svg>
