<svg width="40" height="40" viewBox="0 0 40 40" fill="none" xmlns="http://www.w3.org/2000/svg">
<rect width="40" height="40" rx="8" fill="url(#paint0_linear_0_1)" fill-opacity="0.6"/>
<rect x="0.5" y="0.5" width="39" height="39" rx="7.5" stroke="url(#paint1_linear_0_1)" stroke-opacity="0.08"/>
<rect x="0.5" y="0.5" width="39" height="39" rx="7.5" stroke="url(#paint2_radial_0_1)" stroke-opacity="0.58"/>
<rect x="0.5" y="0.5" width="39" height="39" rx="7.5" stroke="url(#paint3_linear_0_1)" stroke-opacity="0.3"/>
<path d="M19.1047 6.93911C19.2595 5.91183 20.7405 5.91183 20.8953 6.93911C21.8427 13.2239 26.7761 18.1573 33.0609 19.1047C34.0882 19.2595 34.0882 20.7405 33.0609 20.8953C26.7761 21.8427 21.8427 26.7761 20.8953 33.0609C20.7405 34.0882 19.2595 34.0882 19.1047 33.0609C18.1573 26.7761 13.2239 21.8427 6.93911 20.8953C5.91183 20.7405 5.91183 19.2595 6.93911 19.1047C13.2239 18.1573 18.1573 13.2239 19.1047 6.93911Z" fill="url(#paint4_linear_0_1)"/>
<path d="M19.1047 6.93911C19.2595 5.91183 20.7405 5.91183 20.8953 6.93911C21.8427 13.2239 26.7761 18.1573 33.0609 19.1047C34.0882 19.2595 34.0882 20.7405 33.0609 20.8953C26.7761 21.8427 21.8427 26.7761 20.8953 33.0609C20.7405 34.0882 19.2595 34.0882 19.1047 33.0609C18.1573 26.7761 13.2239 21.8427 6.93911 20.8953C5.91183 20.7405 5.91183 19.2595 6.93911 19.1047C13.2239 18.1573 18.1573 13.2239 19.1047 6.93911Z" fill="url(#paint5_radial_0_1)" fill-opacity="0.4"/>
<path d="M19.1047 6.93911C19.2595 5.91183 20.7405 5.91183 20.8953 6.93911C21.8427 13.2239 26.7761 18.1573 33.0609 19.1047C34.0882 19.2595 34.0882 20.7405 33.0609 20.8953C26.7761 21.8427 21.8427 26.7761 20.8953 33.0609C20.7405 34.0882 19.2595 34.0882 19.1047 33.0609C18.1573 26.7761 13.2239 21.8427 6.93911 20.8953C5.91183 20.7405 5.91183 19.2595 6.93911 19.1047C13.2239 18.1573 18.1573 13.2239 19.1047 6.93911Z" fill="url(#paint6_radial_0_1)" fill-opacity="0.7"/>
<path d="M19.5991 7.01365C19.6684 6.55365 20.3316 6.55365 20.4009 7.01365C21.381 13.5154 26.4846 18.619 32.9864 19.5991C33.4464 19.6684 33.4464 20.3316 32.9864 20.4009C26.4846 21.381 21.381 26.4846 20.4009 32.9864C20.3316 33.4464 19.6684 33.4464 19.5991 32.9864C18.619 26.4846 13.5154 21.381 7.01364 20.4009C6.55365 20.3316 6.55365 19.6684 7.01365 19.5991C13.5154 18.619 18.619 13.5154 19.5991 7.01365Z" stroke="url(#paint7_linear_0_1)" stroke-opacity="0.6"/>
<defs>
<linearGradient id="paint0_linear_0_1" x1="20" y1="0" x2="20" y2="40" gradientUnits="userSpaceOnUse">
<stop stop-color="#2A274E"/>
<stop offset="1" stop-color="#090911"/>
</linearGradient>
<linearGradient id="paint1_linear_0_1" x1="15.2872" y1="1.68414e-06" x2="15.2872" y2="29.4319" gradientUnits="userSpaceOnUse">
<stop stop-color="white"/>
<stop offset="1" stop-color="white" stop-opacity="0.1"/>
</linearGradient>
<radialGradient id="paint2_radial_0_1" cx="0" cy="0" r="1" gradientUnits="userSpaceOnUse" gradientTransform="translate(38 1.5) rotate(129.116) scale(36.0009 29.5199)">
<stop stop-color="#915BF0"/>
<stop offset="0.543281" stop-color="#915BF0" stop-opacity="0.1"/>
</radialGradient>
<linearGradient id="paint3_linear_0_1" x1="20" y1="40" x2="20" y2="34.5" gradientUnits="userSpaceOnUse">
<stop stop-color="#1FC5D6"/>
<stop offset="0.575" stop-color="#1FC5D6" stop-opacity="0"/>
</linearGradient>
<linearGradient id="paint4_linear_0_1" x1="14.5" y1="15.5" x2="24" y2="25" gradientUnits="userSpaceOnUse">
<stop stop-color="#D0B9F9"/>
<stop offset="1" stop-color="white" stop-opacity="0.1"/>
</linearGradient>
<radialGradient id="paint5_radial_0_1" cx="0" cy="0" r="1" gradientUnits="userSpaceOnUse" gradientTransform="translate(20 18) rotate(46.6847) scale(24.052 47.3549)">
<stop stop-color="#1FC5D6"/>
<stop offset="0.279894" stop-color="#1FC5D6" stop-opacity="0"/>
</radialGradient>
<radialGradient id="paint6_radial_0_1" cx="0" cy="0" r="1" gradientUnits="userSpaceOnUse" gradientTransform="translate(18.5 18.5) rotate(45) scale(10.6066 37.2698)">
<stop stop-color="#915BF0"/>
<stop offset="0.313259" stop-color="#915BF0" stop-opacity="0"/>
</radialGradient>
<linearGradient id="paint7_linear_0_1" x1="20" y1="4" x2="20" y2="36" gradientUnits="userSpaceOnUse">
<stop stop-color="white"/>
<stop offset="0.646089" stop-color="white" stop-opacity="0"/>
</linearGradient>
</defs>
</svg>
