<svg width="152" height="31" viewBox="0 0 152 31" fill="none" xmlns="http://www.w3.org/2000/svg">
<g clip-path="url(#clip0_31_413)">
<path d="M0 25.7302C0 29.6162 2.065 30.5112 4.213 30.5112C8.757 30.5112 12.173 26.5132 14.21 23.3542C13.962 24.0522 13.824 24.7512 13.824 25.4232C13.824 27.2682 14.871 28.5822 16.936 28.5822C19.773 28.5822 22.802 26.0652 24.372 23.3532C24.262 23.7452 24.207 24.1082 24.207 24.4432C24.207 25.7302 24.923 26.5412 26.382 26.5412C30.982 26.5412 35.608 18.2932 35.608 11.0792C35.608 5.45917 32.798 0.511169 25.748 0.511169C13.357 0.511169 0 15.8332 0 25.7302ZM21.48 10.4642C21.48 9.06617 22.251 8.08817 23.38 8.08817C24.482 8.08817 25.253 9.06617 25.253 10.4642C25.253 11.8622 24.483 12.8692 23.381 12.8692C22.251 12.8692 21.481 11.8622 21.481 10.4642H21.48ZM27.374 10.4642C27.374 9.06617 28.144 8.08817 29.274 8.08817C30.375 8.08817 31.146 9.06617 31.146 10.4642C31.146 11.8622 30.376 12.8692 29.274 12.8692C28.144 12.8692 27.374 11.8622 27.374 10.4642ZM41.115 27.4642H45.245V23.6892C45.245 21.7042 45.108 20.7812 44.309 18.9642L44.749 18.7402C46.072 21.7882 48.027 22.9902 50.065 22.9902C53.342 22.9902 55.958 20.0822 55.958 15.5802C55.958 11.2752 53.562 8.11617 50.12 8.11617C48.082 8.11617 46.072 9.29017 44.75 12.3382L44.31 12.1142C44.86 10.9122 45.245 9.71017 45.245 8.56417H41.115V27.4642ZM45.245 15.5532C45.245 13.7082 46.623 11.6672 48.66 11.6672C50.313 11.6672 51.662 13.0372 51.662 15.5252C51.662 17.9852 50.368 19.4392 48.632 19.4392C46.705 19.4392 45.245 17.4542 45.245 15.5532ZM57.25 22.5432H61.382V17.6212C61.382 14.1542 62.593 11.6942 64.852 11.6942C66.283 11.6942 66.724 12.6722 66.724 15.1042V22.5422H70.855V14.4342C70.855 10.0162 69.285 8.11417 66.283 8.11417C63.227 8.11417 62.235 10.2122 61.051 12.6162L60.611 12.3652C61.216 10.8552 61.381 9.90517 61.381 8.56217V3.83817H57.251L57.25 22.5432ZM76.757 22.9902C79.374 22.9902 80.943 21.2002 82.045 19.0762L82.513 19.3272C82.073 20.3342 81.659 21.5372 81.659 22.5432H85.708V14.9382C85.708 10.4082 83.835 8.11617 79.456 8.11617C75.16 8.11617 73.04 10.2962 72.626 12.5892L76.592 13.2892C76.73 12.0862 77.694 11.2752 79.236 11.2752C80.778 11.2752 81.659 12.0582 81.659 13.0092C81.659 13.9592 80.751 14.4072 78.327 14.4352C74.747 14.4912 72.103 15.8052 72.103 18.6012C72.103 20.8932 73.893 22.9902 76.757 22.9902ZM76.207 18.3492C76.207 16.0842 79.649 17.6782 81.577 15.9442V16.4762C81.577 18.4612 79.814 19.8862 78.162 19.8862C77.226 19.8862 76.207 19.4962 76.207 18.3492ZM87.56 22.5432H91.69V17.6212C91.69 14.1542 92.902 11.6942 95.16 11.6942C96.592 11.6942 97.033 12.6722 97.033 15.1042V22.5422H101.164V14.4342C101.164 10.0162 99.594 8.11417 96.592 8.11417C93.536 8.11417 92.544 10.2122 91.36 12.6162L90.92 12.3652C91.525 10.8552 91.69 9.90517 91.69 8.56217H87.56V22.5432ZM112.328 22.5992V19.1312C111.446 19.4382 108.995 19.9692 108.995 17.9292V11.9732H112.658V8.56317H108.995V4.81617L104.837 6.07417V8.56217H102.359V11.9732H104.837L104.865 18.2642C104.865 22.9342 108.968 23.6052 112.328 22.5992ZM120.988 22.9902C125.173 22.9902 128.368 19.7472 128.368 15.5252C128.368 11.3312 125.173 8.11517 120.988 8.11517C116.802 8.11517 113.58 11.3312 113.58 15.5252C113.58 19.7472 116.802 22.9902 120.988 22.9902ZM117.848 15.5532C117.848 13.2332 119.142 11.6112 120.988 11.6112C122.833 11.6112 124.099 13.2322 124.099 15.5532C124.099 17.8732 122.833 19.4952 120.988 19.4952C119.142 19.4952 117.848 17.8732 117.848 15.5532ZM129.729 22.5432H133.859V17.6212C133.859 14.0142 134.878 11.6942 136.696 11.6942C137.88 11.6942 138.376 12.6442 138.376 15.1042V22.5422H142.507V17.6212C142.507 14.2382 143.608 11.6942 145.343 11.6942C146.5 11.6942 147.023 12.7842 147.023 15.1042V22.5422H151.154V14.4342C151.154 9.98817 149.722 8.11417 146.913 8.11417C143.994 8.11417 142.837 10.1282 142.066 12.5602L141.598 12.3092C142.011 10.8552 141.763 10.0722 141.267 9.45717C140.551 8.56217 139.532 8.11517 138.238 8.11517C135.649 8.11517 134.52 9.96017 133.529 12.5322L133.088 12.2522C133.556 10.9952 133.859 9.98817 133.859 8.56217H129.729V22.5432Z" fill="white"/>
</g>
<defs>
<clipPath id="clip0_31_413">
<rect width="152" height="30" fill="white" transform="translate(0 0.511169)"/>
</clipPath>
</defs>
</svg>
