<svg width="126" height="20" viewBox="0 0 126 20" fill="none" xmlns="http://www.w3.org/2000/svg">
<g clip-path="url(#clip0_31_389)">
<path fill-rule="evenodd" clip-rule="evenodd" d="M69.5163 17.4278C68.1051 16.7438 67.0448 15.7386 66.3353 14.395C65.6189 13.0596 65.2603 11.4021 65.2603 9.43695C65.2603 7.47181 65.6111 5.87491 66.3206 4.54762C67.0301 3.22667 68.0758 2.22962 69.4732 1.56191C70.8698 0.894192 72.5956 0.563049 74.6577 0.563049C76.7206 0.563049 78.4318 0.900526 79.8361 1.57638C81.2405 2.25134 82.293 3.25019 83.0103 4.58472C83.7267 5.91291 84.0853 7.55505 84.0853 9.50481C84.0853 11.4546 83.7344 13.0967 83.0249 14.4249C82.3155 15.7531 81.2698 16.7592 79.8723 17.4341C78.4758 18.1091 76.7568 18.4475 74.7086 18.4475C72.662 18.4475 70.9284 18.1091 69.5241 17.426H69.5172L69.5163 17.4278ZM77.4155 13.8884C78.0933 13.5827 78.64 13.0254 78.9508 12.3231C79.2732 11.6084 79.4413 10.6729 79.4413 9.51386C79.4413 8.35486 79.2801 7.41843 78.9508 6.70457C78.6402 6.00195 78.0935 5.4443 77.4155 5.13843C76.7129 4.80819 75.7991 4.63991 74.6655 4.63991C73.5318 4.63991 72.618 4.80819 71.9232 5.13843C71.25 5.44885 70.707 6.00498 70.3948 6.70367C70.0724 7.41843 69.9043 8.35486 69.9043 9.51386C69.9043 10.672 70.0723 11.5858 70.4017 12.3005C70.731 13.0135 71.243 13.5355 71.9379 13.8811C72.6318 14.2186 73.5396 14.395 74.6577 14.395C75.7767 14.395 76.7129 14.2268 77.4077 13.8965L77.4155 13.8884ZM46.9353 0.809145H46.9284L46.9353 0.801906V0.809145ZM46.9353 0.809145H57.6129C58.7758 0.809145 59.7922 1.00819 60.656 1.39995C61.518 1.79172 62.1767 2.35991 62.637 3.10453C63.0982 3.84914 63.3249 4.73129 63.3249 5.75276C63.3249 6.49738 63.2077 7.14157 62.9732 7.70253C62.7512 8.24604 62.386 8.71182 61.9206 9.04519C61.4525 9.38267 60.8896 9.61338 60.231 9.72105V9.97438C60.9844 10.1427 61.5767 10.396 62.0086 10.7262C62.4396 11.0565 62.7611 11.517 62.9586 12.0924C63.1568 12.6679 63.2586 13.4206 63.2586 14.3335C63.2586 15.2473 63.2732 15.9223 63.3025 16.3982C63.3318 16.8741 63.4051 17.4812 63.5224 18.2104H59.1853C59.0861 17.696 59.0199 17.1752 58.987 16.6515C58.9524 15.8719 58.9381 15.0914 58.9439 14.3109C58.9439 13.7662 58.8706 13.3356 58.7249 13.0135C58.5841 12.6926 58.3296 12.442 58.0155 12.315C57.693 12.1775 57.2473 12.1078 56.6913 12.1078H51.2724V18.2104H46.9353V0.80824V0.809145ZM51.2715 8.46162H56.5379C57.0723 8.46162 57.4887 8.39286 57.8103 8.26257C58.1249 8.13229 58.3586 7.91695 58.5051 7.62562C58.6517 7.33338 58.7249 6.93438 58.7249 6.4431C58.7249 5.95181 58.6517 5.55281 58.5051 5.26148C58.3558 4.96688 58.1085 4.74018 57.8103 4.62453C57.4956 4.49334 57.0715 4.42457 56.5379 4.42457H51.2724L51.2715 8.46162ZM39.3215 0.809145H43.7905V18.2168H39.3198V0.810049L39.3215 0.809145ZM25.7698 0.809145H30.8241L37.7724 18.2168H32.9965L31.9361 15.3161H24.5241L23.4224 18.2177H18.7568L25.7698 0.809145ZM28.4396 5.75186L30.6448 11.7857H25.8646L28.1542 5.75186H28.4396ZM91.3603 0.809145H86.2698V18.2168H90.5853V6.98053H90.8698L97.5913 18.2177H102.681V0.810049H98.3663V11.9784H98.081L91.3603 0.809145ZM106.885 14.4294H107.953V17.6223H110.169V18.5895H106.885V14.4294ZM113.942 14.4294H112.736L111.061 18.5895H112.172L112.435 17.8983H114.209L114.462 18.5895H115.603L113.942 14.4294ZM113.9 17.0541L113.372 15.611H113.306L112.757 17.0541H113.9ZM116.503 14.4294H118.88C119.188 14.4294 119.436 14.4674 119.641 14.5443C119.846 14.6212 119.999 14.7361 120.109 14.8818C120.211 15.0356 120.263 15.2193 120.263 15.4428C120.263 15.6798 120.211 15.8725 120.102 16.0254C119.991 16.1811 119.83 16.2879 119.648 16.3249V16.3864C119.904 16.4407 120.102 16.5475 120.234 16.7167C120.365 16.8859 120.431 17.1157 120.431 17.3916C120.431 17.645 120.379 17.8603 120.27 18.0367C120.157 18.2191 119.993 18.361 119.802 18.4439C119.569 18.5415 119.321 18.5883 119.071 18.5814H116.496V14.4213L116.503 14.4294ZM118.968 16.0643C119.038 16.0409 119.098 15.9917 119.136 15.9259C119.175 15.8479 119.193 15.7604 119.188 15.6726C119.193 15.5848 119.175 15.4973 119.136 15.4192C119.099 15.3519 119.039 15.3022 118.968 15.2808C118.869 15.2474 118.765 15.2321 118.661 15.2356H117.542V16.0951H118.661C118.793 16.0951 118.895 16.0797 118.968 16.0562V16.0643ZM119.115 17.7146C119.189 17.6878 119.251 17.633 119.29 17.5608C119.332 17.4704 119.352 17.3702 119.348 17.2695C119.354 17.1692 119.336 17.0689 119.297 16.9772C119.259 16.905 119.196 16.8502 119.121 16.8234C119.017 16.7895 118.909 16.7742 118.8 16.7782H117.549V17.768H118.8C118.939 17.768 119.048 17.7526 119.129 17.7228L119.115 17.7146ZM121.551 18.0132C121.69 18.2213 121.909 18.3823 122.209 18.49V18.4972C122.509 18.6049 122.896 18.6583 123.342 18.6583C123.789 18.6583 124.169 18.604 124.461 18.5045C124.761 18.405 124.981 18.2511 125.127 18.0521C125.273 17.8531 125.346 17.5997 125.346 17.2921C125.346 17.0623 125.309 16.8705 125.229 16.7013C125.15 16.5338 125.025 16.3948 124.871 16.3023C124.71 16.1946 124.505 16.1259 124.264 16.0797L123.233 15.8951C123.107 15.8712 122.982 15.8404 122.859 15.8029C122.787 15.7835 122.719 15.747 122.662 15.6961C122.625 15.6543 122.604 15.5994 122.603 15.5423C122.603 15.4735 122.633 15.412 122.691 15.3577C122.768 15.3032 122.856 15.2668 122.947 15.251C123.085 15.2238 123.225 15.2108 123.365 15.212C123.508 15.2106 123.65 15.2289 123.789 15.2663C123.898 15.2971 123.978 15.3505 124.03 15.4274C124.089 15.5124 124.122 15.6139 124.125 15.7187H125.2C125.208 15.4274 125.141 15.1813 125.003 14.9822C124.864 14.7832 124.659 14.6294 124.381 14.5299C124.103 14.4294 123.752 14.376 123.35 14.376C122.947 14.376 122.618 14.4213 122.34 14.5208C122.063 14.6212 121.858 14.7597 121.719 14.9515C121.572 15.1351 121.507 15.3731 121.507 15.65C121.507 15.8571 121.543 16.0336 121.624 16.1874C121.704 16.3412 121.821 16.4633 121.982 16.5629C122.143 16.6624 122.34 16.7393 122.589 16.7936L123.745 17.0388C123.877 17.0695 123.978 17.1003 124.052 17.1311C124.113 17.1523 124.166 17.1923 124.205 17.246C124.241 17.3087 124.255 17.3823 124.246 17.4548C124.237 17.5273 124.205 17.5943 124.154 17.645C124.074 17.7184 123.975 17.7642 123.869 17.7761C123.702 17.8034 123.533 17.8162 123.365 17.8141C123.153 17.8141 122.984 17.7988 122.859 17.7599C122.75 17.7328 122.654 17.6649 122.589 17.569C122.523 17.4552 122.485 17.3257 122.479 17.1926H121.346C121.339 17.5228 121.412 17.8069 121.551 18.0141V18.0132Z" fill="white"/>
<path fill-rule="evenodd" clip-rule="evenodd" d="M13.1559 0.762085L16.1783 3.4447L9.80764 11.3514L9.80161 11.346V11.3505H5.46885V18.1661H0.999023V0.803704H5.46885V7.19494H7.97144L13.1559 0.762085ZM12.3792 18.1751H16.3378V11.3514H12.3801L12.3792 18.1751Z" fill="white"/>
</g>
<defs>
<clipPath id="clip0_31_389">
<rect width="125" height="19" fill="white" transform="translate(0.500977 0.0111694)"/>
</clipPath>
</defs>
</svg>
