<svg width="99" height="22" viewBox="0 0 99 22" fill="none" xmlns="http://www.w3.org/2000/svg">
<g clip-path="url(#clip0_29_13)">
<mask id="mask0_29_13" style="mask-type:luminance" maskUnits="userSpaceOnUse" x="0" y="0" width="99" height="22">
<path d="M99 0H0V22H99V0Z" fill="white"/>
</mask>
<g mask="url(#mask0_29_13)">
<path d="M29.4894 0V6H27.383V0H25.2766V6H23.1702V0H21.0638V6H10.5319V0H8.42553V6V8H29.4894V10H27.383H25.2766H6.31915V0H4.21277V10H2.10638V0H0V10V12V22H2.10638V16H4.21277V22H6.31915V16H8.42553V22H10.5319V16H21.0638V22H23.1702V16V14H6.31915H4.21277H2.10638V12H4.21277H6.31915H25.2766V22H27.383V12H29.4894V22H31.5957V12V10V8V6V0H29.4894Z" fill="white"/>
<path d="M45.8285 8V10.1713H40.6836V8H38.9683V13.9712H40.6836V11.8H45.8285V13.9712H47.5439V8H45.8285Z" fill="white"/>
<path d="M78.418 11.8H76.7026V13.9713H78.418V11.8Z" fill="white"/>
<path d="M78.4182 8H76.7029V10.1713H71.5567V8H69.8413V13.9712H71.5567V11.8H76.7029L78.4182 10.1713V8Z" fill="white"/>
<path d="M56.6922 8H49.2593V13.9712H50.9747V11.8H56.1208V13.9712H57.8362V8H56.6922ZM50.9747 10.1713V9.62875H56.1208V10.1713H50.9747Z" fill="white"/>
<path d="M68.1272 9.62875V8H61.2657H60.6943H59.5503V13.9712H60.6943H61.2657H68.1272V12.3425H61.2657V9.62875H68.1272Z" fill="white"/>
<path d="M88.7089 9.62875V8H81.8474H81.276H80.1333V13.9712H81.276H81.8474H88.7089V12.3425H81.8474V11.8H88.7089V10.1713H81.8474V9.62875H88.7089Z" fill="white"/>
<path d="M97.2845 8V11.8L92.1397 8H90.4243V13.9712H92.1397V10.1713L97.2845 13.9712H98.9999V8H97.2845Z" fill="white"/>
</g>
</g>
<defs>
<clipPath id="clip0_29_13">
<rect width="99" height="22" fill="white"/>
</clipPath>
</defs>
</svg>
