<svg width="96" height="27" viewBox="0 0 96 27" fill="none" xmlns="http://www.w3.org/2000/svg">
<path fill-rule="evenodd" clip-rule="evenodd" d="M25.2535 13.5112C25.2535 20.6909 19.6185 26.5112 12.6675 26.5112C6.07285 26.5112 0.66279 21.2723 0.125488 14.6039H16.7611V12.4184H0.125488C0.66279 5.75008 6.07285 0.511169 12.6675 0.511169C19.6185 0.511169 25.2535 6.33146 25.2535 13.5112ZM71.9139 24.156C76.275 24.156 79.1352 21.7239 79.1352 18.0613C79.1352 14.6622 76.9829 13.0506 73.7265 12.4939L70.8379 11.9958C68.6291 11.6149 67.1563 10.6186 67.1563 8.42098C67.1563 6.19406 68.799 4.49458 71.9139 4.49458C74.9441 4.49458 76.5015 6.07687 76.6714 8.33308H78.8521C78.6822 5.34433 76.4732 2.67788 71.9422 2.67788C67.4679 2.67788 65.0043 5.28572 65.0043 8.50889C65.0043 11.9372 67.2414 13.5195 70.2998 14.0469L73.2167 14.5157C75.652 14.9552 77.0112 15.9808 77.0112 18.1491C77.0112 20.6983 75.0007 22.3392 71.9422 22.3392C68.7707 22.3392 66.7882 20.757 66.6184 18.0613H64.4662C64.6361 21.5774 67.2414 24.156 71.9139 24.156ZM39.7637 23.7457H31.8344V3.11741H39.4806C42.8506 3.11741 45.2009 5.16852 45.2009 8.45029C45.2009 10.8237 43.8983 12.406 41.8028 12.9334V13.0213C44.2947 13.5195 45.8238 15.2776 45.8238 18.0319C45.8238 21.5774 43.3036 23.7457 39.7637 23.7457ZM39.1974 12.1716C41.6046 12.1716 43.0771 10.8237 43.0771 8.714V8.42098C43.0771 6.31127 41.6046 4.9927 39.1974 4.9927H33.9585V12.1716H39.1974ZM39.4522 21.8704C42.086 21.8704 43.7001 20.376 43.7001 18.0905V17.7975C43.7001 15.4241 42.0577 13.9883 39.4239 13.9883H33.9585V21.8704H39.4522ZM62.9753 23.7457H60.7096L59.0106 18.1491H51.0813L49.3822 23.7457H47.2299L53.7716 3.11741H56.3485L62.9753 23.7457ZM55.1592 5.37362H54.9893L51.6476 16.3031H58.4725L55.1592 5.37362ZM82.3257 23.7457V3.11741H95.1255V5.022H84.449V12.113H94.2761V13.9883H84.449V21.8411H95.1255V23.7457H82.3257Z" fill="white"/>
</svg>
