<svg width="34" height="21" viewBox="0 0 34 21" fill="none" xmlns="http://www.w3.org/2000/svg">
<g clip-path="url(#clip0_624_1579)">
<path d="M22.4479 13.4984L21.8375 14.0956C21.8375 14.0956 21.2277 13.4984 20.1906 13.4984C19.1536 13.4984 18.7263 14.0657 18.7564 14.872C18.7759 15.3951 19.2707 15.7171 19.8324 15.9357L19.4988 16.8039C18.8642 16.5628 17.94 16.0756 17.8412 15.2601C17.6892 14.006 18.3304 12.6921 20.1911 12.6921C22.0516 12.6921 22.4479 13.4984 22.4479 13.4984ZM20.6035 17.1488C21.0576 17.3326 21.6529 17.7005 21.6525 18.3656C21.6519 19.4405 20.4012 19.7988 19.5777 19.6795C18.7542 19.5601 17.9309 18.9031 17.9309 18.9031L17.3816 19.5899C17.3816 19.5899 18.3572 20.6558 19.8823 20.6558C21.4073 20.6558 22.5975 19.6795 22.5981 18.3656C22.5987 17.1598 21.6997 16.5325 20.939 16.2759L20.6035 17.1488Z" fill="white"/>
<path d="M11.7029 12.7961H10.7493L13.0578 19.0382L13.5656 17.6223L11.7029 12.7961ZM14.1753 19.2022L13.7896 20.2776H14.7412L17.531 12.7961H16.5082L14.1759 19.2037L14.1753 19.2022Z" fill="white"/>
<path d="M25.3918 17.5605C25.41 17.5514 25.4293 17.5439 25.4497 17.5381C26.7895 17.2668 28.0864 16.8992 29.3068 16.3684C29.8515 16.1317 30.3652 15.8585 30.7954 15.4933C31.0772 15.2544 31.3013 14.987 31.3901 14.6571C31.4511 14.4302 31.4265 14.207 31.3345 13.9859C31.3261 13.9884 31.3178 13.9888 31.3143 13.9922C30.8973 14.4014 30.3704 14.6944 29.7957 14.9359C29.0348 15.2566 28.2275 15.4765 27.396 15.6352C26.8697 15.7357 26.336 15.809 25.8047 15.8934C25.7563 15.8997 25.7074 15.9029 25.6582 15.9029C25.6034 15.9056 25.5484 15.9015 25.4949 15.891L25.5811 15.8762C26.9714 15.6367 28.3184 15.2928 29.5866 14.7652C30.0019 14.5924 30.4001 14.3949 30.7429 14.1355C30.8942 14.0208 31.0227 13.886 31.1618 13.7607C31.1888 13.7368 31.1872 13.7157 31.1666 13.6868C30.9741 13.4148 30.7086 13.1816 30.3896 13.0045C30.3788 12.9999 30.3668 12.9973 30.3545 12.997C30.3423 12.9966 30.3301 12.9985 30.3189 13.0024C29.4752 13.354 28.5689 13.5466 27.6427 13.6795C27.0255 13.768 26.4029 13.8322 25.7821 13.9021C25.6668 13.9151 25.5464 13.904 25.4259 13.8975C25.4439 13.893 25.4615 13.8874 25.4799 13.8841C26.3444 13.7342 27.2076 13.5805 28.0579 13.3832C28.7057 13.233 29.3457 13.0638 29.9598 12.836C29.9842 12.827 30.0083 12.8175 30.0432 12.8041C30.0015 12.7814 29.9666 12.7618 29.931 12.7431C29.239 12.3799 28.4966 12.098 27.7269 11.8623C27.6946 11.8538 27.6603 11.8514 27.6266 11.8553C27.0495 11.9087 26.473 11.9648 25.8958 12.0163C25.7547 12.0289 25.6119 12.0268 25.4699 12.031C25.4639 12.0312 25.4579 12.0301 25.4522 12.0281C25.4468 12.026 25.442 12.0229 25.4383 12.019L27.3024 11.7505V11.7357C27.1429 11.6927 26.9838 11.648 26.8236 11.6069C25.6935 11.3174 24.5417 11.1032 23.3723 10.9492C22.695 10.86 22.016 10.7819 21.3353 10.715C20.7955 10.6612 20.253 10.6215 19.7104 10.5905C18.9792 10.5487 18.247 10.5197 17.5151 10.488C16.8015 10.4569 16.088 10.4714 15.3752 10.4999C14.8096 10.5229 14.2435 10.5442 13.6791 10.5807C13.0415 10.622 12.4049 10.6747 11.7691 10.731C10.9214 10.8059 10.079 10.9127 9.24147 11.0429C8.14618 11.2132 7.06527 11.4289 6.00973 11.7238C5.99244 11.728 5.97779 11.7375 5.9688 11.7502L7.83231 12.0186V12.0299C7.74649 12.0299 7.66007 12.0353 7.57495 12.029C7.2162 12.0023 6.85756 11.9746 6.49938 11.9424C6.20965 11.9163 5.92096 11.8826 5.63078 11.8541C5.60179 11.851 5.57232 11.8534 5.54467 11.861C4.72907 12.1119 3.94409 12.4121 3.21772 12.8073C3.20771 12.8128 3.19828 12.8193 3.17488 12.8333C4.64354 13.3866 6.19081 13.6843 7.7671 13.9014C7.7671 13.9064 7.76575 13.9112 7.76516 13.916C7.59717 13.9041 7.42805 13.9001 7.26167 13.8802C6.66087 13.8085 6.05847 13.7418 5.46103 13.6539C4.71287 13.5438 3.98062 13.3824 3.2822 13.1308C3.17031 13.0905 3.06137 13.0436 2.95037 13.0028C2.93049 12.9954 2.89575 12.9943 2.87956 13.0036C2.5598 13.1894 2.28185 13.4084 2.06749 13.6782C2.03687 13.7168 2.04129 13.7423 2.07162 13.7778C2.30997 14.0576 2.62383 14.272 2.96759 14.4597C3.60814 14.8094 4.30891 15.0601 5.03028 15.2753C5.88209 15.5294 6.75274 15.7319 7.64371 15.8709C7.68375 15.8771 7.72378 15.8829 7.76371 15.8887L7.7615 15.9079C7.64651 15.9014 7.5305 15.9008 7.41685 15.8872C6.69945 15.801 5.98485 15.7026 5.28216 15.5539C4.54991 15.3986 3.83839 15.1998 3.18032 14.8903C2.68508 14.6574 2.24696 14.3712 1.90835 13.9921C1.90423 13.9873 1.90158 13.9817 1.89172 13.9666C1.82726 14.093 1.79179 14.2278 1.78704 14.3646C1.77571 14.6804 1.91601 14.9559 2.13772 15.2079C2.41346 15.5216 2.76973 15.7669 3.15559 15.9855C3.87123 16.3908 4.65369 16.6923 5.46193 16.9518C6.18197 17.1831 6.91514 17.3825 7.67256 17.519C7.69725 17.522 7.72071 17.5297 7.74116 17.5414C7.7241 17.5414 7.70705 17.5421 7.68994 17.5414C6.86079 17.5004 6.06935 17.3189 5.28747 17.108C4.46304 16.8857 3.67778 16.5961 2.96686 16.1853C2.5015 15.9164 2.09105 15.6026 1.79013 15.204C1.62525 14.9857 1.49069 14.7569 1.45668 14.4973C1.45485 14.4915 1.45192 14.486 1.448 14.4809V14.2062C1.48569 14.022 1.54384 13.843 1.64895 13.6755C1.65388 13.6627 1.65234 13.6488 1.64468 13.6368C1.55193 13.4837 1.47891 13.3254 1.448 13.1558V12.9169C1.48495 12.8108 1.50983 12.7005 1.56209 12.5997C1.62319 12.4821 1.70828 12.3728 1.7869 12.2533C1.63968 12.0901 1.49953 11.9124 1.44829 11.699V11.5079C1.49378 11.3407 1.57755 11.1874 1.71594 11.0567C1.78955 10.9876 1.86846 10.9225 1.94766 10.8536C1.73773 10.6984 1.53545 10.5348 1.44829 10.3026V10.1473C1.5381 9.88449 1.77424 9.72344 2.04453 9.59005C2.43555 9.39709 2.86056 9.26263 3.28824 9.13505C4.23987 8.85097 5.21959 8.64728 6.21612 8.50251C7.02329 8.38513 7.83382 8.28281 8.64774 8.19564C9.35441 8.1207 10.0658 8.0726 10.7761 8.02275C12.1714 7.92496 13.5701 7.88108 14.9701 7.85423C16.1789 7.83101 17.3878 7.82962 18.5963 7.86021C19.5594 7.88466 20.522 7.91957 21.4841 7.96494C22.2301 8.00081 22.9756 8.05157 23.7193 8.1113C24.9899 8.21352 26.2535 8.35786 27.5028 8.57393C28.5604 8.75681 29.6019 8.985 30.5967 9.33581C30.8576 9.42778 31.1166 9.52269 31.349 9.65837C31.4854 9.7378 31.6106 9.82657 31.7034 9.94144C31.8507 10.1244 31.8667 10.3131 31.7087 10.4934C31.6069 10.6091 31.4808 10.7106 31.3651 10.8183C31.3503 10.8314 31.3335 10.8422 31.3174 10.8541C31.9282 11.3073 31.9788 11.7417 31.4742 12.262C31.5255 12.3298 31.5811 12.3952 31.6271 12.4651C31.8759 12.8415 31.8895 13.2201 31.6317 13.5978C31.6063 13.6349 31.6063 13.6628 31.6292 13.7011C31.9117 14.1751 31.866 14.6387 31.5616 15.0956C31.2833 15.5137 30.8868 15.845 30.4214 16.1258C29.7765 16.5151 29.0578 16.7897 28.3052 17.0089C27.415 17.2681 26.5019 17.4525 25.5627 17.55C25.5485 17.5523 25.5348 17.5556 25.5212 17.5598L25.3918 17.5605ZM31.1186 10.718C31.1504 10.6951 31.192 10.6678 31.23 10.6372C31.5151 10.4066 31.5271 10.1781 31.2614 9.93312C31.0996 9.78355 30.9062 9.6604 30.6826 9.58146C30.3352 9.45863 29.9836 9.34061 29.6252 9.24181C28.5881 8.95607 27.5181 8.77966 26.4401 8.6326C25.4127 8.4928 24.3801 8.38663 23.342 8.31398C22.4144 8.24806 21.4853 8.18667 20.5553 8.14915C19.3823 8.10196 18.2082 8.06614 17.0341 8.0536C16.1079 8.04388 15.1804 8.06636 14.2546 8.0947C13.2576 8.12523 12.2615 8.16906 11.266 8.22607C10.4743 8.27074 9.68389 8.33549 8.89445 8.40334C7.73675 8.50273 6.58696 8.64584 5.44957 8.84617C4.63029 8.99045 3.82176 9.16516 3.04179 9.41828C2.75736 9.51057 2.47352 9.60388 2.23209 9.76385C2.10621 9.84744 1.9852 9.93418 1.90261 10.0498C1.83283 10.1473 1.7972 10.2507 1.83224 10.3639C1.87832 10.5129 2.00183 10.6165 2.14302 10.7087C2.15436 10.716 2.18718 10.7087 2.20529 10.7006C2.35502 10.629 2.50076 10.5514 2.6524 10.4825C3.50097 10.0971 4.40578 9.82283 5.33576 9.60051C6.79411 9.25211 8.28544 9.03529 9.79194 8.88695C10.5555 8.81179 11.3217 8.74667 12.0886 8.70546C13.1597 8.64797 14.2321 8.60532 15.3057 8.57751C16.8774 8.53646 18.449 8.56619 20.0184 8.6437C20.845 8.68453 21.6709 8.7393 22.496 8.79802C23.3213 8.85684 24.1412 8.9502 24.9585 9.06085C25.9084 9.18875 26.8495 9.3491 27.776 9.56373C28.6701 9.771 29.5438 10.023 30.3687 10.3749C30.6202 10.4819 30.8636 10.6014 31.119 10.718H31.1186ZM30.8535 10.8786C30.7799 10.8368 30.7299 10.805 30.6768 10.7788C30.116 10.5054 29.5184 10.2965 28.902 10.1219C27.2563 9.65597 25.5517 9.40515 23.8305 9.21864C23.2525 9.15608 22.6723 9.10575 22.092 9.06C21.5118 9.01425 20.9297 8.97641 20.3478 8.94379C19.8466 8.91545 19.3447 8.89378 18.8422 8.87878C18.0998 8.85695 17.3568 8.82743 16.6142 8.83101C15.2016 8.83682 13.7909 8.88561 12.3821 8.97737C11.6755 9.0236 10.9688 9.06827 10.2667 9.13815C9.42829 9.22174 8.59194 9.32257 7.75795 9.43221C6.85127 9.55215 5.95522 9.72024 5.07562 9.93525C4.29537 10.1254 3.53366 10.3534 2.81817 10.6741C2.68802 10.7324 2.56245 10.7974 2.42627 10.8635C2.45144 10.8777 2.46057 10.884 2.47044 10.8886C2.77503 11.0272 3.09832 11.1306 3.42809 11.2209C3.45504 11.2282 3.49478 11.2188 3.52276 11.2075C3.74433 11.1184 3.96147 11.0218 4.18524 10.937C5.67215 10.3747 7.24165 10.0325 8.84812 9.79406C9.52962 9.69286 10.2164 9.61188 10.9036 9.53939C11.5107 9.47534 12.1214 9.42986 12.7316 9.38753C13.2298 9.353 13.7289 9.32785 14.2288 9.31205C15.0447 9.28745 15.8612 9.26081 16.6774 9.26022C18.0581 9.25916 19.4371 9.30955 20.8133 9.40536C21.6949 9.46675 22.5735 9.54868 23.4486 9.65779C24.376 9.77373 25.2958 9.92057 26.2039 10.1136C27.3487 10.357 28.4627 10.6684 29.5174 11.109C29.6167 11.1505 29.7169 11.2166 29.8191 11.22C29.9255 11.2235 30.0373 11.1688 30.143 11.1323C30.3749 11.0523 30.6047 10.9681 30.8545 10.8786H30.8535ZM29.326 11.3565C29.2832 11.3387 29.2586 11.328 29.2334 11.3183C28.3649 10.9847 27.4584 10.7385 26.5322 10.5366C25.3786 10.2851 24.2061 10.1066 23.0248 9.97181C22.484 9.91005 21.9408 9.8594 21.3977 9.81237C20.9175 9.77063 20.4362 9.73721 19.9549 9.70711C19.5199 9.67999 19.0842 9.65656 18.6485 9.64188C17.9649 9.61882 17.2808 9.58669 16.5971 9.59016C15.3122 9.59662 14.029 9.65394 12.7485 9.74303C11.7301 9.81376 10.7153 9.90851 9.70536 10.0374C8.73448 10.1614 7.77135 10.3151 6.82092 10.5186C5.86265 10.7238 4.92486 10.9763 4.02757 11.3213C4.00489 11.33 3.98341 11.3404 3.95027 11.3549C3.98472 11.3639 4.00489 11.3703 4.02565 11.3746C4.37897 11.4477 4.73231 11.522 5.08651 11.5919C5.13553 11.5994 5.18617 11.5958 5.23271 11.5811C5.57248 11.4792 5.90755 11.3661 6.24983 11.2706C7.86159 10.8202 9.52461 10.552 11.2112 10.3788C11.9063 10.3071 12.6043 10.2474 13.3031 10.2103C14.2546 10.16 15.208 10.1266 16.1612 10.1052C17.1077 10.0835 18.0538 10.1171 18.9994 10.1565C20.0648 10.2007 21.1278 10.2708 22.1839 10.3925C22.906 10.4758 23.6255 10.5744 24.3423 10.6883C25.616 10.8914 26.8598 11.1813 28.0587 11.5893C28.0923 11.5996 28.1288 11.6017 28.1639 11.5953C28.3622 11.5595 28.5602 11.522 28.7571 11.4814C28.9425 11.4439 29.1251 11.4017 29.327 11.3566L29.326 11.3565ZM4.76337 11.7461C4.3856 11.6678 4.00416 11.5879 3.62184 11.5109C3.59533 11.5057 3.55825 11.5153 3.5335 11.5277C3.26203 11.6625 2.99149 11.7986 2.72189 11.936C2.52682 12.0358 2.37165 12.1703 2.22561 12.3183C2.39805 12.4492 2.58922 12.563 2.79506 12.657C2.81154 12.6646 2.85041 12.6535 2.87043 12.6417C3.27678 12.4018 3.70449 12.1866 4.15005 11.998C4.35675 11.9108 4.56521 11.8278 4.76439 11.7462L4.76337 11.7461ZM28.4951 11.745C28.5193 11.7546 28.5406 11.7635 28.5623 11.7718C29.1419 11.9925 29.6994 12.2449 30.2259 12.5416C30.2897 12.5774 30.3557 12.6371 30.4206 12.6371C30.4906 12.6371 30.5632 12.5826 30.6295 12.5456C30.7661 12.4699 30.8993 12.3903 31.0518 12.3015C30.9033 12.1892 30.7808 12.0751 30.6332 11.9895C30.3807 11.8429 30.1106 11.7168 29.8519 11.577C29.7395 11.516 29.6363 11.5091 29.5039 11.5398C29.1733 11.6167 28.8361 11.6772 28.4959 11.7452L28.4951 11.745ZM3.13057 11.3904L2.21928 11.032C1.79028 11.3665 1.69533 11.7606 1.98667 12.082C2.32969 11.8054 2.73292 11.5957 3.1313 11.3905L3.13057 11.3904ZM30.1387 11.3904C30.5334 11.5934 30.9326 11.8016 31.2723 12.0735C31.3915 11.9716 31.4692 11.7629 31.4478 11.6164C31.412 11.3716 31.2434 11.1885 31.0527 11.0311L30.1387 11.3904ZM2.05852 12.5075C1.85241 12.7813 1.7548 13.0697 1.85079 13.3777L2.55376 12.8203L2.05852 12.5075ZM31.3951 13.3556C31.4873 13.0557 31.4044 12.7747 31.2069 12.5105L30.7146 12.8211L31.3951 13.3556Z" fill="white"/>
<path d="M14.6641 1.09802V5.76904H18.2611V5.16761H15.5186V3.14285H17.7444V2.52137H15.5186V1.23835C15.5186 0.957693 15.618 0.737169 15.9558 0.737169H18.2611V0.215942H15.4391C14.9025 0.215942 14.6641 0.737169 14.6641 1.09802Z" fill="white"/>
<path d="M9.12342 2.08942L9.24632 6.07881H10.0044L9.94294 3.7333H11.2747C11.7254 3.7333 12.4126 3.25216 12.7089 2.71089C13.0052 2.16961 12.8728 1.54815 12.7089 1.1873C12.545 0.826445 11.9098 0.365356 11.3771 0.365356H8.93896L9.51268 0.92668H11.0084C11.3976 0.92668 12.2172 1.08706 12.2172 2.00923C12.2172 2.93141 11.2132 3.09179 11.0084 3.09179H9.94294L9.90193 2.08942H9.12342Z" fill="white"/>
<path d="M11.3777 4.33487L12.7094 5.9587H13.6724L12.2997 4.33487H11.3777Z" fill="white"/>
<path d="M19.3755 5.95872H20.1108V1.18745C20.099 0.872506 20.0837 0.699015 20.0114 0.405609H19.5742L19.3755 5.95872Z" fill="white"/>
<path d="M21.8594 3.87378L23.4692 6.17922H24.1846L24.3038 0.405609H23.4692L23.3699 4.79596L22.217 3.11199L21.8594 3.87378Z" fill="white"/>
<path d="M29.8599 7.08511H30.6793L28.9993 1.0108H28.1754L25.2141 6.50376H26.1309L28.487 2.1134L29.8599 7.08511Z" fill="white"/>
<path d="M2.4231 7.10535H3.24264L4.61535 2.13364L6.97154 6.524H7.88823L4.9271 1.03104H4.10315L2.4231 7.10535Z" fill="white"/>
</g>
<defs>
<clipPath id="clip0_624_1579">
<rect width="33.3186" height="20.6575" fill="white" transform="translate(0 0.171234)"/>
</clipPath>
</defs>
</svg>
