<svg width="157" height="33" viewBox="0 0 157 33" fill="none" xmlns="http://www.w3.org/2000/svg">
<g clip-path="url(#clip0_31_399)">
<path d="M32.1827 9.44617L18.5557 0.511169V5.50717L27.2977 11.1872L26.2687 14.4412H18.5557V18.5812H26.2687L27.2977 21.8352L18.5557 27.5152V32.5112L32.1827 23.6052L29.9547 16.5252L32.1827 9.44517V9.44617Z" fill="white"/>
<path d="M6.69981 18.5812H14.3848V14.4412H6.67081L5.67081 11.1872L14.3848 5.50717V0.511169L0.757812 9.44617L2.98581 16.5262L0.757812 23.6052L14.4138 32.5112V27.5162L5.67181 21.8352L6.69981 18.5812Z" fill="white"/>
<mask id="mask0_31_399" style="mask-type:alpha" maskUnits="userSpaceOnUse" x="0" y="0" width="33" height="33">
<path d="M32.1827 9.44617L18.5557 0.511169V5.50717L27.2977 11.1872L26.2687 14.4412H18.5557V18.5812H26.2687L27.2977 21.8352L18.5557 27.5152V32.5112L32.1827 23.6052L29.9547 16.5252L32.1827 9.44517V9.44617Z" fill="url(#paint0_linear_31_399)"/>
<path d="M6.69981 18.5812H14.3848V14.4412H6.67081L5.67081 11.1872L14.3848 5.50717V0.511169L0.757812 9.44617L2.98581 16.5262L0.757812 23.6052L14.4138 32.5112V27.5162L5.67181 21.8352L6.69981 18.5812Z" fill="url(#paint1_linear_31_399)"/>
</mask>
<g mask="url(#mask0_31_399)">
<path d="M0.774902 0.511169H31.9749V32.5112H0.774902V0.511169Z" fill="white"/>
</g>
<path d="M59.2952 9.31116V12.1082H46.4042V14.9712H57.3592V17.7692H46.4032V20.9132H59.2962V23.7112H43.0962V9.31116H59.2962H59.2952ZM61.1252 23.7112L68.5322 16.4242L61.3352 9.31116H65.8882L70.9662 14.4512L75.8352 9.31116H80.0952L72.9182 16.4242L80.3252 23.7112H75.7302L70.9662 18.4192L65.5322 23.7112H61.1252Z" fill="white"/>
<path d="M89.2072 9.31116C95.2082 9.31116 98.8172 12.3162 98.8172 16.5112C98.8172 20.7062 95.2082 23.7112 89.2072 23.7112C83.2062 23.7112 79.6172 20.7062 79.6172 16.5112C79.6172 12.3162 83.2062 9.31116 89.2072 9.31116ZM89.2072 12.0032C85.5972 12.0032 82.9372 13.8192 82.9372 16.5112C82.9372 19.2032 85.5972 21.0192 89.2072 21.0192C92.8372 21.0192 95.4972 19.2032 95.4972 16.5112C95.4972 13.8192 92.8372 12.0032 89.2072 12.0032ZM110.779 9.31116C115.586 9.31116 118.482 11.9782 118.482 16.4892C118.482 21.0432 115.607 23.7112 110.821 23.7112H101.082V9.31116H110.779ZM115.082 16.4892C115.082 13.6692 113.403 12.1092 110.359 12.1092H104.377V20.9132H110.359C113.403 20.9132 115.082 19.3302 115.082 16.4892ZM129.38 23.7112C124.319 23.7112 120.48 21.4142 120.48 17.1812V9.31116H123.792V16.8612C123.792 19.4782 126.512 20.6912 129.38 20.6912C132.27 20.6912 134.99 19.4992 134.99 16.8612V9.31116H138.28V17.1812C138.28 21.4142 134.463 23.7112 129.38 23.7112ZM147.549 23.7112C144.83 23.7112 141.898 23.2102 139.816 22.2712L140.9 19.5992C142.769 20.4552 145.34 20.9982 147.655 20.9982C150.311 20.9982 152.796 20.4342 152.796 19.4332C152.796 18.7032 152.01 18.3892 150.374 18.1392L145.743 17.6382C142.174 17.1582 140.432 15.9272 140.432 13.7562C140.432 10.9602 143.385 9.31116 147.719 9.31116C150.332 9.31116 153.922 9.79116 155.77 10.6262L154.687 13.1722C152.86 12.4202 149.758 12.0452 147.57 12.0452C145.318 12.0452 143.831 12.5662 143.831 13.5262C143.831 14.1942 144.575 14.5282 146.487 14.8002L150.99 15.3002C154.432 15.7802 156.216 16.9502 156.216 19.2242C156.216 22.1042 152.435 23.7112 147.549 23.7112Z" fill="white"/>
</g>
<defs>
<linearGradient id="paint0_linear_31_399" x1="27.7747" y1="34.7112" x2="18.6467" y2="-3.00283" gradientUnits="userSpaceOnUse">
<stop stop-color="#0B46F9"/>
<stop offset="1" stop-color="#BBFBE0"/>
</linearGradient>
<linearGradient id="paint1_linear_31_399" x1="27.7748" y1="34.7112" x2="18.6468" y2="-3.00283" gradientUnits="userSpaceOnUse">
<stop stop-color="#0B46F9"/>
<stop offset="1" stop-color="#BBFBE0"/>
</linearGradient>
<clipPath id="clip0_31_399">
<rect width="156" height="32" fill="white" transform="translate(0.375 0.511169)"/>
</clipPath>
</defs>
</svg>
