<svg width="173" height="33" viewBox="0 0 173 33" fill="none" xmlns="http://www.w3.org/2000/svg">
<g clip-path="url(#clip0_31_394)">
<path d="M161.141 26.8044L154.691 11.6778H159.009L163.416 22.5243L168.505 11.6778H172.751L162.717 32.5112H158.391L161.141 26.8044ZM145.428 23.6675C145.808 23.5803 146.176 23.4419 146.521 23.256C146.855 23.0738 147.165 22.8495 147.444 22.5883C147.723 22.329 147.964 22.0303 148.16 21.7012C148.363 21.355 148.519 20.9829 148.626 20.5946C148.746 20.1695 148.806 19.7292 148.805 19.2868C148.807 18.8384 148.747 18.3919 148.626 17.9607C148.517 17.572 148.357 17.1998 148.151 16.8541C147.954 16.5231 147.713 16.2215 147.435 15.9579C147.162 15.6958 146.854 15.4742 146.521 15.2994C146.174 15.1207 145.807 14.9856 145.428 14.897C145.028 14.804 144.619 14.758 144.21 14.7598C143.803 14.7579 143.397 14.8039 143 14.897C142.627 14.9858 142.266 15.121 141.925 15.2994C141.587 15.475 141.274 15.6965 140.994 15.9579C140.714 16.2206 140.473 16.5223 140.277 16.8541C140.072 17.1992 139.915 17.5716 139.811 17.9607C139.699 18.3933 139.644 18.8394 139.65 19.2868C139.645 19.7282 139.7 20.1682 139.811 20.5946C139.916 20.9806 140.073 21.3499 140.277 21.6921C140.471 22.0251 140.713 22.3271 140.994 22.5883C141.274 22.8473 141.584 23.0714 141.916 23.256C142.255 23.4415 142.617 23.5799 142.991 23.6675C143.39 23.7646 143.799 23.8137 144.21 23.8138C144.62 23.8128 145.029 23.7637 145.428 23.6675ZM141.065 27.0513C140.405 26.8807 139.769 26.6224 139.175 26.2831C138.014 25.6165 137.056 24.6353 136.407 23.448C136.071 22.8353 135.815 22.1804 135.645 21.5C135.292 20.0373 135.292 18.5089 135.645 17.0462C135.814 16.3685 136.07 15.7166 136.407 15.1073C137.059 13.9248 138.017 12.9474 139.175 12.2814C139.769 11.9421 140.405 11.6838 141.065 11.5132C141.774 11.3283 142.502 11.2361 143.233 11.2388C143.628 11.2378 144.023 11.2623 144.416 11.312C144.776 11.3576 145.132 11.431 145.482 11.5315C145.805 11.6268 146.122 11.7428 146.431 11.879C146.72 12.003 146.998 12.1498 147.264 12.318C147.518 12.4762 147.755 12.66 147.972 12.8667C148.173 13.0655 148.358 13.2795 148.527 13.5069V11.6778H152.63V26.8867H148.527V25.0576C148.265 25.3971 147.964 25.7041 147.632 25.9722C147.266 26.2662 146.866 26.512 146.44 26.7038C145.966 26.913 145.47 27.0664 144.962 27.1611C144.392 27.2726 143.813 27.3277 143.233 27.3257C142.502 27.3284 141.774 27.2362 141.065 27.0513ZM126.167 15.528C126.756 15.5402 127.343 15.4726 127.914 15.3268C128.36 15.2121 128.775 14.9999 129.133 14.7049C129.454 14.4324 129.701 14.0796 129.849 13.6806C130.008 13.226 130.084 12.7456 130.073 12.2631C130.081 11.783 130.002 11.3056 129.84 10.8547C129.693 10.4581 129.446 10.1081 129.124 9.83955C128.767 9.55048 128.355 9.34166 127.914 9.22681C127.344 9.0781 126.756 9.00737 126.167 9.01646H122.136V15.528H126.167ZM117.89 5.43143H126.571C127.932 5.43143 129.115 5.60215 130.118 5.94358C131.121 6.28501 131.946 6.75448 132.591 7.35198C133.235 7.95077 133.733 8.69654 134.042 9.52861C134.365 10.4053 134.526 11.3356 134.517 12.2722C134.529 13.2091 134.368 14.14 134.042 15.0159C133.727 15.8398 133.231 16.5784 132.591 17.1742C131.94 17.7839 131.115 18.2595 130.118 18.6009C129.115 18.9423 127.932 19.1131 126.571 19.1131H122.136V26.8867H117.89V5.43143ZM99.6508 11.6686H103.727V13.4977C103.978 13.1434 104.277 12.8264 104.614 12.5558C104.969 12.268 105.357 12.0254 105.769 11.8333C106.225 11.6238 106.703 11.4703 107.194 11.376C107.737 11.274 108.289 11.225 108.842 11.2297C109.706 11.2167 110.566 11.3655 111.377 11.6686C112.1 11.94 112.754 12.371 113.294 12.9307C113.837 13.512 114.247 14.2084 114.495 14.9702C114.781 15.8454 114.92 16.7637 114.907 17.6864V26.8776H110.849V18.7655C110.859 18.1709 110.778 17.5782 110.607 17.0096C110.467 16.5412 110.232 16.1081 109.917 15.7384C109.612 15.3979 109.231 15.1375 108.806 14.9793C108.324 14.8011 107.814 14.7143 107.301 14.7232C106.789 14.7155 106.279 14.8023 105.796 14.9793C105.368 15.1359 104.984 15.3964 104.676 15.7384C104.361 16.1108 104.126 16.5471 103.987 17.0187C103.818 17.5815 103.736 18.1678 103.745 18.7564V26.8776H99.6508V11.6686ZM89.6175 23.6309C90.0058 23.5326 90.3817 23.3884 90.7373 23.2011C91.0766 23.0245 91.3877 22.7963 91.66 22.5243C91.9311 22.2554 92.1661 21.9509 92.3587 21.6189C92.5542 21.2767 92.6991 20.9069 92.7887 20.5215C92.8854 20.1081 92.9335 19.6844 92.9321 19.2594C92.9351 18.8313 92.887 18.4044 92.7887 17.9882C92.606 17.2275 92.2144 16.5358 91.66 15.9945C91.3843 15.7241 91.0739 15.4934 90.7373 15.3085C90.3843 15.1153 90.0077 14.9707 89.6175 14.8787C89.1944 14.7794 88.7616 14.7303 88.3275 14.7324C87.8963 14.7304 87.4665 14.7795 87.0464 14.8787C86.6557 14.9693 86.279 15.1139 85.9266 15.3085C85.5936 15.4947 85.2863 15.7254 85.0129 15.9945C84.7425 16.2595 84.513 16.5647 84.3321 16.8999C84.1472 17.244 84.0028 17.6093 83.9021 17.9882C83.7956 18.403 83.7444 18.8306 83.7498 19.2594C83.7464 19.6851 83.7976 20.1093 83.9021 20.5215C84 20.9041 84.1445 21.2728 84.3321 21.6189C84.5146 21.9557 84.7439 22.2638 85.0129 22.5335C85.2895 22.7992 85.6036 23.0211 85.9446 23.1919C86.2995 23.3806 86.6755 23.5249 87.0643 23.6218C87.484 23.7234 87.9141 23.7725 88.3454 23.7681C88.7796 23.7727 89.2128 23.7236 89.6354 23.6218M85.9356 27.0422C85.2006 26.8686 84.488 26.6077 83.8125 26.2648C83.1785 25.939 82.5908 25.5268 82.0656 25.0393C81.5546 24.5687 81.1113 24.0269 80.7487 23.4297C80.383 22.8202 80.1025 22.1614 79.9156 21.4726C79.5246 20.0148 79.5246 18.4765 79.9156 17.0187C80.1019 16.3325 80.3824 15.6767 80.7487 15.0708C81.1139 14.4756 81.557 13.934 82.0656 13.4612C82.5892 12.9692 83.1771 12.5537 83.8125 12.2265C84.4881 11.8838 85.2006 11.6229 85.9356 11.4492C87.5277 11.0787 89.181 11.0787 90.7731 11.4492C91.5058 11.6209 92.2156 11.8819 92.8873 12.2265C93.5198 12.5585 94.1071 12.9736 94.6341 13.4612C95.1526 13.9319 95.6048 14.4735 95.9779 15.0708C96.349 15.6753 96.6326 16.3314 96.82 17.0187C97.211 18.4765 97.211 20.0148 96.82 21.4726C96.6291 22.163 96.3425 22.8221 95.9689 23.4297C95.6012 24.0283 95.1517 24.5703 94.6341 25.0393C94.1056 25.5224 93.5185 25.9343 92.8873 26.2648C92.2184 26.6087 91.5117 26.8697 90.7821 27.0422C89.1898 27.4114 87.5368 27.4114 85.9446 27.0422M70.0346 23.6218C70.423 23.5235 70.7988 23.3793 71.1544 23.1919C71.4937 23.0153 71.8048 22.7871 72.0771 22.5152C72.3482 22.2463 72.5831 21.9418 72.7758 21.6098C72.9713 21.2676 73.1162 20.8977 73.2058 20.5123C73.3025 20.0989 73.3506 19.6753 73.3491 19.2502C73.3522 18.8221 73.3041 18.3952 73.2058 17.979C73.0231 17.2183 72.6315 16.5267 72.0771 15.9853C71.8014 15.715 71.491 15.4842 71.1544 15.2994C70.8014 15.1061 70.4248 14.9616 70.0346 14.8696C69.6115 14.7703 69.1786 14.7212 68.7446 14.7232C68.3134 14.7212 67.8835 14.7704 67.4635 14.8696C67.0728 14.9601 66.6961 15.1047 66.3437 15.2994C66.0107 15.4857 65.7034 15.7163 65.43 15.9853C65.1596 16.2503 64.9301 16.5556 64.7491 16.8907C64.5644 17.235 64.4201 17.6003 64.3191 17.979C64.2127 18.3939 64.1615 18.8214 64.1669 19.2502C64.1635 19.6759 64.2147 20.1002 64.3191 20.5123C64.4172 20.895 64.5617 21.2636 64.7491 21.6098C64.9317 21.9466 65.161 22.2546 65.43 22.5243C65.7005 22.7918 66.0085 23.0168 66.3437 23.1919C66.6987 23.3806 67.0747 23.5249 67.4635 23.6218C67.8831 23.7234 68.3133 23.7725 68.7446 23.7681C69.1788 23.7727 69.6119 23.7236 70.0346 23.6218ZM66.3258 27.0513C65.5908 26.8778 64.8782 26.6169 64.2027 26.274C63.5687 25.9482 62.981 25.5359 62.4558 25.0485C61.9449 24.5778 61.5016 24.0359 61.1389 23.4389C60.7732 22.8293 60.4928 22.1706 60.3058 21.4817C59.9148 20.024 59.9148 18.4857 60.3058 17.0279C60.4921 16.3417 60.7726 15.6858 61.1389 15.0799C61.5041 14.4847 61.9472 13.9432 62.4558 13.4703C62.9795 12.9784 63.5673 12.5629 64.2027 12.2357C64.8783 11.8929 65.5908 11.632 66.3258 11.4583C67.9179 11.0878 69.5712 11.0878 71.1633 11.4583C71.8929 11.6307 72.5997 11.8917 73.2685 12.2357C73.9042 12.567 74.4945 12.9821 75.0243 13.4703C75.5428 13.941 75.995 14.4827 76.3681 15.0799C76.7361 15.685 77.0167 16.3411 77.2012 17.0279C77.5922 18.4857 77.5922 20.024 77.2012 21.4817C77.0133 22.1717 76.7297 22.8308 76.3591 23.4389C75.9914 24.0374 75.5419 24.5794 75.0243 25.0485C74.4931 25.5323 73.9029 25.9442 73.2685 26.274C72.6025 26.6172 71.8988 26.8782 71.1723 27.0513C69.58 27.4205 67.927 27.4205 66.3348 27.0513M34.1475 5.43143H38.4475L45.7754 16.8724L53.1571 5.43143H57.4571V26.8867H53.2019V12.1716L47.1102 21.6646H44.5123L38.4206 12.1716V26.8959H34.1654L34.1475 5.43143ZM24.365 9.27253C25.2133 9.27253 26.0426 9.01584 26.748 8.53488C27.4535 8.05393 28.0035 7.3703 28.3285 6.57037C28.6536 5.77044 28.7391 4.8901 28.5742 4.04058C28.4094 3.19106 28.0016 2.41049 27.4024 1.79747C26.8031 1.18446 26.0394 0.766524 25.2076 0.596463C24.3758 0.426402 23.5133 0.51185 22.7291 0.842012C21.9448 1.17217 21.274 1.73223 20.8015 2.45143C20.3289 3.17062 20.0757 4.01668 20.0739 4.88271C20.0728 5.45875 20.1829 6.02938 20.398 6.56193C20.6131 7.09447 20.929 7.57848 21.3276 7.98623C21.7262 8.39398 22.1996 8.71748 22.7208 8.9382C23.242 9.15892 23.8007 9.27253 24.365 9.27253ZM11.2052 28.9993C9.13827 28.9975 7.11826 28.3703 5.40042 27.1968C3.68258 26.0234 2.344 24.3564 1.55385 22.4066C0.763692 20.4568 0.557416 18.3116 0.961086 16.2422C1.36476 14.1727 2.36025 12.2718 3.82179 10.7798C5.28332 9.28771 7.14529 8.27141 9.1724 7.85931C11.1995 7.44721 13.3008 7.65779 15.2107 8.46445C17.1206 9.27112 18.7535 10.6377 19.9029 12.3914C21.0523 14.1451 21.6667 16.2073 21.6685 18.3174C21.6697 19.7205 21.3999 21.1101 20.8744 22.4066C20.349 23.7031 19.5783 24.8812 18.6065 25.8733C17.6347 26.8655 16.4807 27.6523 15.2107 28.1887C13.9407 28.725 12.5796 29.0005 11.2052 28.9993Z" fill="white"/>
</g>
<defs>
<clipPath id="clip0_31_394">
<rect width="172" height="32" fill="white" transform="translate(0.750488 0.511169)"/>
</clipPath>
</defs>
</svg>
