<svg width="387" height="200" viewBox="0 0 387 200" fill="none" xmlns="http://www.w3.org/2000/svg">
<mask id="mask0_11_248" style="mask-type:alpha" maskUnits="userSpaceOnUse" x="4" y="6" width="377" height="187">
<path d="M7.20597 91V8.09091H39.9162C46.2045 8.09091 51.5618 9.2919 55.9879 11.6939C60.4141 14.0689 63.7876 17.375 66.1087 21.6122C68.4567 25.8224 69.6307 30.6804 69.6307 36.1861C69.6307 41.6918 68.4432 46.5497 66.0682 50.7599C63.6932 54.9702 60.2521 58.2493 55.745 60.5973C51.2649 62.9453 45.8402 64.1193 39.4709 64.1193H18.6222V50.0717H36.6371C40.0107 50.0717 42.7905 49.4915 44.9766 48.331C47.1896 47.1435 48.8359 45.5107 49.9155 43.4325C51.022 41.3274 51.5753 38.9119 51.5753 36.1861C51.5753 33.4332 51.022 31.0312 49.9155 28.9801C48.8359 26.902 47.1896 25.2962 44.9766 24.1626C42.7635 23.0021 39.9567 22.4219 36.5561 22.4219H24.7351V91H7.20597ZM81.0165 91V8.09091H98.5456V42.299H134.13V8.09091H151.619V91H134.13V56.7514H98.5456V91H81.0165ZM180.362 91H161.578L190.199 8.09091H212.789L241.369 91H222.585L201.818 27.0369H201.17L180.362 91ZM179.188 58.4112H223.557V72.0945H179.188V58.4112ZM294.433 31.9354C294.109 28.6697 292.719 26.1328 290.263 24.3246C287.807 22.5163 284.474 21.6122 280.263 21.6122C277.403 21.6122 274.987 22.017 273.017 22.8267C271.047 23.6094 269.536 24.7024 268.483 26.1058C267.457 27.5092 266.945 29.1016 266.945 30.8828C266.891 32.3672 267.201 33.6626 267.876 34.7692C268.577 35.8757 269.536 36.8338 270.75 37.6435C271.964 38.4261 273.368 39.1143 274.96 39.7081C276.553 40.2749 278.253 40.7607 280.061 41.1655L287.51 42.9467C291.126 43.7564 294.446 44.8359 297.469 46.1854C300.491 47.5348 303.109 49.1946 305.322 51.1648C307.536 53.1349 309.249 55.456 310.464 58.1278C311.705 60.7997 312.339 63.8629 312.366 67.3175C312.339 72.3913 311.044 76.7905 308.48 80.5149C305.943 84.2124 302.273 87.0866 297.469 89.1378C292.692 91.1619 286.93 92.174 280.183 92.174C273.489 92.174 267.66 91.1484 262.694 89.0973C257.755 87.0462 253.896 84.0099 251.116 79.9886C248.363 75.9403 246.919 70.9339 246.784 64.9695H263.746C263.935 67.7493 264.732 70.0703 266.135 71.9325C267.565 73.7678 269.468 75.1577 271.843 76.1023C274.245 77.0199 276.957 77.4787 279.98 77.4787C282.949 77.4787 285.526 77.0469 287.712 76.1832C289.925 75.3196 291.639 74.1186 292.854 72.5803C294.068 71.0419 294.675 69.2741 294.675 67.277C294.675 65.4148 294.122 63.8494 293.016 62.581C291.936 61.3125 290.344 60.233 288.239 59.3423C286.161 58.4517 283.61 57.642 280.587 56.9134L271.56 54.6463C264.57 52.946 259.05 50.2876 255.002 46.6712C250.954 43.0547 248.943 38.1832 248.97 32.0568C248.943 27.0369 250.279 22.6513 252.978 18.8999C255.704 15.1484 259.442 12.2202 264.192 10.1151C268.942 8.00994 274.339 6.95738 280.385 6.95738C286.538 6.95738 291.909 8.00994 296.497 10.1151C301.112 12.2202 304.702 15.1484 307.266 18.8999C309.83 22.6513 311.152 26.9964 311.233 31.9354H294.433ZM324.157 91V8.09091H380.024V22.5433H341.686V42.299H377.149V56.7514H341.686V76.5476H380.186V91H324.157ZM4.0483 122.543V108.091H72.1406V122.543H46.7578V191H29.4311V122.543H4.0483ZM102.017 191L78.294 108.091H97.4425L111.166 165.698H111.854L126.995 108.091H143.391L158.491 165.82H159.219L172.943 108.091H192.092L168.369 191H151.285L135.496 136.793H134.849L119.101 191H102.017ZM272.987 149.545C272.987 158.587 271.273 166.278 267.845 172.621C264.445 178.963 259.803 183.808 253.919 187.154C248.063 190.474 241.477 192.134 234.164 192.134C226.796 192.134 220.183 190.46 214.327 187.114C208.47 183.767 203.842 178.923 200.441 172.58C197.041 166.238 195.34 158.56 195.34 149.545C195.34 140.504 197.041 132.812 200.441 126.47C203.842 120.128 208.47 115.297 214.327 111.977C220.183 108.631 226.796 106.957 234.164 106.957C241.477 106.957 248.063 108.631 253.919 111.977C259.803 115.297 264.445 120.128 267.845 126.47C271.273 132.812 272.987 140.504 272.987 149.545ZM255.215 149.545C255.215 143.689 254.338 138.75 252.583 134.729C250.856 130.707 248.414 127.658 245.256 125.58C242.098 123.501 238.401 122.462 234.164 122.462C229.926 122.462 226.229 123.501 223.071 125.58C219.914 127.658 217.458 130.707 215.703 134.729C213.976 138.75 213.112 143.689 213.112 149.545C213.112 155.402 213.976 160.341 215.703 164.362C217.458 168.384 219.914 171.433 223.071 173.511C226.229 175.589 229.926 176.629 234.164 176.629C238.401 176.629 242.098 175.589 245.256 173.511C248.414 171.433 250.856 168.384 252.583 164.362C254.338 160.341 255.215 155.402 255.215 149.545Z" fill="#EFF0F3"/>
</mask>
<g mask="url(#mask0_11_248)">
<g filter="url(#filter0_f_11_248)">
<path d="M-43.1555 -28.083L33.7244 7.51394M33.7244 7.51394L53.6729 48.3783M33.7244 7.51394L115.254 29.3599M53.6729 48.3783L-38.393 44.2316M53.6729 48.3783L44.9692 102.482L125.538 135.121M53.6729 48.3783L164.435 92.6592M125.538 135.121L164.435 92.6592M125.538 135.121L186.443 163.675M164.435 92.6592L115.254 29.3599M164.435 92.6592L277.841 100.945M115.254 29.3599L237.204 42.6979M237.204 42.6979L277.841 100.945M237.204 42.6979L297.179 28.7742L329.901 55.3015L277.841 100.945M318.478 159.193L391.75 206.452M318.478 159.193L277.841 100.945M318.478 159.193L252.096 219.548M318.478 159.193L375.134 91.8905L413.259 126.18M391.75 206.452L413.259 126.18M391.75 206.452L369.151 261.964L252.096 219.548M413.259 126.18L447.526 75.7687M277.841 100.945L186.443 163.675M186.443 163.675L252.096 219.548" stroke="#461DA3" stroke-width="23"/>
</g>
<g filter="url(#filter1_f_11_248)">
<ellipse cx="17.5647" cy="138.174" rx="17.5647" ry="138.174" transform="matrix(-0.601435 -0.798922 -0.599471 0.800397 173.175 4.15869)" fill="#1FC5D6"/>
</g>
<g filter="url(#filter2_f_11_248)">
<ellipse cx="73.4375" cy="275.208" rx="73.4375" ry="275.208" transform="matrix(-0.601435 -0.798922 -0.599471 0.800397 483.643 -10.9946)" fill="#171628"/>
</g>
<g style="mix-blend-mode:plus-lighter" filter="url(#filter3_f_11_248)">
<ellipse cx="10.9786" cy="138.174" rx="10.9786" ry="138.174" transform="matrix(0.944224 0.329305 -0.579592 0.814907 260.169 -93.833)" fill="#E1D8F8"/>
</g>
</g>
<rect y="58" width="380" height="141" fill="url(#paint0_linear_11_248)"/>
<defs>
<filter id="filter0_f_11_248" x="-86.5873" y="-77.1186" width="582.224" height="392.262" filterUnits="userSpaceOnUse" color-interpolation-filters="sRGB">
<feFlood flood-opacity="0" result="BackgroundImageFix"/>
<feBlend mode="normal" in="SourceGraphic" in2="BackgroundImageFix" result="shape"/>
<feGaussianBlur stdDeviation="19.3" result="effect1_foregroundBlur_11_248"/>
</filter>
<filter id="filter1_f_11_248" x="-49.3314" y="-56.3729" width="258.223" height="314.186" filterUnits="userSpaceOnUse" color-interpolation-filters="sRGB">
<feFlood flood-opacity="0" result="BackgroundImageFix"/>
<feBlend mode="normal" in="SourceGraphic" in2="BackgroundImageFix" result="shape"/>
<feGaussianBlur stdDeviation="22.8" result="effect1_foregroundBlur_11_248"/>
</filter>
<filter id="filter2_f_11_248" x="26.2645" y="-154.801" width="496.463" height="610.823" filterUnits="userSpaceOnUse" color-interpolation-filters="sRGB">
<feFlood flood-opacity="0" result="BackgroundImageFix"/>
<feBlend mode="normal" in="SourceGraphic" in2="BackgroundImageFix" result="shape"/>
<feGaussianBlur stdDeviation="38.7" result="effect1_foregroundBlur_11_248"/>
</filter>
<filter id="filter3_f_11_248" x="74.1895" y="-125.777" width="232.523" height="296.316" filterUnits="userSpaceOnUse" color-interpolation-filters="sRGB">
<feFlood flood-opacity="0" result="BackgroundImageFix"/>
<feBlend mode="normal" in="SourceGraphic" in2="BackgroundImageFix" result="shape"/>
<feGaussianBlur stdDeviation="17.75" result="effect1_foregroundBlur_11_248"/>
</filter>
<linearGradient id="paint0_linear_11_248" x1="190" y1="58" x2="190" y2="199" gradientUnits="userSpaceOnUse">
<stop stop-color="#04030C" stop-opacity="0"/>
<stop offset="1" stop-color="#04030C"/>
</linearGradient>
</defs>
</svg>
