<svg width="381" height="186" viewBox="0 0 381 186" fill="none" xmlns="http://www.w3.org/2000/svg">
<mask id="mask0_11_249" style="mask-type:alpha" maskUnits="userSpaceOnUse" x="5" y="0" width="376" height="186">
<path d="M180.21 184.042V101.133H236.076V115.586H197.739V135.341H233.202V149.794H197.739V169.59H236.238V184.042H180.21Z" fill="#EFF0F3"/>
<path d="M165.727 101.133V184.042H150.587L114.516 131.86H113.909V184.042H96.3799V101.133H111.763L147.55 153.275H148.279V101.133H165.727Z" fill="#EFF0F3"/>
<path d="M83.3948 142.588C83.3948 151.629 81.6811 159.321 78.2535 165.663C74.8529 172.006 70.2109 176.85 64.3274 180.197C58.4708 183.516 51.8856 185.176 44.5717 185.176C37.2038 185.176 30.5916 183.503 24.735 180.156C18.8785 176.81 14.25 171.965 10.8494 165.623C7.44882 159.281 5.74854 151.602 5.74854 142.588C5.74854 133.547 7.44882 125.855 10.8494 119.513C14.25 113.17 18.8785 108.339 24.735 105.02C30.5916 101.673 37.2038 100 44.5717 100C51.8856 100 58.4708 101.673 64.3274 105.02C70.2109 108.339 74.8529 113.17 78.2535 119.513C81.6811 125.855 83.3948 133.547 83.3948 142.588ZM65.6228 142.588C65.6228 136.732 64.7457 131.793 62.9914 127.771C61.2642 123.75 58.8217 120.7 55.664 118.622C52.5063 116.544 48.8089 115.505 44.5717 115.505C40.3345 115.505 36.637 116.544 33.4794 118.622C30.3217 120.7 27.8657 123.75 26.1115 127.771C24.3842 131.793 23.5206 136.732 23.5206 142.588C23.5206 148.445 24.3842 153.384 26.1115 157.405C27.8657 161.426 30.3217 164.476 33.4794 166.554C36.637 168.632 40.3345 169.671 44.5717 169.671C48.8089 169.671 52.5063 168.632 55.664 166.554C58.8217 164.476 61.2642 161.426 62.9914 157.405C64.7457 153.384 65.6228 148.445 65.6228 142.588Z" fill="#EFF0F3"/>
<path d="M324.157 84.0424V1.1333H380.024V15.5857H341.686V35.3414H377.149V49.7938H341.686V69.59H380.186V84.0424H324.157Z" fill="#EFF0F3"/>
<path d="M294.433 24.978C294.109 21.7124 292.719 19.1754 290.263 17.3672C287.807 15.5589 284.474 14.6548 280.264 14.6548C277.403 14.6548 274.987 15.0597 273.017 15.8693C271.047 16.652 269.536 17.745 268.483 19.1484C267.457 20.5518 266.945 22.1442 266.945 23.9254C266.891 25.4098 267.201 26.7053 267.876 27.8118C268.577 28.9183 269.536 29.8764 270.75 30.6861C271.965 31.4688 273.368 32.157 274.96 32.7507C276.553 33.3175 278.253 33.8033 280.061 34.2081L287.51 35.9893C291.127 36.799 294.446 37.8786 297.469 39.228C300.492 40.5774 303.109 42.2372 305.323 44.2074C307.536 46.1776 309.249 48.4986 310.464 51.1705C311.705 53.8423 312.34 56.9055 312.367 60.3601C312.34 65.434 311.044 69.8331 308.48 73.5575C305.943 77.255 302.273 80.1293 297.469 82.1804C292.692 84.2046 286.93 85.2166 280.183 85.2166C273.489 85.2166 267.66 84.1911 262.694 82.1399C257.755 80.0888 253.896 77.0526 251.116 73.0312C248.363 68.983 246.919 63.9766 246.784 58.0121H263.747C263.935 60.7919 264.732 63.1129 266.135 64.9751C267.565 66.8104 269.468 68.2003 271.843 69.1449C274.245 70.0625 276.957 70.5213 279.98 70.5213C282.949 70.5213 285.526 70.0895 287.712 69.2259C289.926 68.3622 291.639 67.1612 292.854 65.6229C294.068 64.0845 294.676 62.3168 294.676 60.3196C294.676 58.4574 294.122 56.892 293.016 55.6236C291.936 54.3551 290.344 53.2756 288.239 52.3849C286.161 51.4943 283.61 50.6847 280.587 49.956L271.56 47.6889C264.57 45.9886 259.051 43.3303 255.002 39.7138C250.954 36.0973 248.943 31.2259 248.97 25.0994C248.943 20.0795 250.279 15.6939 252.978 11.9425C255.704 8.19105 259.442 5.26279 264.192 3.15767C268.942 1.05256 274.34 0 280.385 0C286.538 0 291.909 1.05256 296.497 3.15767C301.112 5.26279 304.702 8.19105 307.266 11.9425C309.83 15.6939 311.152 20.0391 311.233 24.978H294.433Z" fill="#EFF0F3"/>
<path d="M180.362 84.0424H161.578L190.199 1.1333H212.789L241.37 84.0424H222.585L201.818 20.0793H201.17L180.362 84.0424ZM179.188 51.4536H223.557V65.1369H179.188V51.4536Z" fill="#EFF0F3"/>
<path d="M81.0166 84.0424V1.1333H98.5457V35.3414H134.13V1.1333H151.619V84.0424H134.13V49.7938H98.5457V84.0424H81.0166Z" fill="#EFF0F3"/>
<path d="M7.20605 84.0424V1.1333H39.9163C46.2046 1.1333 51.5619 2.3343 55.988 4.73629C60.4142 7.11129 63.7877 10.4174 66.1088 14.6546C68.4568 18.8648 69.6308 23.7228 69.6308 29.2285C69.6308 34.7342 68.4433 39.5921 66.0683 43.8023C63.6933 48.0126 60.2522 51.2917 55.7451 53.6397C51.265 55.9877 45.8403 57.1617 39.471 57.1617H18.6222V43.1141H36.6372C40.0107 43.1141 42.7906 42.5339 44.9767 41.3734C47.1897 40.1859 48.836 38.553 49.9156 36.4749C51.0221 34.3698 51.5754 31.9543 51.5754 29.2285C51.5754 26.4756 51.0221 24.0736 49.9156 22.0225C48.836 19.9444 47.1897 18.3386 44.9767 17.205C42.7636 16.0445 39.9568 15.4643 36.5562 15.4643H24.7352V84.0424H7.20605Z" fill="#EFF0F3"/>
</mask>
<g mask="url(#mask0_11_249)">
<g filter="url(#filter0_f_11_249)">
<path d="M470.006 46.4577L387.079 62.3323M387.079 62.3323L348.919 43.9508M387.079 62.3323L307.505 90.4814M348.919 43.9508L427.977 -2.43571M348.919 43.9508L327.717 0.796358L243.266 20.7523M348.919 43.9508L233.131 71.8042M243.266 20.7523L233.131 71.8042M243.266 20.7523L177.386 33.0764M233.131 71.8042L307.505 90.4814M233.131 71.8042L134.075 126.682M307.505 90.4814L198.657 146.343M198.657 146.343L134.075 126.682M198.657 146.343L155.903 188.389L114.622 187.052L134.075 126.682M69.4928 107.02L-16.5583 112.665M69.4928 107.02L134.075 126.682M69.4928 107.02L93.1635 28.5098M69.4928 107.02L57.5984 185.261L7.7205 181.298M-16.5583 112.665L7.7205 181.298M-16.5583 112.665L-26.8979 61.0629L93.1635 28.5098M7.7205 181.298L5.63313 235.524M134.075 126.682L177.386 33.0764M177.386 33.0764L93.1635 28.5098" stroke="#461DA3" stroke-width="23"/>
</g>
<g filter="url(#filter1_f_11_249)">
<ellipse cx="17.5647" cy="138.174" rx="17.5647" ry="138.174" transform="matrix(0.832762 0.553631 0.299395 -0.954129 258.025 176.28)" fill="#1FC5D6"/>
</g>
<g style="mix-blend-mode:plus-lighter" filter="url(#filter2_f_11_249)">
<ellipse cx="10.9786" cy="138.174" rx="10.9786" ry="138.174" transform="matrix(0.832762 0.553631 0.299395 -0.954129 197 226.671)" fill="#E1D8F8"/>
</g>
<g filter="url(#filter3_f_11_249)">
<ellipse cx="11.1812" cy="138.174" rx="11.1812" ry="138.174" transform="matrix(0.832762 0.553631 0.299395 -0.954129 -13.3027 209.458)" fill="#1FC5D6"/>
</g>
<g filter="url(#filter4_f_11_249)">
<ellipse cx="88.2323" cy="275.208" rx="88.2323" ry="275.208" transform="matrix(-0.601435 -0.798922 -0.599471 0.800397 500.878 -30.4282)" fill="#171628"/>
</g>
</g>
<rect y="44" width="380" height="141" fill="url(#paint0_linear_11_249)"/>
<defs>
<filter id="filter0_f_11_249" x="-78.8866" y="-51.1039" width="589.655" height="325.671" filterUnits="userSpaceOnUse" color-interpolation-filters="sRGB">
<feFlood flood-opacity="0" result="BackgroundImageFix"/>
<feBlend mode="normal" in="SourceGraphic" in2="BackgroundImageFix" result="shape"/>
<feGaussianBlur stdDeviation="19.3" result="effect1_foregroundBlur_11_249"/>
</filter>
<filter id="filter1_f_11_249" x="224.53" y="-123.631" width="178.981" height="355.6" filterUnits="userSpaceOnUse" color-interpolation-filters="sRGB">
<feFlood flood-opacity="0" result="BackgroundImageFix"/>
<feBlend mode="normal" in="SourceGraphic" in2="BackgroundImageFix" result="shape"/>
<feGaussianBlur stdDeviation="22.8" result="effect1_foregroundBlur_11_249"/>
</filter>
<filter id="filter2_f_11_249" x="169.635" y="-66.5649" width="155.751" height="334.957" filterUnits="userSpaceOnUse" color-interpolation-filters="sRGB">
<feFlood flood-opacity="0" result="BackgroundImageFix"/>
<feBlend mode="normal" in="SourceGraphic" in2="BackgroundImageFix" result="shape"/>
<feGaussianBlur stdDeviation="17.75" result="effect1_foregroundBlur_11_249"/>
</filter>
<filter id="filter3_f_11_249" x="-50.6356" y="-93.7709" width="176.026" height="355.168" filterUnits="userSpaceOnUse" color-interpolation-filters="sRGB">
<feFlood flood-opacity="0" result="BackgroundImageFix"/>
<feBlend mode="normal" in="SourceGraphic" in2="BackgroundImageFix" result="shape"/>
<feGaussianBlur stdDeviation="22.8" result="effect1_foregroundBlur_11_249"/>
</filter>
<filter id="filter4_f_11_249" x="32.0829" y="-189.385" width="501.5" height="617.484" filterUnits="userSpaceOnUse" color-interpolation-filters="sRGB">
<feFlood flood-opacity="0" result="BackgroundImageFix"/>
<feBlend mode="normal" in="SourceGraphic" in2="BackgroundImageFix" result="shape"/>
<feGaussianBlur stdDeviation="38.7" result="effect1_foregroundBlur_11_249"/>
</filter>
<linearGradient id="paint0_linear_11_249" x1="190" y1="44" x2="190" y2="185" gradientUnits="userSpaceOnUse">
<stop stop-color="#04030C" stop-opacity="0"/>
<stop offset="1" stop-color="#04030C"/>
</linearGradient>
</defs>
</svg>
