<svg width="387" height="200" viewBox="0 0 387 200" fill="none" xmlns="http://www.w3.org/2000/svg">
<mask id="mask0_535_71" style="mask-type:alpha" maskUnits="userSpaceOnUse" x="7" y="6" width="374" height="187">
<path d="M7.20597 91V8.09091H39.9162C46.2045 8.09091 51.5618 9.2919 55.9879 11.6939C60.4141 14.0689 63.7876 17.375 66.1087 21.6122C68.4567 25.8224 69.6307 30.6804 69.6307 36.1861C69.6307 41.6918 68.4432 46.5497 66.0682 50.7599C63.6932 54.9702 60.2521 58.2493 55.745 60.5973C51.2649 62.9453 45.8402 64.1193 39.4709 64.1193H18.6222V50.0717H36.6371C40.0107 50.0717 42.7905 49.4915 44.9766 48.331C47.1896 47.1435 48.8359 45.5107 49.9155 43.4325C51.022 41.3274 51.5753 38.9119 51.5753 36.1861C51.5753 33.4332 51.022 31.0312 49.9155 28.9801C48.8359 26.902 47.1896 25.2962 44.9766 24.1626C42.7635 23.0021 39.9567 22.4219 36.5561 22.4219H24.7351V91H7.20597ZM81.0165 91V8.09091H98.5456V42.299H134.13V8.09091H151.619V91H134.13V56.7514H98.5456V91H81.0165ZM180.362 91H161.578L190.199 8.09091H212.789L241.369 91H222.585L201.818 27.0369H201.17L180.362 91ZM179.188 58.4112H223.557V72.0945H179.188V58.4112ZM294.433 31.9354C294.109 28.6697 292.719 26.1328 290.263 24.3246C287.807 22.5163 284.474 21.6122 280.263 21.6122C277.403 21.6122 274.987 22.017 273.017 22.8267C271.047 23.6094 269.536 24.7024 268.483 26.1058C267.457 27.5092 266.945 29.1016 266.945 30.8828C266.891 32.3672 267.201 33.6626 267.876 34.7692C268.577 35.8757 269.536 36.8338 270.75 37.6435C271.964 38.4261 273.368 39.1143 274.96 39.7081C276.553 40.2749 278.253 40.7607 280.061 41.1655L287.51 42.9467C291.126 43.7564 294.446 44.8359 297.469 46.1854C300.491 47.5348 303.109 49.1946 305.322 51.1648C307.536 53.1349 309.249 55.456 310.464 58.1278C311.705 60.7997 312.339 63.8629 312.366 67.3175C312.339 72.3913 311.044 76.7905 308.48 80.5149C305.943 84.2124 302.273 87.0866 297.469 89.1378C292.692 91.1619 286.93 92.174 280.183 92.174C273.489 92.174 267.66 91.1484 262.694 89.0973C257.755 87.0462 253.896 84.0099 251.116 79.9886C248.363 75.9403 246.919 70.9339 246.784 64.9695H263.746C263.935 67.7493 264.732 70.0703 266.135 71.9325C267.565 73.7678 269.468 75.1577 271.843 76.1023C274.245 77.0199 276.957 77.4787 279.98 77.4787C282.949 77.4787 285.526 77.0469 287.712 76.1832C289.925 75.3196 291.639 74.1186 292.854 72.5803C294.068 71.0419 294.675 69.2741 294.675 67.277C294.675 65.4148 294.122 63.8494 293.016 62.581C291.936 61.3125 290.344 60.233 288.239 59.3423C286.161 58.4517 283.61 57.642 280.587 56.9134L271.56 54.6463C264.57 52.946 259.05 50.2876 255.002 46.6712C250.954 43.0547 248.943 38.1832 248.97 32.0568C248.943 27.0369 250.279 22.6513 252.978 18.8999C255.704 15.1484 259.442 12.2202 264.192 10.1151C268.942 8.00994 274.339 6.95738 280.385 6.95738C286.538 6.95738 291.909 8.00994 296.497 10.1151C301.112 12.2202 304.702 15.1484 307.266 18.8999C309.83 22.6513 311.152 26.9964 311.233 31.9354H294.433ZM324.157 91V8.09091H380.024V22.5433H341.686V42.299H377.149V56.7514H341.686V76.5476H380.186V91H324.157ZM7.20597 191V108.091H62.1009V122.543H24.7351V142.299H58.4574V156.751H24.7351V191H7.20597ZM150.08 149.545C150.08 158.587 148.367 166.278 144.939 172.621C141.539 178.963 136.896 183.808 131.013 187.154C125.156 190.474 118.571 192.134 111.257 192.134C103.889 192.134 97.2772 190.46 91.4206 187.114C85.5641 183.767 80.9355 178.923 77.535 172.58C74.1344 166.238 72.4341 158.56 72.4341 149.545C72.4341 140.504 74.1344 132.812 77.535 126.47C80.9355 120.128 85.5641 115.297 91.4206 111.977C97.2772 108.631 103.889 106.957 111.257 106.957C118.571 106.957 125.156 108.631 131.013 111.977C136.896 115.297 141.539 120.128 144.939 126.47C148.367 132.812 150.08 140.504 150.08 149.545ZM132.308 149.545C132.308 143.689 131.431 138.75 129.677 134.729C127.95 130.707 125.507 127.658 122.35 125.58C119.192 123.501 115.494 122.462 111.257 122.462C107.02 122.462 103.323 123.501 100.165 125.58C97.0073 127.658 94.5513 130.707 92.7971 134.729C91.0698 138.75 90.2061 143.689 90.2061 149.545C90.2061 155.402 91.0698 160.341 92.7971 164.362C94.5513 168.384 97.0073 171.433 100.165 173.511C103.323 175.589 107.02 176.629 111.257 176.629C115.494 176.629 119.192 175.589 122.35 173.511C125.507 171.433 127.95 168.384 129.677 164.362C131.431 160.341 132.308 155.402 132.308 149.545ZM214.276 108.091H231.805V161.933C231.805 167.979 230.362 173.268 227.474 177.803C224.613 182.337 220.605 185.872 215.45 188.409C210.295 190.919 204.29 192.174 197.435 192.174C190.553 192.174 184.535 190.919 179.38 188.409C174.225 185.872 170.217 182.337 167.357 177.803C164.496 173.268 163.065 167.979 163.065 161.933V108.091H180.594V160.435C180.594 163.593 181.283 166.4 182.659 168.856C184.063 171.312 186.033 173.241 188.57 174.645C191.107 176.048 194.062 176.75 197.435 176.75C200.836 176.75 203.791 176.048 206.301 174.645C208.838 173.241 210.795 171.312 212.171 168.856C213.575 166.4 214.276 163.593 214.276 160.435V108.091ZM246.227 191V108.091H278.938C285.199 108.091 290.543 109.211 294.969 111.451C299.422 113.664 302.809 116.808 305.13 120.884C307.478 124.932 308.652 129.695 308.652 135.174C308.652 140.68 307.465 145.416 305.09 149.384C302.715 153.324 299.274 156.347 294.767 158.452C290.286 160.557 284.862 161.609 278.492 161.609H256.591V147.521H275.659C279.005 147.521 281.785 147.062 283.998 146.145C286.211 145.227 287.857 143.851 288.937 142.016C290.044 140.18 290.597 137.9 290.597 135.174C290.597 132.421 290.044 130.1 288.937 128.211C287.857 126.322 286.198 124.891 283.958 123.92C281.744 122.921 278.951 122.422 275.578 122.422H263.757V191H246.227ZM291.002 153.27L311.607 191H292.257L272.096 153.27H291.002Z" fill="#EFF0F3"/>
</mask>
<g mask="url(#mask0_535_71)">
<g filter="url(#filter0_f_535_71)">
<path d="M7.50213 155.651L52.9728 130.954M52.9728 130.954L132.543 146.253M52.9728 130.954L67.1147 93.8476M132.543 146.253L160.548 202.24M132.543 146.253L251.964 188.949L289.618 159.865M132.543 146.253L183.045 105.865M289.618 159.865L183.045 105.865M289.618 159.865L326.397 140.543M183.045 105.865L67.1147 93.8476M183.045 105.865L155.359 39.0823M67.1147 93.8476L46.83 25.0726M46.83 25.0726L155.359 39.0823M46.83 25.0726L-7.03766 -22.8098L36.6931 -25.5131L155.359 39.0823M263.887 53.092L335.794 38.7049M263.887 53.092L155.359 39.0823M263.887 53.092L419.815 136.936M263.887 53.092L96.9705 -29.3058L155.169 -30.1343M335.794 38.7049L155.169 -30.1343M335.794 38.7049L463.798 91.2461L419.815 136.936M155.169 -30.1343L33.4173 -86.6318M155.359 39.0823L326.397 140.543M326.397 140.543L419.815 136.936" stroke="#461DA3" stroke-width="23"/>
</g>
<g filter="url(#filter1_f_535_71)">
<ellipse cx="87.4549" cy="165.035" rx="87.4549" ry="165.035" transform="matrix(-0.958392 -0.285456 0.805272 0.592906 21.6318 77.9292)" fill="#1FC5D6"/>
</g>
<g filter="url(#filter2_f_535_71)">
<ellipse cx="47.2502" cy="165.035" rx="47.2502" ry="165.035" transform="matrix(-0.991374 -0.131064 0.888549 0.458781 158.807 29.3608)" fill="#1FC5D6"/>
</g>
<g style="mix-blend-mode:plus-lighter" filter="url(#filter3_f_535_71)">
<ellipse cx="10.9786" cy="138.174" rx="10.9786" ry="138.174" transform="matrix(-0.494401 0.869234 -0.696846 -0.717221 445.417 229.204)" fill="#E1D8F8"/>
</g>
</g>
<rect y="58" width="380" height="141" fill="url(#paint0_linear_535_71)"/>
<defs>
<filter id="filter0_f_535_71" x="-73.9418" y="-135.663" width="596.359" height="381.648" filterUnits="userSpaceOnUse" color-interpolation-filters="sRGB">
<feFlood flood-opacity="0" result="BackgroundImageFix"/>
<feBlend mode="normal" in="SourceGraphic" in2="BackgroundImageFix" result="shape"/>
<feGaussianBlur stdDeviation="19.3" result="effect1_foregroundBlur_535_71"/>
</filter>
<filter id="filter1_f_535_71" x="-132.028" y="4.20615" width="405.483" height="293.218" filterUnits="userSpaceOnUse" color-interpolation-filters="sRGB">
<feFlood flood-opacity="0" result="BackgroundImageFix"/>
<feBlend mode="normal" in="SourceGraphic" in2="BackgroundImageFix" result="shape"/>
<feGaussianBlur stdDeviation="22.8" result="effect1_foregroundBlur_535_71"/>
</filter>
<filter id="filter2_f_535_71" x="59.023" y="-22.6889" width="399.166" height="243.144" filterUnits="userSpaceOnUse" color-interpolation-filters="sRGB">
<feFlood flood-opacity="0" result="BackgroundImageFix"/>
<feBlend mode="normal" in="SourceGraphic" in2="BackgroundImageFix" result="shape"/>
<feGaussianBlur stdDeviation="22.8" result="effect1_foregroundBlur_535_71"/>
</filter>
<filter id="filter3_f_535_71" x="211.762" y="4.57861" width="263.883" height="270.133" filterUnits="userSpaceOnUse" color-interpolation-filters="sRGB">
<feFlood flood-opacity="0" result="BackgroundImageFix"/>
<feBlend mode="normal" in="SourceGraphic" in2="BackgroundImageFix" result="shape"/>
<feGaussianBlur stdDeviation="17.75" result="effect1_foregroundBlur_535_71"/>
</filter>
<linearGradient id="paint0_linear_535_71" x1="190" y1="58" x2="190" y2="199" gradientUnits="userSpaceOnUse">
<stop stop-color="#04030C" stop-opacity="0"/>
<stop offset="1" stop-color="#04030C"/>
</linearGradient>
</defs>
</svg>
