<svg width="378" height="200" viewBox="0 0 378 200" fill="none" xmlns="http://www.w3.org/2000/svg">
<mask id="mask0_11_250" style="mask-type:alpha" maskUnits="userSpaceOnUse" x="4" y="6" width="377" height="185">
<path d="M7.20597 91V8.09091H39.9162C46.2045 8.09091 51.5618 9.2919 55.9879 11.6939C60.4141 14.0689 63.7876 17.375 66.1087 21.6122C68.4567 25.8224 69.6307 30.6804 69.6307 36.1861C69.6307 41.6918 68.4432 46.5497 66.0682 50.7599C63.6932 54.9702 60.2521 58.2493 55.745 60.5973C51.2649 62.9453 45.8402 64.1193 39.4709 64.1193H18.6222V50.0717H36.6371C40.0107 50.0717 42.7905 49.4915 44.9766 48.331C47.1896 47.1435 48.8359 45.5107 49.9155 43.4325C51.022 41.3274 51.5753 38.9119 51.5753 36.1861C51.5753 33.4332 51.022 31.0312 49.9155 28.9801C48.8359 26.902 47.1896 25.2962 44.9766 24.1626C42.7635 23.0021 39.9567 22.4219 36.5561 22.4219H24.7351V91H7.20597ZM81.0165 91V8.09091H98.5456V42.299H134.13V8.09091H151.619V91H134.13V56.7514H98.5456V91H81.0165ZM180.362 91H161.578L190.199 8.09091H212.789L241.369 91H222.585L201.818 27.0369H201.17L180.362 91ZM179.188 58.4112H223.557V72.0945H179.188V58.4112ZM294.433 31.9354C294.109 28.6697 292.719 26.1328 290.263 24.3246C287.807 22.5163 284.474 21.6122 280.263 21.6122C277.403 21.6122 274.987 22.017 273.017 22.8267C271.047 23.6094 269.536 24.7024 268.483 26.1058C267.457 27.5092 266.945 29.1016 266.945 30.8828C266.891 32.3672 267.201 33.6626 267.876 34.7692C268.577 35.8757 269.536 36.8338 270.75 37.6435C271.964 38.4261 273.368 39.1143 274.96 39.7081C276.553 40.2749 278.253 40.7607 280.061 41.1655L287.51 42.9467C291.126 43.7564 294.446 44.8359 297.469 46.1854C300.491 47.5348 303.109 49.1946 305.322 51.1648C307.536 53.1349 309.249 55.456 310.464 58.1278C311.705 60.7997 312.339 63.8629 312.366 67.3175C312.339 72.3913 311.044 76.7905 308.48 80.5149C305.943 84.2124 302.273 87.0866 297.469 89.1378C292.692 91.1619 286.93 92.174 280.183 92.174C273.489 92.174 267.66 91.1484 262.694 89.0973C257.755 87.0462 253.896 84.0099 251.116 79.9886C248.363 75.9403 246.919 70.9339 246.784 64.9695H263.746C263.935 67.7493 264.732 70.0703 266.135 71.9325C267.565 73.7678 269.468 75.1577 271.843 76.1023C274.245 77.0199 276.957 77.4787 279.98 77.4787C282.949 77.4787 285.526 77.0469 287.712 76.1832C289.925 75.3196 291.639 74.1186 292.854 72.5803C294.068 71.0419 294.675 69.2741 294.675 67.277C294.675 65.4148 294.122 63.8494 293.016 62.581C291.936 61.3125 290.344 60.233 288.239 59.3423C286.161 58.4517 283.61 57.642 280.587 56.9134L271.56 54.6463C264.57 52.946 259.05 50.2876 255.002 46.6712C250.954 43.0547 248.943 38.1832 248.97 32.0568C248.943 27.0369 250.279 22.6513 252.978 18.8999C255.704 15.1484 259.442 12.2202 264.192 10.1151C268.942 8.00994 274.339 6.95738 280.385 6.95738C286.538 6.95738 291.909 8.00994 296.497 10.1151C301.112 12.2202 304.702 15.1484 307.266 18.8999C309.83 22.6513 311.152 26.9964 311.233 31.9354H294.433ZM324.157 91V8.09091H380.024V22.5433H341.686V42.299H377.149V56.7514H341.686V76.5476H380.186V91H324.157ZM4.0483 122.543V108.091H72.1406V122.543H46.7578V191H29.4311V122.543H4.0483ZM83.3544 191V108.091H100.884V142.299H136.468V108.091H153.957V191H136.468V156.751H100.884V191H83.3544ZM168.409 191V108.091H201.119C207.381 108.091 212.724 109.211 217.151 111.451C221.604 113.664 224.991 116.808 227.312 120.884C229.66 124.932 230.834 129.695 230.834 135.174C230.834 140.68 229.646 145.416 227.271 149.384C224.896 153.324 221.455 156.347 216.948 158.452C212.468 160.557 207.043 161.609 200.674 161.609H178.773V147.521H197.84C201.187 147.521 203.967 147.062 206.18 146.145C208.393 145.227 210.039 143.851 211.119 142.016C212.225 140.18 212.778 137.9 212.778 135.174C212.778 132.421 212.225 130.1 211.119 128.211C210.039 126.322 208.379 124.891 206.139 123.92C203.926 122.921 201.133 122.422 197.759 122.422H185.938V191H168.409ZM213.183 153.27L233.789 191H214.438L194.278 153.27H213.183ZM243.222 191V108.091H299.088V122.543H260.751V142.299H296.214V156.751H260.751V176.548H299.25V191H243.222ZM313.024 191V108.091H368.891V122.543H330.553V142.299H366.017V156.751H330.553V176.548H369.053V191H313.024Z" fill="#EFF0F3"/>
</mask>
<g mask="url(#mask0_11_250)">
<g filter="url(#filter0_f_11_250)">
<path d="M415.104 108.879L370.536 95.365M370.536 95.365L285.391 116.91M370.536 95.365L360.273 68.436M285.391 116.91L249.237 163.575M285.391 116.91L155.191 164.487L119.341 146.628M285.391 116.91L237.477 91.8925M119.341 146.628L237.477 91.8925M119.341 146.628L83.2114 136.203M237.477 91.8925L360.273 68.436M237.477 91.8925L274.618 36.9293M360.273 68.436L389.911 12.8392M389.911 12.8392L274.618 36.9293M389.911 12.8392L452.141 -30.7281L406.705 -27.4688L274.618 36.9293M159.324 61.0194L85.8298 58.7001M159.324 61.0194L274.618 36.9293M159.324 61.0194L-14.1139 144.84M159.324 61.0194L344.086 -23.0277L283.279 -16.5515M85.8298 58.7001L283.279 -16.5515M85.8298 58.7001L-54.5572 114.93L-14.1139 144.84M283.279 -16.5515L417.607 -75.0727M274.618 36.9293L83.2114 136.203M83.2114 136.203L-14.1139 144.84" stroke="#461DA3" stroke-width="23"/>
</g>
<g filter="url(#filter1_f_11_250)">
<ellipse cx="48.3427" cy="165.035" rx="48.3427" ry="165.035" transform="matrix(0.985143 0.171735 -0.985143 0.171735 410.166 74)" fill="#1FC5D6"/>
</g>
<g filter="url(#filter2_f_11_250)">
<ellipse cx="35.7113" cy="165.035" rx="35.7113" ry="165.035" transform="matrix(0.991374 -0.131064 -0.888549 0.458781 169.283 0.36084)" fill="#1FC5D6"/>
</g>
<g style="mix-blend-mode:plus-lighter" filter="url(#filter3_f_11_250)">
<ellipse cx="10.9786" cy="138.174" rx="10.9786" ry="138.174" transform="matrix(0.494401 0.869234 0.696846 -0.717221 -64 229.203)" fill="#E1D8F8"/>
</g>
</g>
<rect y="58" width="380" height="141" fill="url(#paint0_linear_11_250)"/>
<defs>
<filter id="filter0_f_11_250" x="-116.569" y="-124.216" width="647.999" height="339.803" filterUnits="userSpaceOnUse" color-interpolation-filters="sRGB">
<feFlood flood-opacity="0" result="BackgroundImageFix"/>
<feBlend mode="normal" in="SourceGraphic" in2="BackgroundImageFix" result="shape"/>
<feGaussianBlur stdDeviation="19.3" result="effect1_foregroundBlur_11_250"/>
</filter>
<filter id="filter1_f_11_250" x="80.1485" y="35.5035" width="430.118" height="150.282" filterUnits="userSpaceOnUse" color-interpolation-filters="sRGB">
<feFlood flood-opacity="0" result="BackgroundImageFix"/>
<feBlend mode="normal" in="SourceGraphic" in2="BackgroundImageFix" result="shape"/>
<feGaussianBlur stdDeviation="22.8" result="effect1_foregroundBlur_11_250"/>
</filter>
<filter id="filter2_f_11_250" x="-138.445" y="-50.0668" width="392.979" height="242.924" filterUnits="userSpaceOnUse" color-interpolation-filters="sRGB">
<feFlood flood-opacity="0" result="BackgroundImageFix"/>
<feBlend mode="normal" in="SourceGraphic" in2="BackgroundImageFix" result="shape"/>
<feGaussianBlur stdDeviation="22.8" result="effect1_foregroundBlur_11_250"/>
</filter>
<filter id="filter3_f_11_250" x="-94.2275" y="4.57764" width="263.883" height="270.133" filterUnits="userSpaceOnUse" color-interpolation-filters="sRGB">
<feFlood flood-opacity="0" result="BackgroundImageFix"/>
<feBlend mode="normal" in="SourceGraphic" in2="BackgroundImageFix" result="shape"/>
<feGaussianBlur stdDeviation="17.75" result="effect1_foregroundBlur_11_250"/>
</filter>
<linearGradient id="paint0_linear_11_250" x1="190" y1="58" x2="190" y2="199" gradientUnits="userSpaceOnUse">
<stop stop-color="#04030C" stop-opacity="0"/>
<stop offset="1" stop-color="#04030C"/>
</linearGradient>
</defs>
</svg>
