<svg width="310" height="200" viewBox="0 0 310 200" fill="none" xmlns="http://www.w3.org/2000/svg">
<mask id="mask0_535_103" style="mask-type:alpha" maskUnits="userSpaceOnUse" x="7" y="8" width="295" height="183">
<path d="M7.20597 91V8.09091H62.1009V22.5433H24.7351V42.299H58.4574V56.7514H24.7351V91H7.20597ZM125.102 8.09091H142.632V61.9332C142.632 67.9787 141.188 73.2685 138.3 77.8026C135.439 82.3366 131.431 85.8722 126.276 88.4091C121.122 90.919 115.117 92.174 108.262 92.174C101.379 92.174 95.361 90.919 90.2061 88.4091C85.0513 85.8722 81.0435 82.3366 78.1827 77.8026C75.3219 73.2685 73.8915 67.9787 73.8915 61.9332V8.09091H91.4206V60.4354C91.4206 63.593 92.1088 66.3999 93.4853 68.8558C94.8887 71.3118 96.8588 73.2415 99.3958 74.6449C101.933 76.0483 104.888 76.75 108.262 76.75C111.662 76.75 114.617 76.0483 117.127 74.6449C119.664 73.2415 121.621 71.3118 122.997 68.8558C124.401 66.3999 125.102 63.593 125.102 60.4354V8.09091ZM153.896 22.5433V8.09091H221.988V22.5433H196.605V91H179.279V22.5433H153.896ZM284.413 8.09091H301.942V61.9332C301.942 67.9787 300.498 73.2685 297.61 77.8026C294.75 82.3366 290.742 85.8722 285.587 88.4091C280.432 90.919 274.427 92.174 267.572 92.174C260.69 92.174 254.672 90.919 249.517 88.4091C244.362 85.8722 240.354 82.3366 237.493 77.8026C234.632 73.2685 233.202 67.9787 233.202 61.9332V8.09091H250.731V60.4354C250.731 63.593 251.419 66.3999 252.796 68.8558C254.199 71.3118 256.169 73.2415 258.706 74.6449C261.243 76.0483 264.199 76.75 267.572 76.75C270.973 76.75 273.928 76.0483 276.438 74.6449C278.975 73.2415 280.931 71.3118 282.308 68.8558C283.711 66.3999 284.413 63.593 284.413 60.4354V8.09091ZM7.20597 191V108.091H39.9162C46.1776 108.091 51.5213 109.211 55.9474 111.451C60.4006 113.664 63.7876 116.808 66.1087 120.884C68.4567 124.932 69.6307 129.695 69.6307 135.174C69.6307 140.68 68.4432 145.416 66.0682 149.384C63.6932 153.324 60.2521 156.347 55.745 158.452C51.2649 160.557 45.8402 161.609 39.4709 161.609H17.5696V147.521H36.6371C39.9837 147.521 42.7635 147.062 44.9766 146.145C47.1896 145.227 48.8359 143.851 49.9155 142.016C51.022 140.18 51.5753 137.9 51.5753 135.174C51.5753 132.421 51.022 130.1 49.9155 128.211C48.8359 126.322 47.1761 124.891 44.9361 123.92C42.723 122.921 39.9297 122.422 36.5561 122.422H24.7351V191H7.20597ZM51.9801 153.27L72.5859 191H53.2351L33.0746 153.27H51.9801ZM82.0185 191V108.091H137.885V122.543H99.5476V142.299H135.011V156.751H99.5476V176.548H138.047V191H82.0185Z" fill="#EFF0F3"/>
</mask>
<g mask="url(#mask0_535_103)">
<g filter="url(#filter0_f_535_103)">
<path d="M487.234 200.276L415.085 167.45M415.085 167.45L305.11 172.293M415.085 167.45L384.457 125.92M305.11 172.293L280.483 227.859M305.11 172.293L145.548 200.567L83.3994 164.194M305.11 172.293L221.371 122.041M83.3994 164.194L221.371 122.041M83.3994 164.194L25.2215 138.338M221.371 122.041L384.457 125.92M221.371 122.041L242.535 54.9369M384.457 125.92L394.442 55.6309M394.442 55.6309L242.535 54.9369M394.442 55.6309L458.452 12.4099L394.919 3.24414L242.535 54.9369M90.6286 54.243L-16.6037 28.5892M90.6286 54.243L242.535 54.9369M90.6286 54.243L-112.246 107.423M90.6286 54.243L307.329 -9.4607L223.548 -18.7113M-16.6037 28.5892L223.548 -18.7113M-16.6037 28.5892L-185.748 66.1084L-112.246 107.423M223.548 -18.7113L382.616 -61.3409M242.535 54.9369L25.2215 138.338M25.2215 138.338L-112.246 107.423" stroke="#461DA3" stroke-width="33"/>
</g>
<ellipse cx="98.1557" cy="275.144" rx="98.1557" ry="275.144" transform="matrix(0.98836 -0.152136 -0.934626 0.355633 794.314 57.8657)" fill="#1FC5D6"/>
<ellipse cx="61.1228" cy="275.144" rx="61.1228" ry="275.144" transform="matrix(0.98836 -0.152136 -0.934626 0.355633 794.314 57.8657)" fill="#5FE1EF"/>
<g filter="url(#filter3_f_535_103)">
<ellipse cx="86.4605" cy="308.15" rx="86.4605" ry="308.15" transform="matrix(0.921243 -0.388987 -0.829784 0.558084 403.396 -32.4873)" fill="#1FC5D6"/>
</g>
<g style="mix-blend-mode:plus-lighter" filter="url(#filter4_f_535_103)">
<ellipse cx="18.2999" cy="196.869" rx="18.2999" ry="196.869" transform="matrix(0.785148 0.619308 0.84803 -0.529948 -108.471 244.909)" fill="#E1D8F8"/>
</g>
<g style="mix-blend-mode:plus-lighter" filter="url(#filter5_f_535_103)">
<ellipse cx="14.1907" cy="211.03" rx="14.1907" ry="211.03" transform="matrix(0.740117 0.672478 0.882875 -0.469609 14 218.202)" fill="#E1D8F8"/>
</g>
</g>
<rect y="58" width="310" height="141" fill="url(#paint0_linear_535_103)"/>
<defs>
<filter id="filter0_f_535_103" x="-252.716" y="-103.056" width="781.887" height="367.092" filterUnits="userSpaceOnUse" color-interpolation-filters="sRGB">
<feFlood flood-opacity="0" result="BackgroundImageFix"/>
<feBlend mode="normal" in="SourceGraphic" in2="BackgroundImageFix" result="shape"/>
<feGaussianBlur stdDeviation="14.35" result="effect1_foregroundBlur_535_103"/>
</filter>
<filter id="filter3_f_535_103" x="-86.1391" y="-115.01" width="626.976" height="441.729" filterUnits="userSpaceOnUse" color-interpolation-filters="sRGB">
<feFlood flood-opacity="0" result="BackgroundImageFix"/>
<feBlend mode="normal" in="SourceGraphic" in2="BackgroundImageFix" result="shape"/>
<feGaussianBlur stdDeviation="22.8" result="effect1_foregroundBlur_535_103"/>
</filter>
<filter id="filter4_f_535_103" x="-130.229" y="11.4585" width="406.156" height="280.907" filterUnits="userSpaceOnUse" color-interpolation-filters="sRGB">
<feFlood flood-opacity="0" result="BackgroundImageFix"/>
<feBlend mode="normal" in="SourceGraphic" in2="BackgroundImageFix" result="shape"/>
<feGaussianBlur stdDeviation="17.75" result="effect1_foregroundBlur_535_103"/>
</filter>
<filter id="filter5_f_535_103" x="-11.2979" y="-6.42285" width="444.227" height="270.133" filterUnits="userSpaceOnUse" color-interpolation-filters="sRGB">
<feFlood flood-opacity="0" result="BackgroundImageFix"/>
<feBlend mode="normal" in="SourceGraphic" in2="BackgroundImageFix" result="shape"/>
<feGaussianBlur stdDeviation="17.75" result="effect1_foregroundBlur_535_103"/>
</filter>
<linearGradient id="paint0_linear_535_103" x1="155" y1="58" x2="155" y2="199" gradientUnits="userSpaceOnUse">
<stop stop-color="#04030C" stop-opacity="0"/>
<stop offset="1" stop-color="#04030C"/>
</linearGradient>
</defs>
</svg>
